<svg width="16" height="16" viewBox="0 0 16 16" fill="none" xmlns="http://www.w3.org/2000/svg">
<path d="M6.80683 9.83334C6.8688 9.89582 6.94254 9.94542 7.02378 9.97926C7.10502 10.0131 7.19215 10.0305 7.28016 10.0305C7.36817 10.0305 7.45531 10.0131 7.53655 9.97926C7.61779 9.94542 7.69152 9.89582 7.7535 9.83334L10.4735 7.11334C10.599 6.9878 10.6696 6.81754 10.6696 6.64C10.6696 6.46247 10.599 6.29221 10.4735 6.16667C10.348 6.04113 10.1777 5.97061 10.0002 5.97061C9.82263 5.97061 9.65237 6.04113 9.52683 6.16667L7.28016 8.42L6.4735 7.60667C6.34796 7.48113 6.1777 7.41061 6.00016 7.41061C5.82263 7.41061 5.65237 7.48113 5.52683 7.60667C5.40129 7.7322 5.33077 7.90247 5.33077 8.08C5.33077 8.25754 5.40129 8.4278 5.52683 8.55334L6.80683 9.83334ZM14.0002 1.33334H2.00016C1.82335 1.33334 1.65378 1.40357 1.52876 1.5286C1.40373 1.65362 1.3335 1.82319 1.3335 2V14C1.3335 14.1768 1.40373 14.3464 1.52876 14.4714C1.65378 14.5964 1.82335 14.6667 2.00016 14.6667H14.0002C14.177 14.6667 14.3465 14.5964 14.4716 14.4714C14.5966 14.3464 14.6668 14.1768 14.6668 14V2C14.6668 1.82319 14.5966 1.65362 14.4716 1.5286C14.3465 1.40357 14.177 1.33334 14.0002 1.33334ZM13.3335 13.3333H2.66683V2.66667H13.3335V13.3333Z" fill="#3864DD"/>
</svg>
