<svg width="32" height="32" viewBox="0 0 32 32" fill="none" xmlns="http://www.w3.org/2000/svg">
<path d="M13.5267 16.86C13.4642 16.922 13.4146 16.9957 13.3807 17.0769C13.3469 17.1582 13.3295 17.2453 13.3295 17.3333C13.3295 17.4213 13.3469 17.5085 13.3807 17.5897C13.4146 17.671 13.4642 17.7447 13.5267 17.8067L15.5267 19.8067C15.5886 19.8691 15.6624 19.9187 15.7436 19.9526C15.8249 19.9864 15.912 20.0039 16 20.0039C16.088 20.0039 16.1751 19.9864 16.2564 19.9526C16.3376 19.9187 16.4114 19.8691 16.4733 19.8067L18.4733 17.8067C18.5989 17.6811 18.6694 17.5109 18.6694 17.3333C18.6694 17.1558 18.5989 16.9855 18.4733 16.86C18.3478 16.7345 18.1775 16.6639 18 16.6639C17.8225 16.6639 17.6522 16.7345 17.5267 16.86L16.6667 17.7267V9.99999C16.6667 9.82318 16.5964 9.65361 16.4714 9.52859C16.3464 9.40357 16.1768 9.33333 16 9.33333C15.8232 9.33333 15.6536 9.40357 15.5286 9.52859C15.4036 9.65361 15.3333 9.82318 15.3333 9.99999V17.7267L14.4733 16.86C14.4114 16.7975 14.3376 16.7479 14.2564 16.7141C14.1751 16.6802 14.088 16.6628 14 16.6628C13.912 16.6628 13.8249 16.6802 13.7436 16.7141C13.6624 16.7479 13.5886 16.7975 13.5267 16.86ZM20 14H18.6667C18.4899 14 18.3203 14.0702 18.1953 14.1953C18.0702 14.3203 18 14.4899 18 14.6667C18 14.8435 18.0702 15.013 18.1953 15.1381C18.3203 15.2631 18.4899 15.3333 18.6667 15.3333H20C20.1768 15.3333 20.3464 15.4036 20.4714 15.5286C20.5964 15.6536 20.6667 15.8232 20.6667 16V20.6667C20.6667 20.8435 20.5964 21.013 20.4714 21.1381C20.3464 21.2631 20.1768 21.3333 20 21.3333H12C11.8232 21.3333 11.6536 21.2631 11.5286 21.1381C11.4036 21.013 11.3333 20.8435 11.3333 20.6667V16C11.3333 15.8232 11.4036 15.6536 11.5286 15.5286C11.6536 15.4036 11.8232 15.3333 12 15.3333H13.3333C13.5101 15.3333 13.6797 15.2631 13.8047 15.1381C13.9298 15.013 14 14.8435 14 14.6667C14 14.4899 13.9298 14.3203 13.8047 14.1953C13.6797 14.0702 13.5101 14 13.3333 14H12C11.4696 14 10.9609 14.2107 10.5858 14.5858C10.2107 14.9609 10 15.4696 10 16V20.6667C10 21.1971 10.2107 21.7058 10.5858 22.0809C10.9609 22.4559 11.4696 22.6667 12 22.6667H20C20.5304 22.6667 21.0391 22.4559 21.4142 22.0809C21.7893 21.7058 22 21.1971 22 20.6667V16C22 15.4696 21.7893 14.9609 21.4142 14.5858C21.0391 14.2107 20.5304 14 20 14Z" fill="#3864DD"/>
<rect x="0.5" y="0.5" width="31" height="31" rx="3.5" stroke="#3864DD"/>
</svg>
