<svg width="14" height="12" viewBox="0 0 14 12" fill="none" xmlns="http://www.w3.org/2000/svg">
<path d="M13.58 5.66669L10.58 0.473353C10.5213 0.371617 10.4367 0.287208 10.3348 0.228672C10.233 0.170137 10.1175 0.139554 10 0.14002H4C3.88253 0.139554 3.76702 0.170137 3.66517 0.228672C3.56332 0.287208 3.47874 0.371617 3.42 0.473353L0.420005 5.66669C0.361493 5.76803 0.330688 5.883 0.330688 6.00002C0.330688 6.11704 0.361493 6.23201 0.420005 6.33335L3.42 11.5267C3.47874 11.6284 3.56332 11.7128 3.66517 11.7714C3.76702 11.8299 3.88253 11.8605 4 11.86H10C10.1175 11.8605 10.233 11.8299 10.3348 11.7714C10.4367 11.7128 10.5213 11.6284 10.58 11.5267L13.58 6.33335C13.6385 6.23201 13.6693 6.11704 13.6693 6.00002C13.6693 5.883 13.6385 5.76803 13.58 5.66669ZM9.58001 10.5267H4.38667L1.76667 6.00002L4.38667 1.47335H9.61334L12.2333 6.00002L9.58001 10.5267Z" fill="#777777"/>
</svg>
