<svg width="16" height="16" viewBox="0 0 16 16" fill="none" xmlns="http://www.w3.org/2000/svg">
<path d="M15.0674 1.37467C15.0373 1.26048 14.9775 1.15633 14.894 1.07283C14.8105 0.989334 14.7063 0.92949 14.5921 0.89941C13.2246 0.544202 11.7845 0.58246 10.4377 1.00978C9.09088 1.4371 7.89215 2.2361 6.97952 3.31478L6.23623 4.19734L4.4997 3.77835C4.07753 3.63117 3.61636 3.64172 3.20135 3.80805C2.78635 3.97438 2.44555 4.28526 2.24189 4.68327L0.775093 7.2832C0.723699 7.37427 0.69445 7.47615 0.689711 7.58062C0.684972 7.68508 0.704875 7.78919 0.747813 7.88454C0.79075 7.97988 0.855517 8.06379 0.93688 8.12948C1.01824 8.19517 1.11392 8.2408 1.21617 8.26267L3.26467 8.7018C3.09114 9.23003 2.96724 9.77329 2.89456 10.3245C2.88138 10.4258 2.89164 10.5287 2.92455 10.6254C2.95745 10.7221 3.01212 10.8099 3.08433 10.8821L5.15107 12.9489C5.21294 13.0108 5.28642 13.0599 5.3673 13.0934C5.44817 13.127 5.53486 13.1442 5.6224 13.1442C5.64161 13.1442 5.66081 13.1432 5.68035 13.1416C6.24391 13.0909 6.80062 12.9814 7.34139 12.8149L7.77051 14.817C7.79244 14.9193 7.8381 15.0149 7.9038 15.0962C7.9695 15.1776 8.0534 15.2423 8.14873 15.2853C8.24407 15.3282 8.34816 15.3481 8.4526 15.3434C8.55705 15.3387 8.65893 15.3095 8.75001 15.2581L11.3535 13.7897C11.72 13.5671 12.0062 13.2338 12.1709 12.8379C12.3357 12.4421 12.3704 12.0041 12.2702 11.5872L11.8244 9.7479L12.6491 8.98956C13.7318 8.07948 14.5339 6.88069 14.962 5.53264C15.3901 4.18458 15.4267 2.74268 15.0674 1.37467ZM2.38154 7.14876L3.41897 5.30892C3.48341 5.18402 3.59319 5.0885 3.72581 5.04195C3.85842 4.99541 4.00382 5.00136 4.13219 5.0586L5.27713 5.33606L4.84379 5.85059C4.43297 6.34297 4.07764 6.87912 3.78425 7.44934L2.38154 7.14876ZM10.695 12.6302L8.88447 13.6513L8.59813 12.3149C9.17855 12.0254 9.7193 11.6625 10.2071 11.235L10.7027 10.7792L10.9717 11.889C11.0066 12.026 10.9988 12.1704 10.9493 12.3029C10.8999 12.4354 10.8112 12.5496 10.695 12.6302ZM11.7712 7.98667L9.31481 10.2442C8.34251 11.085 7.14322 11.6195 5.86787 11.7803L4.265 10.1774C4.48028 8.89875 5.03281 7.70066 5.86559 6.70676L6.98448 5.3783C7.00312 5.3588 7.02052 5.33815 7.03657 5.31646L7.99319 4.18067C8.70051 3.34527 9.61685 2.71254 10.6487 2.3471C11.6805 1.98166 12.7908 1.89659 13.8662 2.10059C14.0752 3.1794 13.991 4.2945 13.6225 5.32974C13.2541 6.36497 12.6147 7.28247 11.7712 7.98667ZM11.1559 3.8775C10.9581 3.8775 10.7647 3.93615 10.6003 4.04603C10.4358 4.15591 10.3077 4.31209 10.232 4.49481C10.1563 4.67754 10.1365 4.87861 10.1751 5.07259C10.2137 5.26657 10.3089 5.44475 10.4487 5.5846C10.5886 5.72446 10.7668 5.8197 10.9608 5.85828C11.1547 5.89687 11.3558 5.87706 11.5385 5.80138C11.7213 5.72569 11.8774 5.59752 11.9873 5.43307C12.0972 5.26862 12.1559 5.07528 12.1559 4.8775C12.1559 4.74617 12.13 4.61613 12.0797 4.49479C12.0295 4.37346 11.9558 4.26322 11.863 4.17036C11.7701 4.07749 11.6599 4.00383 11.5385 3.95358C11.4172 3.90333 11.2872 3.87747 11.1558 3.87748L11.1559 3.8775Z" fill="#777777"/>
</svg>
