<svg width="12" height="16" viewBox="0 0 12 16" fill="none" xmlns="http://www.w3.org/2000/svg">
<path d="M9.39332 1.87999C8.78018 1.37572 8.06219 1.01468 7.29175 0.823224C6.52131 0.631767 5.71785 0.614721 4.93998 0.773328C3.90423 0.982543 2.95397 1.49471 2.20977 2.24485C1.46557 2.99499 0.960963 3.94928 0.759981 4.98666C0.613213 5.76448 0.639883 6.56509 0.83809 7.33142C1.0363 8.09774 1.40116 8.81089 1.90665 9.42C2.37577 9.94937 2.64467 10.6263 2.66665 11.3333V13.3333C2.66665 13.8638 2.87736 14.3725 3.25243 14.7475C3.62751 15.1226 4.13622 15.3333 4.66665 15.3333H7.33331C7.86375 15.3333 8.37246 15.1226 8.74753 14.7475C9.1226 14.3725 9.33331 13.8638 9.33331 13.3333V11.46C9.35569 10.6794 9.64246 9.92962 10.1466 9.33333C11.0301 8.24051 11.4465 6.84321 11.3054 5.44508C11.1644 4.04695 10.4772 2.76099 9.39332 1.86666V1.87999ZM7.99998 13.3333C7.99998 13.5101 7.92974 13.6797 7.80472 13.8047C7.6797 13.9298 7.51013 14 7.33331 14H4.66665C4.48984 14 4.32027 13.9298 4.19524 13.8047C4.07022 13.6797 3.99998 13.5101 3.99998 13.3333V12.6667H7.99998V13.3333ZM9.11332 8.50666C8.44299 9.30173 8.05189 10.2947 7.99998 11.3333H6.66665V9.33333C6.66665 9.15652 6.59641 8.98695 6.47139 8.86192C6.34636 8.7369 6.17679 8.66666 5.99998 8.66666C5.82317 8.66666 5.6536 8.7369 5.52858 8.86192C5.40355 8.98695 5.33331 9.15652 5.33331 9.33333V11.3333H3.99998C3.98239 10.3121 3.60461 9.32984 2.93332 8.56C2.49041 8.02933 2.19258 7.39294 2.06886 6.71289C1.94513 6.03284 1.99975 5.33234 2.22737 4.67968C2.455 4.02702 2.84786 3.44449 3.36766 2.98888C3.88746 2.53327 4.51646 2.22013 5.19332 2.07999C5.77502 1.96022 6.37609 1.97149 6.95289 2.11297C7.5297 2.25446 8.06776 2.52261 8.52801 2.89796C8.98827 3.27332 9.35916 3.74645 9.61377 4.28301C9.86837 4.81957 10.0003 5.40609 9.99998 6C10.0049 6.91324 9.69137 7.79964 9.11332 8.50666Z" fill="#777777"/>
</svg>
