<svg width="14" height="14" viewBox="0 0 14 14" fill="none" xmlns="http://www.w3.org/2000/svg">
<path d="M7.00001 6.33331C6.8232 6.33331 6.65363 6.40355 6.52861 6.52858C6.40358 6.6536 6.33335 6.82317 6.33335 6.99998V9.66665C6.33335 9.84346 6.40358 10.013 6.52861 10.1381C6.65363 10.2631 6.8232 10.3333 7.00001 10.3333C7.17682 10.3333 7.34639 10.2631 7.47142 10.1381C7.59644 10.013 7.66668 9.84346 7.66668 9.66665V6.99998C7.66668 6.82317 7.59644 6.6536 7.47142 6.52858C7.34639 6.40355 7.17682 6.33331 7.00001 6.33331ZM7.25335 3.71998C7.09104 3.6533 6.90899 3.6533 6.74668 3.71998C6.66485 3.75171 6.59008 3.79929 6.52668 3.85998C6.46779 3.92478 6.42044 3.99919 6.38668 4.07998C6.34936 4.1591 6.33109 4.24586 6.33335 4.33331C6.33284 4.42105 6.34966 4.50803 6.38283 4.58925C6.41601 4.67048 6.46489 4.74435 6.52668 4.80665C6.59148 4.86553 6.66589 4.91289 6.74668 4.94665C6.84768 4.98814 6.95732 5.00419 7.06598 4.99339C7.17463 4.98259 7.27897 4.94526 7.36982 4.88469C7.46067 4.82412 7.53526 4.74217 7.58702 4.64603C7.63878 4.54989 7.66614 4.4425 7.66668 4.33331C7.66422 4.1568 7.59517 3.98774 7.47335 3.85998C7.40994 3.79929 7.33518 3.75171 7.25335 3.71998ZM7.00001 0.333313C5.68147 0.333313 4.39254 0.724306 3.29621 1.45685C2.19988 2.18939 1.3454 3.23058 0.840816 4.44876C0.336232 5.66693 0.20421 7.00738 0.461445 8.30058C0.718679 9.59379 1.35362 10.7817 2.28597 11.714C3.21832 12.6464 4.4062 13.2813 5.69941 13.5385C6.99262 13.7958 8.33306 13.6638 9.55124 13.1592C10.7694 12.6546 11.8106 11.8001 12.5431 10.7038C13.2757 9.60745 13.6667 8.31852 13.6667 6.99998C13.6667 6.1245 13.4942 5.25759 13.1592 4.44876C12.8242 3.63992 12.3331 2.90499 11.7141 2.28593C11.095 1.66688 10.3601 1.17581 9.55124 0.840783C8.7424 0.505751 7.87549 0.333313 7.00001 0.333313ZM7.00001 12.3333C5.94518 12.3333 4.91403 12.0205 4.03697 11.4345C3.15991 10.8484 2.47632 10.0155 2.07266 9.04096C1.66899 8.06642 1.56337 6.99406 1.76916 5.9595C1.97495 4.92493 2.4829 3.97462 3.22878 3.22874C3.97466 2.48286 4.92497 1.97491 5.95953 1.76912C6.9941 1.56334 8.06645 1.66895 9.04099 2.07262C10.0155 2.47629 10.8485 3.15988 11.4345 4.03694C12.0206 4.914 12.3333 5.94515 12.3333 6.99998C12.3333 8.41447 11.7714 9.77102 10.7712 10.7712C9.77106 11.7714 8.4145 12.3333 7.00001 12.3333Z" fill="#777777"/>
</svg>
