<svg width="14" height="14" viewBox="0 0 14 14" fill="none" xmlns="http://www.w3.org/2000/svg">
<path d="M6.99992 6.33331C6.82311 6.33331 6.65354 6.40355 6.52852 6.52858C6.40349 6.6536 6.33326 6.82317 6.33326 6.99998V9.66665C6.33326 9.84346 6.40349 10.013 6.52852 10.1381C6.65354 10.2631 6.82311 10.3333 6.99992 10.3333C7.17673 10.3333 7.3463 10.2631 7.47133 10.1381C7.59635 10.013 7.66659 9.84346 7.66659 9.66665V6.99998C7.66659 6.82317 7.59635 6.6536 7.47133 6.52858C7.3463 6.40355 7.17673 6.33331 6.99992 6.33331ZM7.25326 3.71998C7.09095 3.6533 6.9089 3.6533 6.74659 3.71998C6.66475 3.75171 6.58999 3.79929 6.52659 3.85998C6.4677 3.92478 6.42035 3.99919 6.38659 4.07998C6.34927 4.1591 6.331 4.24586 6.33326 4.33331C6.33275 4.42105 6.34957 4.50803 6.38274 4.58925C6.41592 4.67048 6.4648 4.74435 6.52659 4.80665C6.59139 4.86553 6.6658 4.91289 6.74659 4.94665C6.84759 4.98814 6.95723 5.00419 7.06589 4.99339C7.17454 4.98259 7.27888 4.94526 7.36973 4.88469C7.46058 4.82412 7.53517 4.74217 7.58693 4.64603C7.63869 4.54989 7.66604 4.4425 7.66659 4.33331C7.66413 4.1568 7.59508 3.98774 7.47326 3.85998C7.40985 3.79929 7.33509 3.75171 7.25326 3.71998ZM6.99992 0.333313C5.68138 0.333313 4.39245 0.724306 3.29612 1.45685C2.19979 2.18939 1.34531 3.23058 0.840725 4.44876C0.336141 5.66693 0.204118 7.00738 0.461353 8.30058C0.718588 9.59379 1.35353 10.7817 2.28588 11.714C3.21823 12.6464 4.40611 13.2813 5.69932 13.5385C6.99253 13.7958 8.33297 13.6638 9.55115 13.1592C10.7693 12.6546 11.8105 11.8001 12.5431 10.7038C13.2756 9.60745 13.6666 8.31852 13.6666 6.99998C13.6666 6.1245 13.4942 5.25759 13.1591 4.44876C12.8241 3.63992 12.333 2.90499 11.714 2.28593C11.0949 1.66688 10.36 1.17581 9.55115 0.840783C8.74231 0.505751 7.8754 0.333313 6.99992 0.333313ZM6.99992 12.3333C5.94509 12.3333 4.91394 12.0205 4.03688 11.4345C3.15982 10.8484 2.47623 10.0155 2.07256 9.04096C1.6689 8.06642 1.56328 6.99406 1.76907 5.9595C1.97485 4.92493 2.48281 3.97462 3.22869 3.22874C3.97457 2.48286 4.92487 1.97491 5.95944 1.76912C6.99401 1.56334 8.06636 1.66895 9.0409 2.07262C10.0154 2.47629 10.8484 3.15988 11.4344 4.03694C12.0205 4.914 12.3333 5.94515 12.3333 6.99998C12.3333 8.41447 11.7714 9.77102 10.7712 10.7712C9.77096 11.7714 8.41441 12.3333 6.99992 12.3333Z" fill="#777777"/>
</svg>
