<svg width="14" height="14" viewBox="0 0 14 14" fill="none" xmlns="http://www.w3.org/2000/svg">
<path d="M13.0467 10.22L11.6667 8.80667C11.3698 8.52451 10.9954 8.33755 10.5915 8.26984C10.1876 8.20212 9.77265 8.25674 9.40001 8.42667L8.80001 7.82667C9.50705 6.88195 9.82995 5.70446 9.70371 4.53123C9.57747 3.358 9.01146 2.27616 8.11963 1.50347C7.2278 0.73079 6.07637 0.324645 4.89712 0.366796C3.71788 0.408948 2.59838 0.896267 1.76399 1.73065C0.929608 2.56504 0.442289 3.68454 0.400137 4.86378C0.357985 6.04303 0.764131 7.19446 1.53681 8.08629C2.3095 8.97812 3.39134 9.54413 4.56457 9.67037C5.7378 9.79661 6.91529 9.47371 7.86001 8.76667L8.45335 9.36001C8.26341 9.7331 8.19533 10.1564 8.25873 10.5702C8.32211 10.984 8.51377 11.3675 8.80668 11.6667L10.22 13.08C10.595 13.4545 11.1033 13.6649 11.6333 13.6649C12.1634 13.6649 12.6717 13.4545 13.0467 13.08C13.2372 12.8937 13.3885 12.6713 13.4919 12.4257C13.5952 12.1802 13.6484 11.9164 13.6484 11.65C13.6484 11.3836 13.5952 11.1198 13.4919 10.8743C13.3885 10.6287 13.2372 10.4063 13.0467 10.22ZM7.39335 7.39334C6.92684 7.85867 6.33288 8.17531 5.68651 8.30324C5.04013 8.43118 4.37034 8.36467 3.76175 8.11213C3.15315 7.85959 2.63305 7.43235 2.26716 6.88437C1.90126 6.33638 1.70597 5.69225 1.70597 5.03334C1.70597 4.37443 1.90126 3.7303 2.26716 3.18232C2.63305 2.63433 3.15315 2.20709 3.76175 1.95455C4.37034 1.70201 5.04013 1.63551 5.68651 1.76344C6.33288 1.89138 6.92684 2.20801 7.39335 2.67334C7.70377 2.98298 7.95005 3.35082 8.1181 3.75578C8.28614 4.16075 8.37264 4.59489 8.37264 5.03334C8.37264 5.47179 8.28614 5.90593 8.1181 6.3109C7.95005 6.71587 7.70377 7.0837 7.39335 7.39334ZM12.1067 12.1067C12.0447 12.1692 11.971 12.2188 11.8897 12.2526C11.8085 12.2864 11.7214 12.3039 11.6333 12.3039C11.5453 12.3039 11.4582 12.2864 11.377 12.2526C11.2957 12.2188 11.222 12.1692 11.16 12.1067L9.74668 10.6933C9.6842 10.6314 9.6346 10.5576 9.60075 10.4764C9.56691 10.3952 9.54948 10.308 9.54948 10.22C9.54948 10.132 9.56691 10.0449 9.60075 9.96362C9.6346 9.88238 9.6842 9.80865 9.74668 9.74667C9.80866 9.68419 9.88239 9.63459 9.96363 9.60075C10.0449 9.5669 10.132 9.54947 10.22 9.54947C10.308 9.54947 10.3952 9.5669 10.4764 9.60075C10.5576 9.63459 10.6314 9.68419 10.6933 9.74667L12.1067 11.16C12.1692 11.222 12.2188 11.2957 12.2526 11.377C12.2865 11.4582 12.3039 11.5453 12.3039 11.6333C12.3039 11.7213 12.2865 11.8085 12.2526 11.8897C12.2188 11.971 12.1692 12.0447 12.1067 12.1067Z" fill="#777777"/>
</svg>
