<svg width="14" height="14" viewBox="0 0 14 14" fill="none" xmlns="http://www.w3.org/2000/svg">
<path d="M13.6667 6.33333C13.6685 5.86344 13.5462 5.4014 13.3121 4.99399C13.0779 4.58658 12.7403 4.24828 12.3333 4.01333C12.3434 3.898 12.3434 3.78201 12.3333 3.66667C12.3333 3.13623 12.1226 2.62753 11.7476 2.25245C11.3725 1.87738 10.8638 1.66667 10.3333 1.66667H10.2133C10.1023 1.35888 9.91749 1.08302 9.67504 0.863299C9.43259 0.643575 9.13993 0.48669 8.82273 0.406404C8.50553 0.326117 8.17348 0.32488 7.85569 0.402801C7.53791 0.480723 7.24409 0.635422 7.00001 0.853334C6.75593 0.635422 6.46211 0.480723 6.14433 0.402801C5.82654 0.32488 5.49449 0.326117 5.17729 0.406404C4.86009 0.48669 4.56743 0.643575 4.32498 0.863299C4.08253 1.08302 3.89769 1.35888 3.78668 1.66667H3.66668C3.13624 1.66667 2.62754 1.87738 2.25246 2.25245C1.87739 2.62753 1.66668 3.13623 1.66668 3.66667C1.65664 3.78201 1.65664 3.898 1.66668 4.01333C1.28832 4.2272 0.967964 4.5303 0.733503 4.89625C0.499043 5.2622 0.357582 5.67992 0.321435 6.11303C0.285287 6.54614 0.355549 6.98152 0.526103 7.38128C0.696658 7.78103 0.962336 8.13304 1.30001 8.40667C1.08152 8.81418 0.972753 9.2715 0.984373 9.73374C0.995994 10.196 1.12761 10.6472 1.36629 11.0433C1.60498 11.4393 1.94253 11.7664 2.34583 11.9926C2.74913 12.2188 3.2043 12.3362 3.66668 12.3333H3.78668C3.89769 12.6411 4.08253 12.917 4.32498 13.1367C4.56743 13.3564 4.86009 13.5133 5.17729 13.5936C5.49449 13.6739 5.82654 13.6751 6.14433 13.5972C6.46211 13.5193 6.75593 13.3646 7.00001 13.1467C7.24409 13.3646 7.53791 13.5193 7.85569 13.5972C8.17348 13.6751 8.50553 13.6739 8.82273 13.5936C9.13993 13.5133 9.43259 13.3564 9.67504 13.1367C9.91749 12.917 10.1023 12.6411 10.2133 12.3333H10.3333C10.7929 12.3304 11.2439 12.2088 11.6426 11.9803C12.0413 11.7517 12.3742 11.424 12.609 11.029C12.8437 10.6339 12.9724 10.1849 12.9825 9.7254C12.9926 9.26595 12.8838 8.81169 12.6667 8.40667C12.9776 8.15771 13.2289 7.84225 13.4019 7.48346C13.575 7.12467 13.6654 6.73167 13.6667 6.33333ZM6.33334 4.7C6.18814 4.61695 6.03655 4.54562 5.88001 4.48667C5.71204 4.43009 5.52847 4.44255 5.36969 4.52132C5.21091 4.60008 5.08992 4.7387 5.03334 4.90667C4.97676 5.07464 4.98923 5.2582 5.06799 5.41699C5.14676 5.57577 5.28537 5.69675 5.45334 5.75333C5.70997 5.84611 5.93195 6.01539 6.08932 6.23833C6.24669 6.46127 6.33186 6.72712 6.33334 7V8.03333C6.18814 7.95029 6.03655 7.87895 5.88001 7.82C5.71204 7.76342 5.52847 7.77589 5.36969 7.85465C5.21091 7.93342 5.08992 8.07203 5.03334 8.24C4.97676 8.40797 4.98923 8.59154 5.06799 8.75032C5.14676 8.9091 5.28537 9.03009 5.45334 9.08667C5.70997 9.17944 5.93195 9.34873 6.08932 9.57166C6.24669 9.7946 6.33186 10.0605 6.33334 10.3333V11.6667C6.33334 11.8435 6.2631 12.013 6.13808 12.1381C6.01306 12.2631 5.84349 12.3333 5.66668 12.3333C5.5377 12.3325 5.41173 12.2943 5.30405 12.2233C5.19637 12.1523 5.1116 12.0515 5.06001 11.9333C5.17179 11.8677 5.27873 11.7942 5.38001 11.7133C5.44742 11.6573 5.50314 11.5885 5.54398 11.511C5.58481 11.4334 5.60998 11.3486 5.61802 11.2613C5.62607 11.174 5.61685 11.086 5.59088 11.0023C5.56491 10.9185 5.52271 10.8407 5.46668 10.7733C5.41065 10.7059 5.34189 10.6502 5.26432 10.6094C5.18676 10.5685 5.10191 10.5434 5.01463 10.5353C4.92734 10.5273 4.83932 10.5365 4.7556 10.5625C4.67188 10.5884 4.59409 10.6306 4.52668 10.6867C4.28596 10.8893 3.98133 11.0003 3.66668 11C3.31305 11 2.97392 10.8595 2.72387 10.6095C2.47382 10.3594 2.33334 10.0203 2.33334 9.66667C2.33653 9.41573 2.41048 9.17079 2.54668 8.96C2.69629 8.98684 2.84801 9.00022 3.00001 9C3.17682 9 3.34639 8.92976 3.47141 8.80474C3.59644 8.67971 3.66668 8.51015 3.66668 8.33333C3.66668 8.15652 3.59644 7.98695 3.47141 7.86193C3.34639 7.73691 3.17682 7.66667 3.00001 7.66667C2.84253 7.66757 2.68636 7.63815 2.54001 7.58C2.30024 7.49353 2.09028 7.34014 1.935 7.13801C1.77973 6.93587 1.68564 6.69347 1.6639 6.43951C1.64215 6.18555 1.69365 5.93068 1.8123 5.70509C1.93094 5.4795 2.11177 5.29265 2.33334 5.16667C2.42808 5.25383 2.53074 5.33194 2.64001 5.4C2.79384 5.48841 2.97648 5.51208 3.14776 5.46583C3.31905 5.41957 3.46494 5.30716 3.55334 5.15333C3.64175 4.99951 3.66543 4.81686 3.61917 4.64558C3.57291 4.4743 3.4605 4.32841 3.30668 4.24C3.21283 4.18823 3.13456 4.11226 3.08001 4.02C3.01837 3.91297 2.99049 3.78981 3.00001 3.66667C3.00001 3.48986 3.07025 3.32029 3.19527 3.19526C3.3203 3.07024 3.48987 3 3.66668 3C3.71312 2.99352 3.76023 2.99352 3.80668 3C3.84197 3.10711 3.88428 3.21179 3.93334 3.31333C3.9769 3.38973 4.03513 3.45675 4.1047 3.51054C4.17426 3.56433 4.25378 3.60382 4.33867 3.62675C4.42357 3.64968 4.51216 3.65558 4.59934 3.64413C4.68653 3.63267 4.77059 3.60408 4.84668 3.56C4.99448 3.47107 5.10206 3.32832 5.14682 3.16173C5.19157 2.99514 5.17001 2.81769 5.08668 2.66667C5.03074 2.5644 5.00097 2.44989 5.00001 2.33333C5.00001 2.15652 5.07025 1.98695 5.19527 1.86193C5.3203 1.73691 5.48987 1.66667 5.66668 1.66667C5.84349 1.66667 6.01306 1.73691 6.13808 1.86193C6.2631 1.98695 6.33334 2.15652 6.33334 2.33333V4.7ZM11.46 7.58C11.3137 7.63815 11.1575 7.66757 11 7.66667C10.8232 7.66667 10.6536 7.73691 10.5286 7.86193C10.4036 7.98695 10.3333 8.15652 10.3333 8.33333C10.3333 8.51015 10.4036 8.67971 10.5286 8.80474C10.6536 8.92976 10.8232 9 11 9C11.152 9.00022 11.3037 8.98684 11.4533 8.96C11.5895 9.17079 11.6635 9.41573 11.6667 9.66667C11.6667 10.0203 11.5262 10.3594 11.2762 10.6095C11.0261 10.8595 10.687 11 10.3333 11C10.0187 11.0003 9.71406 10.8893 9.47334 10.6867C9.3372 10.5735 9.16168 10.5191 8.98539 10.5353C8.80911 10.5516 8.6465 10.6372 8.53334 10.7733C8.42018 10.9095 8.36574 11.085 8.382 11.2613C8.39825 11.4376 8.48387 11.6002 8.62001 11.7133C8.72128 11.7942 8.82823 11.8677 8.94001 11.9333C8.88842 12.0515 8.80365 12.1523 8.69597 12.2233C8.58828 12.2943 8.46232 12.3325 8.33334 12.3333C8.15653 12.3333 7.98696 12.2631 7.86194 12.1381C7.73691 12.013 7.66668 11.8435 7.66668 11.6667V10.3333C7.66816 10.0605 7.75333 9.7946 7.9107 9.57166C8.06807 9.34873 8.29005 9.17944 8.54668 9.08667C8.71465 9.03009 8.85326 8.9091 8.93203 8.75032C9.01079 8.59154 9.02326 8.40797 8.96668 8.24C8.9101 8.07203 8.78911 7.93342 8.63033 7.85465C8.47155 7.77589 8.28798 7.76342 8.12001 7.82C7.96347 7.87895 7.81188 7.95029 7.66668 8.03333V7C7.66816 6.72712 7.75333 6.46127 7.9107 6.23833C8.06807 6.01539 8.29005 5.84611 8.54668 5.75333C8.71465 5.69675 8.85326 5.57577 8.93203 5.41699C9.01079 5.2582 9.02326 5.07464 8.96668 4.90667C8.9101 4.7387 8.78911 4.60008 8.63033 4.52132C8.47155 4.44255 8.28798 4.43009 8.12001 4.48667C7.96347 4.54562 7.81188 4.61695 7.66668 4.7V2.33333C7.66668 2.15652 7.73691 1.98695 7.86194 1.86193C7.98696 1.73691 8.15653 1.66667 8.33334 1.66667C8.51015 1.66667 8.67972 1.73691 8.80475 1.86193C8.92977 1.98695 9.00001 2.15652 9.00001 2.33333C8.99905 2.44989 8.96928 2.5644 8.91334 2.66667C8.86899 2.74236 8.84001 2.82606 8.82807 2.91297C8.81612 2.99989 8.82145 3.0883 8.84375 3.17315C8.86605 3.258 8.90487 3.33762 8.958 3.40743C9.01112 3.47725 9.07751 3.53589 9.15334 3.58C9.22943 3.62408 9.31349 3.65267 9.40068 3.66413C9.48786 3.67558 9.57645 3.66968 9.66135 3.64675C9.74624 3.62382 9.82576 3.58433 9.89532 3.53054C9.96489 3.47675 10.0231 3.40973 10.0667 3.33333C10.1166 3.22529 10.1589 3.11391 10.1933 3C10.2398 2.99352 10.2869 2.99352 10.3333 3C10.5102 3 10.6797 3.07024 10.8047 3.19526C10.9298 3.32029 11 3.48986 11 3.66667C10.999 3.79736 10.9596 3.92486 10.8867 4.03333C10.8322 4.11985 10.7564 4.19099 10.6667 4.24C10.5129 4.32841 10.4004 4.4743 10.3542 4.64558C10.3079 4.81686 10.3316 4.99951 10.42 5.15333C10.5084 5.30716 10.6543 5.41957 10.8256 5.46583C10.9969 5.51208 11.1795 5.48841 11.3333 5.4C11.453 5.33527 11.5649 5.25698 11.6667 5.16667C11.889 5.29042 12.0713 5.47522 12.192 5.69922C12.3127 5.92323 12.3668 6.1771 12.3478 6.43085C12.3289 6.6846 12.2378 6.92764 12.0852 7.13126C11.9326 7.33489 11.7249 7.4906 11.4867 7.58H11.46Z" fill="#777777"/>
</svg>
