<svg width="14" height="14" viewBox="0 0 14 14" fill="none" xmlns="http://www.w3.org/2000/svg">
<path d="M8.81338 4.86L5.95338 7.72667L4.85338 6.62667C4.79361 6.55688 4.72007 6.5002 4.63736 6.46018C4.55465 6.42017 4.46456 6.39768 4.37275 6.39414C4.28093 6.39059 4.18938 6.40606 4.10383 6.43958C4.01828 6.47309 3.94058 6.52393 3.87561 6.5889C3.81064 6.65387 3.7598 6.73157 3.72629 6.81712C3.69277 6.90267 3.6773 6.99422 3.68084 7.08604C3.68439 7.17785 3.70688 7.26794 3.74689 7.35065C3.78691 7.43336 3.84359 7.5069 3.91338 7.56667L5.48004 9.14C5.54234 9.20179 5.61621 9.25067 5.69744 9.28385C5.77866 9.31702 5.86564 9.33384 5.95338 9.33333C6.12827 9.3326 6.29587 9.26316 6.42004 9.14L9.75338 5.80667C9.81586 5.74469 9.86546 5.67096 9.89931 5.58972C9.93315 5.50848 9.95058 5.42134 9.95058 5.33333C9.95058 5.24533 9.93315 5.15819 9.89931 5.07695C9.86546 4.99571 9.81586 4.92198 9.75338 4.86C9.62847 4.73583 9.4595 4.66614 9.28338 4.66614C9.10725 4.66614 8.93829 4.73583 8.81338 4.86ZM7.00004 0.333334C5.6815 0.333334 4.39257 0.724327 3.29624 1.45687C2.19991 2.18941 1.34543 3.2306 0.840847 4.44878C0.336263 5.66695 0.20424 7.0074 0.461475 8.3006C0.71871 9.59381 1.35365 10.7817 2.286 11.714C3.21835 12.6464 4.40624 13.2813 5.69944 13.5386C6.99265 13.7958 8.33309 13.6638 9.55127 13.1592C10.7694 12.6546 11.8106 11.8001 12.5432 10.7038C13.2757 9.60747 13.6667 8.31854 13.6667 7C13.6667 6.12452 13.4943 5.25762 13.1592 4.44878C12.8242 3.63994 12.3331 2.90501 11.7141 2.28596C11.095 1.6669 10.3601 1.17584 9.55127 0.840804C8.74243 0.505772 7.87552 0.333334 7.00004 0.333334ZM7.00004 12.3333C5.94521 12.3333 4.91406 12.0205 4.037 11.4345C3.15994 10.8485 2.47635 10.0155 2.07269 9.04098C1.66902 8.06644 1.5634 6.99408 1.76919 5.95952C1.97498 4.92495 2.48293 3.97464 3.22881 3.22876C3.97469 2.48288 4.925 1.97493 5.95956 1.76915C6.99413 1.56336 8.06648 1.66898 9.04102 2.07264C10.0156 2.47631 10.8485 3.1599 11.4345 4.03696C12.0206 4.91402 12.3334 5.94517 12.3334 7C12.3334 8.41449 11.7715 9.77104 10.7713 10.7712C9.77109 11.7714 8.41453 12.3333 7.00004 12.3333Z" fill="#777777"/>
</svg>
