<svg width="12" height="14" viewBox="0 0 12 14" fill="none" xmlns="http://www.w3.org/2000/svg">
<path d="M10 7.78671V5.66671C9.99906 4.72212 9.66386 3.80835 9.05376 3.08722C8.44367 2.36609 7.59806 1.88414 6.66669 1.72671V1.00004C6.66669 0.82323 6.59645 0.65366 6.47142 0.528636C6.3464 0.403612 6.17683 0.333374 6.00002 0.333374C5.82321 0.333374 5.65364 0.403612 5.52862 0.528636C5.40359 0.65366 5.33335 0.82323 5.33335 1.00004V1.72671C4.40198 1.88414 3.55637 2.36609 2.94628 3.08722C2.33618 3.80835 2.00098 4.72212 2.00002 5.66671V7.78671C1.61099 7.92425 1.27402 8.17875 1.03531 8.51533C0.796606 8.85191 0.667847 9.25408 0.666687 9.66671V11C0.666687 11.1769 0.736925 11.3464 0.861949 11.4714C0.986974 11.5965 1.15654 11.6667 1.33335 11.6667H3.42669C3.58021 12.2316 3.91535 12.7303 4.38042 13.0859C4.84548 13.4414 5.41462 13.634 6.00002 13.634C6.58542 13.634 7.15456 13.4414 7.61962 13.0859C8.08469 12.7303 8.41983 12.2316 8.57335 11.6667H10.6667C10.8435 11.6667 11.0131 11.5965 11.1381 11.4714C11.2631 11.3464 11.3334 11.1769 11.3334 11V9.66671C11.3322 9.25408 11.2034 8.85191 10.9647 8.51533C10.726 8.17875 10.3891 7.92425 10 7.78671ZM3.33335 5.66671C3.33335 4.95946 3.61431 4.28119 4.1144 3.78109C4.6145 3.28099 5.29278 3.00004 6.00002 3.00004C6.70726 3.00004 7.38554 3.28099 7.88564 3.78109C8.38574 4.28119 8.66669 4.95946 8.66669 5.66671V7.66671H3.33335V5.66671ZM6.00002 12.3334C5.76733 12.332 5.53907 12.2697 5.33791 12.1527C5.13675 12.0358 4.96969 11.8682 4.85335 11.6667H7.14669C7.03035 11.8682 6.86329 12.0358 6.66213 12.1527C6.46097 12.2697 6.23271 12.332 6.00002 12.3334ZM10 10.3334H2.00002V9.66671C2.00002 9.4899 2.07026 9.32033 2.19528 9.1953C2.32031 9.07028 2.48988 9.00004 2.66669 9.00004H9.33335C9.51016 9.00004 9.67973 9.07028 9.80476 9.1953C9.92978 9.32033 10 9.4899 10 9.66671V10.3334Z" fill="#777777"/>
</svg>
