<svg width="14" height="15" viewBox="0 0 14 15" fill="none" xmlns="http://www.w3.org/2000/svg">
<path d="M6.99992 0.833496C5.68138 0.833496 4.39245 1.22449 3.29612 1.95703C2.19979 2.68957 1.34531 3.73077 0.840725 4.94894C0.336141 6.16711 0.204118 7.50756 0.461353 8.80076C0.718588 10.094 1.35353 11.2819 2.28588 12.2142C3.21823 13.1466 4.40611 13.7815 5.69932 14.0387C6.99253 14.296 8.33297 14.1639 9.55115 13.6594C10.7693 13.1548 11.8105 12.3003 12.5431 11.204C13.2756 10.1076 13.6666 8.81871 13.6666 7.50016C13.6666 6.62468 13.4942 5.75778 13.1591 4.94894C12.8241 4.1401 12.333 3.40517 11.714 2.78612C11.0949 2.16706 10.36 1.676 9.55115 1.34097C8.74231 1.00593 7.8754 0.833496 6.99992 0.833496ZM6.99992 12.8335C5.94509 12.8335 4.91394 12.5207 4.03688 11.9347C3.15982 11.3486 2.47623 10.5157 2.07256 9.54114C1.6689 8.5666 1.56328 7.49425 1.76907 6.45968C1.97485 5.42512 2.48281 4.47481 3.22869 3.72893C3.97457 2.98305 4.92487 2.4751 5.95944 2.26931C6.99401 2.06352 8.06636 2.16914 9.0409 2.57281C10.0154 2.97647 10.8484 3.66006 11.4344 4.53712C12.0205 5.41418 12.3333 6.44533 12.3333 7.50016C12.3333 8.91465 11.7714 10.2712 10.7712 11.2714C9.77096 12.2716 8.41441 12.8335 6.99992 12.8335Z" fill="#1A1A1A"/>
</svg>
