<svg width="14" height="14" viewBox="0 0 14 14" fill="none" xmlns="http://www.w3.org/2000/svg">
<path d="M8.87331 7.18671C9.2953 6.73354 9.53302 6.13922 9.53998 5.52004C9.53998 4.8517 9.27448 4.21072 8.80189 3.73813C8.3293 3.26554 7.68833 3.00004 7.01998 3.00004C6.35163 3.00004 5.71066 3.26554 5.23807 3.73813C4.76548 4.21072 4.49998 4.8517 4.49998 5.52004C4.50694 6.13922 4.74466 6.73354 5.16665 7.18671C4.57908 7.47929 4.07346 7.91333 3.69526 8.4498C3.31705 8.98627 3.07813 9.60833 2.99998 10.26C2.98053 10.4369 3.03212 10.6141 3.14339 10.7529C3.25466 10.8917 3.4165 10.9806 3.59331 11C3.77012 11.0195 3.94742 10.9679 4.0862 10.8566C4.22497 10.7454 4.31386 10.5835 4.33331 10.4067C4.41287 9.7608 4.72588 9.16628 5.21337 8.73514C5.70086 8.30401 6.32919 8.06603 6.97998 8.06603C7.63077 8.06603 8.2591 8.30401 8.74659 8.73514C9.23408 9.16628 9.54709 9.7608 9.62665 10.4067C9.64519 10.5777 9.72906 10.7348 9.86074 10.8454C9.99243 10.956 10.1617 11.0114 10.3333 11H10.4066C10.5814 10.9799 10.7411 10.8916 10.851 10.7542C10.9609 10.6168 11.0121 10.4416 10.9933 10.2667C10.921 9.61843 10.6896 8.99806 10.3197 8.46074C9.94988 7.92341 9.45302 7.48577 8.87331 7.18671ZM6.99998 6.70671C6.76528 6.70671 6.53585 6.63711 6.3407 6.50672C6.14556 6.37633 5.99346 6.19099 5.90364 5.97416C5.81383 5.75732 5.79033 5.51872 5.83611 5.28853C5.8819 5.05834 5.99492 4.8469 6.16088 4.68094C6.32684 4.51498 6.53828 4.40196 6.76847 4.35618C6.99866 4.31039 7.23726 4.33389 7.4541 4.4237C7.67093 4.51352 7.85626 4.66562 7.98666 4.86076C8.11705 5.05591 8.18665 5.28534 8.18665 5.52004C8.18665 5.83476 8.06162 6.1366 7.83908 6.35914C7.61654 6.58168 7.3147 6.70671 6.99998 6.70671ZM11.6666 0.333374H2.33331C1.80288 0.333374 1.29417 0.544088 0.9191 0.919161C0.544027 1.29423 0.333313 1.80294 0.333313 2.33337V11.6667C0.333313 12.1971 0.544027 12.7058 0.9191 13.0809C1.29417 13.456 1.80288 13.6667 2.33331 13.6667H11.6666C12.1971 13.6667 12.7058 13.456 13.0809 13.0809C13.4559 12.7058 13.6666 12.1971 13.6666 11.6667V2.33337C13.6666 1.80294 13.4559 1.29423 13.0809 0.919161C12.7058 0.544088 12.1971 0.333374 11.6666 0.333374ZM12.3333 11.6667C12.3333 11.8435 12.2631 12.0131 12.1381 12.1381C12.013 12.2631 11.8435 12.3334 11.6666 12.3334H2.33331C2.1565 12.3334 1.98693 12.2631 1.86191 12.1381C1.73688 12.0131 1.66665 11.8435 1.66665 11.6667V2.33337C1.66665 2.15656 1.73688 1.98699 1.86191 1.86197C1.98693 1.73695 2.1565 1.66671 2.33331 1.66671H11.6666C11.8435 1.66671 12.013 1.73695 12.1381 1.86197C12.2631 1.98699 12.3333 2.15656 12.3333 2.33337V11.6667Z" fill="#777777"/>
</svg>
