<svg width="6" height="10" viewBox="0 0 6 10" fill="none" xmlns="http://www.w3.org/2000/svg">
<path d="M5.35743 4.40833L1.8241 0.875001C1.74663 0.796893 1.65446 0.734898 1.55291 0.692591C1.45136 0.650284 1.34244 0.628502 1.23243 0.628502C1.12242 0.628502 1.0135 0.650284 0.911951 0.692591C0.810401 0.734898 0.718234 0.796893 0.640765 0.875001C0.485555 1.03114 0.398438 1.24235 0.398438 1.4625C0.398438 1.68266 0.485555 1.89387 0.640765 2.05L3.59076 5L0.640765 7.95C0.485555 8.10614 0.398438 8.31735 0.398438 8.5375C0.398438 8.75766 0.485555 8.96887 0.640765 9.125C0.718631 9.20224 0.810978 9.26334 0.912509 9.30481C1.01404 9.34628 1.12276 9.3673 1.23243 9.36667C1.3421 9.3673 1.45082 9.34628 1.55235 9.30481C1.65388 9.26334 1.74623 9.20224 1.8241 9.125L5.35743 5.59167C5.43554 5.5142 5.49753 5.42203 5.53984 5.32048C5.58215 5.21893 5.60393 5.11001 5.60393 5C5.60393 4.88999 5.58215 4.78107 5.53984 4.67952C5.49753 4.57797 5.43554 4.4858 5.35743 4.40833Z" fill="black"/>
</svg>
