<svg width="12" height="14" viewBox="0 0 12 14" fill="none" xmlns="http://www.w3.org/2000/svg">
<path d="M7.72 6.53337C8.02299 6.15467 8.18972 5.68502 8.19333 5.20004C8.19333 4.61833 7.96225 4.06045 7.55092 3.64912C7.13959 3.23779 6.58171 3.00671 6 3.00671C5.41829 3.00671 4.86041 3.23779 4.44908 3.64912C4.03775 4.06045 3.80667 4.61833 3.80667 5.20004C3.81028 5.68502 3.97701 6.15467 4.28 6.53337C3.68575 6.89501 3.21953 7.43349 2.94667 8.07337C2.90848 8.15456 2.88707 8.24262 2.88372 8.33228C2.88037 8.42194 2.89516 8.51135 2.92719 8.59516C2.95923 8.67897 3.00784 8.75545 3.07014 8.82002C3.13243 8.88459 3.20712 8.93592 3.28973 8.97094C3.37233 9.00596 3.46116 9.02394 3.55088 9.02381C3.6406 9.02368 3.72937 9.00545 3.81188 8.97019C3.89438 8.93494 3.96892 8.88339 4.03103 8.81864C4.09314 8.75389 4.14154 8.67727 4.17333 8.59337C4.32656 8.23521 4.58105 7.92958 4.90555 7.71404C5.23005 7.49849 5.61044 7.38241 6 7.38004C6.3907 7.38111 6.77253 7.49658 7.09833 7.71221C7.42414 7.92784 7.67966 8.23417 7.83333 8.59337C7.88437 8.71387 7.96974 8.81669 8.0788 8.889C8.18787 8.96132 8.31581 8.99993 8.44667 9.00004C8.53587 8.99838 8.62401 8.9803 8.70667 8.94671C8.86924 8.87765 8.99777 8.74689 9.06401 8.58314C9.13026 8.4194 9.12882 8.23605 9.06 8.07337C8.78538 7.43254 8.31673 6.89394 7.72 6.53337ZM6 6.04671C5.82963 6.0467 5.66309 5.99609 5.52152 5.9013C5.37996 5.8065 5.26974 5.67179 5.20485 5.51426C5.13995 5.35672 5.12332 5.18347 5.15704 5.01646C5.19077 4.84946 5.27334 4.69624 5.39428 4.57623C5.51523 4.45623 5.66909 4.37485 5.83635 4.34243C6.00361 4.31 6.17673 4.32799 6.33375 4.3941C6.49078 4.46022 6.62462 4.57148 6.71832 4.71378C6.81201 4.85608 6.86132 5.023 6.86 5.19337C6.85824 5.4203 6.76686 5.63734 6.60577 5.79718C6.44468 5.95702 6.22694 6.04671 6 6.04671ZM10 0.333374H2C1.46957 0.333374 0.960859 0.544088 0.585787 0.919161C0.210714 1.29423 0 1.80294 0 2.33337V9.66671C0 10.1971 0.210714 10.7058 0.585787 11.0809C0.960859 11.456 1.46957 11.6667 2 11.6667H3.72667L5.52667 13.4734C5.58896 13.5352 5.66284 13.584 5.74406 13.6172C5.82529 13.6504 5.91226 13.6672 6 13.6667C6.1589 13.6667 6.31257 13.61 6.43333 13.5067L8.58 11.6667H10C10.5304 11.6667 11.0391 11.456 11.4142 11.0809C11.7893 10.7058 12 10.1971 12 9.66671V2.33337C12 1.80294 11.7893 1.29423 11.4142 0.919161C11.0391 0.544088 10.5304 0.333374 10 0.333374ZM10.6667 9.66671C10.6667 9.84352 10.5964 10.0131 10.4714 10.1381C10.3464 10.2631 10.1768 10.3334 10 10.3334H8.33333C8.17444 10.3334 8.02076 10.3901 7.9 10.4934L6.03333 12.0934L4.47333 10.5267C4.41104 10.4649 4.33716 10.416 4.25594 10.3829C4.17471 10.3497 4.08774 10.3329 4 10.3334H2C1.82319 10.3334 1.65362 10.2631 1.5286 10.1381C1.40357 10.0131 1.33333 9.84352 1.33333 9.66671V2.33337C1.33333 2.15656 1.40357 1.98699 1.5286 1.86197C1.65362 1.73695 1.82319 1.66671 2 1.66671H10C10.1768 1.66671 10.3464 1.73695 10.4714 1.86197C10.5964 1.98699 10.6667 2.15656 10.6667 2.33337V9.66671Z" fill="#777777"/>
</svg>
