<svg width="14" height="14" viewBox="0 0 14 14" fill="none" xmlns="http://www.w3.org/2000/svg">
<path d="M13.4734 12.5266L11.0001 10.0733C11.9601 8.87621 12.4251 7.3568 12.2993 5.82747C12.1735 4.29814 11.4665 2.87512 10.3237 1.85103C9.18097 0.82694 7.68926 0.27961 6.15534 0.321583C4.62142 0.363557 3.16187 0.991644 2.07682 2.0767C0.991766 3.16175 0.363679 4.62129 0.321705 6.15522C0.279732 7.68914 0.827062 9.18085 1.85115 10.3236C2.87525 11.4664 4.29826 12.1733 5.82759 12.2991C7.35692 12.4249 8.87633 11.96 10.0734 10.9999L12.5267 13.4533C12.5887 13.5158 12.6624 13.5654 12.7437 13.5992C12.8249 13.633 12.9121 13.6505 13.0001 13.6505C13.0881 13.6505 13.1752 13.633 13.2564 13.5992C13.3377 13.5654 13.4114 13.5158 13.4734 13.4533C13.5936 13.329 13.6607 13.1628 13.6607 12.9899C13.6607 12.817 13.5936 12.6509 13.4734 12.5266ZM6.33339 10.9999C5.41041 10.9999 4.50816 10.7262 3.74073 10.2135C2.9733 9.70068 2.37516 8.97185 2.02195 8.11913C1.66874 7.2664 1.57633 6.32809 1.75639 5.42285C1.93646 4.5176 2.38091 3.68608 3.03356 3.03344C3.6862 2.38079 4.51773 1.93634 5.42297 1.75627C6.32821 1.57621 7.26653 1.66862 8.11925 2.02183C8.97197 2.37504 9.7008 2.97318 10.2136 3.74061C10.7264 4.50804 11.0001 5.41029 11.0001 6.33327C11.0001 7.57095 10.5084 8.75793 9.63322 9.6331C8.75805 10.5083 7.57107 10.9999 6.33339 10.9999Z" fill="#777777"/>
</svg>
