<svg width="32" height="32" viewBox="0 0 32 32" fill="none" xmlns="http://www.w3.org/2000/svg">
<rect width="32" height="32" rx="16" fill="#3864DD"/>
<path d="M14.9816 18.4942C14.9816 18.1456 15.0092 17.8189 15.0643 17.5139C15.1244 17.2089 15.2346 16.9185 15.395 16.6426C15.5303 16.3812 15.6881 16.1706 15.8685 16.0109C16.0539 15.8463 16.2543 15.6865 16.4698 15.5316C16.6902 15.3719 16.9207 15.1686 17.1612 14.9217C17.3617 14.7087 17.4944 14.4933 17.5596 14.2754C17.6297 14.0576 17.6648 13.8228 17.6648 13.5711C17.6648 13.3871 17.6423 13.2153 17.5972 13.0556C17.5521 12.8958 17.4769 12.7578 17.3717 12.6417C17.2113 12.448 17.0084 12.3125 16.7629 12.235C16.5174 12.1527 16.2618 12.1116 15.9963 12.1116C15.7558 12.1116 15.5253 12.1431 15.3048 12.206C15.0893 12.2689 14.909 12.3657 14.7636 12.4964C14.6083 12.6223 14.4931 12.7796 14.4179 12.9684C14.3478 13.1524 14.3152 13.3533 14.3202 13.5711H12.6667C12.7068 13.1161 12.827 12.6901 13.0275 12.2931C13.2279 11.8962 13.4985 11.5743 13.8392 11.3274C14.1298 11.1047 14.4605 10.9401 14.8313 10.8336C15.2021 10.7223 15.5729 10.6666 15.9437 10.6666C16.4748 10.6666 16.9758 10.7465 17.4468 10.9062C17.9229 11.066 18.3187 11.325 18.6344 11.6832C18.8649 11.9349 19.0377 12.2229 19.153 12.5473C19.2732 12.8668 19.3334 13.1984 19.3334 13.5421C19.3334 14.0019 19.2306 14.4279 19.0252 14.82C18.8248 15.2121 18.5667 15.5703 18.2511 15.8947C18.0857 16.0641 17.9178 16.219 17.7475 16.3594C17.5771 16.4949 17.4193 16.6281 17.274 16.7588C17.1287 16.8895 17.0084 17.0323 16.9132 17.1872C16.7779 17.4098 16.7003 17.6107 16.6802 17.7898C16.6602 17.9641 16.6502 18.1989 16.6502 18.4942H14.9816ZM14.9891 21.3333V19.5761H16.6502V21.3333H14.9891Z" fill="white"/>
</svg>
