<svg width="20" height="20" viewBox="0 0 20 20" fill="none" xmlns="http://www.w3.org/2000/svg">
<path d="M8.50832 12.2917C8.58579 12.3698 8.67796 12.4318 8.77951 12.4741C8.88106 12.5164 8.98998 12.5382 9.09999 12.5382C9.21 12.5382 9.31892 12.5164 9.42047 12.4741C9.52202 12.4318 9.61419 12.3698 9.69166 12.2917L13.0917 8.89166C13.2486 8.73474 13.3367 8.52192 13.3367 8.3C13.3367 8.07808 13.2486 7.86525 13.0917 7.70833C12.9347 7.55141 12.7219 7.46325 12.5 7.46325C12.2781 7.46325 12.0652 7.55141 11.9083 7.70833L9.09999 10.525L8.09166 9.50833C7.93474 9.35141 7.72191 9.26326 7.49999 9.26326C7.27807 9.26326 7.06524 9.35141 6.90832 9.50833C6.7514 9.66525 6.66325 9.87808 6.66325 10.1C6.66325 10.3219 6.7514 10.5347 6.90832 10.6917L8.50832 12.2917ZM17.5 1.66666H2.49999C2.27898 1.66666 2.06701 1.75446 1.91073 1.91074C1.75445 2.06702 1.66666 2.27898 1.66666 2.5V17.5C1.66666 17.721 1.75445 17.933 1.91073 18.0893C2.06701 18.2455 2.27898 18.3333 2.49999 18.3333H17.5C17.721 18.3333 17.933 18.2455 18.0892 18.0893C18.2455 17.933 18.3333 17.721 18.3333 17.5V2.5C18.3333 2.27898 18.2455 2.06702 18.0892 1.91074C17.933 1.75446 17.721 1.66666 17.5 1.66666ZM16.6667 16.6667H3.33332V3.33333H16.6667V16.6667Z" fill="#B89E1B"/>
</svg>
