<svg width="16" height="12" viewBox="0 0 16 12" fill="none" xmlns="http://www.w3.org/2000/svg">
<path d="M8.20002 6.14671C8.55574 5.8388 8.84105 5.45796 9.0366 5.03006C9.23215 4.60215 9.33336 4.13718 9.33335 3.66671C9.33335 2.78265 8.98216 1.93481 8.35704 1.30968C7.73192 0.684564 6.88408 0.333374 6.00002 0.333374C5.11597 0.333374 4.26812 0.684564 3.643 1.30968C3.01788 1.93481 2.66669 2.78265 2.66669 3.66671C2.66668 4.13718 2.76789 4.60215 2.96344 5.03006C3.15899 5.45796 3.4443 5.8388 3.80002 6.14671C2.86678 6.5693 2.075 7.25173 1.51934 8.1124C0.963684 8.97308 0.667668 9.97558 0.666687 11C0.666687 11.1769 0.736925 11.3464 0.861949 11.4714C0.986973 11.5965 1.15654 11.6667 1.33335 11.6667C1.51016 11.6667 1.67973 11.5965 1.80476 11.4714C1.92978 11.3464 2.00002 11.1769 2.00002 11C2.00002 9.93917 2.42145 8.92176 3.17159 8.17161C3.92174 7.42147 4.93915 7.00004 6.00002 7.00004C7.06089 7.00004 8.0783 7.42147 8.82845 8.17161C9.57859 8.92176 10 9.93917 10 11C10 11.1769 10.0703 11.3464 10.1953 11.4714C10.3203 11.5965 10.4899 11.6667 10.6667 11.6667C10.8435 11.6667 11.0131 11.5965 11.1381 11.4714C11.2631 11.3464 11.3334 11.1769 11.3334 11C11.3324 9.97558 11.0364 8.97308 10.4807 8.1124C9.92504 7.25173 9.13326 6.5693 8.20002 6.14671V6.14671ZM6.00002 5.66671C5.60446 5.66671 5.21778 5.54941 4.88888 5.32965C4.55998 5.10988 4.30364 4.79753 4.15226 4.43207C4.00089 4.06662 3.96128 3.66449 4.03845 3.27653C4.11562 2.88856 4.3061 2.5322 4.58581 2.25249C4.86551 1.97279 5.22188 1.78231 5.60984 1.70514C5.9978 1.62797 6.39994 1.66757 6.76539 1.81895C7.13084 1.97032 7.4432 2.22667 7.66296 2.55557C7.88272 2.88447 8.00002 3.27114 8.00002 3.66671C8.00002 4.19714 7.78931 4.70585 7.41423 5.08092C7.03916 5.45599 6.53045 5.66671 6.00002 5.66671ZM12.4934 5.88004C12.92 5.39959 13.1987 4.80608 13.2959 4.17093C13.3931 3.53579 13.3046 2.88609 13.0412 2.30004C12.7778 1.71399 12.3506 1.21657 11.811 0.867656C11.2715 0.518741 10.6426 0.333202 10 0.333374C9.82321 0.333374 9.65364 0.403612 9.52862 0.528636C9.40359 0.65366 9.33335 0.82323 9.33335 1.00004C9.33335 1.17685 9.40359 1.34642 9.52862 1.47145C9.65364 1.59647 9.82321 1.66671 10 1.66671C10.5305 1.66671 11.0392 1.87742 11.4142 2.25249C11.7893 2.62757 12 3.13627 12 3.66671C11.9991 4.01687 11.9062 4.36064 11.7307 4.66365C11.5552 4.96667 11.3033 5.21829 11 5.39337C10.9012 5.45039 10.8186 5.53182 10.7603 5.62987C10.7019 5.72792 10.6697 5.83931 10.6667 5.95337C10.6639 6.06655 10.69 6.17857 10.7425 6.27888C10.7949 6.37919 10.8721 6.46448 10.9667 6.52671L11.2267 6.70004L11.3134 6.74671C12.117 7.12785 12.7949 7.7307 13.2673 8.48425C13.7398 9.2378 13.9871 10.1107 13.98 11C13.98 11.1769 14.0503 11.3464 14.1753 11.4714C14.3003 11.5965 14.4699 11.6667 14.6467 11.6667C14.8235 11.6667 14.9931 11.5965 15.1181 11.4714C15.2431 11.3464 15.3134 11.1769 15.3134 11C15.3188 9.97699 15.0626 8.96954 14.569 8.07341C14.0754 7.17729 13.3609 6.42225 12.4934 5.88004V5.88004Z" fill="#777777"/>
</svg>
