<svg width="30" height="24" viewBox="0 0 30 24" fill="none" xmlns="http://www.w3.org/2000/svg">
<path d="M29.373 9.8267C29.2475 9.672 29.089 9.54739 28.909 9.46202C28.729 9.37665 28.5322 9.33269 28.333 9.33336H25.6663V8.00003C25.6663 6.93916 25.2449 5.92175 24.4948 5.1716C23.7446 4.42146 22.7272 4.00003 21.6663 4.00003H13.293L12.8663 2.6667C12.5897 1.88434 12.0767 1.20737 11.3982 0.729578C10.7197 0.251788 9.90948 -0.0031692 9.07967 2.97381e-05H4.33301C3.27214 2.97381e-05 2.25473 0.421457 1.50458 1.1716C0.754435 1.92175 0.333008 2.93916 0.333008 4.00003V20C0.333008 21.0609 0.754435 22.0783 1.50458 22.8285C2.25473 23.5786 3.27214 24 4.33301 24H23.533C24.4413 23.9974 25.3216 23.6857 26.0292 23.1162C26.7368 22.5468 27.2295 21.7534 27.4263 20.8667L29.6663 10.96C29.7069 10.7613 29.7015 10.5558 29.6507 10.3594C29.5999 10.1631 29.5049 9.98084 29.373 9.8267ZM6.15967 20.2934C6.09194 20.5941 5.92206 20.8621 5.67896 21.0518C5.43586 21.2414 5.13456 21.3409 4.82634 21.3334H4.33301C3.97939 21.3334 3.64025 21.1929 3.3902 20.9428C3.14015 20.6928 2.99967 20.3537 2.99967 20V4.00003C2.99967 3.64641 3.14015 3.30727 3.3902 3.05722C3.64025 2.80717 3.97939 2.6667 4.33301 2.6667H9.07967C9.37043 2.65152 9.65816 2.73193 9.89892 2.89565C10.1397 3.05937 10.3202 3.29739 10.413 3.57336L11.133 5.76003C11.2186 6.01436 11.3789 6.23695 11.593 6.39871C11.8071 6.56047 12.065 6.65387 12.333 6.6667H21.6663C22.02 6.6667 22.3591 6.80717 22.6092 7.05722C22.8592 7.30727 22.9997 7.64641 22.9997 8.00003V9.33336H9.66634C9.35813 9.32583 9.05682 9.42534 8.81372 9.61496C8.57062 9.80458 8.40074 10.0726 8.33301 10.3734L6.15967 20.2934ZM24.8263 20.2934C24.7586 20.5941 24.5887 20.8621 24.3456 21.0518C24.1025 21.2414 23.8012 21.3409 23.493 21.3334H8.61301C8.68187 21.1848 8.73117 21.0279 8.75968 20.8667L10.733 12H26.733L24.8263 20.2934Z" fill="#3864DD"/>
</svg>
