<svg width="30" height="30" viewBox="0 0 30 30" fill="none" xmlns="http://www.w3.org/2000/svg">
<path d="M29.1347 1.74923C29.0745 1.52086 28.9548 1.31254 28.7879 1.14555C28.6209 0.97856 28.4125 0.858874 28.1842 0.798712C25.449 0.0882973 22.5688 0.164813 19.8752 1.01945C17.1816 1.87408 14.7842 3.47209 12.9589 5.62946L11.4723 7.39457L7.99928 6.55659C7.15493 6.26223 6.23259 6.28333 5.40258 6.61599C4.57258 6.94865 3.89098 7.57041 3.48365 8.36643L0.550064 13.5663C0.447275 13.7484 0.388778 13.9522 0.3793 14.1611C0.369821 14.37 0.409629 14.5783 0.495504 14.769C0.581379 14.9597 0.710913 15.1275 0.873638 15.2589C1.03636 15.3902 1.22771 15.4815 1.43222 15.5252L5.52922 16.4035C5.18217 17.46 4.93435 18.5465 4.789 19.6489C4.76265 19.8515 4.78316 20.0574 4.84897 20.2507C4.91478 20.4441 5.02411 20.6197 5.16854 20.7642L9.30201 24.8976C9.42577 25.0215 9.57272 25.1197 9.73447 25.1868C9.89622 25.2538 10.0696 25.2883 10.2447 25.2883C10.2831 25.2883 10.3215 25.2863 10.3606 25.2831C11.4877 25.1818 12.6011 24.9628 13.6827 24.6298L14.5409 28.634C14.5848 28.8384 14.6761 29.0297 14.8075 29.1924C14.9389 29.3551 15.1067 29.4845 15.2973 29.5704C15.488 29.6563 15.6962 29.6961 15.9051 29.6867C16.114 29.6772 16.3177 29.6188 16.4999 29.5162L21.7069 26.5793C22.4398 26.134 23.0123 25.4674 23.3418 24.6757C23.6713 23.884 23.7408 23.0081 23.5403 22.1744L22.6487 18.4957L24.2981 16.979C26.4635 15.1589 28.0676 12.7613 28.9239 10.0652C29.7801 7.36906 29.8532 4.48526 29.1347 1.74923ZM3.76296 13.2974L5.83782 9.61774C5.9667 9.36793 6.18626 9.17689 6.45149 9.0838C6.71672 8.99071 7.00752 9.00262 7.26425 9.11709L9.55413 9.67202L8.68746 10.7011C7.86581 11.6858 7.15516 12.7581 6.56837 13.8986L3.76296 13.2974ZM20.3899 24.2603L16.7688 26.3026L16.1961 23.6297C17.357 23.0508 18.4385 22.3249 19.414 21.4699L20.4054 20.5583L20.9433 22.7778C21.0131 23.0519 20.9974 23.3407 20.8986 23.6057C20.7997 23.8706 20.6222 24.099 20.3899 24.2603ZM22.5423 14.9732L17.6295 19.4882C15.6849 21.1699 13.2863 22.2388 10.7356 22.5605L7.52988 19.3547C7.96044 16.7974 9.0655 14.4012 10.7311 12.4134L12.9688 9.7565C13.0061 9.7175 13.0409 9.67618 13.073 9.63281L14.9863 7.36123C16.4009 5.69043 18.2336 4.42497 20.2972 3.69409C22.3608 2.96321 24.5815 2.79308 26.7324 3.20107C27.1502 5.3587 26.9819 7.5889 26.245 9.65937C25.508 11.7298 24.2294 13.5648 22.5423 14.9732ZM21.3116 6.75489C20.916 6.75489 20.5293 6.87218 20.2004 7.09195C19.8715 7.31171 19.6152 7.62407 19.4638 7.98952C19.3125 8.35497 19.2728 8.7571 19.35 9.14507C19.4272 9.53303 19.6177 9.88939 19.8974 10.1691C20.1771 10.4488 20.5334 10.6393 20.9214 10.7165C21.3094 10.7936 21.7115 10.754 22.077 10.6026C22.4424 10.4513 22.7548 10.1949 22.9745 9.86603C23.1943 9.53713 23.3116 9.15045 23.3116 8.75489C23.3116 8.49223 23.2599 8.23215 23.1594 7.98948C23.0589 7.74682 22.9115 7.52633 22.7258 7.3406C22.5401 7.15488 22.3196 7.00756 22.0769 6.90706C21.8343 6.80656 21.5742 6.75484 21.3115 6.75486L21.3116 6.75489Z" fill="#3864DD"/>
</svg>
