<svg width="22" height="30" viewBox="0 0 22 30" fill="none" xmlns="http://www.w3.org/2000/svg">
<path d="M17.7863 2.75993C16.56 1.75138 15.124 1.0293 13.5831 0.646387C12.0423 0.263474 10.4353 0.22938 8.8796 0.546595C6.8081 0.965024 4.90758 1.98936 3.41917 3.48964C1.93077 4.98991 0.921559 6.89851 0.519597 8.97326C0.226059 10.5289 0.279399 12.1301 0.675813 13.6628C1.07223 15.1954 1.80195 16.6217 2.81293 17.8399C3.75118 18.8987 4.28898 20.2526 4.33293 21.6666V25.6666C4.33293 26.7275 4.75436 27.7449 5.5045 28.495C6.25465 29.2452 7.27206 29.6666 8.33293 29.6666H13.6663C14.7271 29.6666 15.7445 29.2452 16.4947 28.495C17.2448 27.7449 17.6663 26.7275 17.6663 25.6666V21.9199C17.711 20.3588 18.2845 18.8592 19.2929 17.6666C21.0598 15.481 21.8926 12.6864 21.6105 9.8901C21.3284 7.09384 19.9541 4.52191 17.7863 2.73326V2.75993ZM14.9996 25.6666C14.9996 26.0202 14.8591 26.3594 14.6091 26.6094C14.359 26.8595 14.0199 26.9999 13.6663 26.9999H8.33293C7.97931 26.9999 7.64017 26.8595 7.39012 26.6094C7.14007 26.3594 6.9996 26.0202 6.9996 25.6666V24.3333H14.9996V25.6666ZM17.2263 16.0133C15.8856 17.6034 15.1034 19.5893 14.9996 21.6666H12.3329V17.6666C12.3329 17.313 12.1925 16.9738 11.9424 16.7238C11.6924 16.4737 11.3532 16.3333 10.9996 16.3333C10.646 16.3333 10.3068 16.4737 10.0568 16.7238C9.80674 16.9738 9.66626 17.313 9.66626 17.6666V21.6666H6.9996C6.96442 19.6241 6.20886 17.6596 4.86626 16.1199C3.98045 15.0586 3.38479 13.7858 3.13734 12.4257C2.8899 11.0656 2.99913 9.66462 3.45438 8.3593C3.90963 7.05399 4.69536 5.88892 5.73496 4.9777C6.77456 4.06647 8.03255 3.44019 9.38626 3.15993C10.5497 2.92039 11.7518 2.94292 12.9054 3.22589C14.059 3.50886 15.1352 4.04516 16.0557 4.79587C16.9762 5.54657 17.718 6.49283 18.2272 7.56595C18.7364 8.63907 19.0002 9.81212 18.9996 10.9999C19.0095 12.8264 18.3824 14.5992 17.2263 16.0133Z" fill="#3864DD"/>
</svg>
