<svg width="28" height="28" viewBox="0 0 28 28" fill="none" xmlns="http://www.w3.org/2000/svg">
<path d="M26.093 20.4399L23.333 17.6133C22.7393 17.0489 21.9904 16.675 21.1826 16.5396C20.3748 16.4042 19.5449 16.5134 18.7997 16.8533L17.5997 15.6533C19.0137 13.7638 19.6595 11.4088 19.4071 9.06237C19.1546 6.71591 18.0226 4.55222 16.2389 3.00686C14.4552 1.46149 12.1524 0.649198 9.79388 0.733501C7.43539 0.817805 5.19639 1.79244 3.52762 3.46121C1.85885 5.12999 0.884211 7.36898 0.799907 9.72748C0.715604 12.086 1.5279 14.3888 3.07326 16.1725C4.61863 17.9562 6.78232 19.0882 9.12878 19.3406C11.4752 19.5931 13.8302 18.9473 15.7197 17.5333L16.9063 18.7199C16.5264 19.4661 16.3903 20.3127 16.5171 21.1403C16.6439 21.968 17.0272 22.735 17.613 23.3333L20.4397 26.1599C21.1897 26.909 22.2063 27.3297 23.2663 27.3297C24.3263 27.3297 25.343 26.909 26.093 26.1599C26.474 25.7874 26.7767 25.3425 26.9834 24.8514C27.19 24.3602 27.2965 23.8328 27.2965 23.2999C27.2965 22.7671 27.19 22.2396 26.9834 21.7485C26.7767 21.2573 26.474 20.8124 26.093 20.4399ZM14.7863 14.7866C13.8533 15.7173 12.6654 16.3505 11.3726 16.6064C10.0799 16.8623 8.74032 16.7293 7.52313 16.2242C6.30594 15.7191 5.26574 14.8646 4.53394 13.7686C3.80215 12.6727 3.41158 11.3844 3.41158 10.0666C3.41158 8.74876 3.80215 7.4605 4.53394 6.36454C5.26574 5.26858 6.30594 4.41408 7.52313 3.90901C8.74032 3.40393 10.0799 3.27092 11.3726 3.52679C12.6654 3.78266 13.8533 4.41592 14.7863 5.34659C15.4072 5.96586 15.8997 6.70154 16.2358 7.51147C16.5719 8.32141 16.7449 9.18969 16.7449 10.0666C16.7449 10.9435 16.5719 11.8118 16.2358 12.6217C15.8997 13.4316 15.4072 14.1673 14.7863 14.7866ZM24.213 24.2133C24.089 24.3382 23.9416 24.4374 23.7791 24.5051C23.6166 24.5728 23.4423 24.6077 23.2663 24.6077C23.0903 24.6077 22.916 24.5728 22.7536 24.5051C22.5911 24.4374 22.4436 24.3382 22.3197 24.2133L19.493 21.3866C19.368 21.2626 19.2688 21.1152 19.2011 20.9527C19.1334 20.7902 19.0986 20.6159 19.0986 20.4399C19.0986 20.2639 19.1334 20.0896 19.2011 19.9272C19.2688 19.7647 19.368 19.6172 19.493 19.4933C19.6169 19.3683 19.7644 19.2691 19.9269 19.2014C20.0894 19.1337 20.2636 19.0989 20.4397 19.0989C20.6157 19.0989 20.79 19.1337 20.9524 19.2014C21.1149 19.2691 21.2624 19.3683 21.3863 19.4933L24.213 22.3199C24.338 22.4439 24.4372 22.5913 24.5049 22.7538C24.5725 22.9163 24.6074 23.0906 24.6074 23.2666C24.6074 23.4426 24.5725 23.6169 24.5049 23.7794C24.4372 23.9418 24.338 24.0893 24.213 24.2133Z" fill="#3864DD"/>
</svg>
