<svg width="30" height="24" viewBox="0 0 30 24" fill="none" xmlns="http://www.w3.org/2000/svg">
<path d="M15.3997 12.2932C16.1111 11.6773 16.6817 10.9157 17.0728 10.0599C17.4639 9.20405 17.6664 8.27412 17.6663 7.33317C17.6663 5.56506 16.964 3.86937 15.7137 2.61913C14.4635 1.36888 12.7678 0.666504 10.9997 0.666504C9.23156 0.666504 7.53587 1.36888 6.28563 2.61913C5.03539 3.86937 4.33301 5.56506 4.33301 7.33317C4.333 8.27412 4.53541 9.20405 4.92651 10.0599C5.31761 10.9157 5.88824 11.6773 6.59967 12.2932C4.73319 13.1383 3.14963 14.5032 2.03831 16.2246C0.927001 17.9459 0.33497 19.9509 0.333008 21.9998C0.333008 22.3535 0.473484 22.6926 0.723532 22.9426C0.973581 23.1927 1.31272 23.3332 1.66634 23.3332C2.01996 23.3332 2.3591 23.1927 2.60915 22.9426C2.8592 22.6926 2.99967 22.3535 2.99967 21.9998C2.99967 19.8781 3.84253 17.8433 5.34282 16.343C6.84311 14.8427 8.87794 13.9998 10.9997 13.9998C13.1214 13.9998 15.1562 14.8427 16.6565 16.343C18.1568 17.8433 18.9997 19.8781 18.9997 21.9998C18.9997 22.3535 19.1402 22.6926 19.3902 22.9426C19.6402 23.1927 19.9794 23.3332 20.333 23.3332C20.6866 23.3332 21.0258 23.1927 21.2758 22.9426C21.5259 22.6926 21.6663 22.3535 21.6663 21.9998C21.6644 19.9509 21.0723 17.9459 19.961 16.2246C18.8497 14.5032 17.2662 13.1383 15.3997 12.2932ZM10.9997 11.3332C10.2085 11.3332 9.43519 11.0986 8.77739 10.659C8.1196 10.2195 7.60691 9.59481 7.30416 8.8639C7.00141 8.133 6.92219 7.32873 7.07653 6.55281C7.23087 5.77689 7.61184 5.06415 8.17125 4.50474C8.73066 3.94533 9.44339 3.56437 10.2193 3.41003C10.9952 3.25569 11.7995 3.3349 12.5304 3.63765C13.2613 3.9404 13.886 4.45309 14.3256 5.11089C14.7651 5.76869 14.9997 6.54205 14.9997 7.33317C14.9997 8.39404 14.5782 9.41145 13.8281 10.1616C13.078 10.9117 12.0605 11.3332 10.9997 11.3332ZM23.9863 11.7598C24.8396 10.7989 25.397 9.61191 25.5914 8.34162C25.7858 7.07133 25.6089 5.77194 25.082 4.59984C24.5551 3.42774 23.7007 2.4329 22.6216 1.73507C21.5425 1.03724 20.2847 0.66616 18.9997 0.666504C18.6461 0.666504 18.3069 0.80698 18.0569 1.05703C17.8068 1.30708 17.6663 1.64622 17.6663 1.99984C17.6663 2.35346 17.8068 2.6926 18.0569 2.94265C18.3069 3.19269 18.6461 3.33317 18.9997 3.33317C20.0605 3.33317 21.078 3.7546 21.8281 4.50474C22.5782 5.25489 22.9997 6.2723 22.9997 7.33317C22.9978 8.03349 22.8121 8.72104 22.4611 9.32707C22.1101 9.93309 21.6062 10.4363 20.9997 10.7865C20.802 10.9005 20.6369 11.0634 20.5202 11.2595C20.4034 11.4556 20.339 11.6784 20.333 11.9065C20.3274 12.1329 20.3796 12.3569 20.4846 12.5575C20.5895 12.7581 20.7439 12.9287 20.933 13.0532L21.453 13.3998L21.6263 13.4932C23.2335 14.2555 24.5894 15.4612 25.5343 16.9683C26.4792 18.4754 26.9737 20.2211 26.9597 21.9998C26.9597 22.3535 27.1002 22.6926 27.3502 22.9426C27.6002 23.1927 27.9394 23.3332 28.293 23.3332C28.6466 23.3332 28.9858 23.1927 29.2358 22.9426C29.4859 22.6926 29.6263 22.3535 29.6263 21.9998C29.6372 19.9537 29.1248 17.9388 28.1376 16.1466C27.1505 14.3543 25.7215 12.8443 23.9863 11.7598Z" fill="#3864DD"/>
</svg>
