<svg width="28" height="28" viewBox="0 0 28 28" fill="none" xmlns="http://www.w3.org/2000/svg">
<path d="M27.333 12.6666C27.3367 11.7268 27.0921 10.8027 26.6238 9.98789C26.1555 9.17307 25.4802 8.49647 24.6663 8.02658C24.6864 7.7959 24.6864 7.56392 24.6663 7.33324C24.6663 6.27238 24.2449 5.25496 23.4947 4.50482C22.7446 3.75467 21.7272 3.33324 20.6663 3.33324H20.4263C20.2043 2.71766 19.8346 2.16595 19.3497 1.72651C18.8648 1.28706 18.2795 0.973289 17.6451 0.812716C17.0107 0.652142 16.3466 0.649668 15.711 0.805511C15.0754 0.961354 14.4878 1.27075 13.9997 1.70658C13.5115 1.27075 12.9239 0.961354 12.2883 0.805511C11.6527 0.649668 10.9886 0.652142 10.3542 0.812716C9.71981 0.973289 9.1345 1.28706 8.6496 1.72651C8.1647 2.16595 7.79502 2.71766 7.57299 3.33324H7.33299C6.27212 3.33324 5.2547 3.75467 4.50456 4.50482C3.75441 5.25496 3.33299 6.27238 3.33299 7.33324C3.31292 7.56392 3.31292 7.7959 3.33299 8.02658C2.57627 8.4543 1.93556 9.0605 1.46664 9.79241C0.99772 10.5243 0.714798 11.3597 0.642503 12.226C0.570208 13.0922 0.710731 13.963 1.05184 14.7625C1.39295 15.562 1.92431 16.266 2.59965 16.8132C2.16268 17.6283 1.94514 18.5429 1.96838 19.4674C1.99162 20.3919 2.25485 21.2944 2.73222 22.0864C3.20959 22.8785 3.8847 23.5328 4.69129 23.9851C5.49788 24.4375 6.40823 24.6723 7.33299 24.6666H7.57299C7.79502 25.2822 8.1647 25.8339 8.6496 26.2733C9.1345 26.7128 9.71981 27.0265 10.3542 27.1871C10.9886 27.3477 11.6527 27.3502 12.2883 27.1943C12.9239 27.0385 13.5115 26.7291 13.9997 26.2932C14.4878 26.7291 15.0754 27.0385 15.711 27.1943C16.3466 27.3502 17.0107 27.3477 17.6451 27.1871C18.2795 27.0265 18.8648 26.7128 19.3497 26.2733C19.8346 25.8339 20.2043 25.2822 20.4263 24.6666H20.6663C21.5854 24.6608 22.4874 24.4175 23.2848 23.9605C24.0823 23.5034 24.748 22.848 25.2175 22.0578C25.6871 21.2677 25.9444 20.3696 25.9647 19.4507C25.9849 18.5318 25.7673 17.6233 25.333 16.8132C25.9549 16.3153 26.4574 15.6844 26.8035 14.9668C27.1496 14.2492 27.3305 13.4633 27.333 12.6666ZM12.6663 9.39991C12.3759 9.23382 12.0727 9.09114 11.7597 8.97324C11.4237 8.86008 11.0566 8.88501 10.739 9.04254C10.4215 9.20007 10.1795 9.4773 10.0663 9.81324C9.95316 10.1492 9.97809 10.5163 10.1356 10.8339C10.2931 11.1514 10.5704 11.3934 10.9063 11.5066C11.4196 11.6921 11.8635 12.0307 12.1783 12.4766C12.493 12.9224 12.6634 13.4542 12.6663 13.9999V16.0666C12.3759 15.9005 12.0727 15.7578 11.7597 15.6399C11.4237 15.5268 11.0566 15.5517 10.739 15.7092C10.4215 15.8667 10.1795 16.144 10.0663 16.4799C9.95316 16.8159 9.97809 17.183 10.1356 17.5005C10.2931 17.8181 10.5704 18.0601 10.9063 18.1732C11.4196 18.3588 11.8635 18.6974 12.1783 19.1432C12.493 19.5891 12.6634 20.1208 12.6663 20.6666V23.3332C12.6663 23.6869 12.5258 24.026 12.2758 24.2761C12.0257 24.5261 11.6866 24.6666 11.333 24.6666C11.075 24.6649 10.8231 24.5884 10.6077 24.4464C10.3924 24.3044 10.2228 24.103 10.1197 23.8666C10.3432 23.7354 10.5571 23.5883 10.7597 23.4266C10.8945 23.3145 11.0059 23.177 11.0876 23.0219C11.1693 22.8667 11.2196 22.6971 11.2357 22.5225C11.2518 22.3479 11.2333 22.1719 11.1814 22.0044C11.1295 21.837 11.045 21.6814 10.933 21.5466C10.8209 21.4118 10.6834 21.3003 10.5283 21.2186C10.3732 21.137 10.2035 21.0866 10.0289 21.0705C9.85431 21.0545 9.67828 21.0729 9.51083 21.1248C9.34339 21.1768 9.18781 21.2612 9.05299 21.3732C8.57156 21.7785 7.9623 22.0005 7.33299 21.9999C6.62574 21.9999 5.94747 21.719 5.44737 21.2189C4.94727 20.7188 4.66632 20.0405 4.66632 19.3332C4.6727 18.8314 4.82059 18.3415 5.09299 17.9199C5.39222 17.9736 5.69565 18.0004 5.99965 17.9999C6.35328 17.9999 6.69241 17.8594 6.94246 17.6094C7.19251 17.3593 7.33299 17.0202 7.33299 16.6666C7.33299 16.313 7.19251 15.9738 6.94246 15.7238C6.69241 15.4737 6.35328 15.3332 5.99965 15.3332C5.6847 15.3351 5.37235 15.2762 5.07965 15.1599C4.60011 14.987 4.18019 14.6802 3.86964 14.2759C3.55909 13.8717 3.37092 13.3868 3.32742 12.8789C3.28393 12.371 3.38693 11.8613 3.62423 11.4101C3.86152 10.9589 4.22317 10.5852 4.66632 10.3332C4.85578 10.5076 5.06112 10.6638 5.27965 10.7999C5.5873 10.9767 5.95259 11.0241 6.29516 10.9316C6.63773 10.839 6.92951 10.6142 7.10632 10.3066C7.28313 9.99893 7.33049 9.63364 7.23797 9.29107C7.14545 8.9485 6.92064 8.65672 6.61299 8.47991C6.42529 8.37637 6.26875 8.22444 6.15965 8.03991C6.03638 7.82584 5.98062 7.57954 5.99965 7.33324C5.99965 6.97962 6.14013 6.64048 6.39018 6.39044C6.64023 6.14039 6.97936 5.99991 7.33299 5.99991C7.42587 5.98695 7.5201 5.98695 7.61299 5.99991C7.68357 6.21414 7.7682 6.42348 7.86632 6.62658C7.95343 6.77936 8.0699 6.9134 8.20903 7.02098C8.34816 7.12856 8.50719 7.20755 8.67698 7.25341C8.84677 7.29926 9.02395 7.31107 9.19832 7.28816C9.37269 7.26525 9.54081 7.20807 9.69299 7.11991C9.98859 6.94205 10.2038 6.65654 10.2933 6.32337C10.3828 5.9902 10.3397 5.6353 10.173 5.33324C10.0611 5.12872 10.0016 4.89969 9.99965 4.66658C9.99965 4.31296 10.1401 3.97382 10.3902 3.72377C10.6402 3.47372 10.9794 3.33324 11.333 3.33324C11.6866 3.33324 12.0257 3.47372 12.2758 3.72377C12.5258 3.97382 12.6663 4.31296 12.6663 4.66658V9.39991ZM22.9197 15.1599C22.627 15.2762 22.3146 15.3351 21.9997 15.3332C21.646 15.3332 21.3069 15.4737 21.0568 15.7238C20.8068 15.9738 20.6663 16.313 20.6663 16.6666C20.6663 17.0202 20.8068 17.3593 21.0568 17.6094C21.3069 17.8594 21.646 17.9999 21.9997 17.9999C22.3037 18.0004 22.6071 17.9736 22.9063 17.9199C23.1787 18.3415 23.3266 18.8314 23.333 19.3332C23.333 20.0405 23.052 20.7188 22.5519 21.2189C22.0518 21.719 21.3736 21.9999 20.6663 21.9999C20.037 22.0005 19.4277 21.7785 18.9463 21.3732C18.674 21.1469 18.323 21.038 17.9704 21.0705C17.6179 21.1031 17.2926 21.2743 17.0663 21.5466C16.84 21.8189 16.7311 22.1699 16.7636 22.5225C16.7961 22.875 16.9674 23.2003 17.2397 23.4266C17.4422 23.5883 17.6561 23.7354 17.8797 23.8666C17.7765 24.103 17.6069 24.3044 17.3916 24.4464C17.1762 24.5884 16.9243 24.6649 16.6663 24.6666C16.3127 24.6666 15.9736 24.5261 15.7235 24.2761C15.4735 24.026 15.333 23.6869 15.333 23.3332V20.6666C15.336 20.1208 15.5063 19.5891 15.821 19.1432C16.1358 18.6974 16.5797 18.3588 17.093 18.1732C17.4289 18.0601 17.7062 17.8181 17.8637 17.5005C18.0212 17.183 18.0461 16.8159 17.933 16.4799C17.8198 16.144 17.5779 15.8667 17.2603 15.7092C16.9427 15.5517 16.5756 15.5268 16.2397 15.6399C15.9266 15.7578 15.6234 15.9005 15.333 16.0666V13.9999C15.336 13.4542 15.5063 12.9224 15.821 12.4766C16.1358 12.0307 16.5797 11.6921 17.093 11.5066C17.4289 11.3934 17.7062 11.1514 17.8637 10.8339C18.0212 10.5163 18.0461 10.1492 17.933 9.81324C17.8198 9.4773 17.5779 9.20007 17.2603 9.04254C16.9427 8.88501 16.5756 8.86008 16.2397 8.97324C15.9266 9.09114 15.6234 9.23382 15.333 9.39991V4.66658C15.333 4.31296 15.4735 3.97382 15.7235 3.72377C15.9736 3.47372 16.3127 3.33324 16.6663 3.33324C17.0199 3.33324 17.3591 3.47372 17.6091 3.72377C17.8592 3.97382 17.9997 4.31296 17.9997 4.66658C17.9977 4.89969 17.9382 5.12872 17.8263 5.33324C17.7376 5.48463 17.6797 5.65203 17.6558 5.82586C17.6319 5.99969 17.6425 6.17652 17.6871 6.34622C17.7317 6.51592 17.8094 6.67515 17.9156 6.81478C18.0219 6.95441 18.1546 7.07169 18.3063 7.15991C18.4585 7.24807 18.6266 7.30525 18.801 7.32816C18.9754 7.35107 19.1525 7.33926 19.3223 7.29341C19.4921 7.24755 19.6511 7.16856 19.7903 7.06098C19.9294 6.9534 20.0459 6.81936 20.133 6.66658C20.2328 6.4505 20.3174 6.22774 20.3863 5.99991C20.4792 5.98695 20.5734 5.98695 20.6663 5.99991C21.0199 5.99991 21.3591 6.14039 21.6091 6.39044C21.8592 6.64048 21.9997 6.97962 21.9997 7.33324C21.9976 7.59462 21.9188 7.84964 21.773 8.06658C21.6639 8.2396 21.5125 8.38188 21.333 8.47991C21.0253 8.65672 20.8005 8.9485 20.708 9.29107C20.6155 9.63364 20.6628 9.99893 20.8397 10.3066C21.0165 10.6142 21.3082 10.839 21.6508 10.9316C21.9934 11.0241 22.3587 10.9767 22.6663 10.7999C22.9057 10.6704 23.1294 10.5139 23.333 10.3332C23.7777 10.5808 24.1422 10.9503 24.3836 11.3984C24.625 11.8464 24.7332 12.3541 24.6953 12.8616C24.6575 13.3691 24.4752 13.8552 24.17 14.2624C23.8648 14.6697 23.4494 14.9811 22.973 15.1599H22.9197Z" fill="#3864DD"/>
</svg>
