<svg width="28" height="28" viewBox="0 0 28 28" fill="none" xmlns="http://www.w3.org/2000/svg">
<path d="M11.6137 17.6665C11.7376 17.7915 11.8851 17.8907 12.0476 17.9584C12.21 18.0261 12.3843 18.0609 12.5603 18.0609C12.7363 18.0609 12.9106 18.0261 13.0731 17.9584C13.2356 17.8907 13.383 17.7915 13.507 17.6665L18.947 12.2265C19.1981 11.9754 19.3391 11.6349 19.3391 11.2798C19.3391 10.9248 19.1981 10.5842 18.947 10.3332C18.6959 10.0821 18.3554 9.94105 18.0003 9.94105C17.6453 9.94105 17.3047 10.0821 17.0537 10.3332L12.5603 14.8398L10.947 13.2132C10.6959 12.9621 10.3554 12.821 10.0003 12.821C9.64526 12.821 9.30473 12.9621 9.05366 13.2132C8.80259 13.4642 8.66154 13.8048 8.66154 14.1598C8.66154 14.5149 8.80259 14.8554 9.05366 15.1065L11.6137 17.6665ZM26.0003 0.666504H2.00033C1.6467 0.666504 1.30756 0.80698 1.05752 1.05703C0.807468 1.30708 0.666992 1.64622 0.666992 1.99984V25.9998C0.666992 26.3535 0.807468 26.6926 1.05752 26.9426C1.30756 27.1927 1.6467 27.3332 2.00033 27.3332H26.0003C26.3539 27.3332 26.6931 27.1927 26.9431 26.9426C27.1932 26.6926 27.3337 26.3535 27.3337 25.9998V1.99984C27.3337 1.64622 27.1932 1.30708 26.9431 1.05703C26.6931 0.80698 26.3539 0.666504 26.0003 0.666504ZM24.667 24.6665H3.33366V3.33317H24.667V24.6665Z" fill="#19B351"/>
</svg>
