<svg width="18" height="18" viewBox="0 0 18 18" fill="none" xmlns="http://www.w3.org/2000/svg">
<path d="M7.50866 11.2915C7.58613 11.3696 7.6783 11.4316 7.77985 11.4739C7.88139 11.5162 7.99032 11.538 8.10033 11.538C8.21034 11.538 8.31926 11.5162 8.42081 11.4739C8.52236 11.4316 8.61452 11.3696 8.69199 11.2915L12.092 7.8915C12.2489 7.73458 12.3371 7.52176 12.3371 7.29984C12.3371 7.07792 12.2489 6.86509 12.092 6.70817C11.9351 6.55125 11.7222 6.46309 11.5003 6.46309C11.2784 6.46309 11.0656 6.55125 10.9087 6.70817L8.10033 9.52484L7.09199 8.50817C6.93507 8.35125 6.72224 8.26309 6.50033 8.26309C6.27841 8.26309 6.06558 8.35125 5.90866 8.50817C5.75174 8.66509 5.66358 8.87792 5.66358 9.09984C5.66358 9.32176 5.75174 9.53458 5.90866 9.6915L7.50866 11.2915ZM16.5003 0.666504H1.50033C1.27931 0.666504 1.06735 0.754301 0.91107 0.910582C0.75479 1.06686 0.666992 1.27882 0.666992 1.49984V16.4998C0.666992 16.7209 0.75479 16.9328 0.91107 17.0891C1.06735 17.2454 1.27931 17.3332 1.50033 17.3332H16.5003C16.7213 17.3332 16.9333 17.2454 17.0896 17.0891C17.2459 16.9328 17.3337 16.7209 17.3337 16.4998V1.49984C17.3337 1.27882 17.2459 1.06686 17.0896 0.910582C16.9333 0.754301 16.7213 0.666504 16.5003 0.666504ZM15.667 15.6665H2.33366V2.33317H15.667V15.6665Z" fill="#B89E1B"/>
</svg>
