<svg width="24" height="24" viewBox="0 0 24 24" fill="none" xmlns="http://www.w3.org/2000/svg">
<mask id="path-1-inside-1_2007_39627" fill="white">
<path d="M21 12C21 16.9706 16.9706 21 12 21C7.02944 21 3 16.9706 3 12C3 7.02944 7.02944 3 12 3C16.9706 3 21 7.02944 21 12ZM4.8 12C4.8 15.9764 8.02355 19.2 12 19.2C15.9764 19.2 19.2 15.9764 19.2 12C19.2 8.02355 15.9764 4.8 12 4.8C8.02355 4.8 4.8 8.02355 4.8 12Z"/>
</mask>
<path d="M21 12C21 16.9706 16.9706 21 12 21C7.02944 21 3 16.9706 3 12C3 7.02944 7.02944 3 12 3C16.9706 3 21 7.02944 21 12ZM4.8 12C4.8 15.9764 8.02355 19.2 12 19.2C15.9764 19.2 19.2 15.9764 19.2 12C19.2 8.02355 15.9764 4.8 12 4.8C8.02355 4.8 4.8 8.02355 4.8 12Z" stroke="#D6D6D6" stroke-width="4" mask="url(#path-1-inside-1_2007_39627)"/>
<mask id="path-2-inside-2_2007_39627" fill="white">
<path d="M12 3C13.78 3 15.5201 3.52784 17.0001 4.51677C18.4802 5.50571 19.6337 6.91131 20.3149 8.55585C20.9961 10.2004 21.1743 12.01 20.8271 13.7558C20.4798 15.5016 19.6226 17.1053 18.364 18.364L17.0912 17.0912C18.0981 16.0842 18.7838 14.8013 19.0617 13.4047C19.3395 12.008 19.1969 10.5603 18.6519 9.24468C18.107 7.92905 17.1841 6.80456 16.0001 6.01342C14.8161 5.22227 13.424 4.8 12 4.8V3Z"/>
</mask>
<path d="M12 3C13.78 3 15.5201 3.52784 17.0001 4.51677C18.4802 5.50571 19.6337 6.91131 20.3149 8.55585C20.9961 10.2004 21.1743 12.01 20.8271 13.7558C20.4798 15.5016 19.6226 17.1053 18.364 18.364L17.0912 17.0912C18.0981 16.0842 18.7838 14.8013 19.0617 13.4047C19.3395 12.008 19.1969 10.5603 18.6519 9.24468C18.107 7.92905 17.1841 6.80456 16.0001 6.01342C14.8161 5.22227 13.424 4.8 12 4.8V3Z" stroke="#3864DD" stroke-width="4" mask="url(#path-2-inside-2_2007_39627)"/>
</svg>
