<svg width="24" height="24" viewBox="0 0 24 24" fill="none" xmlns="http://www.w3.org/2000/svg">
<mask id="path-1-inside-1_2007_39630" fill="white">
<path d="M21 12C21 16.9706 16.9706 21 12 21C7.02944 21 3 16.9706 3 12C3 7.02944 7.02944 3 12 3C16.9706 3 21 7.02944 21 12ZM4.8 12C4.8 15.9764 8.02355 19.2 12 19.2C15.9764 19.2 19.2 15.9764 19.2 12C19.2 8.02355 15.9764 4.8 12 4.8C8.02355 4.8 4.8 8.02355 4.8 12Z"/>
</mask>
<path d="M21 12C21 16.9706 16.9706 21 12 21C7.02944 21 3 16.9706 3 12C3 7.02944 7.02944 3 12 3C16.9706 3 21 7.02944 21 12ZM4.8 12C4.8 15.9764 8.02355 19.2 12 19.2C15.9764 19.2 19.2 15.9764 19.2 12C19.2 8.02355 15.9764 4.8 12 4.8C8.02355 4.8 4.8 8.02355 4.8 12Z" stroke="#D6D6D6" stroke-width="4" mask="url(#path-1-inside-1_2007_39630)"/>
<mask id="path-2-inside-2_2007_39630" fill="white">
<path d="M12 3C13.3494 3 14.6816 3.30344 15.8979 3.88787C17.1142 4.47229 18.1835 5.32275 19.0267 6.37629C19.8698 7.42983 20.4653 8.6595 20.7691 9.97429C21.0728 11.2891 21.077 12.6553 20.7813 13.972C20.4856 15.2886 19.8977 16.5219 19.061 17.5806C18.2242 18.6393 17.1602 19.4963 15.9475 20.0881C14.7348 20.68 13.4045 20.9916 12.0551 20.9998C10.7057 21.0081 9.37174 20.7128 8.15189 20.1358L8.92151 18.5087C9.89739 18.9703 10.9646 19.2065 12.0441 19.1999C13.1236 19.1933 14.1878 18.944 15.158 18.4705C16.1281 17.997 16.9794 17.3114 17.6488 16.4645C18.3181 15.6175 18.7885 14.6309 19.025 13.5776C19.2616 12.5243 19.2582 11.4313 19.0153 10.3794C18.7723 9.3276 18.2959 8.34387 17.6213 7.50103C16.9468 6.6582 16.0913 5.97783 15.1183 5.51029C14.1453 5.04275 13.0795 4.8 12 4.8V3Z"/>
</mask>
<path d="M12 3C13.3494 3 14.6816 3.30344 15.8979 3.88787C17.1142 4.47229 18.1835 5.32275 19.0267 6.37629C19.8698 7.42983 20.4653 8.6595 20.7691 9.97429C21.0728 11.2891 21.077 12.6553 20.7813 13.972C20.4856 15.2886 19.8977 16.5219 19.061 17.5806C18.2242 18.6393 17.1602 19.4963 15.9475 20.0881C14.7348 20.68 13.4045 20.9916 12.0551 20.9998C10.7057 21.0081 9.37174 20.7128 8.15189 20.1358L8.92151 18.5087C9.89739 18.9703 10.9646 19.2065 12.0441 19.1999C13.1236 19.1933 14.1878 18.944 15.158 18.4705C16.1281 17.997 16.9794 17.3114 17.6488 16.4645C18.3181 15.6175 18.7885 14.6309 19.025 13.5776C19.2616 12.5243 19.2582 11.4313 19.0153 10.3794C18.7723 9.3276 18.2959 8.34387 17.6213 7.50103C16.9468 6.6582 16.0913 5.97783 15.1183 5.51029C14.1453 5.04275 13.0795 4.8 12 4.8V3Z" stroke="#3864DD" stroke-width="4" mask="url(#path-2-inside-2_2007_39630)"/>
</svg>
