<svg width="24" height="24" viewBox="0 0 24 24" fill="none" xmlns="http://www.w3.org/2000/svg">
<mask id="path-1-inside-1_2007_39633" fill="white">
<path d="M21 12C21 16.9706 16.9706 21 12 21C7.02944 21 3 16.9706 3 12C3 7.02944 7.02944 3 12 3C16.9706 3 21 7.02944 21 12ZM4.8 12C4.8 15.9764 8.02355 19.2 12 19.2C15.9764 19.2 19.2 15.9764 19.2 12C19.2 8.02355 15.9764 4.8 12 4.8C8.02355 4.8 4.8 8.02355 4.8 12Z"/>
</mask>
<path d="M21 12C21 16.9706 16.9706 21 12 21C7.02944 21 3 16.9706 3 12C3 7.02944 7.02944 3 12 3C16.9706 3 21 7.02944 21 12ZM4.8 12C4.8 15.9764 8.02355 19.2 12 19.2C15.9764 19.2 19.2 15.9764 19.2 12C19.2 8.02355 15.9764 4.8 12 4.8C8.02355 4.8 4.8 8.02355 4.8 12Z" stroke="#D6D6D6" stroke-width="4" mask="url(#path-1-inside-1_2007_39633)"/>
<mask id="path-2-inside-2_2007_39633" fill="white">
<path d="M12 3C14.0393 3 16.0181 3.69255 17.6123 4.96419C19.2065 6.23584 20.3215 8.01119 20.7748 9.99942C21.2281 11.9877 20.9928 14.0709 20.1073 15.9079C19.2218 17.7449 17.7388 19.2267 15.9011 20.1106C14.0633 20.9945 11.9799 21.2281 9.99203 20.7731C8.00418 20.3182 6.22977 19.2016 4.95947 17.6063C3.68917 16.0111 2.99829 14.0317 3 11.9924C3.00172 9.95317 3.69593 7.97495 4.96892 6.38182L6.37514 7.50546C5.35675 8.77996 4.80138 10.3625 4.8 11.9939C4.79863 13.6253 5.35133 15.2088 6.36757 16.4851C7.38382 17.7613 8.80335 18.6545 10.3936 19.0185C11.9839 19.3825 13.6507 19.1956 15.1208 18.4885C16.591 17.7813 17.7775 16.5959 18.4858 15.1263C19.1942 13.6567 19.3825 11.9901 19.0199 10.3995C18.6572 8.80895 17.7652 7.38867 16.4898 6.37135C15.2144 5.35404 13.6314 4.8 12 4.8V3Z"/>
</mask>
<path d="M12 3C14.0393 3 16.0181 3.69255 17.6123 4.96419C19.2065 6.23584 20.3215 8.01119 20.7748 9.99942C21.2281 11.9877 20.9928 14.0709 20.1073 15.9079C19.2218 17.7449 17.7388 19.2267 15.9011 20.1106C14.0633 20.9945 11.9799 21.2281 9.99203 20.7731C8.00418 20.3182 6.22977 19.2016 4.95947 17.6063C3.68917 16.0111 2.99829 14.0317 3 11.9924C3.00172 9.95317 3.69593 7.97495 4.96892 6.38182L6.37514 7.50546C5.35675 8.77996 4.80138 10.3625 4.8 11.9939C4.79863 13.6253 5.35133 15.2088 6.36757 16.4851C7.38382 17.7613 8.80335 18.6545 10.3936 19.0185C11.9839 19.3825 13.6507 19.1956 15.1208 18.4885C16.591 17.7813 17.7775 16.5959 18.4858 15.1263C19.1942 13.6567 19.3825 11.9901 19.0199 10.3995C18.6572 8.80895 17.7652 7.38867 16.4898 6.37135C15.2144 5.35404 13.6314 4.8 12 4.8V3Z" stroke="#3864DD" stroke-width="4" mask="url(#path-2-inside-2_2007_39633)"/>
</svg>
