<svg width="174" height="160" viewBox="0 0 174 160" fill="none" xmlns="http://www.w3.org/2000/svg">
<path d="M57.0186 10.3992H14.4417V84.8898H57.0186V10.3992Z" fill="#FAFAFA"/>
<path d="M27.703 85.606C27.703 85.606 23.0301 52.0914 20.5979 48.4105C20.5979 48.4105 34.5438 37.9348 34.9728 9.55267H13.8069V85.606H27.703Z" fill="#EBEBEB"/>
<path d="M43.7486 85.4566C43.7486 85.4566 48.4139 51.942 50.8576 48.2612C50.8576 48.2612 36.9078 37.7893 36.4827 9.40333H57.6486V85.4566H43.7486Z" fill="#EBEBEB"/>
<path d="M58.1344 7.56477H10.49V87.3525H60.1069V7.56477H58.1344ZM22.9957 49.0195V67.9906H14.439V49.0195H22.9957ZM14.439 47.6444V28.0068H22.9957V47.6444H14.439ZM36.0224 47.6444V28.0068H46.7241V47.6444H36.0224ZM46.7241 49.0195V67.9906H36.0224V49.0195H46.7241ZM23.3596 47.6444V28.0068H34.6358V47.6444H23.3596ZM34.6358 49.0195V67.9906H23.3749V49.0195H34.6358ZM23.3749 27.6697V10.3991H34.6512V27.6697H23.3749ZM34.6512 68.3315V84.8973H23.3749V68.3315H34.6512ZM36.0224 68.3315H46.7241V84.8973H36.0224V68.3315ZM36.0224 27.6697V10.3991H46.7241V27.6697H36.0224ZM47.1071 49.0195H56.1618V67.9906H47.1071V49.0195ZM47.1071 47.6444V28.0068H56.1618V47.6444H47.1071ZM56.1618 27.6697H47.1071V10.3991H56.1618V27.6697ZM22.9957 10.3991V27.6697H14.439V10.3991H22.9957ZM14.439 68.3315H22.9957V84.8973H14.439V68.3315ZM47.1071 84.8973V68.3315H56.1618V84.8973H47.1071Z" fill="#E0E0E0"/>
<path d="M164.926 10.3992H122.349V84.8898H164.926V10.3992Z" fill="#FAFAFA"/>
<path d="M135.609 85.606C135.609 85.606 130.944 52.0914 128.5 48.4105C128.5 48.4105 142.45 37.9348 142.875 9.55267H121.709V85.606H135.609Z" fill="#EBEBEB"/>
<path d="M151.655 85.4566C151.655 85.4566 156.316 51.942 158.76 48.2612C158.76 48.2612 144.814 37.7893 144.385 9.40333H165.551V85.4566H151.655Z" fill="#EBEBEB"/>
<path d="M166.048 7.56475H118.403V87.3525H168.02V7.56475H166.048ZM130.909 49.0194V67.9906H122.348V49.0194H130.909ZM122.348 47.6444V28.0067H130.909V47.6444H122.348ZM143.932 47.6444V28.0067H154.657V47.6444H143.932ZM154.657 49.0194V67.9906H143.932V49.0194H154.657ZM131.292 47.6444V28.0067H142.564V47.6444H131.292ZM142.564 49.0194V67.9906H131.288V49.0194H142.564ZM131.288 27.6697V10.3991H142.561V27.6697H131.288ZM142.561 68.3315V84.8973H131.288V68.3315H142.561ZM143.932 68.3315H154.657V84.8973H143.932V68.3315ZM143.932 27.6697V10.3991H154.657V27.6697H143.932ZM155.017 49.0194H164.071V67.9906H155.017V49.0194ZM155.017 47.6444V28.0067H164.071V47.6444H155.017ZM164.071 27.6697H155.017V10.3991H164.071V27.6697ZM130.909 10.3991V27.6697H122.348V10.3991H130.909ZM122.348 68.3315H130.909V84.8973H122.348V68.3315ZM155.017 84.8973V68.3315H164.071V84.8973H155.017Z" fill="#E0E0E0"/>
<path d="M81.9725 28.3784H71.6194V41.4471H81.9725V28.3784Z" fill="#EBEBEB"/>
<path d="M77.5789 41.1522H76.1426V41.5007H77.5789V41.1522Z" fill="#E0E0E0"/>
<path d="M77.1261 32.875L75.2186 33.1546L74.51 34.9472L75.705 36.4563L77.6087 36.1767L78.3211 34.388L77.1261 32.875Z" fill="#E0E0E0"/>
<path d="M78.0203 34.0318L76.1128 34.3114L75.4004 36.104L76.5954 37.6131L78.5029 37.3373L79.2153 35.5447L78.0203 34.0318Z" fill="#FAFAFA"/>
<path d="M77.7823 28.1983H76.3459V28.4971H77.7823V28.1983Z" fill="#E0E0E0"/>
<path d="M107.094 10.9316H89.8081V32.7525H107.094V10.9316Z" fill="#EBEBEB"/>
<path d="M99.7571 32.266H97.3594V32.8482H99.7571V32.266Z" fill="#E0E0E0"/>
<path d="M99.0069 18.4465L95.8202 18.91L94.6328 21.9014L96.6284 24.4255L99.8113 23.9621L100.999 20.9707L99.0069 18.4465Z" fill="#E0E0E0"/>
<path d="M100.492 20.377L97.3086 20.8442L96.1174 23.8357L98.1168 26.3598L101.3 25.8925L102.487 22.9049L100.492 20.377Z" fill="#FAFAFA"/>
<path d="M100.097 10.6367H97.6992V11.1346H100.097V10.6367Z" fill="#E0E0E0"/>
<path d="M78.132 101.93C75.7879 102.314 74.7422 105.186 74.9452 107.553C75.1482 109.92 76.1249 112.23 75.8645 114.589C75.5312 117.589 73.2676 120.12 73.0033 123.123C72.693 126.666 75.198 129.807 75.9449 133.285C76.3088 134.974 76.259 136.763 76.8871 138.375C77.4229 139.748 78.4185 140.893 79.704 141.614C80.9895 142.334 82.4853 142.587 83.9361 142.328C85.387 142.069 86.7031 141.315 87.6598 140.193C88.6165 139.072 89.1546 137.654 89.1822 136.181C89.232 133.461 87.5544 130.899 87.7574 128.187C87.9067 126.18 89.0826 124.28 88.8337 122.284C88.5311 119.913 86.3325 118.228 85.5588 115.965C84.7851 113.701 85.5282 111.207 85.26 108.829C84.7774 104.562 82.4142 101.586 78.132 101.934" fill="#F5F5F5"/>
<path d="M66.1587 122.587C65.7757 126.54 67.5069 131.19 69.5408 134.602C71.6006 138.038 74.701 140.728 78.3925 142.282C78.8023 142.454 79.3194 142.6 79.668 142.32C79.7909 142.184 79.8832 142.023 79.9387 141.848C79.9942 141.673 80.0116 141.488 79.9897 141.305C80.017 137.11 78.684 133.018 76.1906 129.643C73.6971 126.269 70.1774 123.793 66.1587 122.587Z" fill="#EBEBEB"/>
<path d="M83.3792 150.548C83.3322 150.48 83.2936 150.407 83.2643 150.33C83.1915 150.157 83.0996 149.947 82.9847 149.682C82.7472 149.115 82.391 148.303 81.939 147.307C80.7597 144.71 79.4494 142.173 78.0131 139.708C76.5712 137.247 75.0052 134.86 73.321 132.557C72.6737 131.676 72.1375 130.968 71.7621 130.481L71.3369 129.918C71.2832 129.857 71.2381 129.789 71.2029 129.715C71.2029 129.715 71.268 129.769 71.3714 129.891L71.831 130.428C72.2141 130.895 72.7809 131.577 73.4474 132.465C75.174 134.745 76.7638 137.125 78.2084 139.593C79.6498 142.069 80.9441 144.626 82.0846 147.254C82.5174 148.261 82.8506 149.085 83.0651 149.659C83.1647 149.927 83.2452 150.15 83.3064 150.322C83.3391 150.394 83.3635 150.47 83.3792 150.548Z" fill="#E0E0E0"/>
<path d="M80.8325 112.866C80.8576 112.992 80.8729 113.12 80.8784 113.249C80.8976 113.517 80.9244 113.881 80.955 114.337C81.0163 115.306 81.1044 116.665 81.2155 118.343C81.4262 121.725 81.7287 126.387 82.0888 131.554C82.4488 136.721 82.8089 141.382 83.0732 144.76C83.1996 146.434 83.3068 147.798 83.3796 148.763C83.4102 149.219 83.4332 149.583 83.4524 149.851C83.4625 149.978 83.4625 150.106 83.4524 150.234C83.4236 150.108 83.4044 149.98 83.3949 149.851C83.3681 149.586 83.3298 149.223 83.28 148.767C83.1881 147.802 83.0617 146.442 82.897 144.772C82.5944 141.394 82.2114 136.728 81.8475 131.565C81.4836 126.402 81.2078 121.733 81.0355 118.347C80.9589 116.669 80.8938 115.306 80.8478 114.337C80.8478 113.881 80.821 113.517 80.8133 113.249C80.8095 113.121 80.8159 112.993 80.8325 112.866Z" fill="#E0E0E0"/>
<path d="M77.199 144.914H87.1002V152.191C87.1002 153.452 86.5994 154.661 85.7079 155.552C84.8165 156.444 83.6075 156.944 82.3468 156.944C81.1301 156.944 79.9598 156.477 79.0769 155.64C78.194 154.803 77.6659 153.659 77.6012 152.444L77.199 144.914Z" fill="#E0E0E0"/>
<path d="M173.127 157.067C173.127 157.12 134.369 157.166 86.5636 157.166C38.7583 157.166 0 157.12 0 157.067C0 157.013 38.7506 156.967 86.5636 156.967C134.377 156.967 173.127 157.013 173.127 157.067Z" fill="#263238"/>
<path d="M118.981 76.13L117.449 75.8121C116.081 75.4022 115.308 75.226 114.99 74.7779C114.568 74.1766 115.373 73.8318 115.373 73.8318C115.373 73.8318 114.43 73.2841 114.649 72.6828C114.702 72.5635 114.792 72.4644 114.906 72.3996C115.02 72.3349 115.151 72.308 115.281 72.3227C115.281 72.3227 114.461 71.798 114.358 71.392C114.216 70.8404 114.898 70.6949 114.898 70.6949C113.833 69.7067 114.089 68.9866 114.384 68.9713C114.679 68.9559 115.533 69.5726 115.533 69.5726C116.3 69.9556 118.337 71.0549 117.767 69.6913C117.196 68.3278 117.269 67.0676 117.525 66.7382C117.593 66.668 117.681 66.621 117.777 66.6038C117.873 66.5867 117.972 66.6003 118.06 66.6428C118.148 66.6852 118.22 66.7543 118.267 66.8403C118.313 66.9262 118.331 67.0245 118.318 67.1212C118.352 67.6192 118.454 68.1102 118.621 68.5806C118.742 68.9627 118.927 69.3215 119.168 69.6415C119.452 70.0246 119.705 70.3195 119.934 70.5723L121.041 72.158L118.981 76.13Z" fill="#FFBE9D"/>
<path d="M113.084 155.535L114.402 152.754L119.626 155.19L117.742 159.277L117.409 159.147C115.93 158.553 109.932 156.033 109.105 155.29C108.182 154.462 113.084 155.535 113.084 155.535Z" fill="#3864DD"/>
<g opacity="0.3">
<path d="M115.865 158.35C116.148 157.946 116.571 157.661 117.052 157.549C117.525 157.432 118.025 157.499 118.45 157.737L117.768 159.196L115.865 158.35Z" fill="white"/>
</g>
<g opacity="0.3">
<path d="M110.652 155.087C110.652 155.087 108.89 154.811 108.962 155.159C109.035 155.508 115.003 158.281 117.741 159.277L117.787 159.154L110.801 155.975C110.801 155.975 110.95 155.255 110.652 155.087Z" fill="white"/>
</g>
<path d="M117.866 159.189L117.774 159.158L117.51 159.055L116.541 158.653C115.725 158.308 114.602 157.818 113.381 157.247C112.159 156.676 111.056 156.14 110.267 155.738L109.336 155.255L109.087 155.121L108.999 155.071C109.031 155.079 109.062 155.092 109.091 155.11L109.347 155.232L110.29 155.696C111.082 156.079 112.186 156.615 113.407 157.186C114.629 157.756 115.748 158.25 116.56 158.607L117.517 159.028L117.778 159.143L117.866 159.189Z" fill="#263238"/>
<path d="M110.767 156.056C110.796 155.88 110.807 155.701 110.798 155.523C110.766 155.346 110.715 155.172 110.645 155.006C110.767 155.149 110.844 155.325 110.866 155.512C110.888 155.699 110.853 155.888 110.767 156.056Z" fill="#263238"/>
<path d="M112.654 155.994C112.61 155.908 112.585 155.812 112.581 155.715C112.558 155.622 112.558 155.524 112.581 155.431C112.581 155.431 112.631 155.55 112.65 155.707C112.675 155.801 112.677 155.9 112.654 155.994Z" fill="#263238"/>
<path d="M113.201 155.968C113.181 155.968 113.124 155.879 113.07 155.757C113.017 155.634 112.99 155.531 113.009 155.523C113.028 155.516 113.086 155.608 113.135 155.73C113.177 155.802 113.2 155.884 113.201 155.968Z" fill="#263238"/>
<path d="M113.692 155.596C113.692 155.615 113.558 155.573 113.405 155.504C113.308 155.472 113.22 155.42 113.145 155.351C113.145 155.332 113.282 155.374 113.432 155.443C113.528 155.475 113.617 155.527 113.692 155.596Z" fill="#263238"/>
<path d="M113.95 155.293C113.831 155.311 113.71 155.293 113.602 155.24C113.488 155.208 113.386 155.143 113.311 155.052C113.42 155.083 113.527 155.124 113.628 155.175C113.739 155.205 113.847 155.245 113.95 155.293Z" fill="#263238"/>
<path d="M112.703 155.454C112.584 155.421 112.471 155.368 112.37 155.297C112.254 155.226 112.147 155.144 112.048 155.052C111.988 154.998 111.934 154.938 111.887 154.872C111.858 154.831 111.846 154.78 111.852 154.73C111.857 154.703 111.871 154.677 111.891 154.657C111.91 154.638 111.936 154.624 111.964 154.619C112.065 154.618 112.165 154.64 112.257 154.682C112.349 154.724 112.43 154.786 112.496 154.863C112.561 154.94 112.609 155.03 112.635 155.128C112.662 155.226 112.667 155.328 112.649 155.428C112.645 155.462 112.633 155.494 112.615 155.523C112.627 155.403 112.621 155.281 112.596 155.163C112.56 155.041 112.491 154.931 112.396 154.845C112.341 154.792 112.277 154.751 112.206 154.723C112.135 154.696 112.059 154.682 111.983 154.684C111.91 154.684 111.902 154.773 111.944 154.838C111.989 154.899 112.041 154.956 112.098 155.006C112.192 155.097 112.293 155.18 112.4 155.255C112.58 155.385 112.707 155.443 112.703 155.454Z" fill="#263238"/>
<path d="M112.608 155.431C112.601 155.341 112.627 155.252 112.68 155.179C112.732 155.096 112.801 155.027 112.883 154.976C112.936 154.94 112.996 154.918 113.059 154.911C113.121 154.904 113.185 154.913 113.243 154.937C113.274 154.961 113.293 154.995 113.299 155.033C113.305 155.07 113.296 155.109 113.274 155.14C113.242 155.19 113.199 155.232 113.148 155.263C113.07 155.317 112.985 155.361 112.895 155.393C112.814 155.429 112.726 155.445 112.638 155.439C112.638 155.439 112.734 155.408 112.876 155.347C112.959 155.311 113.038 155.265 113.109 155.209C113.19 155.159 113.282 155.048 113.205 154.995C113.129 154.941 112.998 154.995 112.918 155.033C112.84 155.076 112.773 155.135 112.719 155.205C112.677 155.278 112.64 155.354 112.608 155.431Z" fill="#263238"/>
<path d="M118.426 157.71C118.426 157.71 118.284 157.626 118.043 157.546C117.719 157.439 117.371 157.423 117.039 157.5C116.709 157.585 116.407 157.757 116.166 157.998C115.982 158.185 115.905 158.331 115.894 158.327C115.903 158.288 115.92 158.252 115.944 158.22C115.996 158.127 116.059 158.041 116.131 157.963C116.37 157.701 116.68 157.516 117.024 157.431C117.368 157.35 117.728 157.374 118.058 157.5C118.157 157.536 118.252 157.582 118.341 157.638C118.399 157.68 118.429 157.707 118.426 157.71Z" fill="#263238"/>
<path d="M118.898 155.286C118.77 155.659 118.619 156.023 118.446 156.377C118.293 156.743 118.119 157.1 117.925 157.446C118.056 157.073 118.208 156.707 118.381 156.351C118.533 155.986 118.705 155.631 118.898 155.286Z" fill="#263238"/>
<path d="M115.443 157.553C115.168 157.492 114.9 157.398 114.647 157.274C114.385 157.165 114.138 157.025 113.911 156.856C113.911 156.837 114.252 157.017 114.677 157.208C115.102 157.4 115.451 157.519 115.443 157.553Z" fill="#263238"/>
<path d="M116.483 158.013C116.483 158.013 116.422 158.07 116.349 158.132C116.277 158.193 116.227 158.254 116.211 158.247C116.196 158.239 116.211 158.151 116.303 158.078C116.395 158.005 116.483 157.994 116.483 158.013Z" fill="#263238"/>
<path d="M117.08 157.71C117.08 157.71 117.027 157.768 116.95 157.798C116.873 157.829 116.801 157.837 116.793 157.818C116.785 157.798 116.847 157.76 116.923 157.733C117 157.707 117.072 157.691 117.08 157.71Z" fill="#263238"/>
<path d="M117.734 157.749C117.734 157.749 117.654 157.73 117.562 157.722C117.47 157.714 117.401 157.722 117.393 157.722C117.385 157.722 117.462 157.653 117.569 157.664C117.677 157.676 117.745 157.733 117.734 157.749Z" fill="#263238"/>
<path d="M118.172 157.829C118.172 157.829 118.13 157.86 118.077 157.856C118.023 157.852 117.985 157.833 117.989 157.814C117.992 157.795 118.031 157.783 118.084 157.787C118.138 157.791 118.172 157.81 118.172 157.829Z" fill="#263238"/>
<path d="M157.154 157.055L155.852 154.267L161.057 151.808L163.006 155.864L162.692 156.04C161.294 156.806 155.53 159.813 154.431 159.978C153.205 160.15 157.154 157.055 157.154 157.055Z" fill="#3864DD"/>
<g opacity="0.3">
<path d="M161.095 156.707C160.961 156.231 161.01 155.723 161.232 155.282C161.446 154.846 161.815 154.505 162.267 154.328L162.96 155.78L161.095 156.707Z" fill="white"/>
</g>
<g opacity="0.3">
<path d="M155.26 158.645C155.26 158.645 153.923 159.828 154.237 159.993C154.551 160.158 160.492 157.312 163.005 155.853L162.94 155.742L156.045 159.097C156.045 159.097 155.555 158.515 155.26 158.645Z" fill="white"/>
</g>
<path d="M163.019 155.699L162.935 155.749L162.686 155.887L161.759 156.377C160.974 156.787 159.882 157.339 158.661 157.91C157.439 158.48 156.328 158.99 155.516 159.342L154.551 159.756L154.287 159.863L154.195 159.894L154.283 159.848L154.539 159.729L155.497 159.3C156.301 158.936 157.412 158.427 158.634 157.844C159.856 157.262 160.932 156.722 161.736 156.312L162.671 155.841L162.928 155.715C162.957 155.706 162.988 155.701 163.019 155.699Z" fill="#263238"/>
<path d="M156.077 159.177C155.964 159.036 155.835 158.907 155.694 158.794C155.537 158.706 155.372 158.636 155.2 158.584C155.389 158.581 155.574 158.634 155.732 158.737C155.891 158.84 156.015 158.988 156.089 159.162L156.077 159.177Z" fill="#263238"/>
<path d="M157.241 157.668C157.241 157.668 157.115 157.63 156.981 157.546C156.847 157.461 156.747 157.381 156.759 157.366C156.77 157.35 156.885 157.404 157.019 157.488C157.153 157.572 157.249 157.653 157.241 157.668Z" fill="#263238"/>
<path d="M157.558 157.243C157.558 157.262 157.443 157.243 157.317 157.209C157.19 157.174 157.091 157.124 157.095 157.105C157.177 157.098 157.26 157.111 157.336 157.143C157.47 157.17 157.562 157.224 157.558 157.243Z" fill="#263238"/>
<path d="M157.59 156.626C157.59 156.646 157.483 156.718 157.333 156.791C157.184 156.864 157.058 156.91 157.046 156.891C157.119 156.818 157.207 156.762 157.303 156.726C157.467 156.653 157.579 156.607 157.59 156.626Z" fill="#263238"/>
<path d="M157.512 156.236C157.512 156.236 157.424 156.374 157.252 156.469C157.153 156.536 157.038 156.573 156.919 156.577C157.118 156.466 157.316 156.352 157.512 156.236Z" fill="#263238"/>
<path d="M156.847 157.297C156.747 157.369 156.634 157.422 156.514 157.454C156.389 157.497 156.261 157.528 156.131 157.546C156.049 157.556 155.967 157.556 155.886 157.546C155.861 157.544 155.836 157.538 155.814 157.527C155.791 157.515 155.772 157.5 155.755 157.481C155.74 157.457 155.732 157.43 155.732 157.402C155.732 157.374 155.74 157.347 155.755 157.323C155.854 157.2 155.992 157.115 156.146 157.082C156.301 157.049 156.462 157.071 156.602 157.143C156.684 157.186 156.757 157.245 156.816 157.316C156.839 157.34 156.856 157.369 156.866 157.4C156.783 157.314 156.686 157.243 156.579 157.189C156.459 157.134 156.326 157.117 156.196 157.14C156.121 157.148 156.049 157.171 155.983 157.208C155.917 157.245 155.859 157.295 155.813 157.354C155.778 157.419 155.813 157.473 155.905 157.481C155.98 157.488 156.056 157.488 156.131 157.481C156.26 157.467 156.388 157.443 156.514 157.408C156.701 157.346 156.843 157.289 156.847 157.297Z" fill="#263238"/>
<path d="M156.769 157.354C156.769 157.354 156.673 157.3 156.62 157.14C156.588 157.047 156.579 156.949 156.593 156.852C156.599 156.789 156.62 156.729 156.654 156.676C156.689 156.623 156.736 156.58 156.792 156.55C156.83 156.542 156.869 156.548 156.902 156.568C156.934 156.588 156.958 156.62 156.968 156.657C156.981 156.715 156.981 156.775 156.968 156.833C156.959 156.928 156.937 157.02 156.903 157.109C156.85 157.262 156.784 157.343 156.777 157.335C156.769 157.327 156.815 157.243 156.857 157.094C156.882 157.008 156.898 156.919 156.903 156.829C156.903 156.734 156.884 156.592 156.796 156.619C156.708 156.646 156.662 156.776 156.643 156.864C156.623 156.951 156.623 157.041 156.643 157.128C156.676 157.208 156.718 157.284 156.769 157.354Z" fill="#263238"/>
<path d="M162.232 154.324C162.232 154.324 162.079 154.382 161.849 154.524C161.563 154.7 161.332 154.954 161.182 155.255C161.035 155.563 160.976 155.904 161.01 156.243C161.037 156.508 161.098 156.661 161.087 156.665C161.065 156.632 161.048 156.596 161.037 156.557C161 156.458 160.974 156.356 160.96 156.251C160.91 155.901 160.965 155.544 161.117 155.225C161.271 154.903 161.52 154.635 161.83 154.458C161.922 154.404 162.019 154.361 162.121 154.328C162.157 154.321 162.195 154.32 162.232 154.324Z" fill="#263238"/>
<path d="M160.669 152.417C160.872 152.755 161.056 153.104 161.22 153.463C161.405 153.813 161.568 154.173 161.711 154.543C161.507 154.204 161.323 153.853 161.159 153.493C160.972 153.146 160.809 152.786 160.669 152.417Z" fill="#263238"/>
<path d="M160.2 156.511C159.978 156.688 159.735 156.835 159.476 156.948C159.227 157.083 158.962 157.185 158.687 157.251C158.687 157.251 159.028 157.09 159.453 156.887C159.878 156.684 160.188 156.496 160.2 156.511Z" fill="#263238"/>
<path d="M161.217 156.021C161.217 156.021 161.217 156.109 161.217 156.201C161.217 156.293 161.236 156.374 161.217 156.381C161.198 156.389 161.148 156.312 161.148 156.205C161.148 156.098 161.198 156.021 161.217 156.021Z" fill="#263238"/>
<path d="M161.376 155.366C161.395 155.366 161.376 155.443 161.357 155.523C161.338 155.604 161.292 155.661 161.276 155.657C161.261 155.653 161.276 155.581 161.276 155.5C161.276 155.42 161.357 155.359 161.376 155.366Z" fill="#263238"/>
<path d="M161.819 154.872C161.819 154.891 161.754 154.926 161.693 154.987C161.632 155.048 161.593 155.117 161.574 155.113C161.555 155.11 161.574 155.014 161.643 154.937C161.712 154.861 161.819 154.872 161.819 154.872Z" fill="#263238"/>
<path d="M162.163 154.596C162.163 154.596 162.163 154.65 162.124 154.688C162.086 154.727 162.048 154.742 162.032 154.73C162.017 154.719 162.032 154.677 162.071 154.638C162.109 154.6 162.147 154.581 162.163 154.596Z" fill="#263238"/>
<path d="M163.236 153.179L154.81 157.097L139.657 130.121C137.685 123.004 135.781 97.947 135.781 97.947L146.743 98.782C146.743 98.782 148.433 116.784 151.079 126.038L163.236 153.179Z" fill="#263238"/>
<path d="M153.462 154.458C153.462 154.458 153.569 154.378 153.78 154.267C153.99 154.156 154.3 153.999 154.684 153.811C155.45 153.428 156.518 152.926 157.702 152.375C158.885 151.823 159.958 151.337 160.739 150.996C161.122 150.823 161.452 150.686 161.67 150.613C161.781 150.556 161.9 150.515 162.022 150.49C161.926 150.569 161.819 150.633 161.704 150.682C161.49 150.793 161.183 150.95 160.8 151.138C160.034 151.521 158.966 152.022 157.786 152.574C156.606 153.125 155.53 153.608 154.745 153.953C154.362 154.125 154.036 154.263 153.814 154.336C153.703 154.393 153.584 154.434 153.462 154.458Z" fill="#455A64"/>
<path d="M151.725 87.862C151.932 87.862 154.173 94.4998 152.016 98.9008C151.798 99.3413 150.101 101.766 150.101 101.766C144.133 108.806 138.089 122.449 136.404 126.046C132.957 133.404 120.179 157.607 120.179 157.607L111.982 152.915L123.967 122.101L134.845 94.293L151.725 87.862Z" fill="#263238"/>
<path d="M136.944 116.332C136.944 116.332 136.365 119.132 136.067 118.971C135.213 118.508 129.341 116.321 129.341 116.321L130.927 114.563L136.944 116.332Z" fill="#455A64"/>
<path d="M135.214 118.508C135.214 118.508 134.115 123.024 132.701 122.779C131.288 122.533 128.335 121.047 128.335 121.047L130.116 116.593L135.214 118.508Z" fill="#455A64"/>
<path d="M136.07 118.971L129.517 116.351L129.831 117.313L135.021 119.213L136.07 118.971Z" fill="#263238"/>
<path d="M147.446 105.309C147.418 105.37 147.382 105.426 147.338 105.477L147.001 105.933C146.71 106.316 146.297 106.914 145.818 107.653C144.856 109.131 143.646 111.246 142.409 113.636C141.172 116.026 140.111 118.232 139.364 119.818L138.464 121.706L138.215 122.215C138.188 122.277 138.155 122.334 138.115 122.388C138.127 122.323 138.148 122.26 138.177 122.2L138.395 121.675C138.586 121.22 138.874 120.565 139.234 119.76C139.961 118.152 140.988 115.93 142.233 113.544C143.269 111.492 144.42 109.499 145.68 107.576C146.178 106.845 146.607 106.27 146.921 105.887C147.067 105.711 147.189 105.569 147.304 105.454C147.345 105.4 147.392 105.351 147.446 105.309Z" fill="#455A64"/>
<path d="M112.603 151.479C112.626 151.433 114.56 152.352 116.923 153.535C119.287 154.719 121.179 155.722 121.137 155.772C121.094 155.822 119.179 154.899 116.816 153.715C114.453 152.532 112.58 151.528 112.603 151.479Z" fill="#455A64"/>
<path d="M122.345 71.9971C121.9 73.0004 121.396 73.9763 120.836 74.9196C120.333 75.8961 119.771 76.8402 119.15 77.7463C119.596 76.7422 120.1 75.7651 120.66 74.82C121.165 73.8464 121.727 72.9038 122.345 71.9971Z" fill="#263238"/>
<path d="M137.833 60.3417C138.281 60.3417 138.813 63.5974 139.265 69.4462C139.778 76.0802 139.732 82.7755 137.898 86.9849C137.728 87.4344 137.472 87.846 137.143 88.1963C136.815 88.5466 136.42 88.8287 135.983 89.0264C131.233 90.9875 118.13 76.9382 118.13 76.9382L121.355 71.2809L130.582 78.7307C130.582 78.7307 131.501 71.1928 131.325 67.7188C131.183 65.0836 133.815 60.3724 137.833 60.3417Z" fill="#455A64"/>
<path d="M141.913 60.4068C141.913 60.4068 149.926 61.5789 151.998 64.7274C154.07 67.8758 153.021 95.6451 153.021 95.6451L132.422 96.8631C132.422 96.8631 134.084 61.5176 135.103 61.1154C137.662 60.1119 141.607 60.3073 141.913 60.4068Z" fill="#455A64"/>
<path d="M108.936 53.0949C108.876 52.2522 109.033 51.4083 109.391 50.6435C109.55 50.3163 109.634 49.9578 109.637 49.594V48.6633H97.6287C97.1401 48.6633 96.6715 48.8574 96.326 49.2029C95.9804 49.5484 95.7863 50.017 95.7863 50.5056V62.4637H94.9743C94.5992 62.4601 94.2298 62.371 93.8942 62.2032C93.1416 61.8408 92.3099 61.6736 91.4757 61.7169C90.6414 61.7602 89.8315 62.0127 89.1205 62.4512C88.4095 62.8896 87.8202 63.4999 87.4069 64.2258C86.9936 64.9517 86.7695 65.7699 86.7554 66.6052C86.7412 67.4404 86.9374 68.2657 87.3259 69.0052C87.7144 69.7447 88.2827 70.3746 88.9784 70.8369C89.6742 71.2992 90.4751 71.579 91.3074 71.6505C92.1396 71.7221 92.9765 71.5831 93.741 71.2464C94.0574 71.1024 94.4007 71.0267 94.7484 71.0243H95.8017V82.6835C95.8012 82.9258 95.8484 83.1658 95.9408 83.3897C96.0332 83.6137 96.1688 83.8173 96.3399 83.9887C96.5111 84.1602 96.7143 84.2963 96.9381 84.3891C97.1619 84.4819 97.4018 84.5297 97.644 84.5297H130.082C130.481 84.5297 130.862 84.3715 131.144 84.0899C131.426 83.8084 131.584 83.4265 131.584 83.0282V50.1648C131.584 49.9674 131.546 49.772 131.471 49.5896C131.395 49.4072 131.285 49.2415 131.145 49.1019C131.006 48.9624 130.84 48.8518 130.658 48.7766C130.475 48.7013 130.28 48.6628 130.082 48.6633H118.362V49.9924C118.361 50.2999 118.42 50.6045 118.538 50.8887C118.812 51.5569 118.938 52.2767 118.906 52.9983C118.875 53.7199 118.686 54.426 118.354 55.0675C118.022 55.709 117.555 56.2707 116.984 56.7135C116.414 57.1563 115.754 57.4697 115.05 57.6318C114.346 57.794 113.615 57.8011 112.908 57.6526C112.201 57.5042 111.535 57.2037 110.956 56.772C110.377 56.3404 109.899 55.7879 109.554 55.153C109.21 54.518 109.008 53.8157 108.962 53.0949H108.936Z" fill="#3864DD"/>
<path d="M133.819 66.3131C133.831 66.3891 133.838 66.4659 133.838 66.5429C133.838 66.7191 133.838 66.9259 133.838 67.2055C133.838 67.8068 133.838 68.6342 133.869 69.6415C133.869 71.6984 133.903 74.5404 133.838 77.685C133.773 80.8297 133.601 83.6679 133.39 85.7286C133.283 86.7551 133.179 87.5786 133.095 88.1493C133.053 88.4174 133.019 88.6319 132.988 88.8042C132.982 88.8816 132.966 88.9577 132.938 89.0302C132.933 88.9537 132.933 88.8769 132.938 88.8004C132.957 88.628 132.976 88.4174 133.007 88.1416C133.065 87.5671 133.149 86.7397 133.237 85.7171C133.413 83.6679 133.57 80.8335 133.62 77.6965C133.67 74.5596 133.681 71.7214 133.708 69.653C133.708 68.6457 133.735 67.8183 133.743 67.217C133.743 66.9489 133.743 66.7267 133.762 66.5544C133.77 66.4717 133.789 66.3905 133.819 66.3131Z" fill="#263238"/>
<path d="M146.073 47.3151C145.744 49.4064 145.763 51.2411 146.786 52.6046C147.007 52.8669 147.212 53.1432 147.398 53.432C147.491 53.5772 147.552 53.7399 147.579 53.9098C147.606 54.0798 147.598 54.2535 147.555 54.4202C147.508 54.568 147.422 54.7006 147.306 54.8041C147.191 54.9077 147.049 54.9785 146.897 55.0094C146.745 55.0402 146.587 55.0299 146.44 54.9795C146.294 54.9291 146.163 54.8405 146.062 54.7228C146.095 54.9593 146.057 55.2004 145.952 55.4153C145.848 55.6302 145.682 55.8091 145.476 55.9293C145.37 55.9778 145.255 56.0017 145.139 55.9992C145.022 55.9967 144.908 55.9677 144.805 55.9146C144.702 55.8614 144.612 55.7855 144.542 55.6925C144.473 55.5995 144.425 55.4918 144.403 55.3777C144.403 55.3777 144.675 56.4387 143.457 56.274L144.315 48.9965L146.073 47.3151Z" fill="#263238"/>
<path d="M140.619 63.4021C140.143 63.402 139.674 63.3021 139.24 63.1087C138.806 62.9153 138.417 62.6329 138.099 62.2796C137.781 61.9264 137.541 61.5103 137.395 61.0583C137.248 60.6064 137.198 60.1286 137.248 59.6561C137.359 58.5683 137.459 57.6835 137.459 57.6835C137.459 57.6835 134.778 57.266 134.743 54.5848C134.709 51.9037 135.176 45.7485 135.176 45.7485C136.7 45.0943 138.371 44.8587 140.017 45.0661C141.662 45.2734 143.223 45.9163 144.537 46.9282L144.92 47.2308L143.989 60.2536C143.928 61.1069 143.547 61.9056 142.922 62.4895C142.297 63.0734 141.474 63.3994 140.619 63.4021Z" fill="#FFBE9D"/>
<path d="M135.864 50.5899C135.919 50.5386 135.958 50.4722 135.975 50.3989C135.993 50.3256 135.988 50.2488 135.963 50.178C135.937 50.1073 135.891 50.0457 135.83 50.001C135.769 49.9563 135.697 49.9305 135.621 49.9268C135.546 49.9231 135.472 49.9417 135.407 49.9803C135.342 50.0188 135.29 50.0756 135.257 50.1435C135.225 50.2114 135.213 50.2875 135.223 50.3621C135.234 50.4367 135.266 50.5067 135.316 50.5631C135.35 50.6014 135.391 50.6325 135.437 50.6546C135.483 50.6768 135.533 50.6894 135.584 50.6919C135.635 50.6944 135.686 50.6867 135.734 50.6692C135.782 50.6517 135.826 50.6247 135.864 50.5899Z" fill="#263238"/>
<path d="M135.117 49.7434C135.159 49.7894 135.423 49.5864 135.791 49.5864C136.159 49.5864 136.431 49.7741 136.469 49.7281C136.507 49.6821 136.45 49.6247 136.331 49.5328C136.174 49.4192 135.985 49.3601 135.791 49.3642C135.597 49.3642 135.408 49.4259 135.251 49.5404C135.136 49.64 135.098 49.7243 135.117 49.7434Z" fill="#263238"/>
<path d="M139.373 50.3065C139.329 50.3324 139.29 50.3669 139.26 50.408C139.23 50.449 139.208 50.4956 139.196 50.5452C139.183 50.5949 139.181 50.6464 139.189 50.6968C139.197 50.7472 139.216 50.7955 139.243 50.8389C139.269 50.8834 139.303 50.9222 139.345 50.953C139.386 50.9837 139.433 51.0059 139.483 51.018C139.533 51.0302 139.585 51.0321 139.636 51.0237C139.687 51.0153 139.735 50.9967 139.779 50.9691C139.823 50.9428 139.861 50.9079 139.892 50.8664C139.922 50.825 139.944 50.7778 139.956 50.7278C139.968 50.6778 139.969 50.6259 139.96 50.5752C139.952 50.5245 139.933 50.4761 139.905 50.4329C139.879 50.3892 139.844 50.3512 139.803 50.3212C139.762 50.2911 139.715 50.2696 139.666 50.2578C139.616 50.246 139.565 50.2443 139.514 50.2526C139.464 50.261 139.416 50.2793 139.373 50.3065Z" fill="#263238"/>
<path d="M139.131 50.069C139.173 50.115 139.437 49.912 139.805 49.912C140.173 49.912 140.444 50.0996 140.483 50.0537C140.521 50.0077 140.46 49.9503 140.345 49.8583C140.187 49.7443 139.996 49.6851 139.801 49.6898C139.607 49.69 139.418 49.7547 139.265 49.8737C139.15 49.9656 139.112 50.0498 139.131 50.069Z" fill="#263238"/>
<path d="M137.65 53.114C137.459 53.041 137.257 52.9984 137.053 52.9876C136.957 52.9876 136.88 52.957 136.873 52.9034C136.869 52.8067 136.893 52.711 136.942 52.6276L137.233 51.8615C137.511 51.2276 137.723 50.5665 137.865 49.889C137.525 50.498 137.248 51.1396 137.037 51.8041C136.942 52.0646 136.85 52.3135 136.762 52.5701C136.697 52.6938 136.678 52.8361 136.708 52.9723C136.721 53.009 136.743 53.042 136.772 53.0686C136.801 53.0952 136.835 53.1147 136.873 53.1255C136.927 53.1394 136.982 53.1471 137.037 53.1485C137.242 53.1723 137.449 53.1606 137.65 53.114Z" fill="#263238"/>
<path d="M138.848 53.5239C139.231 53.2941 137.787 54.0869 137.036 54.0486C137.161 54.2424 137.348 54.3881 137.567 54.4618C137.785 54.5356 138.022 54.533 138.239 54.4546C139.043 54.1597 138.848 53.5239 138.848 53.5239Z" fill="white"/>
<path d="M137.434 57.6452C138.672 57.6682 139.888 57.3215 140.928 56.6494C140.928 56.6494 140.1 58.5645 137.427 58.3385L137.434 57.6452Z" fill="#EB996E"/>
<path d="M144.917 49.8277C144.975 49.8086 146.917 49.6745 146.595 51.9343C146.273 54.1942 144.098 53.1217 144.102 53.0566C144.105 52.9915 144.917 49.8277 144.917 49.8277Z" fill="#FFBE9D"/>
<path d="M144.905 52.3633C144.905 52.3633 144.94 52.3978 145.005 52.4361C145.048 52.4632 145.095 52.4816 145.145 52.4902C145.195 52.4987 145.247 52.4972 145.296 52.4859C145.455 52.4137 145.592 52.3005 145.693 52.1578C145.794 52.0151 145.855 51.848 145.871 51.6739C145.906 51.4816 145.897 51.2836 145.844 51.0955C145.832 51.022 145.803 50.9522 145.759 50.8922C145.715 50.8322 145.658 50.7837 145.591 50.7508C145.547 50.7315 145.498 50.7287 145.452 50.7427C145.406 50.7568 145.367 50.7868 145.342 50.8274C145.304 50.8848 145.311 50.9308 145.296 50.9346C145.281 50.9385 145.254 50.8887 145.296 50.8006C145.316 50.7449 145.355 50.6984 145.407 50.6703C145.441 50.6505 145.478 50.6379 145.517 50.6333C145.556 50.6286 145.596 50.6321 145.633 50.6435C145.723 50.6789 145.802 50.7371 145.862 50.8123C145.923 50.8875 145.963 50.9772 145.978 51.0725C146.048 51.2809 146.063 51.5036 146.024 51.7198C146.007 51.9229 145.93 52.1165 145.803 52.276C145.677 52.4356 145.505 52.5539 145.311 52.6161C145.248 52.6247 145.184 52.6193 145.123 52.6001C145.062 52.5808 145.006 52.5484 144.959 52.505C144.901 52.4169 144.898 52.3671 144.905 52.3633Z" fill="#EB996E"/>
<path d="M134.454 45.4919C134.494 45.2642 134.621 45.0612 134.809 44.9265C134.996 44.7918 135.229 44.7362 135.458 44.7718C135.304 44.7586 135.155 44.71 135.022 44.6299C134.89 44.5498 134.778 44.4402 134.695 44.3098C134.611 44.1793 134.559 44.0315 134.542 43.8777C134.526 43.7239 134.544 43.5682 134.598 43.4229C134.651 43.2775 134.736 43.1464 134.848 43.0395C134.96 42.9327 135.095 42.853 135.243 42.8068C135.39 42.7605 135.547 42.7489 135.7 42.7729C135.852 42.7968 135.998 42.8556 136.124 42.9447C135.822 42.6612 135.582 42.3182 135.419 41.9374C135.337 41.7427 135.318 41.5271 135.365 41.321C135.412 41.1149 135.522 40.9286 135.68 40.7883C135.855 40.6875 136.053 40.6344 136.254 40.6344C136.456 40.6344 136.654 40.6875 136.829 40.7883C137.381 41.0679 137.798 41.5735 138.361 41.811C138.924 42.0485 139.587 41.991 140.211 42.0561C140.905 42.1127 141.563 42.3876 142.092 42.8413C142.355 43.0676 142.562 43.3526 142.695 43.6732C142.828 43.9939 142.884 44.3413 142.858 44.6875C143.704 44.6377 144.631 44.6875 145.286 45.2122C145.237 44.871 145.279 44.5227 145.408 44.2031C145.537 43.8834 145.749 43.6038 146.022 43.3929C146.369 43.1509 146.774 43.0021 147.195 42.9605C147.617 42.9189 148.042 42.986 148.431 43.1554C148.615 43.2182 148.784 43.3188 148.927 43.4507C149.07 43.5826 149.184 43.7429 149.262 43.9215C149.434 44.4385 149.109 44.9939 148.699 45.354C148.315 45.6794 147.861 45.9103 147.372 46.028C146.883 46.1458 146.373 46.1471 145.884 46.0319C146.039 46.4316 146.104 46.8605 146.075 47.2882C146.033 48.0275 145.439 48.7935 145.179 49.4868L145.121 49.9426L144.677 51.8386L143.49 51.7428L143.815 47.7594C143.815 47.7594 144.038 46.0855 142.582 46.143C141.127 46.2005 139.062 47.7134 136.274 47.1274C135.816 47.0729 135.376 46.9172 134.987 46.6716C134.803 46.5384 134.657 46.3595 134.564 46.1525C134.47 45.9456 134.432 45.7178 134.454 45.4919Z" fill="#263238"/>
<path d="M150.07 47.2423C149.846 47.414 149.583 47.5272 149.304 47.5717C148.627 47.7256 147.918 47.6426 147.294 47.3366C146.671 47.0305 146.172 46.52 145.88 45.8902C145.743 45.6414 145.67 45.3622 145.669 45.0782C145.703 45.0782 145.765 45.3884 146.006 45.8442C146.315 46.4202 146.797 46.8847 147.383 47.1726C147.97 47.4605 148.632 47.5572 149.277 47.4491C149.767 47.3495 150.055 47.204 150.07 47.2423Z" fill="#263238"/>
<path d="M147.223 49.4485C147.192 49.4485 147.223 49.211 147.154 48.8587C147.045 48.3983 146.857 47.9603 146.599 47.564C146.328 47.1594 146.085 46.7371 145.871 46.3C145.771 46.1193 145.719 45.9165 145.718 45.7102C145.825 45.8787 145.918 46.0554 145.997 46.2388C146.17 46.5605 146.465 46.9742 146.763 47.4606C147.038 47.8748 147.218 48.3442 147.292 48.8357C147.337 49.042 147.312 49.2573 147.223 49.4485Z" fill="#263238"/>
<path d="M127.38 71.6026C126.047 70.7917 124.759 69.9081 123.523 68.9559C122.041 67.7034 122.148 67.5655 122.32 67.4238C122.78 67.014 125.001 69.5304 124.837 68.7031C124.672 67.8758 121.773 65.953 122.263 65.547C122.914 65.0146 125.197 67.6919 125.407 67.9026C125.618 68.1133 125.925 67.8107 125.725 67.6306C125.438 67.3702 122.496 64.5665 123.128 64.0379C123.481 63.743 123.933 64.4401 123.933 64.4401C123.933 64.4401 126.499 67.2783 126.79 67.0178C127.081 66.7574 125.641 65.0376 125.105 64.4937C124.569 63.9498 124.618 63.4863 125.044 63.4442C125.331 63.4174 126.989 65.0414 127.503 65.5891C128.016 66.1369 129.387 67.6728 129.31 66.3552C129.234 65.0376 129.655 63.9881 129.962 63.7851C130.268 63.5821 130.655 63.9498 130.509 64.3328C130.392 64.7647 130.336 65.2107 130.341 65.6581C130.33 66.0174 130.379 66.376 130.486 66.7191C130.578 67.014 130.67 67.2744 130.758 67.5042L131.658 69.9824L129.399 72.8436L127.38 71.6026Z" fill="#FFBE9D"/>
<path d="M149.674 63.0842C150.149 63.2029 152.976 64.6661 153.022 71.0741C153.057 76.1683 152.666 87.4752 149.192 89.1566C147.618 89.9227 145.228 89.9227 143.152 88.563C137.299 84.7825 126.934 72.5947 126.934 72.5947L131.573 67.6536C131.573 67.6536 143.615 79.9104 144.128 79.4585C144.894 78.7767 143.718 72.9241 144.377 67.1404C144.829 63.0267 146.744 62.3526 149.674 63.0842Z" fill="#455A64"/>
<path d="M131.563 67.8299C131.54 67.8613 131.513 67.8896 131.482 67.9141L131.233 68.1593C131.015 68.3699 130.693 68.684 130.287 69.1053C129.131 70.2991 128.068 71.5796 127.108 72.9356V72.8475C130.379 76.1836 135.152 81.0365 140.449 86.4333C141.7 87.6234 143.227 88.4853 144.892 88.9422C145.676 89.1604 146.5 89.197 147.301 89.0494C148.063 88.881 148.77 88.5241 149.358 88.0114C150.431 87.0285 151.216 85.7719 151.629 84.3765C151.995 83.1599 152.242 81.9104 152.365 80.6459C152.675 78.3477 152.84 76.4326 152.912 75.1418C152.951 74.4906 152.97 73.9927 152.985 73.6403V73.2573C152.98 73.2141 152.98 73.1703 152.985 73.1271C152.991 73.1716 152.991 73.2166 152.985 73.2611C152.985 73.3569 152.985 73.4871 152.985 73.6442C152.985 73.9889 152.985 74.4945 152.951 75.1495C152.901 76.4556 152.759 78.3477 152.464 80.6688C152.35 81.9444 152.11 83.2055 151.748 84.434C151.334 85.8605 150.54 87.1475 149.45 88.157C148.84 88.6922 148.105 89.065 147.313 89.2409C146.484 89.3947 145.631 89.358 144.819 89.1337C143.119 88.6727 141.561 87.796 140.284 86.5827C134.968 81.1783 130.234 76.2909 126.985 72.9471L126.943 72.9049L126.978 72.859C127.952 71.5066 129.033 70.2347 130.211 69.0555C130.628 68.6457 130.977 68.3393 131.187 68.1324L131.448 67.9065L131.563 67.8299Z" fill="#263238"/>
<path d="M131.568 67.6536C131.568 67.6536 131.594 67.6536 131.633 67.7073L131.813 67.8873L132.498 68.5806C133.092 69.1857 133.962 70.0514 135.053 71.1123C136.145 72.1733 137.462 73.4373 138.948 74.8239L141.293 76.9956C142.116 77.7387 142.966 78.5277 143.878 79.2708L143.721 79.3474C143.748 78.8954 143.775 78.4166 143.801 77.934C143.955 75.4022 144.096 72.9892 144.227 70.7944C144.307 69.699 144.326 68.6533 144.445 67.6766C144.533 66.7633 144.785 65.8734 145.188 65.0491C145.522 64.364 146.029 63.7779 146.659 63.3484C147.14 63.0331 147.694 62.8447 148.267 62.8007C148.628 62.7708 148.99 62.8151 149.332 62.9309C149.452 62.9662 149.567 63.0178 149.673 63.0842C149.673 63.0842 149.554 63.0344 149.321 62.9692C148.98 62.8722 148.624 62.841 148.271 62.8773C147.716 62.9348 147.183 63.1282 146.72 63.4404C146.117 63.8712 145.633 64.4468 145.311 65.1142C144.927 65.927 144.688 66.8007 144.606 67.6958C144.499 68.661 144.487 69.7066 144.41 70.8021L144.001 77.9417C143.974 78.4243 143.943 78.9069 143.92 79.355V79.5504L143.771 79.4316C142.836 78.6656 142.001 77.8995 141.178 77.1335C140.354 76.3674 139.58 75.6474 138.837 74.9502C137.359 73.5522 136.049 72.2691 134.969 71.2081C133.889 70.1471 133.035 69.247 132.456 68.6265C132.161 68.3201 131.947 68.075 131.797 67.9064L131.633 67.7188C131.583 67.6766 131.564 67.6536 131.568 67.6536Z" fill="#263238"/>
<path d="M128.979 74.64C129.145 74.3464 129.341 74.0716 129.566 73.8204C129.949 73.3339 130.492 72.6713 131.117 71.955C131.741 71.2388 132.319 70.6068 132.748 70.1587C132.968 69.903 133.213 69.6706 133.48 69.4654C133.296 69.748 133.086 70.0122 132.852 70.2544L131.266 72.0853L129.673 73.9123C129.465 74.1762 129.233 74.4199 128.979 74.64Z" fill="#263238"/>
<path d="M144.926 82.2239C144.689 81.7556 144.494 81.2673 144.344 80.7646C144.128 80.2865 143.953 79.7905 143.823 79.2823C144.391 80.1756 144.767 81.1774 144.926 82.2239Z" fill="#263238"/>
<path d="M145.98 81.408C145.529 81.1302 145.115 80.797 144.746 80.416C144.335 80.0788 143.966 79.693 143.647 79.2669C144.513 79.8785 145.297 80.598 145.98 81.408Z" fill="#263238"/>
<path d="M31.2576 138.467L18.9548 149.571L15.5842 145.258L26.3664 131.902L31.2576 138.467Z" fill="#FFBE9D"/>
<path d="M19.2369 149.989L19.6582 149.606L15.7743 144.837L14.0239 146.369L14.2576 146.668C15.3032 147.997 19.6735 153.352 20.6771 153.972C21.7955 154.661 19.2369 149.989 19.2369 149.989Z" fill="#3864DD"/>
<g opacity="0.5">
<path d="M15.5281 148.001C15.8561 147.592 16.0199 147.076 15.9878 146.553C15.9646 146.036 15.7455 145.547 15.3749 145.185L14.0918 146.334L15.5281 148.001Z" fill="white"/>
</g>
<path opacity="0.5" d="M20.4204 152.333C20.4204 152.333 21.2324 154.049 20.8532 154.075C20.4741 154.102 15.8739 148.859 14.0239 146.369L14.135 146.285L19.4705 152.448C19.4705 152.448 20.1715 152.076 20.4204 152.333Z" fill="white"/>
<path d="M14.0723 146.212C14.0896 146.242 14.1101 146.27 14.1335 146.296L14.3174 146.538L15.0183 147.403C15.612 148.131 16.4508 149.123 17.3969 150.199C18.343 151.276 19.2239 152.233 19.8713 152.919L20.6373 153.723L20.848 153.938C20.8721 153.965 20.8991 153.989 20.9284 154.01L20.8595 153.926L20.6565 153.704C20.4535 153.478 20.2007 153.206 19.8904 152.884C19.2546 152.191 18.3813 151.23 17.4352 150.153C16.4892 149.077 15.6465 148.089 15.0375 147.369L14.3212 146.518L14.1259 146.289C14.1108 146.261 14.0928 146.235 14.0723 146.212Z" fill="#263238"/>
<path d="M19.3962 152.509C19.5664 152.422 19.7465 152.357 19.9325 152.314C20.1221 152.292 20.3136 152.292 20.5032 152.314C20.3255 152.216 20.1178 152.189 19.921 152.237C19.7186 152.26 19.5317 152.357 19.3962 152.509Z" fill="#263238"/>
<path d="M18.8948 150.548C18.9943 150.571 19.0979 150.571 19.1974 150.548C19.3621 150.525 19.4923 150.487 19.4885 150.464C19.2857 150.446 19.0819 150.479 18.8948 150.559V150.548Z" fill="#263238"/>
<path d="M18.7615 150.004C18.7615 150.004 18.8687 150.054 19.0104 150.069C19.1522 150.084 19.2671 150.069 19.2709 150.069C19.2747 150.069 19.1598 150.019 19.0181 150.004C18.8764 149.989 18.7615 149.981 18.7615 150.004Z" fill="#263238"/>
<path d="M18.9861 149.387C18.9861 149.387 19.0512 149.517 19.1661 149.651C19.281 149.786 19.3883 149.885 19.4036 149.87C19.4189 149.854 19.3385 149.74 19.2197 149.606C19.101 149.471 19.0014 149.372 18.9861 149.387Z" fill="#263238"/>
<path d="M19.2205 149.035C19.2359 149.161 19.2909 149.279 19.3775 149.372C19.5039 149.537 19.6456 149.632 19.6571 149.617C19.6686 149.602 19.5537 149.487 19.4388 149.326C19.3738 149.223 19.3008 149.126 19.2205 149.035Z" fill="#263238"/>
<path d="M19.4286 150.352C19.4989 150.464 19.5884 150.563 19.6929 150.644C19.7987 150.739 19.9143 150.824 20.0376 150.896C20.1094 150.946 20.1881 150.985 20.2713 151.011C20.3206 151.03 20.3751 151.03 20.4245 151.011C20.4511 150.997 20.4729 150.975 20.4873 150.949C20.5016 150.922 20.5077 150.892 20.5049 150.862C20.4752 150.759 20.4232 150.663 20.3524 150.582C20.2817 150.502 20.1941 150.437 20.0957 150.394C19.9974 150.351 19.8908 150.33 19.7834 150.333C19.6761 150.336 19.5706 150.362 19.4746 150.41C19.4411 150.425 19.4111 150.448 19.3865 150.475C19.5073 150.421 19.6374 150.391 19.7695 150.387C19.9048 150.385 20.0377 150.423 20.1525 150.494C20.2234 150.535 20.2851 150.591 20.3338 150.656C20.3825 150.722 20.4173 150.797 20.436 150.877C20.436 150.954 20.3747 150.984 20.2981 150.961C20.2225 150.933 20.1495 150.899 20.0798 150.858C19.958 150.789 19.8416 150.711 19.7312 150.624C19.5359 150.456 19.4401 150.341 19.4286 150.352Z" fill="#263238"/>
<path d="M19.4845 150.44C19.5778 150.423 19.661 150.371 19.7182 150.295C19.7883 150.218 19.8383 150.124 19.8637 150.023C19.888 149.959 19.8948 149.89 19.8833 149.823C19.8719 149.755 19.8426 149.692 19.7986 149.64C19.7652 149.616 19.7239 149.606 19.6834 149.612C19.6428 149.618 19.6059 149.639 19.5803 149.671C19.54 149.719 19.51 149.775 19.4922 149.835C19.4615 149.932 19.4435 150.033 19.4386 150.134C19.424 150.226 19.4333 150.319 19.4654 150.406C19.4795 150.317 19.4872 150.228 19.4884 150.138C19.5031 150.043 19.5262 149.949 19.5573 149.858C19.5841 149.763 19.6722 149.636 19.7526 149.697C19.7812 149.742 19.8001 149.793 19.808 149.846C19.8159 149.899 19.8127 149.952 19.7986 150.004C19.7779 150.096 19.7374 150.182 19.6799 150.257C19.62 150.323 19.5547 150.385 19.4845 150.44Z" fill="#263238"/>
<path d="M15.4102 145.197C15.4102 145.197 15.5404 145.316 15.6974 145.546C15.9047 145.844 16.0253 146.194 16.046 146.557C16.0594 146.918 15.9747 147.277 15.8008 147.595C15.663 147.836 15.5366 147.978 15.548 147.978C15.5595 147.978 15.5863 147.955 15.64 147.897C15.7175 147.816 15.7856 147.726 15.843 147.629C16.0406 147.309 16.1367 146.936 16.1188 146.561C16.0973 146.184 15.964 145.823 15.7357 145.523C15.6687 145.432 15.5916 145.35 15.5059 145.277C15.4523 145.216 15.414 145.193 15.4102 145.197Z" fill="#263238"/>
<path d="M16.4763 148.188C16.6218 148.452 16.8008 148.695 17.0087 148.912C17.1989 149.147 17.4191 149.355 17.6637 149.533C17.6637 149.533 17.3956 149.234 17.07 148.862C16.7444 148.491 16.5146 148.177 16.4763 148.188Z" fill="#263238"/>
<path d="M15.6955 147.284C15.6725 147.284 15.6533 147.365 15.6112 147.453C15.5691 147.541 15.5231 147.618 15.5384 147.633C15.5537 147.648 15.6303 147.591 15.6801 147.484C15.7299 147.376 15.7146 147.284 15.6955 147.284Z" fill="#263238"/>
<path d="M15.8143 146.572C15.7952 146.572 15.7722 146.641 15.7645 146.733C15.7569 146.825 15.7645 146.898 15.7913 146.898C15.8182 146.898 15.8335 146.829 15.8411 146.737C15.8488 146.645 15.8335 146.572 15.8143 146.572Z" fill="#263238"/>
<path d="M15.5842 145.917C15.5842 145.917 15.6264 145.994 15.6608 146.082C15.6953 146.17 15.703 146.25 15.7259 146.254C15.7489 146.258 15.7757 146.162 15.7259 146.055C15.6762 145.948 15.5919 145.898 15.5842 145.917Z" fill="#263238"/>
<path d="M15.3694 145.492C15.3694 145.492 15.3694 145.545 15.3694 145.595C15.3694 145.645 15.4192 145.683 15.4383 145.676C15.4575 145.668 15.4383 145.622 15.4383 145.568C15.4383 145.515 15.3885 145.484 15.3694 145.492Z" fill="#263238"/>
<path d="M53.1394 138.352L54.6217 155.125H48.2826L45.4866 138.352H53.1394Z" fill="#FFBE9D"/>
<path d="M54.4365 155.282V154.719L48.2812 154.692L48.354 157.017H48.737C50.43 157.048 57.3398 157.063 58.4544 156.68C59.6571 156.266 54.4365 155.282 54.4365 155.282Z" fill="#3864DD"/>
<g opacity="0.5">
<path d="M50.5313 156.887C50.4233 156.374 50.1284 155.919 49.704 155.611C49.2872 155.308 48.7723 155.172 48.26 155.228L48.3213 156.94L50.5313 156.887Z" fill="white"/>
</g>
<path opacity="0.5" d="M56.9864 155.853C56.9864 155.853 58.825 156.312 58.6105 156.619C58.396 156.925 51.4096 157.174 48.3186 157.002V156.864L56.4694 156.645C56.4694 156.645 56.6302 155.883 56.9864 155.853Z" fill="white"/>
<path d="M48.2227 156.879H48.3299H48.6325H49.7433C50.6855 156.879 51.984 156.879 53.4165 156.814C54.849 156.749 56.1474 156.692 57.0858 156.626L58.1966 156.542L58.4992 156.512H58.6026H58.4992H58.1966L57.082 156.573C56.1436 156.626 54.849 156.692 53.4165 156.741C51.984 156.791 50.6855 156.814 49.7433 156.826H48.6325H48.3299L48.2227 156.879Z" fill="#263238"/>
<path d="M56.4712 156.757C56.5133 156.57 56.5762 156.389 56.6589 156.217C56.7693 156.057 56.8978 155.91 57.0419 155.78C56.8526 155.854 56.6991 155.998 56.6129 156.182C56.4964 156.35 56.446 156.554 56.4712 156.757Z" fill="#263238"/>
<path d="M54.6306 155.902C54.6498 155.902 54.734 155.807 54.8183 155.661C54.9026 155.516 54.9562 155.393 54.937 155.382C54.859 155.449 54.7963 155.533 54.7532 155.627C54.6929 155.709 54.6511 155.803 54.6306 155.902Z" fill="#263238"/>
<path d="M54.1313 155.661C54.1313 155.661 54.2385 155.608 54.3419 155.508C54.4454 155.408 54.5143 155.316 54.499 155.305C54.4837 155.293 54.3917 155.355 54.2883 155.454C54.1849 155.554 54.116 155.638 54.1313 155.661Z" fill="#263238"/>
<path d="M53.7971 155.094C53.8996 155.128 54.0084 155.137 54.115 155.121C54.2241 155.13 54.3338 155.116 54.4368 155.079C54.3334 155.044 54.2232 155.033 54.115 155.048C53.9388 155.052 53.7971 155.071 53.7971 155.094Z" fill="#263238"/>
<path d="M53.6702 154.688C53.7778 154.755 53.9036 154.788 54.0302 154.78C54.1612 154.802 54.2955 154.78 54.4132 154.719C54.2936 154.706 54.1729 154.706 54.0532 154.719C53.9266 154.698 53.7985 154.688 53.6702 154.688Z" fill="#263238"/>
<path d="M54.8225 155.362C54.9492 155.385 55.0788 155.385 55.2055 155.362C55.3476 155.339 55.4874 155.303 55.623 155.255C55.7047 155.228 55.783 155.192 55.8567 155.148C55.9031 155.119 55.9371 155.074 55.9524 155.021C55.957 154.992 55.9534 154.963 55.9418 154.936C55.9303 154.908 55.9114 154.885 55.8873 154.868C55.7349 154.799 55.5629 154.785 55.4012 154.829C55.2396 154.873 55.0985 154.972 55.0025 155.11C54.9438 155.189 54.9032 155.281 54.8838 155.378C54.8747 155.412 54.8747 155.447 54.8838 155.481C54.9225 155.36 54.9793 155.245 55.0523 155.14C55.1372 155.035 55.25 154.955 55.3779 154.91C55.4525 154.879 55.5326 154.863 55.6135 154.863C55.6943 154.863 55.7744 154.879 55.849 154.91C55.9141 154.956 55.8911 155.029 55.8222 155.075C55.7537 155.114 55.682 155.148 55.6077 155.175C55.4772 155.225 55.3427 155.265 55.2055 155.293C54.9757 155.343 54.8225 155.351 54.8225 155.362Z" fill="#263238"/>
<path d="M54.9286 155.378C54.9712 155.294 54.9834 155.198 54.963 155.106C54.948 155.003 54.9072 154.905 54.8443 154.822C54.8105 154.764 54.762 154.715 54.7034 154.682C54.6449 154.648 54.5786 154.631 54.5111 154.631C54.4716 154.642 54.4378 154.667 54.4165 154.702C54.3952 154.737 54.3879 154.778 54.3962 154.818C54.4058 154.881 54.4308 154.94 54.4689 154.991C54.5231 155.076 54.5889 155.153 54.6643 155.221C54.7264 155.291 54.8056 155.343 54.8941 155.374C54.8941 155.374 54.8136 155.305 54.6987 155.186C54.6352 155.114 54.5776 155.037 54.5264 154.956C54.4689 154.872 54.4268 154.727 54.5264 154.704C54.626 154.681 54.7294 154.788 54.7907 154.861C54.8487 154.935 54.8893 155.021 54.9094 155.113C54.9229 155.201 54.9293 155.289 54.9286 155.378Z" fill="#263238"/>
<path d="M48.3088 155.202C48.3088 155.202 48.485 155.179 48.7608 155.202C49.1234 155.233 49.4698 155.366 49.7605 155.585C50.05 155.802 50.274 156.095 50.4078 156.431C50.5112 156.692 50.5265 156.868 50.5419 156.864C50.5478 156.823 50.5478 156.782 50.5419 156.741C50.5253 156.63 50.4984 156.521 50.4614 156.416C50.3397 156.059 50.1126 155.748 49.8103 155.523C49.5062 155.302 49.1439 155.176 48.7685 155.159C48.6563 155.15 48.5436 155.15 48.4314 155.159C48.3885 155.166 48.347 155.181 48.3088 155.202Z" fill="#263238"/>
<path d="M51.2793 156.27C51.5745 156.327 51.8759 156.343 52.1756 156.32C52.4764 156.322 52.7763 156.286 53.068 156.213C53.068 156.19 52.6658 156.232 52.1717 156.247C51.6776 156.262 51.2793 156.251 51.2793 156.27Z" fill="#263238"/>
<path d="M50.0798 156.305C50.0798 156.305 50.1143 156.389 50.1603 156.477C50.2062 156.565 50.2292 156.649 50.2484 156.649C50.2675 156.649 50.279 156.55 50.2254 156.446C50.1718 156.343 50.0913 156.289 50.0798 156.305Z" fill="#263238"/>
<path d="M49.6111 155.761C49.6111 155.761 49.6379 155.837 49.703 155.899C49.7681 155.96 49.8332 155.998 49.8486 155.983C49.8639 155.968 49.8218 155.906 49.7528 155.845C49.6839 155.784 49.6226 155.745 49.6111 155.761Z" fill="#263238"/>
<path d="M48.9555 155.523C48.9555 155.546 49.0398 155.542 49.1317 155.569C49.2237 155.596 49.2888 155.646 49.3041 155.631C49.3194 155.615 49.2658 155.531 49.1509 155.5C49.036 155.47 48.9479 155.508 48.9555 155.523Z" fill="#263238"/>
<path d="M48.488 155.42C48.488 155.439 48.5187 155.47 48.5685 155.489C48.6183 155.508 48.6681 155.489 48.6757 155.489C48.6834 155.489 48.6451 155.439 48.5953 155.42C48.5455 155.401 48.4957 155.401 48.488 155.42Z" fill="#263238"/>
<path d="M41.9942 89.126C41.9942 89.126 46.9544 122.066 46.2343 123.671C45.5142 125.276 29.4464 141.711 29.4464 141.711L23.4099 131.385C23.4099 131.385 34.0427 119.607 33.8895 118.998C33.7362 118.389 26.229 86.4754 26.229 86.4754L41.9942 89.126Z" fill="#263238"/>
<path d="M43.7611 101.291C43.7113 100.938 39.7087 91.9412 39.7087 91.9412L41.6507 89.1988L41.9954 89.126L43.7611 101.291Z" fill="#263238"/>
<path d="M23.4134 86.0235L23.1109 87.2453C22.2346 90.8509 22.7834 94.6556 24.643 97.8666L38.0795 121.166C39.0341 122.817 39.7291 124.605 40.1401 126.467L43.4916 141.543H54.5227C54.5227 141.543 53.1591 131.201 51.9449 123.659C51.0257 117.964 43.4035 100.295 39.7111 91.9297L42.0093 89.1145L38.0373 88.4519L23.4134 86.0235Z" fill="#263238"/>
<path d="M40 91.8761C40.154 92.3799 40.3421 92.8726 40.563 93.3507C40.9461 94.2509 41.4363 95.4957 41.9726 96.8784C42.5088 98.2611 42.9799 99.5251 43.317 100.437C43.4789 100.938 43.6733 101.428 43.8992 101.904C43.8853 101.761 43.8531 101.621 43.8034 101.486C43.7307 101.226 43.6157 100.847 43.4664 100.383C43.1638 99.4561 42.7003 98.1883 42.1794 96.798C41.6585 95.4076 41.1108 94.1742 40.7048 93.2895C40.5018 92.8452 40.3217 92.4889 40.2107 92.2476C40.1573 92.115 40.0864 91.99 40 91.8761Z" fill="#455A64"/>
<path d="M41.2082 131.044C41.2167 130.958 41.2167 130.87 41.2082 130.784C41.1852 130.588 41.1584 130.343 41.1239 130.037C41.0858 129.642 41.027 129.25 40.9477 128.861C40.8596 128.409 40.7754 127.884 40.626 127.329C40.557 127.045 40.4843 126.747 40.4077 126.44C40.3311 126.134 40.2238 125.816 40.1242 125.486C39.9404 124.824 39.6799 124.138 39.4271 123.41C38.8265 121.843 38.1425 120.309 37.3779 118.814C35.9619 116.126 34.3941 113.522 32.6821 111.012C32.0348 110.047 31.4985 109.269 31.1232 108.737L30.6903 108.143C30.6417 108.071 30.5866 108.003 30.5256 107.94C30.5587 108.021 30.6011 108.099 30.652 108.17L31.0542 108.802C31.4372 109.373 31.9352 110.154 32.5557 111.1C33.8158 113.054 35.5547 115.765 37.1864 118.914C37.94 120.396 38.6188 121.914 39.2203 123.464C39.4769 124.184 39.745 124.866 39.9365 125.521C40.0361 125.847 40.1396 126.161 40.2276 126.467C40.3157 126.773 40.3847 127.065 40.4575 127.348C40.6183 127.907 40.7103 128.424 40.8098 128.88C40.9094 129.336 40.9784 129.723 41.0243 130.029C41.0703 130.336 41.1163 130.577 41.1507 130.768C41.1593 130.862 41.1786 130.955 41.2082 131.044Z" fill="#455A64"/>
<path d="M25.222 96.7673C25.222 96.7673 25.1913 96.7329 25.1377 96.6524L24.9041 96.2694C25.0882 95.9801 25.3291 95.7311 25.6121 95.5376C25.8952 95.344 26.2146 95.2099 26.5511 95.1433C27.0541 95.0301 27.5742 95.0145 28.0832 95.0973C28.6808 95.2018 29.2679 95.3595 29.8374 95.5685C30.4954 95.7717 31.1359 96.0279 31.7525 96.3345C32.4564 96.6852 33.01 97.2782 33.3114 98.0045C33.4619 98.401 33.4873 98.8341 33.3842 99.2455C33.2585 99.6441 33.093 100.029 32.8901 100.395C32.683 100.751 32.5709 101.154 32.5645 101.567C32.598 101.982 32.7883 102.37 33.097 102.651C33.8324 103.382 34.9201 103.516 35.8203 103.972C36.6987 104.417 37.4145 105.127 37.8656 106.002C38.2891 106.78 38.488 107.661 38.4401 108.545C38.3949 109.316 38.1464 110.062 37.7201 110.706C37.1112 111.641 36.202 112.34 35.1423 112.69C34.8569 112.78 34.5629 112.84 34.2652 112.87C34.1619 112.877 34.0582 112.877 33.9549 112.87C34.3448 112.813 34.7292 112.723 35.104 112.602C36.1284 112.234 37.0014 111.536 37.586 110.617C37.9899 109.991 38.2224 109.27 38.2601 108.526C38.2961 107.672 38.0988 106.825 37.6894 106.075C37.2501 105.238 36.5605 104.559 35.7168 104.133C35.284 103.918 34.7976 103.773 34.3111 103.589C33.8014 103.421 33.3337 103.145 32.9399 102.781C32.5956 102.465 32.3847 102.029 32.3501 101.563C32.3569 101.117 32.4769 100.681 32.6986 100.295C32.8974 99.9392 33.0603 99.5646 33.185 99.1766C33.2797 98.8019 33.2556 98.407 33.1161 98.0466C32.836 97.3596 32.3161 96.7975 31.6529 96.4647C31.0468 96.153 30.4166 95.8904 29.7685 95.6795C29.2116 95.4653 28.6358 95.3037 28.0487 95.1969C27.5581 95.1067 27.0545 95.1132 26.5664 95.2161C26.2398 95.2764 25.9282 95.4004 25.6496 95.5811C25.3709 95.7619 25.1306 95.9958 24.9424 96.2694L25.153 96.6524C25.1802 96.688 25.2034 96.7266 25.222 96.7673Z" fill="#FAFAFA"/>
<path d="M53.0718 131.086C52.8011 130.848 52.4948 130.655 52.164 130.512C51.7694 130.357 51.3581 130.249 50.9383 130.19C50.4519 130.11 49.885 130.06 49.2645 129.96C48.5769 129.862 47.9134 129.637 47.3073 129.298C46.147 128.649 45.2622 127.6 44.8176 126.347C44.373 125.094 44.3988 123.723 44.8904 122.487C45.2543 121.587 45.802 120.806 45.9552 119.936C46.0522 119.086 45.9282 118.224 45.5951 117.435C45.3039 116.704 45.0558 115.955 44.8521 115.195C44.6869 114.516 44.6869 113.808 44.8521 113.13C45.0921 112.148 45.6462 111.271 46.4301 110.633C46.7104 110.395 47.029 110.208 47.3724 110.077C47.0597 110.259 46.7614 110.464 46.4799 110.69C45.7357 111.336 45.2143 112.201 44.99 113.161C44.8312 113.818 44.8312 114.503 44.99 115.16C45.203 115.912 45.4588 116.651 45.756 117.374C46.1061 118.191 46.2381 119.084 46.139 119.967C45.9782 120.898 45.4151 121.691 45.0704 122.564C44.5955 123.755 44.5664 125.077 44.9887 126.287C45.4109 127.498 46.256 128.515 47.3685 129.152C47.9606 129.491 48.6097 129.718 49.2837 129.822C49.8965 129.93 50.4634 129.987 50.9537 130.079C51.3804 130.155 51.796 130.283 52.1908 130.462C52.4394 130.573 52.6704 130.72 52.8764 130.899C53.0105 131.01 53.0794 131.079 53.0718 131.086Z" fill="#FAFAFA"/>
<path d="M47.9263 142.075C47.888 142.075 47.8765 141.577 47.6773 140.807C47.5604 140.358 47.4 139.92 47.1985 139.501C46.9467 138.991 46.6425 138.508 46.2908 138.061C45.9305 137.62 45.5249 137.218 45.0804 136.862C44.7153 136.57 44.3228 136.313 43.9084 136.096C43.1998 135.736 42.7133 135.617 42.7248 135.579C42.8426 135.581 42.9593 135.603 43.0695 135.644C43.2001 135.674 43.3282 135.713 43.4526 135.763C43.6254 135.821 43.7943 135.89 43.9581 135.97C44.3918 136.169 44.8027 136.414 45.1838 136.701C46.1193 137.409 46.8642 138.339 47.3517 139.406C47.5504 139.839 47.7019 140.292 47.8037 140.758C47.8464 140.935 47.8771 141.116 47.8956 141.298C47.9175 141.433 47.9278 141.57 47.9263 141.708C47.9477 141.829 47.9477 141.954 47.9263 142.075Z" fill="#FAFAFA"/>
<path d="M42.2626 98.7476C42.2626 98.7476 42.2128 98.7476 42.1132 98.7782C41.9672 98.7989 41.8202 98.8117 41.6728 98.8165C41.1311 98.8345 40.5896 98.7765 40.0641 98.6442C39.2796 98.4551 38.5368 98.1226 37.8732 97.6636C37.0461 97.111 36.366 96.3655 35.8915 95.4913C35.4171 94.6171 35.1625 93.6406 35.1499 92.646C35.1318 91.8389 35.2616 91.0354 35.5329 90.2751C35.7104 89.7622 35.9579 89.2763 36.2683 88.8311C36.3501 88.7105 36.4396 88.5953 36.5364 88.4863C36.6015 88.4097 36.6398 88.3714 36.6436 88.3753C36.2358 88.9792 35.9075 89.6331 35.6669 90.321C35.4243 91.0699 35.3154 91.8556 35.3452 92.6422C35.3657 93.6035 35.6138 94.5464 36.0692 95.3933C36.5246 96.2402 37.1744 96.967 37.9651 97.5142C38.6075 97.9675 39.3244 98.3046 40.0832 98.5101C40.7961 98.6847 41.5289 98.7646 42.2626 98.7476Z" fill="#FAFAFA"/>
<path d="M32.4442 120.239C32.5183 120.265 32.5901 120.297 32.6587 120.335C32.8004 120.4 32.9995 120.511 33.2523 120.66C33.968 121.094 34.602 121.65 35.1253 122.304C35.4869 122.762 35.7644 123.281 35.945 123.836C36.1455 124.479 36.1902 125.16 36.0752 125.824C35.9605 126.568 35.6054 127.254 35.064 127.777C34.4972 128.329 33.666 128.512 33.1834 129.118C32.7008 129.723 32.5935 130.516 32.5208 131.255C32.4974 131.99 32.3684 132.717 32.1377 133.415C31.878 134.046 31.4049 134.565 30.801 134.882C30.2877 135.162 29.7214 135.332 29.1387 135.38C28.3037 135.426 27.4665 135.343 26.6567 135.135C26.3694 135.066 26.1511 135.009 26.0017 134.966C25.9248 134.952 25.8502 134.927 25.7795 134.894C25.8584 134.897 25.9366 134.909 26.0132 134.928L26.672 135.058C27.4762 135.236 28.3018 135.297 29.1233 135.238C29.6832 135.184 30.2257 135.015 30.7167 134.74C31.283 134.435 31.7256 133.942 31.9692 133.346C32.1847 132.662 32.3046 131.952 32.3254 131.236C32.3536 130.849 32.4125 130.464 32.5016 130.087C32.5916 129.686 32.7724 129.311 33.0302 128.991C33.5817 128.329 34.4167 128.149 34.9453 127.635C35.4572 127.143 35.7948 126.498 35.9067 125.797C36.0204 125.159 35.9836 124.503 35.7995 123.882C35.6309 123.345 35.3718 122.841 35.0334 122.392C34.5276 121.742 33.9181 121.18 33.2294 120.729C32.9881 120.568 32.7927 120.45 32.6587 120.373C32.5819 120.338 32.5098 120.292 32.4442 120.239Z" fill="#FAFAFA"/>
<path d="M33.6191 40.9836C31.4933 40.4551 29.2067 41.7842 28.1495 43.6993C27.0924 45.6144 27.0809 47.9623 27.5788 50.092C27.7895 50.9844 28.0844 51.9075 27.8776 52.8038C27.6554 53.7652 26.8894 54.5121 26.5217 55.4313C25.8208 57.2047 26.7132 59.1696 27.5865 60.8626C27.9695 61.6287 28.4943 62.4905 29.3446 62.659C30.2983 62.8467 31.1371 62.0845 31.9415 61.5367C33.3613 60.5786 35.0893 60.189 36.7829 60.4451C38.698 60.74 40.4293 61.8393 42.3521 61.8738C43.223 61.88 44.0815 61.6676 44.849 61.2561C45.6166 60.8446 46.2686 60.247 46.7454 59.5182C47.3161 58.6257 47.5114 57.2813 46.6879 56.6225C46.144 56.1897 45.3129 56.205 44.8341 55.6994C44.2519 55.0828 44.5047 54.0907 44.8034 53.3017C45.1022 52.5127 45.401 51.5475 44.8686 50.8887C44.2749 50.1456 42.9879 50.2873 42.421 49.5251C41.8541 48.7629 42.4517 47.61 42.421 46.5988C42.3834 46.1535 42.2457 45.7224 42.0182 45.3377C41.7907 44.9531 41.4793 44.6248 41.1072 44.3772C40.3872 43.8525 40.2876 43.684 39.2955 41.8799" fill="#263238"/>
<path d="M30.6523 58.4994L38.3128 59.1543C38.3128 59.1543 43.8935 58.3385 46.0307 72.4912L54.5109 72.1427L54.8939 77.7808L43.2308 78.3553L41.8558 77.5318L41.9937 89.126L22.7007 87.705C23.1374 85.0736 25.1942 81.611 25.8837 79.3895C25.1827 77.6353 21.3065 70.4842 21.115 66.811C20.5941 56.7528 30.6523 58.4994 30.6523 58.4994Z" fill="#3864DD"/>
<path opacity="0.3" d="M42.7196 68.8755C42.7196 68.8755 44.0755 70.4076 44.0984 71.6984C44.1329 73.7667 43.612 74.8277 44.2593 77.0875L42.4131 77.5318C42.4131 77.5318 42.1297 76.9803 42.371 75.8006C42.6123 74.6208 43.0796 73.1845 43.2864 71.9014C43.47 70.8574 43.2686 69.7822 42.7196 68.8755Z" fill="black"/>
<path d="M42.412 77.5318C42.3554 77.3864 42.3168 77.2346 42.2971 77.0799C42.2427 76.6577 42.2427 76.2304 42.2971 75.8082C42.379 75.188 42.507 74.5747 42.6801 73.9735C42.8978 73.2477 43.0667 72.508 43.1857 71.7596C43.2993 71.0189 43.2188 70.2614 42.952 69.5611C42.7074 69.0004 42.3737 68.4831 41.9638 68.029C41.2667 67.2361 40.7726 66.7956 40.8148 66.7688C40.9454 66.8521 41.0673 66.9483 41.1786 67.0561C41.4977 67.3323 41.8008 67.6264 42.0864 67.9371C42.5247 68.395 42.881 68.9249 43.1397 69.5036C43.43 70.2327 43.5187 71.0266 43.3963 71.8018C43.2797 72.5599 43.1043 73.3078 42.8716 74.0386C42.6903 74.6305 42.5458 75.233 42.4388 75.8427C42.3744 76.2543 42.3526 76.6714 42.3737 77.0875C42.4018 77.2339 42.4147 77.3828 42.412 77.5318Z" fill="#263238"/>
<g opacity="0.2">
<path d="M42.6635 77.3863L36.9488 77.5165C36.4958 77.5593 36.039 77.5058 35.6082 77.3595C35.0068 77.1067 34.62 76.5207 34.2829 75.9615C33.2794 74.3068 32.3601 72.6062 31.5251 70.8596C31.5251 70.8596 33.0343 75.6589 33.9803 77.754C34.0723 78.0184 34.2622 78.2374 34.511 78.3657C34.7598 78.494 35.0484 78.5218 35.3171 78.4435C37.8041 78.448 40.2787 78.0919 42.6635 77.3863Z" fill="black"/>
</g>
<path d="M80.0269 64.7465C80.8695 64.6865 81.7134 64.8435 82.4782 65.2023C82.804 65.3613 83.1614 65.445 83.5239 65.4474H84.4584V53.4396C84.4584 53.1973 84.4107 52.9575 84.3178 52.7337C84.225 52.5099 84.089 52.3066 83.9175 52.1355C83.746 51.9644 83.5424 51.8288 83.3185 51.7364C83.0945 51.644 82.8545 51.5968 82.6123 51.5973H70.6542V50.7853C70.6581 50.4089 70.7472 50.0383 70.9147 49.7013C71.3701 48.7676 71.5176 47.7135 71.336 46.6907C71.1235 45.4612 70.4571 44.3563 69.4687 43.5947C68.4803 42.8331 67.242 42.4703 65.999 42.5782C64.7559 42.6861 63.5986 43.2567 62.7562 44.1772C61.9138 45.0977 61.4477 46.3009 61.4502 47.5487C61.4501 48.2388 61.5949 48.9213 61.8753 49.5519C62.0171 49.8677 62.0927 50.2093 62.0975 50.5554V51.5973H50.4344C49.9458 51.5973 49.4772 51.7914 49.1317 52.1369C48.7861 52.4824 48.592 52.951 48.592 53.4396V85.8779C48.592 86.0751 48.6309 86.2704 48.7063 86.4525C48.7818 86.6347 48.8924 86.8002 49.0318 86.9396C49.1712 87.0791 49.3367 87.1897 49.5189 87.2651C49.7011 87.3406 49.8963 87.3794 50.0935 87.3794H82.957C83.3549 87.3784 83.7362 87.2199 84.0176 86.9385C84.2989 86.6572 84.4574 86.2758 84.4584 85.8779V74.1536H83.1294C82.822 74.1539 82.5177 74.2138 82.2331 74.3298C81.6445 74.57 81.0149 74.6936 80.3792 74.6936C79.0586 74.7404 77.7736 74.2606 76.8067 73.3598C75.8399 72.4591 75.2705 71.2111 75.2237 69.8905C75.177 68.5699 75.6568 67.2848 76.5576 66.318C77.4583 65.3512 78.7063 64.7817 80.0269 64.735V64.7465Z" fill="#3864DD"/>
<path opacity="0.2" d="M80.0269 64.7465C80.8695 64.6865 81.7134 64.8435 82.4782 65.2023C82.804 65.3613 83.1614 65.445 83.5239 65.4474H84.4584V53.4396C84.4584 53.1973 84.4107 52.9575 84.3178 52.7337C84.225 52.5099 84.089 52.3066 83.9175 52.1355C83.746 51.9644 83.5424 51.8288 83.3185 51.7364C83.0945 51.644 82.8545 51.5968 82.6123 51.5973H70.6542V50.7853C70.6581 50.4089 70.7472 50.0383 70.9147 49.7013C71.3701 48.7676 71.5176 47.7135 71.336 46.6907C71.1235 45.4612 70.4571 44.3563 69.4687 43.5947C68.4803 42.8331 67.242 42.4703 65.999 42.5782C64.7559 42.6861 63.5986 43.2567 62.7562 44.1772C61.9138 45.0977 61.4477 46.3009 61.4502 47.5487C61.4501 48.2388 61.5949 48.9213 61.8753 49.5519C62.0171 49.8677 62.0927 50.2093 62.0975 50.5554V51.5973H50.4344C49.9458 51.5973 49.4772 51.7914 49.1317 52.1369C48.7861 52.4824 48.592 52.951 48.592 53.4396V85.8779C48.592 86.0751 48.6309 86.2704 48.7063 86.4525C48.7818 86.6347 48.8924 86.8002 49.0318 86.9396C49.1712 87.0791 49.3367 87.1897 49.5189 87.2651C49.7011 87.3406 49.8963 87.3794 50.0935 87.3794H82.957C83.3549 87.3784 83.7362 87.2199 84.0176 86.9385C84.2989 86.6572 84.4574 86.2758 84.4584 85.8779V74.1536H83.1294C82.822 74.1539 82.5177 74.2138 82.2331 74.3298C81.6445 74.57 81.0149 74.6936 80.3792 74.6936C79.0586 74.7404 77.7736 74.2606 76.8067 73.3598C75.8399 72.4591 75.2705 71.2111 75.2237 69.8905C75.177 68.5699 75.6568 67.2848 76.5576 66.318C77.4583 65.3512 78.7063 64.7817 80.0269 64.735V64.7465Z" fill="white"/>
<path d="M30.5529 58.7675L29.9592 45.2467L35.3216 41.179L40.2013 43.5652C40.2013 43.5652 40.366 49.6936 40.2013 52.3518C40.0366 55.01 37.3593 55.2934 37.3593 55.2934C37.3593 55.2934 37.4244 56.8485 37.4857 58.484C37.5033 58.9537 37.4255 59.422 37.2569 59.8607C37.0882 60.2994 36.8324 60.6993 36.5047 61.0363C36.1771 61.3732 35.7845 61.6402 35.3507 61.821C34.9169 62.0018 34.4509 62.0928 33.981 62.0883C33.0935 62.0774 32.2439 61.7273 31.6064 61.1098C30.9689 60.4922 30.592 59.6541 30.5529 58.7675Z" fill="#FFBE9D"/>
<path d="M39.6776 48.0313C39.6776 48.0987 39.6576 48.1646 39.6202 48.2207C39.5827 48.2768 39.5295 48.3204 39.4672 48.3462C39.4049 48.372 39.3364 48.3788 39.2702 48.3656C39.2041 48.3525 39.1434 48.32 39.0957 48.2724C39.048 48.2247 39.0156 48.1639 39.0024 48.0978C38.9892 48.0317 38.996 47.9631 39.0218 47.9008C39.0476 47.8386 39.0913 47.7853 39.1474 47.7479C39.2034 47.7104 39.2693 47.6904 39.3367 47.6904C39.4272 47.6904 39.5139 47.7263 39.5778 47.7903C39.6417 47.8542 39.6776 47.9409 39.6776 48.0313Z" fill="#263238"/>
<path d="M40.0056 47.6598C39.9597 47.7057 39.7107 47.4912 39.343 47.4721C38.9753 47.4529 38.7033 47.6291 38.665 47.5793C38.6267 47.5295 38.6918 47.4759 38.8106 47.3955C38.9718 47.2893 39.1631 47.2383 39.3557 47.25C39.5484 47.2617 39.7321 47.3356 39.8792 47.4606C39.9903 47.5564 40.0248 47.6253 40.0056 47.6598Z" fill="#263238"/>
<path d="M35.7387 48.0313C35.7387 48.0987 35.7187 48.1646 35.6812 48.2207C35.6438 48.2768 35.5905 48.3204 35.5282 48.3462C35.4659 48.372 35.3974 48.3788 35.3313 48.3656C35.2651 48.3525 35.2044 48.32 35.1567 48.2724C35.1091 48.2247 35.0766 48.1639 35.0634 48.0978C35.0503 48.0317 35.057 47.9631 35.0828 47.9008C35.1086 47.8386 35.1523 47.7853 35.2084 47.7479C35.2644 47.7104 35.3304 47.6904 35.3978 47.6904C35.4882 47.6904 35.5749 47.7263 35.6388 47.7903C35.7028 47.8542 35.7387 47.9409 35.7387 48.0313Z" fill="#263238"/>
<path d="M35.9495 47.6598C35.9035 47.7057 35.6545 47.4912 35.2868 47.4721C34.9191 47.4529 34.6472 47.6291 34.6089 47.5793C34.5706 47.5295 34.6357 47.4759 34.7544 47.3955C34.9113 47.2895 35.0976 47.2358 35.2868 47.2423C35.4797 47.2548 35.6636 47.3286 35.8116 47.4529C35.9341 47.5564 35.9686 47.6253 35.9495 47.6598Z" fill="#263238"/>
<path d="M37.3694 55.2858C36.1065 55.2322 34.8853 54.8189 33.8494 54.0946C33.8494 54.0946 34.7303 56.0825 37.3962 55.9752L37.3694 55.2858Z" fill="#EB996E"/>
<path d="M37.27 50.7546C37.4657 50.7067 37.6661 50.681 37.8675 50.678C37.9595 50.678 38.0514 50.678 38.0744 50.5937C38.085 50.4911 38.0664 50.3875 38.0208 50.295C37.9416 50.0575 37.8573 49.8022 37.768 49.5289C37.5956 48.9889 37.4462 48.4986 37.3428 48.1424C37.275 47.9517 37.23 47.7537 37.2087 47.5525C37.3093 47.7273 37.3877 47.9138 37.4424 48.1079C37.5688 48.4603 37.7373 48.9429 37.9097 49.483L38.151 50.249C38.2061 50.3689 38.2183 50.5042 38.1855 50.632C38.1719 50.6647 38.1511 50.6937 38.1245 50.717C38.0979 50.7402 38.0664 50.757 38.0322 50.7661C37.9787 50.7711 37.9249 50.7711 37.8714 50.7661C37.6712 50.7864 37.4693 50.7825 37.27 50.7546Z" fill="#263238"/>
<path d="M36.9954 51.0725C36.8516 51.1104 36.7198 51.1842 36.6123 51.287C36.5462 51.3429 36.5027 51.4209 36.49 51.5065C36.4772 51.5921 36.4961 51.6794 36.543 51.7522C36.5899 51.8249 36.6617 51.878 36.7449 51.9017C36.8282 51.9253 36.9172 51.9179 36.9954 51.8807C37.0655 51.8654 37.1315 51.8353 37.189 51.7924C37.2465 51.7494 37.2941 51.6946 37.3286 51.6317C37.3608 51.5662 37.3736 51.4927 37.3655 51.4201C37.3573 51.3475 37.3286 51.2787 37.2826 51.2219C37.2348 51.1703 37.1708 51.1365 37.1012 51.1261C37.0316 51.1156 36.9605 51.1292 36.8996 51.1644" fill="#EB996E"/>
<path d="M37.4757 51.6011C37.4757 51.6547 37.1731 51.739 36.8476 51.5513C36.522 51.3636 36.4339 51.0534 36.4875 51.0419C36.5411 51.0304 36.679 51.2334 36.9472 51.3789C37.2153 51.5245 37.4681 51.5436 37.4757 51.6011Z" fill="#263238"/>
<path d="M35.6188 40.6504C35.0559 40.6309 34.4957 40.7358 33.9779 40.9576C33.4602 41.1794 32.9978 41.5126 32.6236 41.9336C31.8805 42.7933 31.5025 43.9093 31.5703 45.0437C31.5627 45.4699 31.6975 45.8864 31.9533 46.2273C32.3363 46.6677 32.9836 46.7558 33.5696 46.8133C34.1648 46.9236 34.7776 46.8921 35.3584 46.7214C35.9252 46.503 36.3964 45.917 36.27 45.3272C35.9904 45.7102 36.224 46.2771 36.6223 46.5184C37.0439 46.7251 37.5149 46.81 37.9821 46.7635H39.9891C40.2181 46.7861 40.4485 46.7366 40.6479 46.6218C40.7551 46.5127 40.8395 46.3834 40.896 46.2413C40.9526 46.0993 40.9802 45.9473 40.9773 45.7945C41.0846 44.7258 41.1842 43.5882 40.6939 42.6345C40.2069 41.7895 39.4124 41.1652 38.4762 40.8917C37.5608 40.5891 36.5611 40.727 35.6073 40.6658" fill="#263238"/>
<path d="M29.9591 58.3845C30.6907 58.7675 32.0772 57.2584 32.5292 56.5651C32.9316 55.8346 33.067 54.9868 32.9122 54.1674C32.8164 53.3439 32.5981 52.5357 32.579 51.7084C32.5522 50.3678 33.0578 49.0846 33.2952 47.7632C33.55 46.3258 33.4885 44.8501 33.1152 43.4389C32.9697 42.8911 32.7322 42.2898 32.1959 42.0829C31.9718 42.0081 31.7319 41.9939 31.5006 42.0417C31.2692 42.0894 31.0545 42.1975 30.8783 42.3549C30.5316 42.6747 30.2595 43.067 30.0817 43.504L29.6565 46.729L29.9744 51.2449L29.9591 58.3845Z" fill="#263238"/>
<path d="M49.242 75.3908L51.1954 82.0554C51.1954 82.0554 40.9725 85.7746 35.4378 85.7056C30.2479 85.6443 28.7617 85.0545 26.9385 80.8642C25.1153 76.6739 23.0317 71.8631 22.6065 69.0938C22.6065 69.0938 18.4354 57.5188 29.6044 58.6602L31.1365 67.4698C31.1365 67.4698 32.3736 71.5567 32.4617 71.7942C33.2967 74.0004 34.3769 77.2331 35.4225 77.6238C36.4682 78.0145 49.242 75.3908 49.242 75.3908Z" fill="#3864DD"/>
<path d="M49.2357 75.3907C49.1491 75.4233 49.0592 75.4465 48.9676 75.4597L48.2015 75.6244C47.5197 75.7661 46.5315 75.9767 45.3059 76.2602C44.0802 76.5436 42.6247 76.8922 40.9547 77.1986C39.1413 77.5583 37.2955 77.729 35.4468 77.708H35.3817L35.3587 77.6467C35.1481 77.099 34.9259 76.5206 34.7152 75.9308C33.2444 71.798 32.126 67.9984 31.2221 65.2789C30.7739 63.9153 30.3986 62.816 30.1304 62.0615C30.0041 61.6785 29.9006 61.4065 29.824 61.192C29.7825 61.0918 29.7504 60.988 29.7283 60.8818C29.7283 60.8818 29.7781 60.9814 29.8623 61.1767C29.9466 61.372 30.0615 61.6593 30.2032 62.0347C30.4943 62.7816 30.8888 63.8732 31.3523 65.2329C32.2945 67.9447 33.4359 71.7443 34.9029 75.8618C35.1136 76.4517 35.3319 77.0109 35.5426 77.574L35.4507 77.5127C37.2867 77.5355 39.1204 77.3738 40.9241 77.0301C42.5787 76.7313 44.0457 76.3904 45.2791 76.1338C46.5124 75.8772 47.5006 75.678 48.19 75.5554L48.9791 75.429C49.0639 75.4117 49.1495 75.3989 49.2357 75.3907Z" fill="#263238"/>
<path d="M51.1928 82.0554C51.0977 82.1105 50.9977 82.1567 50.894 82.1932C50.6948 82.2775 50.3999 82.3924 50.0169 82.5341C49.2508 82.8176 48.1248 83.1929 46.7191 83.6028C45.3134 84.0126 43.6319 84.4607 41.7589 84.9357C39.7327 85.5011 37.6555 85.8642 35.5577 86.0197C35.0033 86.046 34.4477 86.0319 33.8954 85.9775C33.3545 85.9279 32.8211 85.8161 32.3058 85.6443C31.3408 85.2949 30.4562 84.7542 29.7051 84.0547C28.4624 82.8559 27.427 81.4594 26.6409 79.9219C25.9515 78.6311 25.4918 77.5433 25.1624 76.7888C25.0054 76.4057 24.8867 76.1185 24.8101 75.9155C24.7637 75.8169 24.7266 75.7144 24.699 75.6091C24.7575 75.7008 24.8062 75.7983 24.8445 75.9002C24.9403 76.1147 25.0705 76.3981 25.2275 76.7581C25.5684 77.5012 26.0549 78.5775 26.7596 79.8568C27.554 81.3674 28.589 82.7387 29.8238 83.9169C30.5605 84.5908 31.4237 85.1116 32.3633 85.4489C32.8602 85.6131 33.3742 85.7197 33.8954 85.7669C34.4388 85.8213 34.9854 85.8354 35.5309 85.809C37.6149 85.6554 39.679 85.2988 41.6938 84.7442C43.5706 84.2807 45.2559 83.8517 46.6731 83.4572C48.0903 83.0627 49.2087 82.6912 49.9824 82.4499L50.871 82.1434C50.9759 82.1059 51.0834 82.0764 51.1928 82.0554Z" fill="#263238"/>
<path opacity="0.2" d="M26.5527 79.853C26.5527 79.853 28.4679 87.207 33.4472 87.0577C38.4265 86.9083 43.1032 84.7787 43.1032 84.7787L42.8811 84.5489C42.8811 84.5489 34.4545 86.3644 32.1142 85.223C27.6673 83.0627 26.5527 79.853 26.5527 79.853Z" fill="black"/>
<path d="M50.5009 81.2893H52.0675C53.4885 81.1514 54.2814 81.1284 54.6797 80.7531C55.2121 80.2437 54.4806 79.7496 54.4806 79.7496C54.4806 79.7496 55.5071 79.3933 55.4113 78.769C55.3462 78.34 54.8598 78.2941 54.8598 78.2941C54.8598 78.2941 55.7675 77.9378 55.9475 77.5587C56.1888 77.0454 55.5645 76.7696 55.5645 76.7696C56.8017 76.0036 56.6906 75.2375 56.4033 75.1762C56.1161 75.115 55.1547 75.5593 55.1547 75.5593C54.3388 75.7929 52.1135 76.4709 52.937 75.2452C53.7605 74.0195 53.9328 72.767 53.7451 72.3955C53.6927 72.3146 53.6163 72.2522 53.5266 72.2168C53.437 72.1814 53.3385 72.1748 53.245 72.198C53.1514 72.2212 53.0674 72.2729 53.0046 72.3461C52.9419 72.4192 52.9035 72.5102 52.8948 72.6061C52.7678 73.0882 52.5731 73.5499 52.3165 73.9774C52.1228 74.3294 51.8717 74.6466 51.5734 74.9158C51.2248 75.226 50.9146 75.475 50.6503 75.6818L49.2561 77.0224L50.5009 81.2893Z" fill="#FFBE9D"/>
</svg>
