<svg width="104" height="96" viewBox="0 0 104 96" fill="none" xmlns="http://www.w3.org/2000/svg">
<path d="M34.2103 6.2395H8.66406V50.9339H34.2103V6.2395Z" fill="#FAFAFA"/>
<path d="M16.6209 51.3636C16.6209 51.3636 13.8171 31.2548 12.3578 29.0463C12.3578 29.0463 20.7254 22.7609 20.9828 5.73161H8.2832V51.3636H16.6209Z" fill="#EBEBEB"/>
<path d="M26.2483 51.274C26.2483 51.274 29.0474 31.1652 30.5136 28.9567C30.5136 28.9567 22.1438 22.6735 21.8887 5.64198H34.5882V51.274H26.2483Z" fill="#EBEBEB"/>
<path d="M34.8816 4.53887H6.29492V52.4116H36.0651V4.53887H34.8816ZM13.7984 29.4117V40.7944H8.66431V29.4117H13.7984ZM8.66431 28.5867V16.8041H13.7984V28.5867H8.66431ZM21.6144 28.5867V16.8041H28.0354V28.5867H21.6144ZM28.0354 29.4117V40.7944H21.6144V29.4117H28.0354ZM14.0167 28.5867V16.8041H20.7824V28.5867H14.0167ZM20.7824 29.4117V40.7944H14.0259V29.4117H20.7824ZM14.0259 16.6018V6.2395H20.7916V16.6018H14.0259ZM20.7916 40.999V50.9384H14.0259V40.999H20.7916ZM21.6144 40.999H28.0354V50.9384H21.6144V40.999ZM21.6144 16.6018V6.2395H28.0354V16.6018H21.6144ZM28.2652 29.4117H33.698V40.7944H28.2652V29.4117ZM28.2652 28.5867V16.8041H33.698V28.5867H28.2652ZM33.698 16.6018H28.2652V6.2395H33.698V16.6018ZM13.7984 6.2395V16.6018H8.66431V6.2395H13.7984ZM8.66431 40.999H13.7984V50.9384H8.66431V40.999ZM28.2652 50.9384V40.999H33.698V50.9384H28.2652Z" fill="#E0E0E0"/>
<path d="M98.9544 6.2395H73.4082V50.9339H98.9544V6.2395Z" fill="#FAFAFA"/>
<path d="M81.3654 51.3636C81.3654 51.3636 78.5662 31.2548 77.1 29.0463C77.1 29.0463 85.4698 22.7609 85.7249 5.73161H73.0254V51.3636H81.3654Z" fill="#EBEBEB"/>
<path d="M90.9927 51.274C90.9927 51.274 93.7896 31.1652 95.2558 28.9567C95.2558 28.9567 86.8883 22.6735 86.6309 5.64198H99.3304V51.274H90.9927Z" fill="#EBEBEB"/>
<path d="M99.6277 4.53887H71.041V52.4116H100.811V4.53887H99.6277ZM78.5445 29.4117V40.7944H73.4081V29.4117H78.5445ZM73.4081 28.5867V16.8041H78.5445V28.5867H73.4081ZM86.3582 28.5867V16.8041H92.793V28.5867H86.3582ZM92.793 29.4117V40.7944H86.3582V29.4117H92.793ZM78.7743 28.5867V16.8041H85.5377V28.5867H78.7743ZM85.5377 29.4117V40.7944H78.772V29.4117H85.5377ZM78.772 16.6018V6.2395H85.5354V16.6018H78.772ZM85.5354 40.999V50.9384H78.772V40.999H85.5354ZM86.3582 40.999H92.793V50.9384H86.3582V40.999ZM86.3582 16.6018V6.2395H92.793V16.6018H86.3582ZM93.009 29.4117H98.4418V40.7944H93.009V29.4117ZM93.009 28.5867V16.8041H98.4418V28.5867H93.009ZM98.4418 16.6018H93.009V6.2395H98.4418V16.6018ZM78.5445 6.2395V16.6018H73.4081V6.2395H78.5445ZM73.4081 40.999H78.5445V50.9384H73.4081V40.999ZM93.009 50.9384V40.999H98.4418V50.9384H93.009Z" fill="#E0E0E0"/>
<path d="M49.1826 17.027H42.9707V24.8683H49.1826V17.027Z" fill="#EBEBEB"/>
<path d="M46.5474 24.6913H45.6855V24.9004H46.5474V24.6913Z" fill="#E0E0E0"/>
<path d="M46.2747 19.725L45.1302 19.8928L44.7051 20.9683L45.4221 21.8738L46.5643 21.706L46.9917 20.6328L46.2747 19.725Z" fill="#E0E0E0"/>
<path d="M46.8122 20.4191L45.6677 20.5868L45.2402 21.6624L45.9573 22.5678L47.1017 22.4024L47.5292 21.3268L46.8122 20.4191Z" fill="#FAFAFA"/>
<path d="M46.6684 16.919H45.8066V17.0982H46.6684V16.919Z" fill="#E0E0E0"/>
<path d="M64.2563 6.55894H53.8848V19.6515H64.2563V6.55894Z" fill="#EBEBEB"/>
<path d="M59.8547 19.3596H58.416V19.7089H59.8547V19.3596Z" fill="#E0E0E0"/>
<path d="M59.4038 11.0679L57.4917 11.346L56.7793 13.1408L57.9766 14.6553L59.8864 14.3772L60.5988 12.5824L59.4038 11.0679Z" fill="#E0E0E0"/>
<path d="M60.2944 12.2262L58.3846 12.5065L57.6699 14.3014L58.8696 15.8159L60.7793 15.5355L61.4917 13.7429L60.2944 12.2262Z" fill="#FAFAFA"/>
<path d="M60.0578 6.38199H58.6191V6.68075H60.0578V6.38199Z" fill="#E0E0E0"/>
<path d="M46.8783 61.1583C45.4718 61.3881 44.8444 63.1117 44.9662 64.532C45.088 65.9522 45.674 67.338 45.5178 68.7537C45.3178 70.5531 43.9596 72.0722 43.801 73.8739C43.6149 75.9997 45.1179 77.8842 45.566 79.9709C45.7843 80.9844 45.7545 82.0576 46.1314 83.0252C46.4528 83.8489 47.0502 84.5357 47.8215 84.9682C48.5928 85.4007 49.4902 85.5521 50.3607 85.3968C51.2313 85.2414 52.0209 84.7887 52.5949 84.1161C53.169 83.4434 53.4918 82.5925 53.5084 81.7083C53.5383 80.0766 52.5317 78.5392 52.6535 76.9121C52.7431 75.7079 53.4487 74.568 53.2993 73.3707C53.1177 71.9481 51.7986 70.9369 51.3344 69.5787C50.8701 68.2205 51.316 66.7244 51.1551 65.2973C50.8655 62.7371 49.4476 60.9515 46.8783 61.1606" fill="#F5F5F5"/>
<path d="M39.6961 73.5522C39.4663 75.9239 40.5051 78.7139 41.7254 80.7615C42.9613 82.8226 44.8215 84.4366 47.0364 85.3693C47.2823 85.4727 47.5926 85.56 47.8017 85.3923C47.8755 85.3104 47.9309 85.2137 47.9642 85.1087C47.9975 85.0036 48.0079 84.8927 47.9948 84.7833C48.0111 82.2658 47.2113 79.8109 45.7153 77.7861C44.2192 75.7614 42.1074 74.2759 39.6961 73.5522Z" fill="#EBEBEB"/>
<path d="M50.0285 90.3287C50.0002 90.288 49.9771 90.244 49.9595 90.1977C49.9159 90.0943 49.8607 89.9679 49.7918 89.8093C49.6493 89.4692 49.4355 88.982 49.1644 88.3844C48.4568 86.8257 47.6705 85.304 46.8088 83.8249C45.9437 82.3479 45.004 80.9159 43.9935 79.5343C43.6051 79.0057 43.2834 78.5805 43.0582 78.2887L42.8031 77.9509C42.7708 77.9141 42.7438 77.8731 42.7227 77.8291C42.7227 77.8291 42.7617 77.8612 42.8238 77.9348L43.0996 78.2565C43.3294 78.5369 43.6695 78.946 44.0694 79.4791C45.1053 80.847 46.0592 82.2751 46.926 83.756C47.7908 85.2411 48.5674 86.7758 49.2517 88.3523C49.5114 88.9567 49.7113 89.4508 49.84 89.7955C49.8998 89.9564 49.948 90.0897 49.9848 90.1931C50.0044 90.2365 50.019 90.282 50.0285 90.3287Z" fill="#E0E0E0"/>
<path d="M48.5004 67.7195C48.5155 67.7953 48.5247 67.8721 48.528 67.9493C48.5395 68.1102 48.5556 68.3285 48.5739 68.602C48.6107 69.1834 48.6636 69.9993 48.7302 71.0059C48.8566 73.0351 49.0382 75.832 49.2542 78.9322C49.4702 82.0324 49.6863 84.8292 49.8448 86.8562C49.9207 87.8605 49.985 88.6786 50.0287 89.2577C50.0471 89.5312 50.0608 89.7495 50.0723 89.9104C50.0784 89.9869 50.0784 90.0637 50.0723 90.1402C50.0551 90.0646 50.0436 89.9878 50.0379 89.9104C50.0218 89.7518 49.9988 89.5335 49.9689 89.26C49.9138 88.6809 49.8379 87.8651 49.7391 86.8631C49.5576 84.8361 49.3277 82.037 49.1094 78.9391C48.8911 75.8412 48.7256 73.0397 48.6222 71.0082C48.5762 70.0016 48.5372 69.1834 48.5096 68.602C48.5096 68.3285 48.4935 68.1102 48.4889 67.9493C48.4866 67.8725 48.4905 67.7957 48.5004 67.7195Z" fill="#E0E0E0"/>
<path d="M46.3203 86.9481H52.261V91.3146C52.261 92.071 51.9605 92.7964 51.4257 93.3312C50.8908 93.8661 50.1654 94.1666 49.409 94.1666C48.679 94.1664 47.9768 93.8863 47.4471 93.384C46.9174 92.8816 46.6004 92.1953 46.5616 91.4662L46.3203 86.9481Z" fill="#E0E0E0"/>
<path d="M103.876 94.2401C103.876 94.2723 80.6213 94.2999 51.9381 94.2999C23.2549 94.2999 0 94.2723 0 94.2401C0 94.2079 23.2503 94.1804 51.9381 94.1804C80.6259 94.1804 103.876 94.2079 103.876 94.2401Z" fill="#263238"/>
<path d="M71.3891 45.678L70.4699 45.4872C69.6494 45.2413 69.1852 45.1356 68.9945 44.8667C68.7417 44.5059 69.2243 44.2991 69.2243 44.2991C69.2243 44.2991 68.6589 43.9705 68.7899 43.6097C68.8221 43.5381 68.8761 43.4786 68.9443 43.4398C69.0124 43.401 69.0912 43.3848 69.1691 43.3936C69.1691 43.3936 68.6773 43.0788 68.6153 42.8352C68.5302 42.5042 68.9393 42.4169 68.9393 42.4169C68.3004 41.824 68.4544 41.3919 68.6313 41.3827C68.8083 41.3736 69.3208 41.7436 69.3208 41.7436C69.7804 41.9734 71.003 42.6329 70.6606 41.8148C70.3182 40.9967 70.3618 40.2406 70.5158 40.0429C70.5565 40.0008 70.6094 39.9726 70.6671 39.9623C70.7247 39.952 70.7841 39.9602 70.8369 39.9857C70.8896 40.0111 70.9329 40.0526 70.9607 40.1042C70.9885 40.1557 70.9993 40.2147 70.9915 40.2727C71.0119 40.5715 71.073 40.8661 71.1731 41.1483C71.2457 41.3776 71.3569 41.5929 71.5017 41.7849C71.6718 42.0147 71.8235 42.1917 71.9614 42.3434L72.6255 43.2948L71.3891 45.678Z" fill="#FFBE9D"/>
<path d="M67.8498 93.3209L68.6403 91.6524L71.775 93.114L70.6443 95.5661L70.4444 95.488C69.5573 95.1318 65.9584 93.6196 65.462 93.1738C64.9082 92.6774 67.8498 93.3209 67.8498 93.3209Z" fill="#3864DD"/>
<g opacity="0.3">
<path d="M69.5176 95.01C69.6878 94.7676 69.9415 94.5965 70.23 94.5297C70.5138 94.4591 70.8137 94.4994 71.0688 94.6423L70.6598 95.5179L69.5176 95.01Z" fill="white"/>
</g>
<g opacity="0.3">
<path d="M66.3918 93.052C66.3918 93.052 65.3346 92.8865 65.3783 93.0956C65.4219 93.3048 69.0024 94.9686 70.6456 95.5661L70.6732 95.4926L66.4814 93.5851C66.4814 93.5851 66.571 93.1531 66.3918 93.052Z" fill="white"/>
</g>
<path d="M70.7206 95.5133L70.6654 95.4949L70.5069 95.4329L69.9254 95.1916C69.4359 94.9847 68.7626 94.6906 68.0295 94.3481C67.2964 94.0057 66.6345 93.684 66.1611 93.4427L65.6026 93.1531L65.4533 93.0727L65.4004 93.0428C65.4198 93.0477 65.4384 93.0554 65.4556 93.0658L65.6095 93.1393L66.1749 93.4174C66.6506 93.6472 67.3125 93.9689 68.0456 94.3114C68.7787 94.6538 69.4497 94.9502 69.9369 95.164L70.5115 95.4168L70.6677 95.4857L70.7206 95.5133Z" fill="#263238"/>
<path d="M66.4603 93.6334C66.4779 93.5279 66.484 93.4208 66.4786 93.314C66.4597 93.2074 66.4289 93.1034 66.3867 93.0037C66.4602 93.0894 66.5065 93.1952 66.5196 93.3073C66.5327 93.4195 66.512 93.533 66.4603 93.6334Z" fill="#263238"/>
<path d="M67.593 93.5966C67.5663 93.5446 67.5514 93.4873 67.5494 93.4289C67.5356 93.373 67.5356 93.3146 67.5494 93.2588C67.5494 93.2588 67.5792 93.33 67.5907 93.4243C67.6058 93.4806 67.6066 93.5399 67.593 93.5966Z" fill="#263238"/>
<path d="M67.9194 93.5805C67.9079 93.5805 67.8734 93.5277 67.8412 93.4541C67.8091 93.3806 67.793 93.3186 67.8045 93.314C67.816 93.3094 67.8504 93.3645 67.8803 93.4381C67.9054 93.4814 67.9189 93.5305 67.9194 93.5805Z" fill="#263238"/>
<path d="M68.2154 93.3576C68.2154 93.3691 68.1349 93.3438 68.043 93.3025C67.985 93.2832 67.9318 93.2518 67.8867 93.2105C67.8867 93.1991 67.9695 93.2243 68.0591 93.2657C68.1171 93.285 68.1703 93.3163 68.2154 93.3576Z" fill="#263238"/>
<path d="M68.3701 93.1761C68.2988 93.1868 68.2258 93.1755 68.161 93.1439C68.0927 93.1249 68.0318 93.0857 67.9863 93.0313C68.0521 93.0497 68.116 93.0743 68.1771 93.1048C68.2433 93.123 68.3079 93.1469 68.3701 93.1761Z" fill="#263238"/>
<path d="M67.6226 93.2726C67.5511 93.2527 67.4835 93.2208 67.4227 93.1784C67.3536 93.1358 67.289 93.0866 67.2296 93.0313C67.1935 92.999 67.1612 92.9628 67.1331 92.9233C67.1157 92.8986 67.1083 92.8682 67.1124 92.8382C67.1154 92.8217 67.1234 92.8064 67.1353 92.7945C67.1473 92.7826 67.1625 92.7746 67.1791 92.7716C67.2398 92.771 67.2998 92.7838 67.355 92.8091C67.4102 92.8343 67.4592 92.8714 67.4984 92.9176C67.5377 92.9639 67.5663 93.0183 67.5822 93.0768C67.5981 93.1354 67.6009 93.1967 67.5904 93.2565C67.5877 93.2769 67.5807 93.2965 67.5698 93.314C67.5773 93.2418 67.5735 93.1689 67.5583 93.0979C67.5368 93.0245 67.4955 92.9585 67.4388 92.9072C67.4059 92.8754 67.367 92.8506 67.3244 92.834C67.2818 92.8174 67.2363 92.8095 67.1906 92.8107C67.1469 92.8107 67.1423 92.8635 67.1676 92.9026C67.1945 92.9395 67.2253 92.9734 67.2595 93.0037C67.3163 93.0579 67.3769 93.1079 67.4411 93.1531C67.5491 93.2312 67.6249 93.2657 67.6226 93.2726Z" fill="#263238"/>
<path d="M67.565 93.2588C67.5612 93.2047 67.5767 93.1509 67.6087 93.1071C67.6395 93.0578 67.6812 93.0162 67.7305 92.9853C67.7618 92.964 67.7979 92.9507 67.8356 92.9467C67.8733 92.9427 67.9114 92.9481 67.9465 92.9623C67.9646 92.9764 67.9765 92.9969 67.9799 93.0196C67.9834 93.0422 67.978 93.0653 67.9649 93.0841C67.9457 93.1142 67.9197 93.1394 67.8891 93.1577C67.8422 93.1904 67.7912 93.2167 67.7374 93.2358C67.6891 93.2574 67.6362 93.2669 67.5834 93.2634C67.5834 93.2634 67.6409 93.245 67.7259 93.2082C67.7759 93.1866 67.823 93.1588 67.8661 93.1255C67.9143 93.0956 67.9695 93.029 67.9235 92.9968C67.8776 92.9646 67.7994 92.9968 67.7512 93.0198C67.7046 93.0457 67.6639 93.0809 67.6317 93.1232C67.6068 93.1671 67.5846 93.2123 67.565 93.2588Z" fill="#263238"/>
<path d="M71.0562 94.6262C71.0562 94.6262 70.9712 94.5757 70.8264 94.5274C70.632 94.4632 70.4237 94.4537 70.2243 94.4998C70.0261 94.551 69.8452 94.6541 69.7003 94.7986C69.59 94.9112 69.544 94.9985 69.5371 94.9962C69.5427 94.973 69.5528 94.9511 69.567 94.9319C69.5985 94.8764 69.6363 94.8248 69.6796 94.7779C69.8225 94.6208 70.0089 94.5096 70.2151 94.4585C70.4214 94.4099 70.6375 94.4243 70.8356 94.4998C70.895 94.5214 70.952 94.5491 71.0056 94.5826C71.0401 94.6078 71.0585 94.6239 71.0562 94.6262Z" fill="#263238"/>
<path d="M71.3396 93.1715C71.2631 93.3953 71.1725 93.6141 71.0684 93.8265C70.9766 94.046 70.8723 94.2601 70.7559 94.4676C70.8348 94.2436 70.9261 94.0242 71.0293 93.8104C71.1206 93.5917 71.2242 93.3784 71.3396 93.1715Z" fill="#263238"/>
<path d="M69.265 94.532C69.0995 94.4952 68.9391 94.4389 68.787 94.3642C68.6302 94.299 68.482 94.2148 68.3457 94.1137C68.3457 94.1022 68.5502 94.2102 68.8053 94.3251C69.0604 94.44 69.2696 94.5113 69.265 94.532Z" fill="#263238"/>
<path d="M69.8909 94.8078C69.8909 94.8078 69.8541 94.8422 69.8104 94.879C69.7668 94.9158 69.7369 94.9525 69.7277 94.9479C69.7185 94.9433 69.7277 94.8905 69.7829 94.8468C69.838 94.8032 69.8909 94.7963 69.8909 94.8078Z" fill="#263238"/>
<path d="M70.247 94.6262C70.247 94.6262 70.2148 94.6607 70.1688 94.6791C70.1229 94.6974 70.0792 94.702 70.0746 94.6905C70.07 94.6791 70.1068 94.6561 70.1528 94.64C70.1987 94.6239 70.2424 94.6147 70.247 94.6262Z" fill="#263238"/>
<path d="M70.6404 94.6492C70.6404 94.6492 70.5921 94.6377 70.537 94.6331C70.4818 94.6285 70.4405 94.6331 70.4359 94.6331C70.4313 94.6331 70.4772 94.5917 70.5416 94.5986C70.6059 94.6055 70.6473 94.64 70.6404 94.6492Z" fill="#263238"/>
<path d="M70.9034 94.6974C70.9034 94.6974 70.8782 94.7158 70.846 94.7135C70.8138 94.7112 70.7908 94.6997 70.7931 94.6883C70.7954 94.6768 70.8184 94.6699 70.8506 94.6722C70.8828 94.6745 70.9034 94.686 70.9034 94.6974Z" fill="#263238"/>
<path d="M94.2912 94.2332L93.5098 92.5602L96.633 91.0847L97.8027 93.5185L97.6143 93.6242C96.7755 94.0838 93.3167 95.8879 92.6572 95.9867C91.9218 96.0901 94.2912 94.2332 94.2912 94.2332Z" fill="#3864DD"/>
<g opacity="0.3">
<path d="M96.6576 94.0241C96.5773 93.7388 96.6068 93.4338 96.7403 93.1692C96.8681 92.9075 97.0896 92.7032 97.3608 92.5969L97.7767 93.4679L96.6576 94.0241Z" fill="white"/>
</g>
<g opacity="0.3">
<path d="M93.156 95.1869C93.156 95.1869 92.3539 95.8971 92.5423 95.9959C92.7308 96.0947 96.2952 94.3872 97.8028 93.5116L97.7637 93.4449L93.6271 95.4581C93.6271 95.4581 93.3329 95.1088 93.156 95.1869Z" fill="white"/>
</g>
<path d="M97.8105 93.4197L97.76 93.4496L97.6106 93.5323L97.0545 93.8264C96.5833 94.0723 95.9284 94.4033 95.1953 94.7457C94.4621 95.0881 93.7957 95.3938 93.3085 95.6052L92.7294 95.8534L92.5708 95.9178L92.5156 95.9361L92.5685 95.9086L92.7225 95.8373L93.297 95.5799C93.7796 95.3616 94.4461 95.056 95.1792 94.7066C95.9123 94.3573 96.5581 94.0333 97.0407 93.7874L97.6014 93.5047L97.7554 93.4289C97.7734 93.4237 97.7919 93.4206 97.8105 93.4197Z" fill="#263238"/>
<path d="M93.6474 95.5064C93.5795 95.4216 93.5024 95.3445 93.4176 95.2766C93.3236 95.2238 93.2242 95.1815 93.1211 95.1502C93.2344 95.1485 93.3456 95.1806 93.4406 95.2424C93.5356 95.3042 93.61 95.3929 93.6543 95.4972L93.6474 95.5064Z" fill="#263238"/>
<path d="M94.3448 94.6009C94.3448 94.6009 94.269 94.578 94.1885 94.5274C94.1081 94.4768 94.0483 94.4286 94.0552 94.4194C94.0621 94.4102 94.1311 94.4424 94.2115 94.4929C94.2919 94.5435 94.3494 94.5917 94.3448 94.6009Z" fill="#263238"/>
<path d="M94.534 94.3458C94.534 94.3573 94.4651 94.3458 94.3892 94.3252C94.3134 94.3045 94.2536 94.2746 94.2559 94.2631C94.3053 94.2588 94.3551 94.2667 94.4007 94.2861C94.4811 94.3022 94.5363 94.3343 94.534 94.3458Z" fill="#263238"/>
<path d="M94.5549 93.9758C94.5549 93.9873 94.4905 94.031 94.4009 94.0746C94.3112 94.1183 94.2354 94.1459 94.2285 94.1344C94.2722 94.0909 94.3247 94.0572 94.3825 94.0356C94.4813 93.9919 94.548 93.9643 94.5549 93.9758Z" fill="#263238"/>
<path d="M94.5086 93.7414C94.5086 93.7414 94.4557 93.8242 94.3523 93.8816C94.2931 93.9216 94.2237 93.9439 94.1523 93.946C94.2721 93.8796 94.3909 93.8114 94.5086 93.7414Z" fill="#263238"/>
<path d="M94.1082 94.378C94.048 94.4215 93.9802 94.4535 93.9083 94.4722C93.8337 94.4981 93.7567 94.5166 93.6785 94.5274C93.6296 94.5333 93.5802 94.5333 93.5314 94.5274C93.5164 94.5265 93.5017 94.5226 93.4883 94.5159C93.4749 94.5092 93.4629 94.4998 93.4532 94.4883C93.4442 94.4742 93.4395 94.4579 93.4395 94.4412C93.4395 94.4245 93.4442 94.4081 93.4532 94.3941C93.5123 94.3201 93.5952 94.2689 93.6879 94.2492C93.7805 94.2295 93.8771 94.2425 93.9611 94.2861C94.0104 94.3117 94.0541 94.3469 94.0898 94.3895C94.1034 94.4039 94.1136 94.4212 94.1197 94.44C94.0699 94.3884 94.0116 94.3456 93.9473 94.3136C93.8756 94.2804 93.7954 94.27 93.7175 94.2838C93.6726 94.2889 93.6291 94.3029 93.5897 94.325C93.5502 94.3471 93.5155 94.3768 93.4877 94.4125C93.467 94.4515 93.4877 94.4837 93.5429 94.4883C93.588 94.4929 93.6334 94.4929 93.6785 94.4883C93.7562 94.4802 93.833 94.4656 93.9083 94.4446C94.0209 94.4079 94.1059 94.3734 94.1082 94.378Z" fill="#263238"/>
<path d="M94.0626 94.4125C94.0626 94.4125 94.0051 94.3803 93.9729 94.2838C93.9541 94.2284 93.9486 94.1693 93.9568 94.1114C93.9602 94.0736 93.9729 94.0373 93.9938 94.0056C94.0146 93.9739 94.043 93.9479 94.0764 93.9299C94.0989 93.9249 94.1224 93.9289 94.1421 93.9409C94.1618 93.9528 94.1761 93.972 94.1821 93.9942C94.1898 94.029 94.1898 94.0651 94.1821 94.0999C94.1766 94.1566 94.1635 94.2123 94.143 94.2654C94.1108 94.3573 94.0718 94.4056 94.0672 94.401C94.0626 94.3964 94.0901 94.3458 94.1154 94.2562C94.1304 94.2045 94.1397 94.1513 94.143 94.0976C94.143 94.0402 94.1315 93.9551 94.0787 93.9712C94.0258 93.9873 93.9982 94.0655 93.9867 94.1183C93.975 94.1705 93.975 94.2247 93.9867 94.2769C94.0064 94.325 94.0319 94.3705 94.0626 94.4125Z" fill="#263238"/>
<path d="M97.3402 92.5946C97.3402 92.5946 97.2483 92.6291 97.1104 92.7142C96.9387 92.8201 96.8001 92.9722 96.7105 93.1531C96.6223 93.3375 96.5866 93.5426 96.6071 93.746C96.6232 93.9046 96.66 93.9965 96.6531 93.9988C96.6399 93.979 96.6298 93.9573 96.6232 93.9345C96.601 93.8751 96.5856 93.8134 96.5772 93.7506C96.5472 93.5405 96.58 93.3262 96.6715 93.1347C96.7639 92.9416 96.913 92.7813 97.0989 92.6751C97.1541 92.6426 97.2126 92.6164 97.2736 92.5969C97.2955 92.5925 97.318 92.5918 97.3402 92.5946Z" fill="#263238"/>
<path d="M96.4004 91.4502C96.5223 91.653 96.6328 91.8624 96.7313 92.0776C96.842 92.2876 96.9402 92.504 97.0255 92.7256C96.9033 92.5222 96.7928 92.3119 96.6946 92.0959C96.5826 91.8873 96.4843 91.6716 96.4004 91.4502Z" fill="#263238"/>
<path d="M96.1187 93.9069C95.9859 94.0127 95.8399 94.1007 95.6844 94.1689C95.5352 94.25 95.3761 94.311 95.2109 94.3504C95.2109 94.3504 95.4155 94.2539 95.6706 94.1321C95.9257 94.0103 96.1118 93.8977 96.1187 93.9069Z" fill="#263238"/>
<path d="M96.7308 93.6127C96.7308 93.6127 96.7308 93.6656 96.7308 93.7207C96.7308 93.7759 96.7423 93.8241 96.7308 93.8287C96.7193 93.8333 96.6895 93.7874 96.6895 93.723C96.6895 93.6587 96.7193 93.6127 96.7308 93.6127Z" fill="#263238"/>
<path d="M96.8256 93.2197C96.837 93.2197 96.8256 93.2657 96.8141 93.314C96.8026 93.3622 96.775 93.3967 96.7658 93.3944C96.7566 93.3921 96.7658 93.3484 96.7658 93.3002C96.7658 93.2519 96.8141 93.2151 96.8256 93.2197Z" fill="#263238"/>
<path d="M97.0927 92.9233C97.0927 92.9348 97.0536 92.9555 97.0169 92.9922C96.9801 93.029 96.9571 93.0704 96.9456 93.0681C96.9341 93.0658 96.9456 93.0083 96.987 92.9624C97.0283 92.9164 97.0927 92.9233 97.0927 92.9233Z" fill="#263238"/>
<path d="M97.2985 92.7578C97.2985 92.7578 97.2985 92.79 97.2755 92.813C97.2525 92.8359 97.2295 92.8451 97.2203 92.8382C97.2111 92.8314 97.2203 92.8061 97.2433 92.7831C97.2663 92.7601 97.2893 92.7486 97.2985 92.7578Z" fill="#263238"/>
<path d="M97.9419 91.9075L92.8859 94.2585L83.7945 78.0726C82.6109 73.8027 81.4688 58.7682 81.4688 58.7682L88.046 59.2692C88.046 59.2692 89.0595 70.0705 90.6475 75.6228L97.9419 91.9075Z" fill="#263238"/>
<path d="M92.0781 92.6751C92.0781 92.6751 92.1425 92.6268 92.2689 92.5602C92.3953 92.4935 92.5814 92.3993 92.8112 92.2867C93.2709 92.0569 93.912 91.7558 94.6222 91.4249C95.3323 91.0939 95.9758 90.8021 96.4446 90.5975C96.6744 90.4941 96.8721 90.4114 97.0031 90.3677C97.0699 90.3338 97.141 90.309 97.2145 90.2942C97.1567 90.3414 97.0925 90.3801 97.0237 90.4091C96.895 90.4757 96.7112 90.57 96.4814 90.6826C96.0217 90.9124 95.3806 91.2134 94.6727 91.5444C93.9649 91.8753 93.3191 92.1649 92.848 92.3717C92.6182 92.4751 92.4228 92.5579 92.2896 92.6015C92.2229 92.6359 92.1517 92.6606 92.0781 92.6751Z" fill="#455A64"/>
<path d="M91.035 52.7172C91.1591 52.7172 92.5035 56.6999 91.2097 59.3405C91.0787 59.6048 90.0606 61.0595 90.0606 61.0595C86.4801 65.2835 82.8536 73.4695 81.8424 75.6274C79.7741 80.0422 72.1075 94.5642 72.1075 94.5642L67.1895 91.7489L74.3804 73.2603L80.9071 56.5758L91.035 52.7172Z" fill="#263238"/>
<path d="M82.1673 69.7993C82.1673 69.7993 81.8203 71.4793 81.641 71.3827C81.1285 71.1047 77.6055 69.7924 77.6055 69.7924L78.5569 68.7376L82.1673 69.7993Z" fill="#455A64"/>
<path d="M81.1294 71.1047C81.1294 71.1047 80.4699 73.8142 79.6218 73.6671C78.7738 73.52 77.002 72.6283 77.002 72.6283L78.0706 69.9556L81.1294 71.1047Z" fill="#455A64"/>
<path d="M81.6411 71.3828L77.709 69.8108L77.8974 70.3877L81.0114 71.5275L81.6411 71.3828Z" fill="#263238"/>
<path d="M88.4674 63.1853C88.4508 63.2218 88.4291 63.2559 88.4031 63.2864L88.2008 63.5599C88.0262 63.7897 87.778 64.1482 87.4907 64.5917C86.9139 65.4788 86.1877 66.7474 85.4454 68.1814C84.7031 69.6155 84.0665 70.9392 83.6183 71.8907L83.0783 73.0236L82.9289 73.3293C82.9131 73.366 82.893 73.4007 82.8691 73.4327C82.8765 73.3937 82.8888 73.3559 82.9059 73.3201L83.0369 73.0052C83.1518 72.7318 83.3242 72.3388 83.5402 71.8562C83.9769 70.891 84.5928 69.558 85.3396 68.1263C85.9617 66.8951 86.6522 65.6997 87.408 64.5458C87.7067 64.1068 87.9641 63.7621 88.1526 63.5323C88.2399 63.4266 88.3134 63.3415 88.3824 63.2726C88.4069 63.24 88.4355 63.2107 88.4674 63.1853Z" fill="#455A64"/>
<path d="M67.5626 90.8871C67.5764 90.8596 68.737 91.4111 70.1549 92.1212C71.5729 92.8314 72.7082 93.4335 72.6829 93.4633C72.6576 93.4932 71.5085 92.9394 70.0906 92.2292C68.6726 91.5191 67.5488 90.917 67.5626 90.8871Z" fill="#455A64"/>
<path d="M73.4069 43.1983C73.1401 43.8002 72.8378 44.3858 72.5014 44.9518C72.2001 45.5377 71.8623 46.1041 71.4902 46.6478C71.7575 46.0453 72.0598 45.4591 72.3957 44.892C72.6988 44.3079 73.0365 43.7423 73.4069 43.1983Z" fill="#263238"/>
<path d="M82.6986 36.205C82.9675 36.205 83.2869 38.1585 83.5581 41.6677C83.8661 45.6481 83.8385 49.6653 82.7377 52.1909C82.6361 52.4606 82.4823 52.7076 82.2851 52.9178C82.0879 53.128 81.8512 53.2972 81.5886 53.4158C78.7389 54.5925 70.877 46.1629 70.877 46.1629L72.812 42.7685L78.3482 47.2384C78.3482 47.2384 78.8998 42.7157 78.7941 40.6313C78.709 39.0501 80.2879 36.2234 82.6986 36.205Z" fill="#455A64"/>
<path d="M85.1479 36.2441C85.1479 36.2441 89.9557 36.9473 91.199 38.8364C92.4423 40.7255 91.8126 57.387 91.8126 57.387L79.4531 58.1178C79.4531 58.1178 80.4505 36.9106 81.0618 36.6693C82.597 36.0671 84.9641 36.1843 85.1479 36.2441Z" fill="#455A64"/>
<path d="M65.3613 31.8569C65.3253 31.3513 65.4195 30.845 65.6348 30.3861C65.7301 30.1898 65.7804 29.9747 65.7819 29.7564V29.198H58.5772C58.284 29.198 58.0028 29.3144 57.7955 29.5217C57.5882 29.729 57.4718 30.0102 57.4718 30.3034V37.4782H56.9846C56.7595 37.4761 56.5378 37.4226 56.3365 37.3219C55.8849 37.1045 55.3859 37.0041 54.8853 37.0301C54.3848 37.0561 53.8989 37.2076 53.4723 37.4707C53.0456 37.7338 52.6921 38.0999 52.4441 38.5355C52.1961 38.971 52.0617 39.462 52.0532 39.9631C52.0447 40.4642 52.1624 40.9594 52.3955 41.4031C52.6286 41.8468 52.9696 42.2248 53.387 42.5021C53.8045 42.7795 54.285 42.9474 54.7844 42.9903C55.2837 43.0332 55.7859 42.9499 56.2445 42.7478C56.4344 42.6614 56.6404 42.616 56.849 42.6146H57.481V49.6101C57.4806 49.7555 57.509 49.8995 57.5644 50.0338C57.6198 50.1682 57.7012 50.2903 57.8039 50.3932C57.9066 50.4961 58.0285 50.5778 58.1628 50.6335C58.2971 50.6892 58.441 50.7178 58.5864 50.7178H78.0494C78.2883 50.7178 78.5174 50.6229 78.6864 50.454C78.8553 50.285 78.9502 50.0559 78.9502 49.8169V30.0989C78.9505 29.9805 78.9274 29.8632 78.8823 29.7537C78.8371 29.6443 78.7708 29.5449 78.6871 29.4612C78.6033 29.3774 78.5039 29.3111 78.3945 29.2659C78.285 29.2208 78.1678 29.1977 78.0494 29.198H71.017V29.9954C71.0163 30.1799 71.0522 30.3627 71.1227 30.5332C71.2873 30.9341 71.3627 31.366 71.3437 31.799C71.3247 32.2319 71.2117 32.6556 71.0125 33.0405C70.8134 33.4254 70.5329 33.7624 70.1905 34.0281C69.8481 34.2938 69.4521 34.4818 69.0297 34.5791C68.6074 34.6764 68.169 34.6807 67.7449 34.5916C67.3208 34.5025 66.9211 34.3222 66.5736 34.0632C66.2261 33.8042 65.9392 33.4728 65.7326 33.0918C65.526 32.7108 65.4048 32.2894 65.3774 31.8569H65.3613Z" fill="#3864DD"/>
<path d="M80.2926 39.7878C80.2998 39.8335 80.3036 39.8795 80.3041 39.9257C80.3041 40.0314 80.3041 40.1555 80.3041 40.3233C80.3041 40.6841 80.3041 41.1805 80.3225 41.7849C80.3225 43.019 80.3432 44.7243 80.3041 46.611C80.265 48.4978 80.1616 50.2007 80.0352 51.4371C79.9709 52.053 79.9088 52.5471 79.8583 52.8896C79.833 53.0504 79.8123 53.1791 79.7939 53.2826C79.7906 53.329 79.7805 53.3746 79.764 53.4181C79.7609 53.3722 79.7609 53.3262 79.764 53.2803C79.7755 53.1768 79.787 53.0504 79.8054 52.885C79.8399 52.5402 79.8904 52.0439 79.9433 51.4302C80.049 50.2007 80.1432 48.5001 80.1731 46.6179C80.203 44.7357 80.2099 43.0328 80.226 41.7918C80.226 41.1874 80.242 40.691 80.2466 40.3302C80.2466 40.1693 80.2466 40.036 80.2581 39.9326C80.2631 39.883 80.2747 39.8343 80.2926 39.7878Z" fill="#263238"/>
<path d="M87.6438 28.389C87.4462 29.6438 87.4577 30.7446 88.0713 31.5628C88.2045 31.7201 88.3273 31.8859 88.439 32.0592C88.4944 32.1463 88.5313 32.2439 88.5475 32.3459C88.5637 32.4479 88.5588 32.5521 88.5332 32.6521C88.5048 32.7408 88.4532 32.8203 88.3838 32.8825C88.3144 32.9446 88.2296 32.9871 88.1383 33.0056C88.047 33.0241 87.9524 33.0179 87.8643 32.9877C87.7762 32.9575 87.6977 32.9043 87.637 32.8337C87.6569 32.9756 87.6341 33.1202 87.5714 33.2492C87.5088 33.3781 87.4092 33.4855 87.2853 33.5576C87.222 33.5867 87.1529 33.601 87.0832 33.5995C87.0135 33.598 86.945 33.5806 86.883 33.5487C86.821 33.5169 86.7671 33.4713 86.7253 33.4155C86.6835 33.3597 86.655 33.2951 86.6419 33.2266C86.6419 33.2266 86.805 33.8632 86.0742 33.7644L86.589 29.3979L87.6438 28.389Z" fill="#263238"/>
<path d="M84.3702 38.0412C84.0851 38.0412 83.8032 37.9812 83.5428 37.8652C83.2823 37.7492 83.0492 37.5797 82.8585 37.3678C82.6678 37.1559 82.5238 36.9062 82.4358 36.635C82.3478 36.3638 82.3179 36.0772 82.3478 35.7937C82.4145 35.141 82.4742 34.6101 82.4742 34.6101C82.4742 34.6101 80.8655 34.3596 80.8448 32.7509C80.8242 31.1422 81.1045 27.4491 81.1045 27.4491C82.019 27.0566 83.0217 26.9152 84.0091 27.0396C84.9964 27.1641 85.9327 27.5498 86.7212 28.1569L86.951 28.3385L86.3926 36.1522C86.356 36.6641 86.1273 37.1433 85.7522 37.4937C85.3771 37.8441 84.8835 38.0396 84.3702 38.0412Z" fill="#FFBE9D"/>
<path d="M81.5171 30.3539C81.5503 30.3232 81.5736 30.2833 81.5841 30.2393C81.5947 30.1954 81.5921 30.1493 81.5766 30.1068C81.5611 30.0643 81.5334 30.0274 81.497 30.0006C81.4606 29.9738 81.4171 29.9583 81.3719 29.9561C81.3268 29.9539 81.2819 29.965 81.2431 29.9882C81.2043 30.0113 81.1731 30.0454 81.1535 30.0861C81.1339 30.1269 81.1268 30.1725 81.133 30.2173C81.1393 30.262 81.1586 30.304 81.1885 30.3379C81.2088 30.3608 81.2335 30.3795 81.2612 30.3928C81.2888 30.4061 81.3188 30.4137 81.3494 30.4152C81.3801 30.4167 81.4107 30.412 81.4395 30.4015C81.4683 30.391 81.4947 30.3748 81.5171 30.3539Z" fill="#263238"/>
<path d="M81.0712 29.8461C81.0965 29.8736 81.255 29.7518 81.4757 29.7518C81.6963 29.7518 81.8594 29.8644 81.8824 29.8369C81.9054 29.8093 81.8709 29.7748 81.7997 29.7197C81.7056 29.6515 81.5918 29.616 81.4757 29.6185C81.3592 29.6185 81.2457 29.6555 81.1516 29.7243C81.0827 29.784 81.0597 29.8346 81.0712 29.8461Z" fill="#263238"/>
<path d="M83.6246 30.1839C83.5983 30.1995 83.5753 30.2202 83.557 30.2448C83.5387 30.2694 83.5256 30.2974 83.5183 30.3271C83.511 30.3569 83.5098 30.3878 83.5146 30.4181C83.5195 30.4483 83.5303 30.4773 83.5465 30.5033C83.5621 30.53 83.5829 30.5533 83.6077 30.5718C83.6325 30.5902 83.6607 30.6035 83.6908 30.6108C83.7208 30.6181 83.752 30.6193 83.7825 30.6142C83.813 30.6092 83.8422 30.598 83.8683 30.5815C83.8948 30.5657 83.9178 30.5447 83.9361 30.5199C83.9543 30.495 83.9674 30.4667 83.9744 30.4367C83.9815 30.4067 83.9825 30.3755 83.9773 30.3451C83.972 30.3147 83.9608 30.2857 83.9441 30.2597C83.9283 30.2335 83.9075 30.2107 83.8828 30.1927C83.8581 30.1747 83.8301 30.1617 83.8003 30.1547C83.7706 30.1476 83.7397 30.1466 83.7095 30.1516C83.6794 30.1566 83.6505 30.1676 83.6246 30.1839Z" fill="#263238"/>
<path d="M83.4774 30.0414C83.5027 30.069 83.6613 29.9472 83.8819 29.9472C84.1025 29.9472 84.2657 30.0598 84.2887 30.0322C84.3117 30.0046 84.2749 29.9702 84.2059 29.915C84.1111 29.8466 83.9965 29.811 83.8796 29.8139C83.7631 29.814 83.6499 29.8528 83.5579 29.9242C83.4889 29.9793 83.4659 30.0299 83.4774 30.0414Z" fill="#263238"/>
<path d="M82.5911 31.8684C82.4763 31.8246 82.3553 31.799 82.2326 31.7926C82.1751 31.7926 82.1292 31.7742 82.1246 31.742C82.1221 31.684 82.1365 31.6266 82.1659 31.5766L82.3406 31.1169C82.5074 30.7365 82.6345 30.3399 82.7198 29.9334C82.5162 30.2988 82.3499 30.6838 82.2234 31.0825C82.1659 31.2387 82.1108 31.3881 82.0579 31.5421C82.0194 31.6163 82.008 31.7017 82.0257 31.7834C82.0338 31.8054 82.047 31.8252 82.0642 31.8412C82.0814 31.8571 82.102 31.8688 82.1246 31.8753C82.1569 31.8837 82.19 31.8883 82.2234 31.8891C82.3462 31.9034 82.4706 31.8964 82.5911 31.8684Z" fill="#263238"/>
<path d="M83.3097 32.1143C83.5395 31.9764 82.6731 32.4522 82.2227 32.4292C82.2976 32.5454 82.4098 32.6328 82.5409 32.6771C82.672 32.7213 82.8142 32.7198 82.9443 32.6728C83.4269 32.4958 83.3097 32.1143 83.3097 32.1143Z" fill="white"/>
<path d="M82.4597 34.5871C83.2022 34.6009 83.932 34.3929 84.5556 33.9896C84.5556 33.9896 84.0592 35.1387 82.4551 35.0031L82.4597 34.5871Z" fill="#EB996E"/>
<path d="M86.9504 29.8966C86.9849 29.8851 88.1501 29.8047 87.957 31.1606C87.764 32.5165 86.4586 31.873 86.4609 31.834C86.4632 31.7949 86.9504 29.8966 86.9504 29.8966Z" fill="#FFBE9D"/>
<path d="M86.9432 31.418C86.9432 31.418 86.9639 31.4387 87.0029 31.4616C87.0286 31.4779 87.0573 31.489 87.0873 31.4941C87.1172 31.4992 87.1479 31.4984 87.1776 31.4915C87.2731 31.4482 87.3554 31.3803 87.416 31.2947C87.4766 31.209 87.5133 31.1088 87.5223 31.0043C87.5439 30.889 87.5384 30.7702 87.5062 30.6573C87.4994 30.6132 87.4821 30.5713 87.4557 30.5353C87.4293 30.4993 87.3946 30.4702 87.3545 30.4505C87.3283 30.4389 87.2987 30.4372 87.2713 30.4456C87.2439 30.4541 87.2204 30.4721 87.2052 30.4964C87.1822 30.5309 87.1868 30.5585 87.1776 30.5608C87.1684 30.5631 87.1523 30.5332 87.1776 30.4803C87.1893 30.4469 87.2131 30.4191 87.2442 30.4022C87.2645 30.3903 87.287 30.3827 87.3103 30.38C87.3337 30.3772 87.3573 30.3793 87.3798 30.3861C87.4337 30.4074 87.4811 30.4423 87.5174 30.4874C87.5536 30.5325 87.5775 30.5863 87.5867 30.6435C87.6286 30.7686 87.6381 30.9022 87.6142 31.0319C87.6042 31.1538 87.5582 31.2699 87.4821 31.3656C87.406 31.4613 87.3032 31.5323 87.1868 31.5697C87.1488 31.5748 87.1101 31.5716 87.0736 31.56C87.037 31.5485 87.0035 31.529 86.9753 31.503C86.9409 31.4502 86.9386 31.4203 86.9432 31.418Z" fill="#EB996E"/>
<path d="M80.6716 27.2951C80.6952 27.1585 80.7716 27.0367 80.8842 26.9559C80.9969 26.8751 81.1367 26.8417 81.2737 26.8631C81.1812 26.8551 81.0918 26.826 81.0124 26.7779C80.9329 26.7299 80.8657 26.6641 80.8157 26.5859C80.7658 26.5076 80.7346 26.4189 80.7245 26.3266C80.7144 26.2343 80.7257 26.1409 80.7575 26.0537C80.7893 25.9665 80.8408 25.8878 80.908 25.8237C80.9751 25.7596 81.0561 25.7118 81.1447 25.6841C81.2333 25.6563 81.3271 25.6494 81.4188 25.6637C81.5105 25.6781 81.5977 25.7134 81.6736 25.7668C81.4924 25.5967 81.3484 25.3909 81.2507 25.1624C81.2014 25.0456 81.19 24.9163 81.2181 24.7926C81.2461 24.6689 81.3122 24.5572 81.407 24.473C81.5118 24.4125 81.6307 24.3806 81.7517 24.3806C81.8727 24.3806 81.9916 24.4125 82.0964 24.473C82.4274 24.6408 82.6779 24.9441 83.0157 25.0866C83.3535 25.2291 83.7511 25.1946 84.1257 25.2337C84.5421 25.2676 84.9371 25.4326 85.2541 25.7048C85.412 25.8406 85.5359 26.0115 85.6158 26.2039C85.6956 26.3963 85.7291 26.6048 85.7137 26.8125C86.2216 26.7826 86.7778 26.8125 87.1707 27.1273C87.141 26.9226 87.1661 26.7137 87.2437 26.5218C87.3212 26.33 87.4483 26.1623 87.612 26.0357C87.8207 25.8906 88.0632 25.8012 88.3162 25.7763C88.5692 25.7514 88.8244 25.7916 89.0575 25.8932C89.168 25.9309 89.2695 25.9913 89.3554 26.0704C89.4413 26.1496 89.5097 26.2458 89.5562 26.3529C89.6596 26.6631 89.4643 26.9964 89.2184 27.2124C88.9883 27.4076 88.7156 27.5462 88.4222 27.6168C88.1288 27.6875 87.823 27.6883 87.5292 27.6192C87.6224 27.8589 87.6616 28.1163 87.6442 28.3729C87.6189 28.8165 87.2627 29.2761 87.1064 29.6921L87.0719 29.9656L86.8053 31.1031L86.0929 31.0457L86.2882 28.6556C86.2882 28.6556 86.4215 27.6513 85.5482 27.6858C84.6749 27.7203 83.4362 28.628 81.7632 28.2764C81.4887 28.2437 81.2249 28.1503 80.991 28.0029C80.8807 27.923 80.7932 27.8157 80.7371 27.6915C80.6811 27.5674 80.6585 27.4307 80.6716 27.2951Z" fill="#263238"/>
<path d="M90.041 28.3454C89.9065 28.4484 89.7486 28.5163 89.5813 28.543C89.1751 28.6353 88.7495 28.5855 88.3756 28.4019C88.0017 28.2183 87.7021 27.912 87.5268 27.5341C87.4445 27.3849 87.4011 27.2173 87.4004 27.0469C87.4211 27.0469 87.4578 27.2331 87.6026 27.5065C87.788 27.8521 88.0771 28.1308 88.4291 28.3036C88.7812 28.4763 89.1785 28.5343 89.5652 28.4695C89.8594 28.4097 90.0318 28.3224 90.041 28.3454Z" fill="#263238"/>
<path d="M88.3329 29.6691C88.3145 29.6691 88.3329 29.5266 88.2915 29.3152C88.2261 29.039 88.1133 28.7762 87.9583 28.5384C87.796 28.2956 87.6501 28.0423 87.5216 27.78C87.4618 27.6716 87.4302 27.5499 87.4297 27.4261C87.494 27.5272 87.55 27.6332 87.5974 27.7433C87.7009 27.9363 87.8778 28.1845 88.0571 28.4764C88.2218 28.7249 88.33 29.0065 88.3742 29.3014C88.401 29.4252 88.3865 29.5544 88.3329 29.6691Z" fill="#263238"/>
<path d="M76.428 42.9616C75.6281 42.475 74.8555 41.9449 74.1138 41.3736C73.2244 40.6221 73.2887 40.5393 73.3922 40.4543C73.6679 40.2084 75.0008 41.7183 74.902 41.2219C74.8032 40.7255 73.0635 39.5718 73.3577 39.3282C73.7484 39.0088 75.1181 40.6152 75.2445 40.7416C75.3709 40.868 75.5547 40.6864 75.4352 40.5784C75.2628 40.4221 73.4979 38.7399 73.8771 38.4227C74.0885 38.2458 74.3597 38.664 74.3597 38.664C74.3597 38.664 75.8994 40.367 76.0741 40.2107C76.2487 40.0544 75.3846 39.0226 75.0629 38.6962C74.7412 38.3699 74.771 38.0918 75.0261 38.0665C75.1985 38.0504 76.1936 39.0249 76.5015 39.3535C76.8095 39.6821 77.6322 40.6037 77.5863 39.8131C77.5403 39.0226 77.7931 38.3929 77.977 38.2711C78.1608 38.1493 78.3929 38.3699 78.3056 38.5997C78.2355 38.8588 78.2015 39.1264 78.2045 39.3949C78.1978 39.6104 78.2273 39.8256 78.2918 40.0314C78.347 40.2084 78.4021 40.3647 78.455 40.5026L78.995 41.9895L77.6391 43.7062L76.428 42.9616Z" fill="#FFBE9D"/>
<path d="M89.8042 37.8505C90.0892 37.9217 91.7853 38.7996 91.8128 42.6444C91.8335 45.701 91.5991 52.4851 89.5147 53.494C88.5701 53.9536 87.1361 53.9536 85.8905 53.1378C82.3789 50.8695 76.1602 43.5568 76.1602 43.5568L78.9432 40.5922C78.9432 40.5922 86.1686 47.9463 86.4765 47.6751C86.9362 47.266 86.2306 43.7544 86.6259 40.2842C86.8971 37.816 88.0462 37.4116 89.8042 37.8505Z" fill="#455A64"/>
<path d="M78.9376 40.6979C78.9237 40.7168 78.9075 40.7338 78.8893 40.7485L78.7399 40.8955C78.6089 41.0219 78.4159 41.2104 78.1723 41.4632C77.4788 42.1794 76.8411 42.9477 76.2648 43.7613V43.7085C78.2275 45.7102 81.0909 48.6219 84.2693 51.86C85.0201 52.574 85.9359 53.0912 86.9351 53.3653C87.4058 53.4962 87.9002 53.5182 88.3807 53.4296C88.8377 53.3286 89.262 53.1144 89.6148 52.8068C90.2586 52.2171 90.7298 51.4631 90.9776 50.6259C91.1973 49.8959 91.3451 49.1462 91.4188 48.3875C91.605 47.0086 91.7038 45.8595 91.7474 45.0851C91.7704 44.6944 91.7819 44.3956 91.7911 44.1842V43.9544C91.788 43.9284 91.788 43.9022 91.7911 43.8762C91.7946 43.9029 91.7946 43.93 91.7911 43.9567C91.7911 44.0141 91.7911 44.0923 91.7911 44.1865C91.7911 44.3933 91.7911 44.6967 91.7704 45.0897C91.7406 45.8733 91.6555 47.0086 91.4786 48.4013C91.4099 49.1666 91.2659 49.9233 91.0488 50.6604C90.8004 51.5163 90.3237 52.2885 89.6699 52.8942C89.3039 53.2153 88.8629 53.439 88.3876 53.5445C87.8904 53.6368 87.3788 53.6148 86.8915 53.4802C85.8716 53.2036 84.9365 52.6776 84.1705 51.9496C80.9806 48.7069 78.1401 45.7745 76.1913 43.7682L76.166 43.743L76.1867 43.7154C76.7711 42.904 77.4197 42.1408 78.1263 41.4333C78.3768 41.1874 78.586 41.0036 78.7124 40.8795L78.8686 40.7439L78.9376 40.6979Z" fill="#263238"/>
<path d="M78.9417 40.5922C78.9417 40.5922 78.9578 40.5922 78.9808 40.6244L79.0888 40.7324L79.5001 41.1483C79.8564 41.5114 80.378 42.0308 81.033 42.6674C81.688 43.304 82.4785 44.0624 83.3702 44.8943L84.7767 46.1974C85.2708 46.6432 85.781 47.1166 86.3279 47.5625L86.2337 47.6084C86.2498 47.3372 86.2659 47.05 86.282 46.7604C86.3739 45.2413 86.4589 43.7935 86.5371 42.4767C86.5853 41.8194 86.5968 41.192 86.6681 40.606C86.7211 40.058 86.8721 39.524 87.1139 39.0294C87.3144 38.6184 87.6186 38.2667 87.9964 38.0091C88.2853 37.8199 88.6173 37.7068 88.9616 37.6804C89.1777 37.6625 89.3951 37.6891 89.6005 37.7586C89.6725 37.7797 89.7414 37.8107 89.805 37.8505C89.805 37.8505 89.7338 37.8206 89.5936 37.7816C89.3891 37.7233 89.1754 37.7046 88.9639 37.7264C88.6306 37.7609 88.311 37.8769 88.0332 38.0642C87.6715 38.3227 87.3806 38.6681 87.1874 39.0685C86.9572 39.5562 86.8141 40.0804 86.7646 40.6175C86.7002 41.1966 86.6933 41.824 86.6474 42.4813L86.4015 46.765C86.3854 47.0546 86.367 47.3441 86.3532 47.613V47.7302L86.2636 47.659C85.7028 47.1994 85.2018 46.7397 84.7077 46.2801C84.2136 45.8205 83.7494 45.3884 83.3036 44.9702C82.4165 44.1313 81.6305 43.3615 80.9824 42.7249C80.3344 42.0883 79.8219 41.5482 79.4749 41.1759C79.2979 40.9921 79.1692 40.845 79.0796 40.7439L78.9808 40.6313C78.9509 40.606 78.9394 40.5922 78.9417 40.5922Z" fill="#263238"/>
<path d="M77.3867 44.784C77.4858 44.6078 77.6037 44.4429 77.7383 44.2922C77.9681 44.0003 78.2945 43.6028 78.6691 43.173C79.0437 42.7433 79.3907 42.3641 79.6481 42.0952C79.7797 41.9418 79.9268 41.8024 80.087 41.6792C79.9769 41.8488 79.8507 42.0073 79.7101 42.1526L78.7587 43.2511L77.8027 44.3474C77.6781 44.5057 77.5389 44.6519 77.3867 44.784Z" fill="#263238"/>
<path d="M86.9548 49.3343C86.8127 49.0534 86.6958 48.7604 86.6055 48.4587C86.4758 48.1719 86.3712 47.8743 86.293 47.5694C86.6338 48.1053 86.8592 48.7064 86.9548 49.3343Z" fill="#263238"/>
<path d="M87.5871 48.8448C87.3165 48.6781 87.0679 48.4782 86.8471 48.2496C86.6001 48.0473 86.3787 47.8158 86.1875 47.5602C86.7068 47.9271 87.1771 48.3588 87.5871 48.8448Z" fill="#263238"/>
<path d="M18.7536 83.0803L11.372 89.7426L9.34961 87.1549L15.8189 79.1413L18.7536 83.0803Z" fill="#FFBE9D"/>
<path d="M11.5418 89.9931L11.7946 89.7633L9.46432 86.9021L8.41406 87.8214L8.55425 88.0006C9.18164 88.7981 11.8038 92.0109 12.4059 92.3832C13.077 92.7969 11.5418 89.9931 11.5418 89.9931Z" fill="#3864DD"/>
<g opacity="0.5">
<path d="M9.31688 88.8004C9.51364 88.5552 9.61197 88.2455 9.59266 87.9317C9.57875 87.6215 9.44728 87.3281 9.22496 87.1113L8.45508 87.8007L9.31688 88.8004Z" fill="white"/>
</g>
<path opacity="0.5" d="M12.252 91.3996C12.252 91.3996 12.7392 92.4292 12.5117 92.4453C12.2841 92.4614 9.52407 89.3152 8.41406 87.8214L8.48071 87.7708L11.682 91.4686C11.682 91.4686 12.1026 91.2456 12.252 91.3996Z" fill="white"/>
<path d="M8.44336 87.7272C8.45374 87.7453 8.46607 87.7622 8.48013 87.7777L8.59044 87.9225L9.011 88.4419C9.36721 88.8785 9.87051 89.4737 10.4382 90.1195C11.0058 90.7653 11.5344 91.3398 11.9228 91.7512L12.3824 92.2338L12.5088 92.3625C12.5233 92.3788 12.5394 92.3934 12.557 92.4062L12.5157 92.3556L12.3939 92.2223C12.2721 92.0867 12.1204 91.9236 11.9342 91.7305C11.5528 91.3146 11.0288 90.7377 10.4611 90.0919C9.89349 89.4462 9.3879 88.8532 9.02249 88.4212L8.59274 87.911L8.47553 87.7731C8.46648 87.7567 8.4557 87.7413 8.44336 87.7272Z" fill="#263238"/>
<path d="M11.6387 91.5053C11.7408 91.4533 11.8488 91.414 11.9604 91.3881C12.0742 91.3751 12.1891 91.3751 12.3028 91.3881C12.1962 91.3297 12.0716 91.3134 11.9535 91.3421C11.8321 91.3559 11.72 91.414 11.6387 91.5053Z" fill="#263238"/>
<path d="M11.3359 90.3286C11.3956 90.3428 11.4578 90.3428 11.5175 90.3286C11.6163 90.3149 11.6944 90.2919 11.6922 90.2781C11.5705 90.2678 11.4482 90.2876 11.3359 90.3355V90.3286Z" fill="#263238"/>
<path d="M11.2578 90.0023C11.2578 90.0023 11.3222 90.0322 11.4072 90.0414C11.4922 90.0506 11.5612 90.0414 11.5635 90.0414C11.5658 90.0414 11.4968 90.0115 11.4118 90.0023C11.3268 89.9931 11.2578 89.9885 11.2578 90.0023Z" fill="#263238"/>
<path d="M11.3926 89.6323C11.3926 89.6323 11.4316 89.7104 11.5006 89.7909C11.5695 89.8713 11.6339 89.9311 11.6431 89.9219C11.6523 89.9127 11.604 89.8437 11.5328 89.7633C11.4615 89.6829 11.4018 89.6231 11.3926 89.6323Z" fill="#263238"/>
<path d="M11.5332 89.4209C11.5425 89.4966 11.5754 89.5674 11.6274 89.6231C11.7033 89.722 11.7883 89.7794 11.7952 89.7702C11.8021 89.761 11.7331 89.6921 11.6642 89.5956C11.6252 89.534 11.5814 89.4756 11.5332 89.4209Z" fill="#263238"/>
<path d="M11.6581 90.2115C11.7003 90.2786 11.7539 90.3377 11.8167 90.3861C11.8802 90.4437 11.9495 90.4945 12.0235 90.5378C12.0666 90.5676 12.1138 90.5908 12.1637 90.6067C12.1933 90.6181 12.226 90.6181 12.2556 90.6067C12.2716 90.5982 12.2847 90.5852 12.2933 90.5692C12.3019 90.5533 12.3056 90.5351 12.3039 90.5171C12.2861 90.4552 12.2548 90.398 12.2124 90.3495C12.17 90.301 12.1174 90.2624 12.0584 90.2365C11.9994 90.2106 11.9354 90.1981 11.871 90.1997C11.8066 90.2013 11.7433 90.2171 11.6857 90.2459C11.6656 90.2552 11.6476 90.2685 11.6328 90.285C11.7053 90.2528 11.7833 90.2349 11.8626 90.2321C11.9438 90.2312 12.0236 90.2535 12.0924 90.2965C12.1349 90.3212 12.172 90.3543 12.2012 90.3938C12.2305 90.4334 12.2513 90.4784 12.2625 90.5263C12.2625 90.5723 12.2257 90.5907 12.1798 90.5769C12.1344 90.5599 12.0906 90.5392 12.0488 90.5148C11.9758 90.4732 11.9059 90.4264 11.8396 90.3746C11.7224 90.2735 11.665 90.2046 11.6581 90.2115Z" fill="#263238"/>
<path d="M11.6898 90.2643C11.7457 90.2536 11.7957 90.2225 11.83 90.177C11.872 90.1306 11.902 90.0746 11.9173 90.0138C11.9319 89.9755 11.9359 89.934 11.9291 89.8936C11.9222 89.8532 11.9047 89.8154 11.8782 89.784C11.8582 89.7698 11.8334 89.7638 11.8091 89.7672C11.7848 89.7706 11.7626 89.7832 11.7472 89.8024C11.723 89.8314 11.7051 89.865 11.6944 89.9012C11.676 89.9593 11.6651 90.0196 11.6622 90.0805C11.6535 90.1353 11.659 90.1915 11.6783 90.2436C11.6868 90.1904 11.6914 90.1367 11.6921 90.0828C11.7009 90.0257 11.7148 89.9696 11.7335 89.915C11.7495 89.8576 11.8024 89.7817 11.8507 89.8185C11.8678 89.8455 11.8791 89.8758 11.8839 89.9075C11.8886 89.9392 11.8867 89.9715 11.8782 90.0023C11.8658 90.0575 11.8415 90.1092 11.807 90.154C11.7711 90.194 11.7319 90.2309 11.6898 90.2643Z" fill="#263238"/>
<path d="M9.24609 87.1182C9.24609 87.1182 9.32423 87.1894 9.41845 87.3273C9.54282 87.5064 9.6152 87.7163 9.62759 87.934C9.63562 88.1511 9.5848 88.3663 9.4805 88.5568C9.39777 88.7016 9.32193 88.7866 9.32883 88.7866C9.33572 88.7866 9.35181 88.7728 9.38398 88.7384C9.43048 88.6895 9.47134 88.6355 9.50578 88.5775C9.62435 88.3853 9.68203 88.1618 9.67125 87.9363C9.65841 87.7104 9.57838 87.4936 9.44144 87.3135C9.40123 87.2594 9.35496 87.21 9.30355 87.1664C9.27137 87.1297 9.24839 87.1159 9.24609 87.1182Z" fill="#263238"/>
<path d="M9.88672 88.913C9.97401 89.071 10.0814 89.217 10.2062 89.3473C10.3203 89.4881 10.4524 89.6133 10.5991 89.7196C10.5991 89.7196 10.4383 89.5404 10.2429 89.3175C10.0476 89.0946 9.9097 88.9061 9.88672 88.913Z" fill="#263238"/>
<path d="M9.41635 88.3706C9.40256 88.3706 9.39107 88.4189 9.36579 88.4718C9.34051 88.5246 9.31293 88.5706 9.32212 88.5798C9.33131 88.589 9.37728 88.5545 9.40715 88.4901C9.43703 88.4258 9.42784 88.3706 9.41635 88.3706Z" fill="#263238"/>
<path d="M9.4886 87.9432C9.47711 87.9432 9.46332 87.9845 9.45872 88.0397C9.45412 88.0949 9.45872 88.1385 9.47481 88.1385C9.49089 88.1385 9.50009 88.0972 9.50468 88.042C9.50928 87.9868 9.50009 87.9432 9.4886 87.9432Z" fill="#263238"/>
<path d="M9.34961 87.5502C9.34961 87.5502 9.37489 87.5962 9.39557 87.649C9.41625 87.7019 9.42085 87.7501 9.43464 87.7524C9.44843 87.7547 9.46452 87.6973 9.43464 87.6329C9.40476 87.5686 9.35421 87.5387 9.34961 87.5502Z" fill="#263238"/>
<path d="M9.2207 87.2951C9.2207 87.2951 9.2207 87.3273 9.2207 87.3572C9.2207 87.387 9.25058 87.41 9.26207 87.4054C9.27356 87.4008 9.26207 87.3733 9.26207 87.3411C9.26207 87.3089 9.23219 87.2905 9.2207 87.2951Z" fill="#263238"/>
<path d="M31.8827 83.0114L32.7721 93.075H28.9687L27.291 83.0114H31.8827Z" fill="#FFBE9D"/>
<path d="M32.6619 93.1692V92.8313L28.9688 92.8152L29.0124 94.2102H29.2422C30.258 94.2286 34.4039 94.2378 35.0726 94.008C35.7942 93.7598 32.6619 93.1692 32.6619 93.1692Z" fill="#3864DD"/>
<g opacity="0.5">
<path d="M30.3179 94.1321C30.253 93.8243 30.0761 93.5515 29.8215 93.3668C29.5714 93.1849 29.2624 93.103 28.9551 93.137L28.9918 94.1643L30.3179 94.1321Z" fill="white"/>
</g>
<path opacity="0.5" d="M34.1909 93.5116C34.1909 93.5116 35.294 93.7874 35.1654 93.9712C35.0367 94.1551 30.8448 94.3044 28.9902 94.201V94.1183L33.8807 93.9873C33.8807 93.9873 33.9772 93.53 34.1909 93.5116Z" fill="white"/>
<path d="M28.9336 94.1275H28.9979H29.1795H29.846C30.4113 94.1275 31.1904 94.1275 32.0499 94.0884C32.9094 94.0494 33.6885 94.0149 34.2515 93.9758L34.918 93.9253L35.0995 93.9069H35.1616H35.0995H34.918L34.2492 93.9437C33.6862 93.9758 32.9094 94.0149 32.0499 94.0448C31.1904 94.0747 30.4113 94.0884 29.846 94.0953H29.1795H28.9979L28.9336 94.1275Z" fill="#263238"/>
<path d="M33.8827 94.054C33.908 93.9421 33.9457 93.8334 33.9953 93.7299C34.0616 93.634 34.1387 93.5461 34.2251 93.4679C34.1116 93.5124 34.0194 93.5988 33.9677 93.7092C33.8979 93.8097 33.8676 93.9325 33.8827 94.054Z" fill="#263238"/>
<path d="M32.7793 93.5415C32.7908 93.5415 32.8413 93.484 32.8919 93.3967C32.9425 93.3093 32.9746 93.2358 32.9631 93.2289C32.9163 93.2695 32.8787 93.3197 32.8528 93.376C32.8167 93.4252 32.7916 93.4816 32.7793 93.5415Z" fill="#263238"/>
<path d="M32.4778 93.3967C32.4778 93.3967 32.5422 93.3645 32.6042 93.3048C32.6663 93.245 32.7077 93.1899 32.6985 93.183C32.6893 93.1761 32.6341 93.2128 32.5721 93.2726C32.51 93.3323 32.4686 93.3829 32.4778 93.3967Z" fill="#263238"/>
<path d="M32.2773 93.0566C32.3388 93.0767 32.4041 93.0822 32.4681 93.0726C32.5335 93.0781 32.5993 93.0695 32.6611 93.0474C32.5991 93.0262 32.533 93.0199 32.4681 93.029C32.3624 93.0313 32.2773 93.0428 32.2773 93.0566Z" fill="#263238"/>
<path d="M32.2012 92.8129C32.2657 92.8532 32.3412 92.8725 32.4172 92.8681C32.4958 92.8809 32.5764 92.868 32.647 92.8313C32.5752 92.8237 32.5028 92.8237 32.431 92.8313C32.355 92.8187 32.2782 92.8125 32.2012 92.8129Z" fill="#263238"/>
<path d="M32.8926 93.2174C32.9686 93.2308 33.0464 93.2308 33.1224 93.2174C33.2077 93.2035 33.2915 93.182 33.3729 93.1531C33.4219 93.1369 33.4689 93.1154 33.5131 93.0887C33.5409 93.0714 33.5614 93.0444 33.5705 93.0129C33.5733 92.9955 33.5711 92.9776 33.5642 92.9613C33.5573 92.9451 33.5459 92.9311 33.5315 92.921C33.44 92.8792 33.3368 92.8708 33.2398 92.8973C33.1428 92.9237 33.0582 92.9833 33.0006 93.0658C32.9653 93.1135 32.941 93.1684 32.9293 93.2266C32.9239 93.2469 32.9239 93.2683 32.9293 93.2887C32.9526 93.2158 32.9867 93.1468 33.0305 93.0841C33.0814 93.0208 33.1491 92.973 33.2258 92.9462C33.2706 92.9275 33.3186 92.9178 33.3671 92.9178C33.4157 92.9178 33.4637 92.9275 33.5085 92.9462C33.5475 92.9738 33.5338 93.0175 33.4924 93.0451C33.4513 93.0687 33.4082 93.0887 33.3637 93.1048C33.2854 93.1353 33.2047 93.1591 33.1224 93.1761C32.9845 93.2059 32.8926 93.2105 32.8926 93.2174Z" fill="#263238"/>
<path d="M32.9562 93.2266C32.9818 93.1763 32.9891 93.1186 32.9769 93.0634C32.9679 93.0017 32.9434 92.9431 32.9056 92.8934C32.8854 92.8583 32.8562 92.8292 32.8211 92.809C32.786 92.7889 32.7462 92.7783 32.7057 92.7785C32.6821 92.785 32.6618 92.8002 32.649 92.8211C32.6362 92.8421 32.6318 92.8671 32.6368 92.8911C32.6425 92.9286 32.6575 92.9642 32.6804 92.9945C32.713 93.0456 32.7524 93.0921 32.7976 93.1324C32.8349 93.1744 32.8824 93.206 32.9355 93.2243C32.9355 93.2243 32.8873 93.183 32.8183 93.1117C32.7802 93.0686 32.7456 93.0225 32.7149 92.9738C32.6804 92.9233 32.6551 92.8359 32.7149 92.8221C32.7747 92.8084 32.8367 92.8727 32.8735 92.9164C32.9083 92.9609 32.9327 93.0128 32.9447 93.068C32.9528 93.1205 32.9567 93.1735 32.9562 93.2266Z" fill="#263238"/>
<path d="M28.9844 93.1209C28.9844 93.1209 29.0901 93.1071 29.2556 93.1209C29.4731 93.1397 29.681 93.2193 29.8554 93.3507C30.0291 93.4811 30.1634 93.6568 30.2438 93.8586C30.3058 94.0149 30.315 94.1206 30.3242 94.1183C30.3277 94.0939 30.3277 94.0691 30.3242 94.0448C30.3143 93.9783 30.2981 93.9129 30.2759 93.8494C30.2029 93.6355 30.0667 93.4488 29.8852 93.314C29.7028 93.1814 29.4854 93.1055 29.2602 93.0956C29.1929 93.0899 29.1252 93.0899 29.0579 93.0956C29.0321 93.0998 29.0073 93.1084 28.9844 93.1209Z" fill="#263238"/>
<path d="M30.7676 93.7621C30.9447 93.796 31.1256 93.806 31.3053 93.792C31.4858 93.7933 31.6658 93.7717 31.8408 93.7276C31.8408 93.7138 31.5995 93.7391 31.303 93.7483C31.0066 93.7575 30.7676 93.7506 30.7676 93.7621Z" fill="#263238"/>
<path d="M30.0488 93.7828C30.0488 93.7828 30.0695 93.8333 30.0971 93.8862C30.1247 93.939 30.1385 93.9896 30.1499 93.9896C30.1614 93.9896 30.1683 93.9298 30.1362 93.8678C30.104 93.8057 30.0557 93.7736 30.0488 93.7828Z" fill="#263238"/>
<path d="M29.7676 93.4564C29.7676 93.4564 29.7837 93.5024 29.8227 93.5392C29.8618 93.5759 29.9009 93.5989 29.9101 93.5897C29.9193 93.5805 29.894 93.5438 29.8526 93.507C29.8112 93.4702 29.7745 93.4473 29.7676 93.4564Z" fill="#263238"/>
<path d="M29.3733 93.314C29.3733 93.3278 29.4239 93.3255 29.479 93.3415C29.5342 93.3576 29.5733 93.3875 29.5825 93.3783C29.5917 93.3691 29.5595 93.3186 29.4905 93.3002C29.4216 93.2818 29.3687 93.3048 29.3733 93.314Z" fill="#263238"/>
<path d="M29.0938 93.2519C29.0938 93.2634 29.1121 93.2818 29.142 93.2933C29.1719 93.3048 29.2018 93.2933 29.2064 93.2933C29.211 93.2933 29.188 93.2634 29.1581 93.2519C29.1282 93.2404 29.0983 93.2404 29.0938 93.2519Z" fill="#263238"/>
<path d="M25.1975 53.4756C25.1975 53.4756 28.1736 73.2396 27.7415 74.2026C27.3095 75.1655 17.6688 85.0268 17.6688 85.0268L14.0469 78.831C14.0469 78.831 20.4265 71.7642 20.3346 71.3988C20.2427 71.0334 15.7383 51.8853 15.7383 51.8853L25.1975 53.4756Z" fill="#263238"/>
<path d="M26.2576 60.7745C26.2277 60.5631 23.8262 55.1647 23.8262 55.1647L24.9913 53.5193L25.1982 53.4756L26.2576 60.7745Z" fill="#263238"/>
<path d="M14.0471 51.6141L13.8656 52.3472C13.3398 54.5106 13.6691 56.7934 14.7848 58.72L22.8467 72.6996C23.4195 73.6901 23.8365 74.7629 24.0831 75.8802L26.094 84.9257H32.7127C32.7127 84.9257 31.8945 78.7207 31.166 74.1957C30.6145 70.7783 26.0412 60.177 23.8258 55.1578L25.2046 53.4687L22.8215 53.0711L14.0471 51.6141Z" fill="#263238"/>
<path d="M24 55.1257C24.0924 55.4279 24.2052 55.7235 24.3378 56.0104C24.5676 56.5505 24.8618 57.2974 25.1835 58.127C25.5053 58.9567 25.788 59.7151 25.9902 60.262C26.0873 60.5627 26.204 60.8567 26.3395 61.1422C26.3312 61.0566 26.3119 60.9724 26.2821 60.8917C26.2384 60.7354 26.1695 60.5079 26.0798 60.2298C25.8983 59.6737 25.6202 58.913 25.3076 58.0788C24.9951 57.2445 24.6665 56.5045 24.4229 55.9737C24.3011 55.7071 24.193 55.4934 24.1264 55.3486C24.0944 55.269 24.0519 55.194 24 55.1257Z" fill="#455A64"/>
<path d="M24.724 78.6265C24.7291 78.5745 24.7291 78.5222 24.724 78.4702C24.7102 78.353 24.6941 78.2059 24.6734 78.0221C24.6506 77.7852 24.6153 77.5497 24.5677 77.3166C24.5149 77.0454 24.4643 76.7305 24.3747 76.3973C24.3333 76.2272 24.2896 76.048 24.2437 75.8641C24.1977 75.6803 24.1334 75.4895 24.0736 75.2919C23.9633 74.8943 23.807 74.4829 23.6553 74.0463C23.295 73.1058 22.8846 72.1852 22.4258 71.2885C21.5762 69.6759 20.6355 68.1129 19.6083 66.6072C19.2199 66.0281 18.8982 65.5615 18.673 65.2421L18.4133 64.8859C18.3841 64.8424 18.351 64.8016 18.3145 64.7641C18.3343 64.8128 18.3597 64.8591 18.3903 64.902L18.6316 65.2812C18.8614 65.6236 19.1602 66.0924 19.5325 66.6601C20.2886 67.8321 21.3319 69.4592 22.3109 71.3483C22.7631 72.2374 23.1704 73.1486 23.5312 74.0785C23.6852 74.5105 23.8461 74.9196 23.961 75.3126C24.0208 75.5079 24.0828 75.6964 24.1357 75.8802C24.1885 76.0641 24.2299 76.2387 24.2735 76.4088C24.3701 76.7443 24.4252 77.0546 24.485 77.3281C24.5447 77.6015 24.5861 77.8336 24.6137 78.0175C24.6412 78.2013 24.6688 78.3461 24.6895 78.461C24.6946 78.5173 24.7062 78.5728 24.724 78.6265Z" fill="#455A64"/>
<path d="M15.1341 58.0604C15.1341 58.0604 15.1157 58.0397 15.0835 57.9915L14.9434 57.7616C15.0538 57.588 15.1984 57.4387 15.3682 57.3225C15.5381 57.2064 15.7297 57.1259 15.9316 57.086C16.2334 57.0181 16.5455 57.0087 16.8508 57.0584C17.2094 57.1211 17.5616 57.2157 17.9034 57.3411C18.2982 57.463 18.6824 57.6168 19.0524 57.8007C19.4748 58.0111 19.8069 58.3669 19.9878 58.8027C20.0781 59.0406 20.0933 59.3005 20.0315 59.5473C19.9561 59.7865 19.8567 60.0175 19.735 60.2367C19.6107 60.4505 19.5434 60.6927 19.5397 60.94C19.5597 61.1895 19.6739 61.422 19.8591 61.5903C20.3003 62.0293 20.953 62.1097 21.4931 62.3832C22.0202 62.6499 22.4496 63.0762 22.7203 63.6012C22.9744 64.0681 23.0937 64.5964 23.065 65.1272C23.0378 65.5898 22.8888 66.037 22.633 66.4234C22.2676 66.9844 21.7221 67.4042 21.0863 67.6138C20.915 67.6677 20.7387 67.7039 20.56 67.7218C20.4981 67.7264 20.4358 67.7264 20.3739 67.7218C20.6078 67.6876 20.8384 67.6338 21.0633 67.5609C21.6779 67.3401 22.2018 66.9214 22.5525 66.3705C22.7949 65.9948 22.9343 65.5622 22.957 65.1157C22.9786 64.6034 22.8602 64.095 22.6146 63.6449C22.351 63.1427 21.9372 62.7354 21.431 62.4797C21.1713 62.351 20.8795 62.2637 20.5876 62.1534C20.2818 62.0526 20.0012 61.8872 19.7649 61.6685C19.5583 61.4787 19.4317 61.2174 19.411 60.9377C19.4151 60.6705 19.487 60.4087 19.6201 60.177C19.7394 59.9635 19.8371 59.7387 19.912 59.5059C19.9687 59.2811 19.9543 59.0442 19.8706 58.828C19.7025 58.4158 19.3906 58.0785 18.9927 57.8788C18.629 57.6918 18.2509 57.5342 17.862 57.4077C17.5279 57.2792 17.1824 57.1822 16.8301 57.1182C16.5358 57.064 16.2336 57.0679 15.9408 57.1296C15.7448 57.1658 15.5579 57.2402 15.3907 57.3487C15.2235 57.4571 15.0793 57.5974 14.9663 57.7616L15.0927 57.9915C15.1091 58.0128 15.1229 58.0359 15.1341 58.0604Z" fill="#FAFAFA"/>
<path d="M31.8431 78.6518C31.6806 78.5091 31.4969 78.3928 31.2984 78.3071C31.0617 78.2142 30.8148 78.1494 30.563 78.114C30.2711 78.0658 29.931 78.0359 29.5587 77.9761C29.1461 77.917 28.748 77.7822 28.3844 77.5786C27.6882 77.1892 27.1573 76.56 26.8906 75.8083C26.6238 75.0566 26.6393 74.2336 26.9342 73.4924C27.1526 72.9524 27.4812 72.4836 27.5731 71.9619C27.6313 71.4514 27.5569 70.9345 27.3571 70.4612C27.1823 70.0221 27.0335 69.5732 26.9112 69.1168C26.8121 68.7098 26.8121 68.285 26.9112 67.8781C27.0553 67.2888 27.3877 66.7627 27.8581 66.3797C28.0262 66.2373 28.2174 66.1246 28.4234 66.0464C28.2358 66.1552 28.0568 66.2781 27.888 66.4142C27.4414 66.8019 27.1286 67.3206 26.994 67.8965C26.8987 68.2907 26.8987 68.7019 26.994 69.0961C27.1218 69.5472 27.2753 69.9907 27.4536 70.4244C27.6637 70.9144 27.7429 71.4505 27.6834 71.9803C27.5869 72.5387 27.2491 73.0144 27.0422 73.5384C26.7573 74.2528 26.7399 75.0462 26.9932 75.7724C27.2466 76.4987 27.7536 77.109 28.4211 77.4912C28.7764 77.6944 29.1658 77.8307 29.5702 77.8934C29.9379 77.9577 30.278 77.9922 30.5722 78.0474C30.8282 78.0927 31.0776 78.1699 31.3145 78.2772C31.4636 78.344 31.6022 78.4323 31.7259 78.5392C31.8063 78.6058 31.8477 78.6472 31.8431 78.6518Z" fill="#FAFAFA"/>
<path d="M28.7558 85.2452C28.7328 85.2452 28.7259 84.9464 28.6064 84.4845C28.5362 84.2146 28.44 83.9521 28.3191 83.7008C28.168 83.3947 27.9855 83.1051 27.7745 82.8367C27.5583 82.5721 27.3149 82.331 27.0482 82.1174C26.8292 81.9419 26.5937 81.788 26.345 81.6578C25.9199 81.4417 25.628 81.3705 25.6349 81.3475C25.7056 81.3483 25.7756 81.3615 25.8417 81.3866C25.9201 81.4043 25.9969 81.4281 26.0715 81.4578C26.1753 81.4925 26.2766 81.5339 26.3749 81.5819C26.6351 81.7014 26.8816 81.8485 27.1103 82.0209C27.6716 82.4456 28.1185 83.0031 28.411 83.6433C28.5302 83.9033 28.6211 84.1752 28.6822 84.4546C28.7078 84.5613 28.7263 84.6695 28.7374 84.7786C28.7505 84.8599 28.7567 84.9422 28.7558 85.0245C28.7686 85.0975 28.7686 85.1722 28.7558 85.2452Z" fill="#FAFAFA"/>
<path d="M25.3585 59.2485C25.3585 59.2485 25.3286 59.2485 25.2689 59.2669C25.1813 59.2793 25.093 59.287 25.0046 59.2899C24.6796 59.3007 24.3547 59.2659 24.0394 59.1865C23.5687 59.073 23.123 58.8736 22.7248 58.5982C22.2286 58.2666 21.8205 57.8193 21.5359 57.2948C21.2512 56.7702 21.0984 56.1843 21.0908 55.5876C21.08 55.1034 21.1579 54.6212 21.3207 54.165C21.4272 53.8573 21.5757 53.5658 21.7619 53.2986C21.811 53.2263 21.8647 53.1572 21.9228 53.0918C21.9618 53.0458 21.9848 53.0229 21.9871 53.0252C21.7424 53.3875 21.5454 53.7799 21.4011 54.1926C21.2555 54.6419 21.1902 55.1133 21.208 55.5853C21.2203 56.1621 21.3692 56.7278 21.6425 57.236C21.9157 57.7441 22.3055 58.1802 22.78 58.5085C23.1654 58.7805 23.5955 58.9827 24.0508 59.1061C24.4786 59.2108 24.9182 59.2587 25.3585 59.2485Z" fill="#FAFAFA"/>
<path d="M19.4656 72.1434C19.5101 72.1588 19.5531 72.178 19.5943 72.2009C19.6793 72.24 19.7988 72.3066 19.9505 72.3962C20.3799 72.6566 20.7603 72.9903 21.0743 73.3821C21.2912 73.6571 21.4577 73.9683 21.5661 74.3014C21.6864 74.6871 21.7132 75.096 21.6442 75.4941C21.5754 75.9406 21.3623 76.3522 21.0375 76.6662C20.6974 76.9971 20.1987 77.1074 19.9091 77.4705C19.6195 77.8336 19.5552 78.3094 19.5115 78.7529C19.4975 79.1937 19.4201 79.6303 19.2817 80.0491C19.1259 80.4275 18.842 80.739 18.4797 80.9292C18.1717 81.0973 17.8319 81.1991 17.4823 81.228C16.9813 81.2556 16.479 81.206 15.9931 81.0809C15.8207 81.0396 15.6897 81.0051 15.6001 80.9798C15.554 80.971 15.5092 80.9563 15.4668 80.9361C15.5141 80.9384 15.5611 80.9453 15.607 80.9568L16.0023 81.035C16.4848 81.1416 16.9802 81.1779 17.4731 81.143C17.809 81.1106 18.1345 81.0088 18.4291 80.8442C18.7689 80.6607 19.0344 80.3651 19.1806 80.0077C19.3099 79.5975 19.3818 79.1713 19.3943 78.7414C19.4112 78.5092 19.4466 78.2786 19.5 78.052C19.554 77.8115 19.6625 77.5866 19.8172 77.3947C20.1481 76.9971 20.6491 76.8891 20.9663 76.5812C21.2734 76.286 21.4759 75.8987 21.5431 75.478C21.6113 75.0952 21.5893 74.7018 21.4787 74.329C21.3776 74.007 21.2221 73.7046 21.0191 73.435C20.7157 73.0452 20.3499 72.7082 19.9367 72.4376C19.7919 72.3411 19.6747 72.2698 19.5943 72.2239C19.5482 72.2025 19.505 72.1755 19.4656 72.1434Z" fill="#FAFAFA"/>
<path d="M20.1715 24.5902C18.896 24.273 17.524 25.0705 16.8897 26.2196C16.2554 27.3686 16.2485 28.7774 16.5473 30.0552C16.6737 30.5906 16.8507 31.1445 16.7266 31.6823C16.5933 32.2591 16.1336 32.7072 15.913 33.2588C15.4925 34.3228 16.0279 35.5018 16.5519 36.5176C16.7817 36.9772 17.0966 37.4943 17.6067 37.5954C18.179 37.708 18.6823 37.2507 19.1649 36.922C20.0168 36.3472 21.0536 36.1134 22.0697 36.2671C23.2188 36.444 24.2576 37.1036 25.4112 37.1243C25.9338 37.128 26.4489 37.0006 26.9094 36.7537C27.37 36.5067 27.7612 36.1482 28.0472 35.7109C28.3896 35.1754 28.5069 34.3688 28.0128 33.9735C27.6864 33.7138 27.1877 33.723 26.9004 33.4197C26.5511 33.0497 26.7028 32.4544 26.8821 31.981C27.0613 31.5076 27.2406 30.9285 26.9211 30.5332C26.5649 30.0874 25.7927 30.1724 25.4526 29.7151C25.1125 29.2577 25.471 28.566 25.4526 27.9593C25.43 27.6921 25.3474 27.4335 25.2109 27.2027C25.0744 26.9719 24.8876 26.7749 24.6643 26.6263C24.2323 26.3115 24.1725 26.2104 23.5773 25.128" fill="#263238"/>
<path d="M18.3923 35.0996L22.9886 35.4926C22.9886 35.4926 26.337 35.0031 27.6194 43.4947L32.7075 43.2856L32.9373 46.6685L25.9394 47.0132L25.1144 46.5191L25.1971 53.4756L13.6214 52.623C13.8834 51.0442 15.1175 48.9666 15.5311 47.6337C15.1106 46.5812 12.7848 42.2905 12.6699 40.0866C12.3574 34.0517 18.3923 35.0996 18.3923 35.0996Z" fill="#3864DD"/>
<path opacity="0.3" d="M25.6308 41.3253C25.6308 41.3253 26.4443 42.2445 26.4581 43.019C26.4788 44.26 26.1663 44.8966 26.5547 46.2525L25.447 46.5191C25.447 46.5191 25.2769 46.1882 25.4217 45.4803C25.5665 44.7725 25.8468 43.9107 25.9709 43.1408C26.0811 42.5144 25.9602 41.8693 25.6308 41.3253Z" fill="black"/>
<path d="M25.4481 46.5191C25.4142 46.4319 25.391 46.3408 25.3792 46.2479C25.3466 45.9946 25.3466 45.7382 25.3792 45.4849C25.4283 45.1128 25.5051 44.7448 25.609 44.3841C25.7396 43.9486 25.8409 43.5048 25.9123 43.0558C25.9805 42.6114 25.9322 42.1568 25.7721 41.7367C25.6254 41.4003 25.4251 41.0898 25.1792 40.8174C24.761 40.3417 24.4645 40.0774 24.4898 40.0613C24.5682 40.1113 24.6413 40.169 24.7081 40.2337C24.8996 40.3994 25.0814 40.5759 25.2528 40.7622C25.5158 41.037 25.7296 41.3549 25.8848 41.7022C26.059 42.1397 26.1121 42.616 26.0387 43.0811C25.9688 43.5359 25.8635 43.9847 25.7239 44.4232C25.6151 44.7783 25.5284 45.1398 25.4642 45.5056C25.4256 45.7526 25.4125 46.0029 25.4251 46.2525C25.442 46.3403 25.4497 46.4297 25.4481 46.5191Z" fill="#263238"/>
<g opacity="0.2">
<path d="M25.599 46.4318L22.1702 46.5099C21.8984 46.5356 21.6243 46.5035 21.3658 46.4157C21.005 46.264 20.7729 45.9124 20.5707 45.5769C19.9686 44.5841 19.417 43.5637 18.916 42.5157C18.916 42.5157 19.8215 45.3953 20.3891 46.6524C20.4443 46.811 20.5583 46.9424 20.7075 47.0194C20.8568 47.0964 21.0299 47.1131 21.1912 47.0661C22.6834 47.0688 24.1681 46.8551 25.599 46.4318Z" fill="black"/>
</g>
<path d="M48.0152 38.8479C48.5208 38.8119 49.0271 38.9061 49.486 39.1214C49.6815 39.2168 49.8959 39.267 50.1134 39.2685H50.6741V32.0638C50.6741 31.9184 50.6455 31.7745 50.5898 31.6402C50.5341 31.5059 50.4524 31.384 50.3496 31.2813C50.2467 31.1786 50.1245 31.0973 49.9902 31.0418C49.8558 30.9864 49.7118 30.9581 49.5664 30.9584H42.3916V30.4711C42.394 30.2453 42.4474 30.023 42.5479 29.8208C42.8211 29.2606 42.9096 28.6281 42.8007 28.0144C42.6732 27.2767 42.2733 26.6138 41.6803 26.1568C41.0873 25.6998 40.3443 25.4822 39.5984 25.5469C38.8526 25.6116 38.1582 25.954 37.6528 26.5063C37.1474 27.0586 36.8677 27.7806 36.8692 28.5292C36.8691 28.9433 36.956 29.3528 37.1243 29.7311C37.2093 29.9206 37.2547 30.1256 37.2576 30.3333V30.9584H30.2597C29.9665 30.9584 29.6854 31.0748 29.4781 31.2821C29.2708 31.4894 29.1543 31.7706 29.1543 32.0638V51.5268C29.1543 51.6451 29.1776 51.7622 29.2229 51.8715C29.2681 51.9808 29.3345 52.0801 29.4182 52.1638C29.5018 52.2474 29.6011 52.3138 29.7104 52.3591C29.8197 52.4043 29.9369 52.4276 30.0552 52.4276H49.7733C50.012 52.427 50.2408 52.3319 50.4096 52.1631C50.5784 51.9943 50.6735 51.7655 50.6741 51.5268V44.4921H49.8767C49.6923 44.4924 49.5097 44.5283 49.3389 44.5979C48.9858 44.742 48.608 44.8161 48.2266 44.8162C47.4343 44.8442 46.6632 44.5563 46.0831 44.0159C45.503 43.4754 45.1613 42.7267 45.1333 41.9343C45.1053 41.1419 45.3931 40.3709 45.9336 39.7908C46.4741 39.2107 47.2228 38.869 48.0152 38.841V38.8479Z" fill="#3864DD"/>
<path opacity="0.2" d="M48.0152 38.8479C48.5208 38.8119 49.0271 38.9061 49.486 39.1214C49.6815 39.2168 49.8959 39.267 50.1134 39.2685H50.6741V32.0638C50.6741 31.9184 50.6455 31.7745 50.5898 31.6402C50.5341 31.5059 50.4524 31.384 50.3496 31.2813C50.2467 31.1786 50.1245 31.0973 49.9902 31.0418C49.8558 30.9864 49.7118 30.9581 49.5664 30.9584H42.3916V30.4711C42.394 30.2453 42.4474 30.023 42.5479 29.8208C42.8211 29.2606 42.9096 28.6281 42.8007 28.0144C42.6732 27.2767 42.2733 26.6138 41.6803 26.1568C41.0873 25.6998 40.3443 25.4822 39.5984 25.5469C38.8526 25.6116 38.1582 25.954 37.6528 26.5063C37.1474 27.0586 36.8677 27.7806 36.8692 28.5292C36.8691 28.9433 36.956 29.3528 37.1243 29.7311C37.2093 29.9206 37.2547 30.1256 37.2576 30.3333V30.9584H30.2597C29.9665 30.9584 29.6854 31.0748 29.4781 31.2821C29.2708 31.4894 29.1543 31.7706 29.1543 32.0638V51.5268C29.1543 51.6451 29.1776 51.7622 29.2229 51.8715C29.2681 51.9808 29.3345 52.0801 29.4182 52.1638C29.5018 52.2474 29.6011 52.3138 29.7104 52.3591C29.8197 52.4043 29.9369 52.4276 30.0552 52.4276H49.7733C50.012 52.427 50.2408 52.3319 50.4096 52.1631C50.5784 51.9943 50.6735 51.7655 50.6741 51.5268V44.4921H49.8767C49.6923 44.4924 49.5097 44.5283 49.3389 44.5979C48.9858 44.742 48.608 44.8161 48.2266 44.8162C47.4343 44.8442 46.6632 44.5563 46.0831 44.0159C45.503 43.4754 45.1613 42.7267 45.1333 41.9343C45.1053 41.1419 45.3931 40.3709 45.9336 39.7908C46.4741 39.2107 47.2228 38.869 48.0152 38.841V38.8479Z" fill="white"/>
<path d="M18.3308 35.2605L17.9746 27.148L21.192 24.7074L24.1199 26.1391C24.1199 26.1391 24.2187 29.8162 24.1199 31.4111C24.021 33.006 22.4146 33.1761 22.4146 33.1761C22.4146 33.1761 22.4537 34.1091 22.4905 35.0904C22.501 35.3722 22.4543 35.6532 22.3532 35.9164C22.252 36.1796 22.0985 36.4196 21.9019 36.6218C21.7053 36.8239 21.4698 36.9841 21.2095 37.0926C20.9492 37.2011 20.6696 37.2557 20.3877 37.253C19.8552 37.2464 19.3454 37.0364 18.9629 36.6658C18.5804 36.2953 18.3543 35.7925 18.3308 35.2605Z" fill="#FFBE9D"/>
<path d="M23.8075 28.8188C23.8075 28.8592 23.7955 28.8988 23.773 28.9324C23.7506 28.966 23.7186 28.9923 23.6812 29.0077C23.6439 29.0232 23.6027 29.0273 23.5631 29.0194C23.5234 29.0115 23.4869 28.992 23.4583 28.9634C23.4297 28.9348 23.4103 28.8984 23.4024 28.8587C23.3945 28.819 23.3985 28.7779 23.414 28.7405C23.4295 28.7031 23.4557 28.6712 23.4893 28.6487C23.523 28.6262 23.5625 28.6142 23.603 28.6142C23.6572 28.6142 23.7092 28.6358 23.7476 28.6742C23.786 28.7125 23.8075 28.7645 23.8075 28.8188Z" fill="#263238"/>
<path d="M24.0043 28.5959C23.9767 28.6234 23.8273 28.4947 23.6067 28.4833C23.3861 28.4718 23.2229 28.5775 23.1999 28.5476C23.177 28.5177 23.216 28.4855 23.2873 28.4373C23.384 28.3736 23.4988 28.343 23.6144 28.35C23.73 28.357 23.8402 28.4014 23.9285 28.4764C23.9951 28.5338 24.0158 28.5752 24.0043 28.5959Z" fill="#263238"/>
<path d="M21.4423 28.8188C21.4423 28.8592 21.4303 28.8988 21.4078 28.9324C21.3853 28.966 21.3534 28.9923 21.316 29.0077C21.2786 29.0232 21.2375 29.0273 21.1978 29.0194C21.1582 29.0115 21.1217 28.992 21.0931 28.9634C21.0645 28.9348 21.045 28.8984 21.0371 28.8587C21.0292 28.819 21.0333 28.7779 21.0488 28.7405C21.0643 28.7031 21.0905 28.6712 21.1241 28.6487C21.1577 28.6262 21.1973 28.6142 21.2377 28.6142C21.292 28.6142 21.344 28.6358 21.3824 28.6742C21.4207 28.7125 21.4423 28.7645 21.4423 28.8188Z" fill="#263238"/>
<path d="M21.5688 28.5959C21.5412 28.6234 21.3918 28.4947 21.1712 28.4832C20.9505 28.4718 20.7874 28.5775 20.7644 28.5476C20.7414 28.5177 20.7805 28.4855 20.8517 28.4373C20.9458 28.3737 21.0577 28.3415 21.1712 28.3454C21.2869 28.3529 21.3972 28.3972 21.486 28.4718C21.5596 28.5338 21.5802 28.5752 21.5688 28.5959Z" fill="#263238"/>
<path d="M22.4225 33.1715C21.6648 33.1393 20.9321 32.8913 20.3105 32.4567C20.3105 32.4567 20.8391 33.6495 22.4386 33.5851L22.4225 33.1715Z" fill="#EB996E"/>
<path d="M22.3629 30.4528C22.4803 30.424 22.6006 30.4086 22.7215 30.4068C22.7766 30.4068 22.8318 30.4068 22.8456 30.3562C22.8519 30.2946 22.8408 30.2325 22.8134 30.177C22.7659 30.0345 22.7153 29.8813 22.6617 29.7174C22.5583 29.3933 22.4687 29.0992 22.4066 28.8854C22.3659 28.771 22.3389 28.6522 22.3262 28.5315C22.3865 28.6364 22.4336 28.7483 22.4664 28.8647C22.5422 29.0762 22.6433 29.3657 22.7467 29.6898L22.8915 30.1494C22.9246 30.2214 22.9319 30.3025 22.9122 30.3792C22.9041 30.3988 22.8916 30.4162 22.8756 30.4302C22.8597 30.4441 22.8407 30.4542 22.8203 30.4597C22.7882 30.4626 22.7559 30.4626 22.7238 30.4597C22.6036 30.4718 22.4825 30.4695 22.3629 30.4528Z" fill="#263238"/>
<path d="M22.1981 30.6435C22.1119 30.6662 22.0328 30.7105 21.9683 30.7722C21.9287 30.8057 21.9026 30.8525 21.8949 30.9039C21.8873 30.9553 21.8986 31.0077 21.9267 31.0513C21.9549 31.0949 21.9979 31.1268 22.0479 31.141C22.0978 31.1552 22.1513 31.1507 22.1981 31.1284C22.2402 31.1193 22.2798 31.1012 22.3143 31.0754C22.3488 31.0497 22.3774 31.0168 22.3981 30.979C22.4174 30.9397 22.4251 30.8956 22.4202 30.8521C22.4153 30.8085 22.3981 30.7672 22.3705 30.7331C22.3418 30.7022 22.3034 30.6819 22.2616 30.6756C22.2199 30.6694 22.1772 30.6775 22.1407 30.6987" fill="#EB996E"/>
<path d="M22.4845 30.9607C22.4845 30.9928 22.303 31.0434 22.1076 30.9308C21.9123 30.8182 21.8594 30.632 21.8916 30.6251C21.9238 30.6182 22.0065 30.74 22.1674 30.8274C22.3282 30.9147 22.4799 30.9262 22.4845 30.9607Z" fill="#263238"/>
<path d="M21.3713 24.3903C21.0336 24.3786 20.6974 24.4415 20.3868 24.5746C20.0761 24.7076 19.7987 24.9076 19.5741 25.1601C19.1283 25.676 18.9015 26.3456 18.9422 27.0262C18.9376 27.2819 19.0185 27.5318 19.172 27.7364C19.4018 28.0006 19.7902 28.0535 20.1418 28.088C20.4989 28.1541 20.8666 28.1352 21.215 28.0328C21.5551 27.9018 21.8378 27.5502 21.762 27.1963C21.5942 27.4261 21.7344 27.7662 21.9734 27.911C22.2263 28.0351 22.5089 28.086 22.7893 28.0581H23.9935C24.1309 28.0717 24.2691 28.0419 24.3888 27.9731C24.4531 27.9076 24.5037 27.83 24.5376 27.7448C24.5716 27.6596 24.5881 27.5684 24.5864 27.4767C24.6508 26.8355 24.7105 26.1529 24.4163 25.5807C24.1241 25.0737 23.6474 24.6991 23.0857 24.535C22.5365 24.3535 21.9366 24.4362 21.3644 24.3995" fill="#263238"/>
<path d="M17.9745 35.0307C18.4135 35.2605 19.2454 34.355 19.5166 33.9391C19.758 33.5008 19.8393 32.9921 19.7464 32.5004C19.6889 32.0063 19.5579 31.5214 19.5465 31.025C19.5304 30.2207 19.8337 29.4508 19.9762 28.6579C20.1291 27.7955 20.0922 26.9101 19.8682 26.0633C19.7809 25.7347 19.6384 25.3739 19.3166 25.2498C19.1822 25.2049 19.0382 25.1963 18.8994 25.225C18.7606 25.2536 18.6318 25.3185 18.5261 25.4129C18.318 25.6048 18.1548 25.8402 18.0481 26.1024L17.793 28.0374L17.9837 30.7469L17.9745 35.0307Z" fill="#263238"/>
<path d="M29.5443 45.2344L30.7163 49.2332C30.7163 49.2332 24.5826 51.4647 21.2618 51.4233C18.1478 51.3866 17.2561 51.0327 16.1622 48.5185C15.0683 46.0043 13.8181 43.1178 13.563 41.4563C13.563 41.4563 11.0603 34.5113 17.7617 35.1961L18.681 40.4819C18.681 40.4819 19.4233 42.934 19.4761 43.0765C19.9771 44.4002 20.6252 46.3398 21.2526 46.5743C21.88 46.8087 29.5443 45.2344 29.5443 45.2344Z" fill="#3864DD"/>
<path d="M29.5423 45.2344C29.4904 45.254 29.4364 45.2679 29.3815 45.2758L28.9218 45.3746C28.5128 45.4597 27.9199 45.5861 27.1845 45.7561C26.449 45.9262 25.5757 46.1353 24.5738 46.3192C23.4857 46.535 22.3782 46.6374 21.269 46.6248H21.23L21.2162 46.588C21.0898 46.2594 20.9565 45.9124 20.8301 45.5585C19.9476 43.0788 19.2765 40.799 18.7342 39.1673C18.4653 38.3492 18.2401 37.6896 18.0792 37.2369C18.0034 37.0071 17.9413 36.8439 17.8953 36.7152C17.8704 36.6551 17.8512 36.5928 17.8379 36.5291C17.8379 36.5291 17.8678 36.5888 17.9183 36.706C17.9689 36.8232 18.0378 36.9956 18.1229 37.2208C18.2975 37.6689 18.5342 38.3239 18.8123 39.1398C19.3776 40.7668 20.0625 43.0466 20.9427 45.5171C21.0691 45.871 21.2001 46.2066 21.3265 46.5444L21.2713 46.5076C22.3729 46.5213 23.4731 46.4243 24.5554 46.218C25.5482 46.0388 26.4284 45.8343 27.1684 45.6803C27.9084 45.5263 28.5013 45.4068 28.915 45.3333L29.3884 45.2574C29.4392 45.247 29.4906 45.2393 29.5423 45.2344Z" fill="#263238"/>
<path d="M30.7166 49.2332C30.6595 49.2663 30.5995 49.294 30.5373 49.3159C30.4178 49.3665 30.2409 49.4355 30.0111 49.5205C29.5514 49.6905 28.8758 49.9158 28.0324 50.1617C27.1889 50.4076 26.18 50.6764 25.0563 50.9614C23.8406 51.3006 22.5942 51.5185 21.3356 51.6118C21.0029 51.6276 20.6696 51.6192 20.3382 51.5865C20.0136 51.5567 19.6936 51.4897 19.3844 51.3866C18.8054 51.1769 18.2747 50.8525 17.824 50.4328C17.0784 49.7135 16.4571 48.8756 15.9855 47.9531C15.5718 47.1787 15.296 46.526 15.0984 46.0733C15.0042 45.8434 14.9329 45.6711 14.887 45.5493C14.8592 45.4902 14.8369 45.4286 14.8203 45.3654C14.8554 45.4205 14.8847 45.479 14.9076 45.5401C14.9651 45.6688 15.0432 45.8389 15.1375 46.0549C15.342 46.5007 15.6339 47.1465 16.0567 47.9141C16.5333 48.8204 17.1543 49.6432 17.8952 50.3501C18.3372 50.7545 18.8551 51.0669 19.4189 51.2694C19.717 51.3678 20.0255 51.4318 20.3382 51.4601C20.6642 51.4928 20.9922 51.5012 21.3195 51.4854C22.5699 51.3933 23.8083 51.1793 25.0172 50.8465C26.1433 50.5684 27.1545 50.311 28.0048 50.0743C28.8551 49.8376 29.5261 49.6147 29.9904 49.4699L30.5235 49.2861C30.5864 49.2635 30.651 49.2458 30.7166 49.2332Z" fill="#263238"/>
<path opacity="0.2" d="M15.9316 47.9118C15.9316 47.9118 17.0807 52.3242 20.0683 52.2346C23.0559 52.145 25.8619 50.8672 25.8619 50.8672L25.7286 50.7293C25.7286 50.7293 20.6727 51.8186 19.2685 51.1338C16.6004 49.8376 15.9316 47.9118 15.9316 47.9118Z" fill="black"/>
<path d="M30.2996 48.7736H31.2396C32.0922 48.6909 32.5679 48.6771 32.8069 48.4518C33.1264 48.1462 32.6874 47.8497 32.6874 47.8497C32.6874 47.8497 33.3033 47.636 33.2459 47.2614C33.2068 47.004 32.9149 46.9764 32.9149 46.9764C32.9149 46.9764 33.4596 46.7627 33.5676 46.5352C33.7124 46.2272 33.3378 46.0618 33.3378 46.0618C34.0801 45.6021 34.0134 45.1425 33.8411 45.1057C33.6687 45.069 33.0919 45.3356 33.0919 45.3356C32.6024 45.4757 31.2672 45.8825 31.7613 45.1471C32.2554 44.4117 32.3588 43.6602 32.2462 43.4373C32.2147 43.3888 32.1688 43.3513 32.115 43.3301C32.0613 43.3088 32.0022 43.3049 31.9461 43.3188C31.8899 43.3327 31.8395 43.3638 31.8019 43.4076C31.7642 43.4515 31.7412 43.5061 31.736 43.5637C31.6597 43.8529 31.5429 44.1299 31.389 44.3864C31.2728 44.5976 31.1221 44.7879 30.9431 44.9495C30.734 45.1356 30.5478 45.285 30.3893 45.4091L29.5527 46.2134L30.2996 48.7736Z" fill="#FFBE9D"/>
</svg>
