<svg width="217" height="200" viewBox="0 0 217 200" fill="none" xmlns="http://www.w3.org/2000/svg">
<path d="M118.587 161.233H68.8322V199.608H118.587V161.233Z" fill="#EBEBEB"/>
<path d="M106.123 199.341C106.056 199.341 105.999 190.785 105.999 180.232C105.999 169.679 106.056 161.123 106.123 161.123C106.19 161.123 106.247 169.679 106.247 180.232C106.247 190.785 106.19 199.341 106.123 199.341Z" fill="#E0E0E0"/>
<path d="M114.369 190.875H110.556V195.189H114.369V190.875Z" fill="#FAFAFA"/>
<path d="M89.6656 161.333H84.0142V169.521H89.6656V161.333Z" fill="#E0E0E0"/>
<path d="M89.6656 191.305H84.0142V199.494H89.6656V191.305Z" fill="#E0E0E0"/>
<path d="M208.872 151.611H146.132V200H208.872V151.611Z" fill="#EBEBEB"/>
<path d="M193.15 199.656C193.083 199.656 193.026 188.874 193.026 175.569C193.026 162.265 193.083 151.483 193.15 151.483C193.217 151.483 193.274 162.265 193.274 175.569C193.274 188.874 193.221 199.656 193.15 199.656Z" fill="#E0E0E0"/>
<path d="M203.55 188.984H198.739V194.42H203.55V188.984Z" fill="#FAFAFA"/>
<path d="M172.398 151.736H165.27V162.059H172.398V151.736Z" fill="#E0E0E0"/>
<path d="M172.398 189.528H165.27V199.852H172.398V189.528Z" fill="#E0E0E0"/>
<path d="M27.963 153.035C30.5045 151.726 33.495 151.554 36.3136 152.022C37.828 152.271 39.4045 152.725 40.4363 153.862C41.4682 154.999 41.6593 157 40.4793 157.98C39.7723 158.562 38.793 158.648 37.8757 158.639C35.6687 158.61 33.2227 158.223 31.4599 159.551C30.4519 160.311 29.7831 161.567 28.5936 161.94C27.4041 162.312 26.0903 161.61 25.4693 160.55C24.8947 159.444 24.7681 158.159 25.1158 156.962C25.2564 156.133 25.5865 155.347 26.0803 154.666C26.5741 153.985 27.2184 153.427 27.963 153.035Z" fill="#EBEBEB"/>
<path d="M22.1443 141.804C23.6969 144.021 26.7161 143.29 28.1159 141.933C29.5156 140.576 30.108 138.617 30.643 136.75C31.8755 132.474 33.1128 127.988 32.2004 123.636C31.9807 122.316 31.4004 121.083 30.5236 120.072C30.0797 119.576 29.5138 119.204 28.882 118.994C28.2502 118.784 27.5744 118.742 26.9215 118.873C25.3976 119.274 24.4517 120.784 23.7686 122.184C21.7544 126.368 20.7001 130.95 20.6825 135.593C20.6825 137.758 20.9261 140.022 22.1443 141.804Z" fill="#EBEBEB"/>
<path d="M17.883 144.985C19.5694 142.984 19.8894 140.07 19.1394 137.562C18.3894 135.054 16.6935 132.923 14.7396 131.179C12.4415 129.135 9.76751 127.558 6.86673 126.536C5.74247 126.082 4.5332 125.876 3.32203 125.934C2.71784 125.968 2.13125 126.15 1.61334 126.463C1.09544 126.776 0.661938 127.211 0.350599 127.73C-0.480638 129.311 0.317158 131.227 1.17706 132.794C2.69135 135.551 4.41964 138.185 6.34601 140.672C7.89861 142.669 9.69007 144.642 12.0357 145.544C14.3813 146.447 16.8559 146.342 18.1075 144.704" fill="#EBEBEB"/>
<path d="M22.0392 175.254C22.1222 174.926 22.1702 174.589 22.1825 174.251C22.2542 173.515 22.3402 172.593 22.4501 171.499C22.587 170.146 22.7927 168.8 23.0663 167.467C23.4253 165.838 23.9158 164.24 24.5329 162.69C25.1382 161.15 25.9568 159.703 26.9645 158.39C27.7884 157.323 28.8372 156.451 30.0363 155.835C30.8518 155.433 31.7256 155.162 32.6256 155.032C32.9643 155.019 33.3007 154.969 33.6288 154.884C33.2906 154.847 32.9494 154.847 32.6112 154.884C31.6767 154.954 30.7625 155.192 29.9121 155.586C28.6458 156.184 27.5354 157.067 26.6684 158.166C25.6136 159.496 24.7635 160.975 24.146 162.556C23.5295 164.125 23.05 165.744 22.7128 167.395C22.4529 168.745 22.2727 170.109 22.173 171.48C22.087 172.65 22.0536 173.596 22.0392 174.251C22.004 174.584 22.004 174.921 22.0392 175.254Z" fill="#E0E0E0"/>
<path d="M22.2303 173.142C22.2587 172.985 22.2683 172.824 22.259 172.665C22.259 172.311 22.259 171.867 22.259 171.327C22.259 170.166 22.259 168.485 22.3163 166.411C22.4214 162.265 22.794 157.812 23.4676 151.511C24.1221 145.592 24.9963 138.708 25.9231 134.232C26.119 133.214 26.3196 132.297 26.5107 131.495C26.7018 130.692 26.8403 129.995 26.9884 129.436C27.1365 128.877 27.2177 128.48 27.3037 128.136C27.3505 127.981 27.3778 127.82 27.3849 127.658C27.313 127.798 27.2584 127.945 27.2225 128.098C27.1174 128.437 26.9884 128.858 26.8308 129.378C26.6731 129.899 26.4821 130.625 26.2814 131.423C26.0808 132.221 25.8515 133.138 25.6365 134.155C24.4889 139.45 23.6261 144.801 23.052 150.188C22.3641 156.494 22.0536 162.236 22.0249 166.392C22.0249 168.47 22.0249 170.157 22.0966 171.317C22.13 171.857 22.1587 172.302 22.1778 172.65C22.1754 172.816 22.1931 172.981 22.2303 173.142Z" fill="#E0E0E0"/>
<path d="M22.259 162.069C22.2954 161.603 22.2954 161.135 22.259 160.669C22.2065 159.771 22.0823 158.476 21.8291 156.886C21.5166 155.026 21.0987 153.185 20.5774 151.373C19.9749 149.142 19.2036 146.961 18.27 144.847C16.6717 140.953 14.3778 137.381 11.5007 134.308C11.0015 133.781 10.4685 133.286 9.9051 132.827C9.66146 132.617 9.42738 132.412 9.22674 132.249L8.63436 131.824C8.26256 131.541 7.86789 131.288 7.45439 131.069C7.3875 131.16 9.12164 132.183 11.3096 134.509C14.0927 137.611 16.3255 141.165 17.9117 145.019C18.8292 147.119 19.6033 149.278 20.2287 151.483C20.754 153.278 21.1893 155.099 21.5329 156.938C21.8195 158.51 22.0106 159.804 22.087 160.683C22.1075 161.149 22.165 161.612 22.259 162.069Z" fill="#E0E0E0"/>
<path d="M10.8126 179.917L11.9209 195.122H31.455L32.5633 179.917H10.8126Z" fill="#EBEBEB"/>
<path d="M34.89 173.926H8.92578V179.917H34.89V173.926Z" fill="#EBEBEB"/>
<path d="M8.92578 194.54V196.197H10.1487H34.4648V194.54H8.92578Z" fill="#E0E0E0"/>
<path d="M11.3431 198.939L10.1488 196.016H33.5333L32.1384 198.939H11.3431Z" fill="#E0E0E0"/>
<path d="M32.2003 184.885C32.1759 184.936 32.1455 184.984 32.1096 185.028C32.0331 185.128 31.9328 185.257 31.8182 185.415L30.6812 186.848L30.6286 186.915L30.5809 186.848L27.7862 182.984H27.9438L25.1922 186.877L25.1062 187.001L25.0106 186.887L21.7478 183.003H21.9341L21.7573 183.232L18.8384 186.887L18.7381 187.011L18.6521 186.882L15.8957 182.988H16.0581L12.6663 186.848L12.6089 186.92L12.5612 186.839L11.5006 185.081C11.386 184.89 11.3 184.732 11.2283 184.603C11.1923 184.55 11.1634 184.492 11.1423 184.431C11.187 184.477 11.2256 184.528 11.257 184.584L11.558 185.038L12.671 186.791H12.5659L15.91 182.883L15.9912 182.783L16.0677 182.888L18.848 186.767H18.6665L21.5758 183.103C21.6379 183.026 21.7 182.95 21.7525 182.878L21.8481 182.759L21.9436 182.874L25.1969 186.767H25.0154L27.7957 182.893L27.877 182.778L27.9534 182.893C29.0569 184.464 29.9933 185.797 30.6907 186.8H30.5904L31.7752 185.367C31.9042 185.219 32.0092 185.1 32.0905 184.999C32.1242 184.959 32.161 184.92 32.2003 184.885Z" fill="#F5F5F5"/>
<path d="M32.8357 179.816C32.8357 179.883 27.939 179.94 21.9054 179.94C15.8718 179.94 10.9751 179.883 10.9751 179.816C10.9751 179.749 15.867 179.697 21.9054 179.697C27.9438 179.697 32.8357 179.749 32.8357 179.816Z" fill="#F5F5F5"/>
<path d="M169.828 7.43061L165.825 7.45227L165.933 27.373L169.936 27.3513L169.828 7.43061Z" fill="#E0E0E0"/>
<path d="M141.51 7.48365L131.143 7.53973L131.203 18.5367L141.569 18.4807L141.51 7.48365Z" fill="#EBEBEB"/>
<path d="M151.828 7.42783L141.462 7.48392L141.521 18.4809L151.888 18.4248L151.828 7.42783Z" fill="#F5F5F5"/>
<path d="M131.156 10.583C138.048 10.6403 144.943 10.6085 151.841 10.4875C151.87 10.4875 151.898 10.4759 151.919 10.4553C151.939 10.4347 151.951 10.4067 151.951 10.3776C151.951 10.3485 151.939 10.3205 151.919 10.2999C151.898 10.2793 151.87 10.2677 151.841 10.2677C144.952 10.2295 138.044 10.2677 131.156 10.3967C131.135 10.4015 131.116 10.4133 131.102 10.4303C131.089 10.4472 131.081 10.4682 131.081 10.4899C131.081 10.5115 131.089 10.5325 131.102 10.5494C131.116 10.5664 131.135 10.5782 131.156 10.583Z" fill="#E0E0E0"/>
<path d="M143.517 18.2979L124.681 18.3998L124.73 27.3617L143.566 27.2598L143.517 18.2979Z" fill="#EBEBEB"/>
<path d="M162.263 18.1964L143.426 18.2983L143.475 27.2603L162.311 27.1584L162.263 18.1964Z" fill="#F5F5F5"/>
<path d="M124.692 20.9018C137.204 21.0404 149.758 20.9018 162.275 20.7155C162.304 20.7155 162.332 20.7039 162.352 20.6833C162.373 20.6627 162.385 20.6348 162.385 20.6056C162.385 20.5765 162.373 20.5486 162.352 20.5279C162.332 20.5073 162.304 20.4958 162.275 20.4958C149.763 20.4289 137.204 20.4337 124.692 20.7107C124.667 20.7107 124.643 20.7208 124.625 20.7387C124.607 20.7566 124.597 20.7809 124.597 20.8063C124.597 20.8316 124.607 20.8559 124.625 20.8738C124.643 20.8918 124.667 20.9018 124.692 20.9018Z" fill="#E0E0E0"/>
<path d="M190.623 27.3702H117.646V30.5805H190.623V27.3702Z" fill="#E0E0E0"/>
<path d="M132.555 28.9132H129.594V39.8674H132.555V28.9132Z" fill="#E0E0E0"/>
<path d="M176.778 28.9132H173.816V39.8674H176.778V28.9132Z" fill="#E0E0E0"/>
<path d="M173.734 7.5581e-06L169.731 0.0216675L169.879 27.4187L173.882 27.397L173.734 7.5581e-06Z" fill="#EBEBEB"/>
<path d="M179.986 5.10166L173.766 5.13531L173.887 27.3395L180.106 27.3059L179.986 5.10166Z" fill="#F5F5F5"/>
<path d="M179.946 9.38874C177.878 9.53478 175.803 9.53478 173.735 9.38874C175.803 9.24904 177.878 9.24904 179.946 9.38874Z" fill="#E0E0E0"/>
<path d="M179.946 8.48105C178.912 8.58561 177.873 8.62072 176.836 8.58615C175.798 8.62054 174.759 8.58542 173.726 8.48105C175.793 8.33501 177.868 8.33501 179.936 8.48105H179.946Z" fill="#E0E0E0"/>
<path d="M179.946 23.9736C177.878 24.1197 175.803 24.1197 173.735 23.9736C175.803 23.8339 177.878 23.8339 179.946 23.9736Z" fill="#E0E0E0"/>
<path d="M179.946 23.0421C177.878 23.1818 175.803 23.1818 173.735 23.0421C175.803 22.896 177.878 22.896 179.946 23.0421Z" fill="#E0E0E0"/>
<path d="M176.936 21.007C176.879 21.007 176.831 18.7665 176.831 16.0052C176.831 13.244 176.879 10.9987 176.936 10.9987C176.993 10.9987 177.046 13.2392 177.046 16.0052C177.046 18.7712 176.998 21.007 176.936 21.007Z" fill="#E0E0E0"/>
<path d="M186.787 10.5639H180.017V27.3224H186.787V10.5639Z" fill="#EBEBEB"/>
<path d="M171.671 5.83924C172.307 5.83924 172.823 5.32378 172.823 4.68793C172.823 4.05208 172.307 3.53662 171.671 3.53662C171.035 3.53662 170.52 4.05208 170.52 4.68793C170.52 5.32378 171.035 5.83924 171.671 5.83924Z" fill="#E0E0E0"/>
<path d="M172.03 7.85522H171.318V24.1551H172.03V7.85522Z" fill="#E0E0E0"/>
<path d="M211.026 199.737C211.026 199.809 165.107 199.862 108.483 199.862C51.8585 199.862 5.9303 199.809 5.9303 199.737C5.9303 199.666 51.8394 199.613 108.483 199.613C165.127 199.613 211.026 199.67 211.026 199.737Z" fill="#263238"/>
<path d="M196.27 187.235C196.292 187.166 196.32 187.099 196.356 187.035C196.422 186.891 196.513 186.7 196.623 186.457C196.955 185.71 197.222 184.937 197.421 184.144C197.946 182.09 198.133 178.952 197.354 175.225C196.931 173.193 196.377 171.191 195.696 169.23C194.999 167.104 194.182 164.849 193.518 162.408C192.768 159.862 192.406 157.218 192.443 154.564C192.543 151.788 193.365 149.022 194.268 146.261C195.171 143.5 196.102 140.81 196.379 138.087C196.687 135.476 196.162 132.834 194.879 130.539C193.685 128.337 192.18 126.45 191.058 124.501C190.007 122.69 189.232 120.732 188.76 118.692C188.082 115.738 188.031 112.675 188.612 109.701C188.823 108.613 189.143 107.548 189.567 106.524C189.554 106.596 189.535 106.666 189.51 106.734L189.319 107.341C189.156 107.876 188.941 108.679 188.736 109.73C188.202 112.69 188.282 115.729 188.97 118.658C189.449 120.673 190.227 122.606 191.277 124.391C192.4 126.302 193.91 128.213 195.133 130.425C196.447 132.766 196.987 135.463 196.676 138.13C196.394 140.891 195.457 143.61 194.554 146.366C193.652 149.123 192.839 151.86 192.739 154.588C192.696 157.215 193.051 159.834 193.79 162.355C194.445 164.782 195.247 167.037 195.94 169.173C196.615 171.144 197.157 173.158 197.564 175.201C198.324 178.956 198.109 182.128 197.564 184.187C197.351 184.981 197.065 185.754 196.709 186.495L196.413 187.063C196.372 187.126 196.324 187.184 196.27 187.235Z" fill="#263238"/>
<path d="M192.586 126.426C192.586 126.426 190.303 119.112 194.402 114.832C194.433 114.797 194.474 114.772 194.519 114.76C194.564 114.747 194.612 114.747 194.657 114.76C194.702 114.773 194.743 114.798 194.774 114.832C194.806 114.867 194.828 114.91 194.836 114.956C195.056 116.164 195.328 119.843 192.586 126.426Z" fill="#4C7ADA"/>
<path d="M193.957 117.268C193.95 117.721 193.899 118.172 193.804 118.615C193.651 119.547 193.475 120.636 193.284 121.84C193.093 123.044 192.916 124.138 192.768 125.064C192.726 125.516 192.646 125.964 192.529 126.402C192.484 125.95 192.494 125.495 192.557 125.045C192.634 124.209 192.782 123.063 192.987 121.802C193.193 120.54 193.417 119.413 193.594 118.587C193.664 118.134 193.786 117.692 193.957 117.268Z" fill="#263238"/>
<path d="M195.271 143.677C195.271 143.677 196.671 136.143 202.298 134.28C202.343 134.264 202.39 134.261 202.436 134.272C202.482 134.282 202.524 134.304 202.558 134.337C202.592 134.37 202.616 134.411 202.627 134.457C202.639 134.502 202.637 134.55 202.623 134.595C202.251 135.756 200.774 139.133 195.271 143.677Z" fill="#4C7ADA"/>
<path d="M200.765 136.215C200.546 136.612 200.291 136.988 200 137.337L198.027 139.941L196.069 142.554C195.822 142.933 195.542 143.29 195.233 143.619C195.407 143.199 195.632 142.801 195.901 142.434C196.379 141.732 197.029 140.786 197.812 139.769C198.596 138.751 199.308 137.858 199.847 137.208C200.116 136.844 200.423 136.511 200.765 136.215Z" fill="#263238"/>
<path d="M193.752 162.561C193.752 162.561 192.902 154.946 197.746 151.53C197.783 151.501 197.828 151.483 197.875 151.479C197.922 151.474 197.97 151.483 198.012 151.505C198.054 151.526 198.089 151.56 198.113 151.601C198.137 151.641 198.149 151.688 198.147 151.736C198.133 152.963 197.698 156.623 193.752 162.561Z" fill="#4C7ADA"/>
<path d="M196.857 153.833C196.768 154.278 196.632 154.712 196.451 155.128L195.323 158.194C194.903 159.341 194.526 160.378 194.206 161.261C194.083 161.696 193.923 162.12 193.728 162.527C193.772 162.074 193.872 161.628 194.024 161.199C194.258 160.397 194.621 159.288 195.066 158.094C195.51 156.9 195.945 155.825 196.274 155.056C196.426 154.629 196.622 154.22 196.857 153.833Z" fill="#263238"/>
<path d="M197.989 181.565C197.989 181.565 197.416 173.921 202.375 170.682C202.413 170.655 202.459 170.64 202.506 170.638C202.553 170.636 202.6 170.646 202.641 170.669C202.682 170.692 202.716 170.726 202.739 170.767C202.762 170.808 202.773 170.855 202.771 170.902C202.714 172.13 202.15 175.775 197.989 181.565Z" fill="#4C7ADA"/>
<path d="M201.391 172.956C201.284 173.397 201.132 173.826 200.937 174.236C200.583 175.106 200.163 176.147 199.699 177.26C199.236 178.373 198.83 179.41 198.476 180.284C198.335 180.716 198.154 181.133 197.937 181.531C198 181.079 198.117 180.637 198.285 180.213C198.548 179.42 198.949 178.33 199.437 177.151C199.924 175.971 200.392 174.91 200.75 174.155C200.921 173.734 201.135 173.332 201.391 172.956Z" fill="#263238"/>
<path d="M189.299 120.001C189.299 120.001 182.525 116.446 182.377 110.527C182.377 110.481 182.389 110.435 182.412 110.395C182.436 110.355 182.47 110.322 182.51 110.3C182.551 110.277 182.597 110.266 182.643 110.267C182.689 110.269 182.735 110.283 182.774 110.308C183.782 111.005 186.581 113.413 189.299 120.001Z" fill="#4C7ADA"/>
<path d="M183.786 112.562C184.104 112.887 184.388 113.244 184.632 113.628C185.186 114.387 185.831 115.285 186.543 116.274L188.454 118.911C188.745 119.258 189.004 119.631 189.228 120.024C188.878 119.734 188.566 119.402 188.296 119.036C187.756 118.395 187.049 117.478 186.304 116.442C185.559 115.405 184.904 114.445 184.455 113.742C184.192 113.373 183.968 112.978 183.786 112.562Z" fill="#263238"/>
<path d="M196.594 135.703C196.594 135.703 189.601 132.574 189.108 126.665C189.104 126.618 189.113 126.572 189.134 126.53C189.155 126.488 189.187 126.453 189.227 126.429C189.266 126.404 189.312 126.39 189.358 126.39C189.405 126.39 189.451 126.402 189.491 126.426C190.537 127.061 193.475 129.287 196.594 135.703Z" fill="#4C7ADA"/>
<path d="M190.647 128.614C190.984 128.917 191.288 129.255 191.554 129.622L193.628 132.149L195.706 134.667C196.017 134.996 196.298 135.353 196.546 135.732C196.18 135.461 195.846 135.149 195.553 134.8C194.98 134.189 194.215 133.319 193.408 132.331C192.6 131.342 191.893 130.42 191.397 129.746C191.106 129.398 190.854 129.018 190.647 128.614Z" fill="#263238"/>
<path d="M192.558 153.231C192.558 153.231 187.78 147.259 190.011 141.766C190.029 141.722 190.058 141.685 190.096 141.657C190.133 141.63 190.178 141.613 190.224 141.609C190.271 141.605 190.317 141.614 190.359 141.635C190.401 141.656 190.436 141.688 190.46 141.727C191.124 142.764 192.715 146.089 192.558 153.231Z" fill="#4C7ADA"/>
<path d="M190.494 144.192C190.657 144.617 190.776 145.057 190.847 145.506C191.048 146.423 191.282 147.503 191.54 148.697C191.798 149.892 192.041 150.967 192.242 151.884C192.37 152.319 192.458 152.765 192.505 153.217C192.295 152.81 192.135 152.381 192.027 151.936C191.793 151.129 191.506 150.025 191.239 148.755C190.971 147.484 190.761 146.366 190.627 145.544C190.534 145.1 190.489 144.647 190.494 144.192Z" fill="#263238"/>
<path d="M197.335 173.826C197.335 173.826 190.393 170.582 190.002 164.668C189.997 164.621 190.006 164.573 190.027 164.531C190.048 164.488 190.08 164.452 190.121 164.428C190.161 164.403 190.207 164.39 190.255 164.39C190.302 164.39 190.349 164.404 190.389 164.429C191.416 165.083 194.316 167.362 197.335 173.826Z" fill="#4C7ADA"/>
<path d="M191.492 166.636C191.82 166.949 192.118 167.293 192.381 167.663L194.411 170.219L196.446 172.775C196.752 173.109 197.027 173.47 197.268 173.854C196.912 173.575 196.591 173.254 196.312 172.899C195.744 172.278 194.999 171.394 194.206 170.391C193.413 169.387 192.725 168.456 192.237 167.773C191.946 167.424 191.696 167.043 191.492 166.636Z" fill="#263238"/>
<path d="M211.146 143.71C211.146 143.71 211.146 143.767 211.146 143.877C211.146 143.987 211.146 144.169 211.146 144.355C211.146 144.833 211.098 145.439 211.064 146.213C210.979 147.847 210.85 150.126 210.701 152.849C210.224 155.62 208.791 158.691 206.88 161.677C205.489 163.875 204.013 165.872 202.771 167.73C201.638 169.361 200.619 171.069 199.723 172.841C199.13 174.039 198.65 175.29 198.29 176.577C198.171 177.031 198.075 177.389 198.023 177.633C198 177.76 197.967 177.885 197.922 178.006C197.924 177.877 197.94 177.749 197.97 177.623C198.004 177.375 198.075 177.012 198.185 176.549C198.507 175.239 198.963 173.966 199.547 172.751C200.435 170.964 201.452 169.244 202.59 167.606C203.841 165.733 205.289 163.731 206.674 161.548C208.561 158.577 209.966 155.553 210.496 152.825C210.687 150.107 210.845 147.833 210.974 146.199C211.036 145.425 211.088 144.809 211.127 144.345C211.127 144.154 211.16 143.992 211.174 143.868C211.158 143.816 211.149 143.764 211.146 143.71Z" fill="#263238"/>
<path d="M207.013 161.128C207.013 161.128 209.951 154.057 206.259 149.419C206.23 149.382 206.192 149.353 206.148 149.336C206.104 149.32 206.056 149.316 206.01 149.325C205.964 149.334 205.921 149.355 205.887 149.387C205.852 149.419 205.827 149.46 205.814 149.505C205.485 150.69 204.878 154.325 207.013 161.128Z" fill="#4C7ADA"/>
<path d="M206.478 151.889C206.605 152.325 206.684 152.773 206.712 153.226C206.818 154.057 206.932 155.209 207.023 156.484C207.114 157.76 207.157 158.916 207.157 159.757C207.185 160.211 207.158 160.666 207.076 161.113C206.993 160.668 206.953 160.215 206.956 159.761C206.894 158.806 206.818 157.722 206.736 156.503C206.655 155.285 206.579 154.182 206.512 153.245C206.456 152.795 206.445 152.341 206.478 151.889Z" fill="#263238"/>
<g opacity="0.3">
<path d="M207.013 161.128C207.013 161.128 209.951 154.057 206.259 149.419C206.23 149.382 206.192 149.353 206.148 149.336C206.104 149.32 206.056 149.316 206.01 149.325C205.964 149.334 205.921 149.355 205.887 149.387C205.852 149.419 205.827 149.46 205.814 149.505C205.485 150.69 204.878 154.325 207.013 161.128Z" fill="black"/>
</g>
<path d="M197.913 178.178C197.913 178.178 200.268 170.888 196.207 166.569C196.176 166.535 196.136 166.51 196.091 166.497C196.046 166.484 195.998 166.483 195.954 166.496C195.909 166.508 195.868 166.533 195.836 166.567C195.804 166.601 195.782 166.643 195.773 166.688C195.543 167.892 195.233 171.571 197.913 178.178Z" fill="#4C7ADA"/>
<path d="M196.628 168.996C196.793 169.42 196.909 169.863 196.972 170.314C197.144 171.131 197.349 172.273 197.545 173.534C197.741 174.795 197.875 175.947 197.946 176.783C198.008 177.234 198.016 177.691 197.97 178.144C197.857 177.705 197.78 177.258 197.741 176.807C197.602 175.875 197.44 174.786 197.263 173.577C197.086 172.369 196.914 171.279 196.785 170.348C196.688 169.903 196.636 169.451 196.628 168.996Z" fill="#263238"/>
<g opacity="0.3">
<path d="M197.913 178.178C197.913 178.178 200.268 170.888 196.207 166.569C196.176 166.535 196.136 166.51 196.091 166.497C196.046 166.484 195.998 166.483 195.954 166.496C195.909 166.508 195.868 166.533 195.836 166.567C195.804 166.601 195.782 166.643 195.773 166.688C195.543 167.892 195.233 171.571 197.913 178.178Z" fill="black"/>
</g>
<path d="M210.759 152.486C210.759 152.486 217.031 148.091 216.401 142.196C216.396 142.149 216.378 142.105 216.35 142.068C216.322 142.031 216.284 142.003 216.24 141.986C216.197 141.969 216.149 141.965 216.104 141.973C216.058 141.981 216.015 142.002 215.98 142.033C215.068 142.855 212.622 145.587 210.759 152.486Z" fill="#4C7ADA"/>
<g opacity="0.3">
<path d="M210.759 152.486C210.759 152.486 217.031 148.091 216.401 142.196C216.396 142.149 216.378 142.105 216.35 142.068C216.322 142.031 216.284 142.003 216.24 141.986C216.197 141.969 216.149 141.965 216.104 141.973C216.058 141.981 216.015 142.002 215.98 142.033C215.068 142.855 212.622 145.587 210.759 152.486Z" fill="black"/>
</g>
<path d="M215.264 144.398C215.139 144.835 214.964 145.257 214.743 145.654C214.385 146.409 213.864 147.441 213.257 148.568C212.65 149.696 212.068 150.694 211.619 151.401C211.398 151.798 211.13 152.167 210.821 152.5C210.989 152.08 211.197 151.677 211.442 151.296C211.891 150.47 212.421 149.505 213.004 148.43L214.561 145.563C214.757 145.153 214.992 144.763 215.264 144.398Z" fill="#263238"/>
<path d="M200.445 170.95C200.445 170.95 208.012 169.77 210.037 164.2C210.054 164.156 210.058 164.109 210.049 164.063C210.041 164.018 210.02 163.975 209.989 163.941C209.958 163.906 209.918 163.881 209.873 163.868C209.829 163.854 209.781 163.853 209.736 163.865C208.556 164.219 205.136 165.58 200.445 170.95Z" fill="#4C7ADA"/>
<g opacity="0.3">
<path d="M200.445 170.95C200.445 170.95 208.012 169.77 210.037 164.2C210.054 164.156 210.058 164.109 210.049 164.063C210.041 164.018 210.02 163.975 209.989 163.941C209.958 163.906 209.918 163.881 209.873 163.868C209.829 163.854 209.781 163.853 209.736 163.865C208.556 164.219 205.136 165.58 200.445 170.95Z" fill="black"/>
</g>
<path d="M208.05 165.676C207.743 166.01 207.4 166.31 207.028 166.569C206.373 167.095 205.451 167.792 204.415 168.537C203.378 169.282 202.408 169.918 201.692 170.357C201.318 170.618 200.914 170.831 200.488 170.993C200.827 170.69 201.193 170.42 201.582 170.185L204.247 168.303L206.908 166.392C207.262 166.114 207.645 165.873 208.05 165.676Z" fill="#263238"/>
<path d="M193.221 184.88L191.014 199.737H204.773L202.991 184.88H193.221Z" fill="#455A64"/>
<path d="M203.545 189.481C203.545 189.562 201.061 189.624 197.999 189.624C194.937 189.624 192.448 189.562 192.448 189.481C194.294 189.339 196.147 189.291 197.999 189.337C199.849 189.291 201.7 189.339 203.545 189.481Z" fill="#263238"/>
<path d="M203.813 190.665C203.813 190.746 201.247 190.809 198.08 190.809C194.913 190.809 192.347 190.746 192.347 190.665C192.347 190.584 194.913 190.522 198.08 190.522C201.247 190.522 203.813 190.584 203.813 190.665Z" fill="#263238"/>
<path d="M124.995 40.7464C124.995 40.7464 124.866 40.7464 124.618 40.7464C124.255 40.7249 123.891 40.7249 123.528 40.7464C122.125 40.8286 120.747 41.1518 119.453 41.7019C117.403 42.5613 115.619 43.9513 114.284 45.7291C113.461 46.8391 112.849 48.0908 112.479 49.4219C111.642 52.5926 112.094 55.9653 113.735 58.8044C114.182 59.5904 114.728 60.316 115.359 60.9637C115.996 61.6498 116.738 62.2303 117.557 62.6835C118.397 63.1564 119.349 63.3956 120.313 63.3762C121.307 63.3642 122.261 62.9788 122.984 62.2965C123.333 61.9303 123.607 61.4988 123.79 61.0266C123.973 60.5545 124.061 60.051 124.049 59.5448C124.042 58.4932 123.708 57.4699 123.094 56.6164C121.856 54.8727 119.85 53.7023 117.714 53.0717C115.5 52.4498 113.162 52.4168 110.931 52.9761C109.792 53.2724 108.694 53.7089 107.663 54.2755C106.622 54.8631 105.676 55.6057 104.859 56.4778C104.663 56.7024 104.439 56.9078 104.262 57.1562L103.722 57.8824C103.394 58.394 103.1 58.9271 102.843 59.4779C102.332 60.5964 101.983 61.7819 101.806 62.9988C101.46 65.4298 101.79 67.9093 102.762 70.1646C103.69 72.3682 105.308 74.2119 107.372 75.4195C108.372 75.9913 109.49 76.3294 110.639 76.4084C111.767 76.4715 112.888 76.2024 113.864 75.6345C114.833 75.0991 115.598 74.2597 116.042 73.2459C116.461 72.2467 116.49 71.1268 116.124 70.1073C115.746 69.1236 115.129 68.25 114.327 67.5658C113.55 66.8942 112.654 66.374 111.686 66.0323C109.797 65.4367 107.775 65.4018 105.867 65.932C104.081 66.4158 102.441 67.3294 101.09 68.5929C99.8587 69.7721 98.9212 71.2234 98.3523 72.8303C97.3572 75.6184 97.403 78.6722 98.4813 81.4293C99.3223 83.4875 100.676 85.2965 102.413 86.6842C103.507 87.5619 104.726 88.2719 106.029 88.791C106.478 88.9582 106.827 89.0824 107.066 89.1493L107.419 89.2639C107.419 89.2639 107.295 89.2401 107.056 89.1732C106.703 89.0787 106.356 88.9655 106.015 88.834C104.695 88.3378 103.46 87.6382 102.356 86.7607C100.589 85.3739 99.2088 83.5561 98.3475 81.4818C97.2502 78.6988 97.1942 75.6131 98.1899 72.7921C98.7599 71.1608 99.7077 69.6875 100.956 68.4926C102.326 67.2037 103.991 66.269 105.805 65.7695C107.753 65.2259 109.818 65.2591 111.748 65.8651C112.745 66.2128 113.667 66.7461 114.466 67.4368C115.299 68.1434 115.939 69.0488 116.329 70.069C116.722 71.1342 116.705 72.3073 116.281 73.3606C115.81 74.4143 115.011 75.2874 114.003 75.8495C112.99 76.4393 111.828 76.7215 110.658 76.6616C109.481 76.5794 108.337 76.2298 107.314 75.6393C105.203 74.4147 103.546 72.5392 102.59 70.2936C101.597 67.997 101.257 65.4714 101.606 62.994C101.788 61.7525 102.145 60.543 102.666 59.4015C102.929 58.8389 103.229 58.2947 103.564 57.7725L104.118 57.032C104.295 56.7788 104.525 56.5543 104.725 56.3345C105.562 55.4458 106.528 54.6888 107.591 54.0892C108.647 53.5117 109.77 53.0688 110.936 52.7707C113.209 52.201 115.592 52.2355 117.848 52.871C120.027 53.5207 122.066 54.7103 123.352 56.5161C123.997 57.4052 124.348 58.4745 124.355 59.5735C124.378 60.655 123.971 61.7015 123.223 62.4828C122.458 63.2003 121.452 63.6044 120.404 63.615C119.401 63.6378 118.41 63.3885 117.538 62.8937C116.699 62.431 115.941 61.8357 115.292 61.1309C114.653 60.4687 114.099 59.7288 113.644 58.9286C111.974 56.0368 111.52 52.6002 112.383 49.3741C112.765 48.0276 113.392 46.7629 114.232 45.6431C115.591 43.8518 117.406 42.4579 119.487 41.6063C120.791 41.0669 122.18 40.7628 123.59 40.7082C123.956 40.6841 124.323 40.6841 124.689 40.7082L124.995 40.7464Z" fill="#263238"/>
<path d="M140.946 88.5474H73.9645V140.208H140.946V88.5474Z" fill="#4C7ADA"/>
<path d="M73.9645 88.5474L86.3375 100.089H152.182L140.946 88.5474H73.9645Z" fill="#4C7ADA"/>
<path d="M73.9645 88.5473L140.965 88.4279H141.018L141.056 88.4614L152.177 99.8837L152.292 100.003L152.497 100.213H152.201L86.3566 100.161H86.3279L73.9645 88.5473L86.3853 100.013H86.3327L152.177 99.9649L152.091 100.175L151.972 100.056L140.855 88.6333L140.941 88.6716L73.9645 88.5473Z" fill="#263238"/>
<path d="M94.0861 112.371C93.7232 112.385 93.3801 112.54 93.1304 112.803C92.8807 113.067 92.7445 113.418 92.7511 113.781C92.7577 114.144 92.9065 114.49 93.1655 114.744C93.4246 114.999 93.7732 115.141 94.1363 115.141C94.4993 115.141 94.8479 114.999 95.107 114.744C95.366 114.49 95.5148 114.144 95.5214 113.781C95.528 113.418 95.3918 113.067 95.1421 112.803C94.8924 112.54 94.5493 112.385 94.1864 112.371" fill="#263238"/>
<path d="M109.913 112.371C109.552 112.385 109.21 112.54 108.962 112.803C108.714 113.066 108.578 113.416 108.585 113.777C108.592 114.139 108.741 114.483 108.999 114.737C109.257 114.99 109.604 115.132 109.966 115.132C110.327 115.132 110.674 114.99 110.932 114.737C111.191 114.483 111.339 114.139 111.346 113.777C111.353 113.416 111.218 113.066 110.969 112.803C110.721 112.54 110.379 112.385 110.018 112.371" fill="#263238"/>
<path d="M110.004 117.796C109.728 118.851 109.279 119.854 108.676 120.762C108.005 121.735 107.144 122.56 106.144 123.189C104.938 123.99 103.531 124.435 102.084 124.475C100.637 124.514 99.2086 124.147 97.9605 123.414C96.9297 122.838 96.0248 122.062 95.2996 121.13C94.6464 120.255 94.1442 119.276 93.8138 118.235C93.8175 118.313 93.8304 118.39 93.8521 118.465C93.8978 118.68 93.9569 118.892 94.0288 119.1C94.2906 119.867 94.6728 120.588 95.161 121.235C95.8811 122.211 96.7973 123.024 97.8506 123.624C99.1309 124.388 100.602 124.773 102.093 124.732C103.583 124.691 105.031 124.228 106.268 123.395C107.285 122.741 108.154 121.882 108.819 120.872C109.273 120.199 109.616 119.457 109.837 118.675C109.895 118.463 109.942 118.247 109.975 118.03C109.992 117.953 110.001 117.875 110.004 117.796Z" fill="#263238"/>
<path opacity="0.5" d="M74.1174 89.1158L85.9649 104.135H140.946V100.089H86.3376L74.1174 89.1158Z" fill="black"/>
<path d="M127.737 140.094C127.67 140.094 127.613 131.108 127.613 120.029C127.613 108.951 127.67 99.9649 127.737 99.9649C127.804 99.9649 127.866 108.946 127.866 120.029C127.866 131.112 127.809 140.094 127.737 140.094Z" fill="#263238"/>
<path d="M138.256 128.38H132.352V135.054H138.256V128.38Z" fill="#F5F5F5"/>
<path d="M73.9644 88.5474L60.2156 100.089H73.9644V88.5474Z" fill="#4C7ADA"/>
<g opacity="0.4">
<path d="M73.9644 88.5474L60.2156 100.089H73.9644V88.5474Z" fill="black"/>
</g>
<path d="M142.924 140.208H65.9102V199.608H142.924V140.208Z" fill="#4C7ADA"/>
<path opacity="0.3" d="M142.924 140.208H65.9102V199.608H142.924V140.208Z" fill="black"/>
<path d="M123.628 199.188C123.562 199.188 123.504 185.95 123.504 169.622C123.504 153.293 123.562 140.051 123.628 140.051C123.695 140.051 123.753 153.288 123.753 169.622C123.753 185.955 123.695 199.188 123.628 199.188Z" fill="#263238"/>
<path d="M136.393 186.089H130.489V192.763H136.393V186.089Z" fill="#F5F5F5"/>
<path d="M98.1515 140.366H89.4044V153.04H98.1515V140.366Z" fill="#263238"/>
<path d="M98.1515 186.758H89.4044V199.432H98.1515V186.758Z" fill="#263238"/>
<path d="M142.255 140.208H142.054H141.476L139.255 140.232L131.072 140.27L104.085 140.333L77.0889 140.299L68.9103 140.261L66.6888 140.237H66.106H65.9102H66.106H66.6888L68.9103 140.213L77.0889 140.175L104.085 140.137L131.072 140.175L139.255 140.213L141.476 140.237H142.054L142.255 140.208Z" fill="#263238"/>
<path d="M56.7259 81.7731L48.3371 79.7094H48.3992C46.2332 81.0871 43.7284 81.8394 41.1617 81.883C39.6422 81.8899 38.1301 81.6693 36.6759 81.2285C34.1192 80.4076 31.8509 78.8719 30.1392 76.8029C28.4275 74.7339 27.3438 72.2182 27.0163 69.553C26.7591 67.5373 26.9485 65.4897 27.571 63.5554C28.1935 61.621 29.2338 59.8473 30.6184 58.3599C31.3462 57.5605 32.1619 56.8458 33.05 56.2293C33.499 55.9474 33.9481 55.656 34.4163 55.4124L35.1281 55.0684L35.4816 54.8964L35.8542 54.7627C37.7725 54.0191 39.8302 53.7044 41.8831 53.8407C44.6342 54.0193 47.271 55.0083 49.461 56.6831C51.6509 58.3579 53.2961 60.6435 54.1892 63.2518C54.6854 64.7109 54.9466 66.2396 54.9631 67.7806C54.9751 70.3417 54.279 72.8563 52.9519 75.0468V74.9703C55.2832 79.1791 56.4584 81.3049 56.7211 81.7731C56.4488 81.2954 55.2306 79.2077 52.8181 75.042V75.0038V74.9656C54.0976 72.7963 54.7585 70.318 54.729 67.7997C54.7069 66.2833 54.4424 64.7802 53.9456 63.3474C53.0622 60.7924 51.4447 58.5548 49.2957 56.9147C47.1466 55.2747 44.5615 54.3051 41.864 54.1273C39.8516 53.9962 37.8348 54.3059 35.9545 55.035L35.5915 55.164L35.2427 55.3359L34.5453 55.6704C34.0675 55.914 33.6471 56.1959 33.2029 56.4729C32.3319 57.0729 31.5307 57.7683 30.8142 58.5462C29.455 60.0064 28.4334 61.7474 27.8217 63.6462C27.2099 65.5449 27.0231 67.5549 27.2743 69.5339C27.7172 73.1594 29.5773 76.4622 32.448 78.7205C33.7315 79.7374 35.188 80.5142 36.7476 81.0135C38.1757 81.455 39.6621 81.6789 41.1569 81.6776C43.6929 81.6504 46.1723 80.9248 48.3228 79.5804H48.3514H48.404L56.7259 81.7731Z" fill="#263238"/>
<path d="M39.8049 61.6276L40.2301 68.6501C40.2471 68.9271 40.3648 69.1883 40.561 69.3845C40.7572 69.5808 41.0184 69.6985 41.2954 69.7154C41.5869 69.7319 41.8736 69.6361 42.0966 69.4477C42.3196 69.2594 42.462 68.9928 42.4945 68.7026L43.2732 61.6658C43.2868 61.5399 43.2734 61.4126 43.234 61.2922C43.1946 61.1719 43.1301 61.0613 43.0447 60.9678C42.9593 60.8743 42.8551 60.8 42.7388 60.7498C42.6225 60.6997 42.4969 60.6748 42.3703 60.6769H40.6648C40.5452 60.6805 40.4274 60.7082 40.3188 60.7584C40.2101 60.8086 40.1126 60.8802 40.0323 60.969C39.952 61.0578 39.8905 61.1619 39.8514 61.2751C39.8123 61.3883 39.7965 61.5082 39.8049 61.6276Z" fill="#4C7ADA"/>
<path d="M43.1489 73.6375C43.042 73.9583 42.8424 74.2402 42.5754 74.4476C42.3083 74.655 41.9857 74.7786 41.6485 74.8027C41.3112 74.8269 40.9743 74.7505 40.6805 74.5832C40.3866 74.416 40.1489 74.1653 39.9974 73.863C39.8459 73.5607 39.7874 73.2203 39.8294 72.8848C39.8713 72.5492 40.0117 72.2337 40.233 71.9779C40.4542 71.7222 40.7462 71.5378 41.0722 71.448C41.3982 71.3582 41.7435 71.3671 42.0645 71.4735C42.2779 71.5442 42.4753 71.6563 42.6453 71.8034C42.8153 71.9505 42.9547 72.1296 43.0554 72.3306C43.1561 72.5316 43.2162 72.7505 43.2323 72.9748C43.2483 73.199 43.22 73.4242 43.1489 73.6375Z" fill="#4C7ADA"/>
</svg>
