<svg width="176" height="158" viewBox="0 0 176 158" fill="none" xmlns="http://www.w3.org/2000/svg">
<path d="M155.443 62.876H114.206V119.814H155.443V62.876Z" fill="#EBEBEB"/>
<path d="M157.44 60.7642H112.208V62.8761H157.44V60.7642Z" fill="#DBDBDB"/>
<path d="M171.667 60.7642H157.44V62.8761H171.667V60.7642Z" fill="#EBEBEB"/>
<path d="M169.415 62.876H155.442V119.814H169.415V62.876Z" fill="#DBDBDB"/>
<path d="M150.999 89.2271H118.645V70.9873H150.999V89.2271ZM118.744 89.1282H150.9V71.0862H118.744V89.1282Z" fill="#C7C7C7"/>
<path d="M136.605 76.3188H130.307V79.9296H136.605V76.3188Z" fill="#C7C7C7"/>
<path d="M138.52 79.7078H132.118V76.5439H138.52V79.7078ZM132.217 79.609H138.421V76.6389H132.217V79.609Z" fill="#C7C7C7"/>
<path d="M150.999 112.149H118.645V93.9097H150.999V112.149ZM118.744 112.051H150.9V94.0085H118.744V112.051Z" fill="#C7C7C7"/>
<path d="M136.605 99.2412H130.307V102.852H136.605V99.2412Z" fill="#C7C7C7"/>
<path d="M138.52 102.63H132.118V99.4663H138.52V102.63ZM132.217 102.531H138.421V99.5612H132.217V102.531Z" fill="#C7C7C7"/>
<path d="M11.0435 0.839844H76.4011V86.0671H11.0435V0.839844ZM74.6768 2.56021H12.7678V84.3467H74.6768V2.56021Z" fill="#EBEBEB"/>
<path d="M45.2565 3.00732H43.5322V85.2051H45.2565V3.00732Z" fill="#EBEBEB"/>
<path d="M9.47765 6.70947L77.9629 6.70947V4.31678L9.47765 4.31678V6.70947Z" fill="#EBEBEB"/>
<path d="M9.47765 9.40234L77.9629 9.40234V7.00965L9.47765 7.00965V9.40234Z" fill="#EBEBEB"/>
<path d="M9.47765 12.0952L77.9629 12.0952V9.70253L9.47765 9.70253V12.0952Z" fill="#EBEBEB"/>
<path d="M9.47765 14.7891L77.9629 14.7891V12.3964L9.47765 12.3964V14.7891Z" fill="#EBEBEB"/>
<path d="M9.47765 17.4819L77.9629 17.4819V15.0892L9.47765 15.0892V17.4819Z" fill="#EBEBEB"/>
<path d="M9.47765 20.1753L77.9629 20.1753V17.7826L9.47765 17.7826V20.1753Z" fill="#EBEBEB"/>
<path d="M9.47765 22.8687L77.9629 22.8687V20.476L9.47765 20.476V22.8687Z" fill="#EBEBEB"/>
<path d="M9.47765 25.562L77.9629 25.562V23.1693L9.47765 23.1693V25.562Z" fill="#EBEBEB"/>
<path d="M9.47765 28.2588L77.9629 28.2588V25.8661L9.47765 25.8661V28.2588Z" fill="#EBEBEB"/>
<path d="M15.0312 3.82568H14.5991V59.0157H15.0312V3.82568Z" fill="#263238"/>
<path d="M14.0483 61.0211H15.5784L15.1939 58.8262H14.4328L14.0483 61.0211Z" fill="#263238"/>
<path d="M13.4775 3.82568H13.0454V83.6664H13.4775V3.82568Z" fill="#263238"/>
<path d="M12.4985 85.2803H14.0286L13.6441 83.0894H12.8791L12.4985 85.2803Z" fill="#263238"/>
<path d="M6.80605 5.51074L80.6387 5.51074V0.499935L6.80605 0.499935V5.51074Z" fill="#DBDBDB"/>
<path d="M140.213 34.5237C144.573 38.7634 145.287 45.3245 144.371 51.0748C144.347 51.2053 144.145 51.1697 144.145 51.0471C144.145 49.7381 144.185 48.4409 144.181 47.1477L144.113 46.9736C142.944 46.2061 141.976 45.17 141.291 43.9521C140.565 42.5284 140.28 40.9227 139.725 39.4357C139.674 39.2933 139.828 39.3368 139.927 39.408C142.567 41.3538 143.412 43.4459 144.169 46.238C144.153 44.7767 143.999 43.3202 143.709 41.8877C143.138 39.234 142.008 36.604 140.098 34.6384C140.026 34.5633 140.137 34.4565 140.213 34.5237Z" fill="#A6A6A6"/>
<path d="M139.396 35.0179C138.651 35.0416 138.183 36.2321 137.6 36.5999C137.539 36.6497 137.469 36.6861 137.392 36.7066C137.316 36.7272 137.237 36.7314 137.159 36.7191C137.081 36.7068 137.007 36.6781 136.941 36.6351C136.875 36.5921 136.818 36.5356 136.776 36.4694C136.197 35.6784 136.99 34.6778 137.735 34.1202C137.2 34.3416 136.76 34.7253 136.185 34.832C136.112 34.8559 136.035 34.8638 135.958 34.8552C135.882 34.8467 135.808 34.822 135.742 34.7826C135.676 34.7433 135.619 34.6903 135.575 34.6272C135.531 34.5641 135.501 34.4923 135.488 34.4168C135.234 33.3213 136.613 32.8348 137.557 32.8111C137.097 32.4908 135.785 31.6246 136.483 31.2015C137.18 30.7783 138.73 31.9925 139.234 32.4196C139.971 33.0168 140.851 33.9106 140.887 34.8439C140.93 35.9157 139.971 35.2473 139.396 35.0179Z" fill="#DBDBDB"/>
<path d="M139.614 35.1997C138.659 34.7646 136.84 35.3895 136.669 35.0296C136.352 34.294 137.819 33.7917 138.607 33.6929C137.878 33.4951 136.483 33.1827 136.526 32.4827C136.578 31.6245 138.667 32.3601 139.725 33.1708C141.061 34.1912 141.049 35.1759 140.831 35.3697C140.526 35.6426 139.773 35.2709 139.614 35.1997Z" fill="#EBEBEB"/>
<path d="M150.103 34.1008C145.604 38.1743 144.625 44.7078 145.319 50.4858C145.319 50.6163 145.541 50.5886 145.545 50.466C145.596 49.157 145.608 47.8598 145.66 46.5705C145.687 46.5112 145.707 46.4558 145.735 46.3965C146.934 45.6749 147.94 44.6749 148.668 43.4818C149.461 42.0896 149.794 40.4958 150.405 39.0325C150.46 38.8902 150.309 38.9258 150.206 38.9969C147.491 40.8399 146.571 42.8964 145.707 45.6609C145.778 44.1946 145.987 42.7381 146.33 41.3105C147.003 38.6806 148.232 36.098 150.214 34.1918C150.217 34.1775 150.215 34.1628 150.21 34.1493C150.205 34.1357 150.196 34.1238 150.185 34.1146C150.174 34.1054 150.16 34.0993 150.146 34.0969C150.132 34.0945 150.117 34.0958 150.103 34.1008Z" fill="#A6A6A6"/>
<path d="M150.9 34.6262C151.645 34.6816 152.069 35.8878 152.636 36.2595C152.696 36.3111 152.766 36.3496 152.841 36.3727C152.916 36.3958 152.996 36.4029 153.074 36.3936C153.153 36.3843 153.228 36.3588 153.296 36.3187C153.364 36.2786 153.423 36.2248 153.469 36.1607C154.075 35.3697 153.322 34.3573 152.596 33.7878C153.124 34.0251 153.548 34.4284 154.119 34.5787C154.191 34.6047 154.269 34.6148 154.346 34.6085C154.423 34.6022 154.498 34.5796 154.565 34.5422C154.633 34.5047 154.691 34.4533 154.737 34.3915C154.783 34.3296 154.816 34.2586 154.832 34.1832C155.125 33.0957 153.77 32.5578 152.826 32.4985C153.294 32.1979 154.642 31.3872 153.96 30.9165C153.278 30.4459 151.685 31.6363 151.185 32.0239C150.424 32.5934 149.509 33.4556 149.441 34.3968C149.338 35.4686 150.317 34.8516 150.9 34.6262Z" fill="#DBDBDB"/>
<path d="M150.678 34.8009C151.649 34.4054 153.452 35.0975 153.627 34.7455C153.972 34.0218 152.525 33.4641 151.74 33.3376C152.473 33.1675 153.885 32.9065 153.869 32.2025C153.849 31.3443 151.732 32.0008 150.642 32.772C149.27 33.741 149.243 34.7218 149.453 34.9274C149.746 35.2082 150.519 34.8523 150.678 34.8009Z" fill="#EBEBEB"/>
<path d="M145.501 44.8618C145.196 47.041 144.728 49.1945 144.102 51.3042C144.098 51.3248 144.089 51.3442 144.078 51.3616C144.066 51.379 144.051 51.3939 144.033 51.4054C144.016 51.417 143.996 51.425 143.976 51.429C143.955 51.433 143.934 51.433 143.913 51.4288C143.893 51.4247 143.873 51.4165 143.856 51.4048C143.839 51.3931 143.824 51.3781 143.812 51.3607C143.8 51.3432 143.792 51.3237 143.788 51.3031C143.784 51.2826 143.784 51.2615 143.789 51.241C144.086 49.2635 144.625 47.3059 144.918 45.3087C145.242 43.301 145.359 41.2655 145.267 39.234C145.077 35.8882 144.165 32.3288 141.977 29.7107C141.93 29.6514 142.033 29.5644 142.08 29.6197C146.46 34.7176 145.763 40.9623 145.759 41.5239C146.381 39.412 147.019 36.9956 149.366 34.8481C149.465 34.7531 149.544 34.8006 149.528 34.9548C149.108 38.8702 148.018 40.9109 145.743 43.003C145.679 43.6358 145.6 44.2527 145.501 44.8618Z" fill="#A6A6A6"/>
<path d="M141.938 30.3115C141.145 29.9596 140.063 30.9601 139.282 31.0313C139.193 31.0526 139.101 31.055 139.011 31.0382C138.922 31.0214 138.837 30.9859 138.762 30.934C138.687 30.882 138.624 30.8149 138.577 30.7369C138.53 30.6589 138.5 30.5719 138.489 30.4816C138.295 29.3584 139.619 28.7296 140.669 28.5279C140.007 28.4844 139.357 28.6624 138.687 28.4884C138.599 28.4761 138.514 28.4448 138.438 28.3968C138.363 28.3487 138.298 28.285 138.25 28.2099C138.201 28.1348 138.169 28.0501 138.157 27.9617C138.144 27.8732 138.151 27.7831 138.176 27.6974C138.465 26.4358 140.138 26.6217 141.133 27.0725C140.816 26.5109 139.888 24.9567 140.828 24.8657C141.767 24.7747 142.75 26.8431 143.067 27.5075C143.531 28.5002 143.995 29.8805 143.559 30.8534C143.071 32.0121 142.417 30.8375 141.938 30.3115Z" fill="#DBDBDB"/>
<path d="M142.068 30.6086C141.295 29.6793 139.079 29.4222 139.099 28.9516C139.138 28.034 140.914 28.2476 141.786 28.5561C141.128 27.9826 139.84 26.9741 140.236 26.2504C140.724 25.3882 142.52 27.2035 143.209 28.5719C144.077 30.3002 143.574 31.3166 143.245 31.4115C142.793 31.5262 142.195 30.7629 142.068 30.6086Z" fill="#EBEBEB"/>
<path d="M148.383 46.0403L150.314 60.7642H138.561C138.802 59.4591 140.99 46.0205 140.99 46.0205L148.383 46.0403Z" fill="#EBEBEB"/>
<path fill-rule="evenodd" clip-rule="evenodd" d="M108.363 51.3123C107.998 51.0276 107.697 50.64 107.174 50.636C106.971 50.636 107.031 50.4739 107.043 50.3631L107.649 44.506C107.649 44.3636 107.685 44.2489 107.851 44.1857C109.437 43.5924 110.23 42.1805 111.272 41.0218C111.808 40.4426 112.221 39.7617 112.488 39.0198C112.754 38.2778 112.868 37.4899 112.822 36.7031C112.822 36.2601 113.032 36.0822 113.437 36.0347C113.643 35.986 113.86 36.0051 114.055 36.0891C114.25 36.1732 114.413 36.3178 114.519 36.5014C114.865 37.3433 115.063 38.2382 115.105 39.1472C115.105 39.8986 114.772 40.5907 114.602 41.3144C114.479 41.8444 114.297 42.3625 114.138 42.8964C114.257 43.0071 114.416 42.9715 114.558 42.9873C116.21 43.164 117.863 43.3367 119.517 43.5054C120.215 43.5806 120.532 43.8139 120.584 44.2964C120.607 44.5865 120.534 44.8761 120.376 45.1211C120.219 45.366 119.985 45.5528 119.712 45.6529C119.581 45.7004 119.367 45.6213 119.315 45.8151C119.264 46.0088 119.509 46.0128 119.616 46.1038C120.171 46.5783 119.973 47.4089 119.22 47.8241C119.042 47.927 118.724 47.8241 118.693 48.0812C118.661 48.3383 118.97 48.3027 119.089 48.4767C119.521 49.0027 119.188 49.8648 118.427 50.1496C118.325 50.1693 118.224 50.1971 118.126 50.2326C118.039 50.2761 117.952 50.3315 118.098 50.462C118.76 51.0434 118.673 51.7553 117.896 52.1982L117.666 52.3287C117.388 52.4596 117.074 52.4944 116.774 52.4276C114.182 52.1639 111.589 51.9003 108.997 51.6366C108.751 51.6158 108.523 51.4993 108.363 51.3123Z" fill="#EBEBEB"/>
<path fill-rule="evenodd" clip-rule="evenodd" d="M101.351 47.1122C101.481 45.8743 101.616 44.6325 101.747 43.3907C101.771 43.1376 101.81 43.0189 102.12 43.0545C103.639 43.2285 105.156 43.3867 106.67 43.5291C106.967 43.5568 107.003 43.6636 106.975 43.9246C106.711 46.4214 106.447 48.9183 106.183 51.4151C106.151 51.7354 106.056 51.8106 105.739 51.775C104.267 51.6063 102.796 51.4547 101.327 51.3202C100.958 51.2885 100.93 51.1541 100.958 50.8337C101.105 49.584 101.22 48.3422 101.351 47.1122Z" fill="#EBEBEB"/>
<path fill-rule="evenodd" clip-rule="evenodd" d="M98.2624 34.8048C97.9334 34.6782 97.6282 34.4647 97.2476 34.5754C97.1009 34.6189 97.1089 34.4884 97.093 34.4093L96.2368 30.0155C96.2368 29.9087 96.2051 29.8217 96.3121 29.7386C97.3229 28.9477 97.5925 27.7612 98.0959 26.6736C98.3571 26.1347 98.5068 25.5487 98.5361 24.9508C98.5654 24.3528 98.4737 23.7551 98.2664 23.1933C98.238 23.1338 98.2233 23.0687 98.2233 23.0027C98.2234 22.9368 98.2382 22.8717 98.2667 22.8122C98.2952 22.7527 98.3366 22.7003 98.388 22.6588C98.4394 22.6173 98.4994 22.5878 98.5637 22.5724C98.7035 22.4919 98.8654 22.458 99.0259 22.4758C99.1863 22.4936 99.3369 22.5621 99.4555 22.6713C99.8913 23.2088 100.233 23.8158 100.466 24.4668C100.57 25.022 100.609 25.5874 100.581 26.1516C100.609 26.5471 100.581 26.9821 100.581 27.4013C100.692 27.4567 100.799 27.4013 100.906 27.3776L104.629 26.6617C105.148 26.5589 105.421 26.6617 105.572 26.994C105.657 27.2001 105.67 27.4286 105.611 27.6434C105.551 27.8581 105.422 28.0471 105.243 28.1804C105.16 28.2437 104.981 28.2358 104.997 28.3821C105.013 28.5284 105.187 28.4849 105.283 28.5284C105.79 28.746 105.83 29.3985 105.382 29.8652C105.275 29.9759 105.025 29.9799 105.053 30.1657C105.08 30.3516 105.306 30.2686 105.429 30.3477C105.861 30.6364 105.826 31.3403 105.322 31.7121C105.251 31.7487 105.184 31.791 105.12 31.8387C105.065 31.8901 105.013 31.9494 105.148 32.0127C105.762 32.2895 105.853 32.8036 105.386 33.3178L105.247 33.4641C105.075 33.6197 104.856 33.7142 104.625 33.733C102.677 34.1127 100.732 34.4884 98.7896 34.8602C98.7024 34.8861 98.6109 34.8945 98.5205 34.885C98.43 34.8755 98.3423 34.8483 98.2624 34.8048Z" fill="#EBEBEB"/>
<path fill-rule="evenodd" clip-rule="evenodd" d="M92.2332 33.2896C92.0509 32.3602 91.8764 31.4268 91.6862 30.4974C91.6505 30.3116 91.6505 30.2127 91.8844 30.1692C93.026 29.9635 94.1597 29.746 95.2973 29.5127C95.5193 29.4692 95.5669 29.5364 95.6065 29.7341C95.9633 31.6087 96.3266 33.482 96.6966 35.354C96.7442 35.5913 96.6966 35.6704 96.4509 35.7139C95.3449 35.9156 94.2429 36.1094 93.1409 36.3546C92.8674 36.4099 92.8119 36.3229 92.7683 36.0817C92.6018 35.1483 92.4116 34.219 92.2332 33.2896Z" fill="#EBEBEB"/>
<path d="M88 157.5C136.441 157.5 175.71 152.733 175.71 146.854C175.71 140.974 136.441 136.207 88 136.207C39.5588 136.207 0.289551 140.974 0.289551 146.854C0.289551 152.733 39.5588 157.5 88 157.5Z" fill="#EBEBEB"/>
<path d="M6.80615 119.882L27.1056 119.787L47.405 119.751L87.9998 119.684L128.599 119.751L148.894 119.787L169.194 119.882L148.894 119.981L128.599 120.013L87.9998 120.08L47.405 120.013L27.1056 119.977L6.80615 119.882Z" fill="#263238"/>
<path d="M24.4541 86.0634C27.3002 80.23 32.2789 77.2322 37.8879 78.8893C43.4969 80.5464 44.369 88.3493 40.1791 90.3228C35.9892 92.2963 31.8033 86.538 29.5914 85.3555C27.3795 84.173 24.4541 86.0634 24.4541 86.0634Z" fill="#3864DD"/>
<path d="M21.6992 101.594C21.6992 100.89 21.7428 100.186 21.7666 99.4864C21.8181 98.0824 21.8657 96.6745 21.9172 95.2705C22.0123 92.7038 22.2898 90.1806 23.3561 87.8156C24.2977 85.6697 25.8709 83.8601 27.8671 82.6268C28.6091 82.1793 29.4094 81.8359 30.2455 81.6065C31.003 80.8423 31.9672 80.3146 33.0202 80.0878C34.3254 79.8218 35.6674 79.7883 36.9842 79.9889C37.0318 79.9889 37.0318 80.068 36.9842 80.0641C35.7343 79.9022 34.4645 79.9923 33.2501 80.3291C32.7294 80.471 32.2247 80.6658 31.7438 80.9104C31.4422 81.0736 31.1521 81.2573 30.8757 81.4601C32.0082 81.2288 33.1771 81.2409 34.3046 81.4957C34.7108 81.5959 35.1085 81.7281 35.4937 81.8912C35.8004 81.8218 36.1152 81.7952 36.4292 81.8121C36.8388 81.8246 37.2457 81.8829 37.6422 81.9861C38.455 82.2137 39.2327 82.5517 39.9532 82.9907C39.9928 83.0144 39.9532 83.0777 39.9135 83.054C39.2049 82.6684 38.4457 82.3835 37.6581 82.2076C37.2772 82.1211 36.8902 82.0642 36.5006 82.0376C36.2867 82.0257 36.0723 82.0257 35.8584 82.0376C37.4569 82.7741 38.742 84.052 39.4854 85.6444C39.4854 85.6879 39.4379 85.7235 39.422 85.68C38.9792 84.7563 38.3333 83.9442 37.5324 83.304C36.7315 82.6637 35.7962 82.212 34.7961 81.9822C34.6732 81.9505 34.5464 81.9347 34.4235 81.911C34.4529 82.0984 34.4727 82.2871 34.4829 82.4765C34.5186 82.7573 34.5662 83.0421 34.6256 83.3229C34.7398 83.9018 34.8921 84.4725 35.0815 85.0314C35.2711 85.5966 35.4975 86.1488 35.7593 86.6845C36.0121 87.2478 36.3315 87.7789 36.7107 88.2665C36.7424 88.31 36.679 88.3574 36.6512 88.31C36.3143 87.784 35.9218 87.2975 35.6127 86.7518C35.3175 86.2288 35.0631 85.6841 34.8516 85.1223C34.6359 84.5548 34.4688 83.97 34.3521 83.3743C34.2887 83.0579 34.2411 82.7415 34.2055 82.4251C34.1659 82.234 34.1539 82.0383 34.1698 81.8438C33.5135 81.7466 32.8475 81.7333 32.1878 81.8042C32.4375 83.1963 32.7031 84.6478 33.488 85.858C33.5118 85.8975 33.4444 85.9331 33.4206 85.8935C33.055 85.2569 32.7332 84.5962 32.4573 83.9161C32.1994 83.2516 32.0379 82.5538 31.9777 81.8438C30.8191 81.9983 29.701 82.3729 28.6837 82.9472C26.7667 84.0593 25.2358 85.7289 24.2956 87.7325C23.3081 89.8913 22.7559 92.2228 22.6703 94.5942C22.484 97.5762 22.4444 100.578 22.1471 103.548C22.1471 103.746 21.8181 103.809 21.7824 103.592C21.6913 102.93 21.6634 102.261 21.6992 101.594Z" fill="#263238"/>
<path d="M28.2751 82.156C28.464 81.9314 28.6812 81.732 28.9213 81.5628C29.1551 81.369 29.393 81.1673 29.6427 81.0131C30.1367 80.6765 30.6832 80.4239 31.26 80.2656C31.3076 80.2656 31.3234 80.3289 31.26 80.3368C30.6825 80.4886 30.1426 80.7579 29.6744 81.1278C29.4366 81.3018 29.2106 81.4877 28.9886 81.6815C28.7906 81.8883 28.5714 82.0738 28.3346 82.2351C28.3241 82.2391 28.3126 82.2396 28.3019 82.2365C28.2911 82.2334 28.2817 82.2269 28.275 82.218C28.2682 82.209 28.2646 82.1982 28.2646 82.187C28.2647 82.1758 28.2684 82.1649 28.2751 82.156Z" fill="#263238"/>
<path d="M37.3567 84.2877C37.8271 84.8348 38.2626 85.4107 38.6609 86.012C39.0494 86.6166 39.3748 87.2594 39.632 87.9301C39.632 87.9499 39.6082 87.9618 39.5963 87.9301C38.9452 86.6606 38.1768 85.4544 37.3012 84.3273C37.2616 84.2877 37.325 84.2363 37.3567 84.2877Z" fill="#263238"/>
<path d="M31.2366 83.6945C31.2958 84.0593 31.4037 84.4144 31.5577 84.7505C31.7126 85.0765 31.8928 85.3899 32.0968 85.6878C32.0968 85.6878 32.0968 85.7273 32.0651 85.7115C31.5783 85.1536 31.2643 84.4666 31.1613 83.7341C31.1573 83.6668 31.2287 83.6471 31.2366 83.6945Z" fill="#263238"/>
<path d="M22.0955 86.2063C22.0955 86.2063 18.0681 81.1559 10.3067 82.9475C2.91391 84.6481 -0.49509 98.1698 6.973 99.7873C14.4411 101.405 13.1251 88.8916 15.8443 86.7679C17.8382 85.2097 20.7002 85.5458 22.0955 86.2063Z" fill="#3864DD"/>
<path d="M4.28941 90.3312C4.79004 89.8878 5.31974 89.4782 5.87499 89.1052C6.4064 88.7385 6.98686 88.4483 7.59931 88.243C8.45306 86.9378 9.60511 85.8535 10.9607 85.0791H10.7308C10.3344 85.0791 9.90633 85.0791 9.49408 85.0791C8.66536 85.1338 7.85315 85.336 7.09589 85.6763C7.08695 85.6805 7.07671 85.681 7.06742 85.6776C7.05812 85.6743 7.05054 85.6674 7.04634 85.6585C7.04213 85.6496 7.04165 85.6394 7.04499 85.6301C7.04834 85.6208 7.05524 85.6133 7.06417 85.6091C7.82708 85.28 8.62499 85.0386 9.44255 84.8893C9.84281 84.8176 10.2489 84.7832 10.6555 84.7865C10.8735 84.7865 11.0955 84.7865 11.3096 84.8221H11.4364C12.1488 84.463 12.9003 84.187 13.676 83.9994C13.6047 83.9797 13.5333 83.9559 13.458 83.9401C13.0784 83.857 12.6947 83.7936 12.3085 83.7503C11.5345 83.6632 10.7526 83.6752 9.98164 83.7859C9.93408 83.7859 9.92218 83.7186 9.98164 83.7147C10.7627 83.6199 11.5501 83.5881 12.3362 83.6198C12.9946 83.6375 13.6494 83.7224 14.2905 83.8729C14.759 83.7851 15.2332 83.7309 15.7096 83.7107C18.4209 83.596 21.374 84.6085 23.0429 86.8311C24.7117 89.0537 25.0249 92.0239 25.334 94.7092C25.7895 98.4499 25.889 102.225 25.6313 105.984C25.6313 106.206 25.3023 106.166 25.2944 105.953C25.1953 102.765 25.0803 99.5776 24.7751 96.4019C24.6324 94.9307 24.4778 93.4516 24.2321 91.9962C24.055 90.7411 23.6931 89.519 23.1578 88.3696C22.5818 87.1925 21.6685 86.2125 20.5337 85.5537C19.3954 84.9037 18.127 84.5134 16.8195 84.4107C15.6464 84.315 14.4656 84.4261 13.3312 84.739C13.3649 84.9658 13.3649 85.1964 13.3312 85.4232C13.3062 85.7121 13.249 85.9972 13.1607 86.2735C13.0738 86.5327 12.9651 86.784 12.8357 87.0249C12.689 87.2899 12.5106 87.5272 12.3481 87.7842C12.3243 87.8238 12.257 87.7842 12.2887 87.7407C12.6089 87.2858 12.8155 86.761 12.8912 86.2102C12.9387 85.9487 12.9705 85.6846 12.9863 85.4192C12.9863 85.2215 12.9863 85.0238 12.9863 84.8221C11.7528 85.2 10.6016 85.8064 9.59318 86.6096C9.40291 86.7599 9.22057 86.9181 9.04219 87.0842C9.29627 87.3171 9.51762 87.5831 9.7002 87.8752C9.96657 88.2645 10.1987 88.676 10.3939 89.1052C10.7533 89.968 10.9946 90.8753 11.1114 91.8024C11.1114 91.8498 11.044 91.8657 11.04 91.8024C10.8968 90.9041 10.5963 90.0379 10.1521 89.2436C9.94969 88.8501 9.72056 88.4709 9.46633 88.1085C9.33552 87.9227 9.19678 87.7368 9.06993 87.5588C8.99066 87.4599 8.90741 87.365 8.83606 87.2582C7.92321 88.1534 7.17697 89.2033 6.6321 90.3589C6.99818 90.7478 7.30412 91.189 7.53985 91.6679C7.81962 92.1667 8.06336 92.6848 8.26922 93.2182C8.64498 94.2523 8.95479 95.309 9.19678 96.3821C9.19678 96.4296 9.13336 96.4414 9.12543 96.3821C8.8888 95.3013 8.51726 94.2543 8.01949 93.2657C7.78958 92.7792 7.54381 92.3007 7.28616 91.8261C7.0136 91.3903 6.76996 90.9372 6.55679 90.4696C6.03656 91.6014 5.7353 92.8211 5.66886 94.0646C5.66886 94.112 5.58958 94.1041 5.59355 94.0646C5.73665 92.1164 6.3339 90.2286 7.33769 88.5515C6.86201 88.7532 6.38634 88.947 5.93048 89.1961C5.34624 89.5044 4.80292 89.8844 4.31319 90.3272C4.3013 90.4182 4.25373 90.3628 4.28941 90.3312Z" fill="#263238"/>
<path d="M9.98972 90.6159C10.2236 91.3831 10.5169 92.1266 10.727 92.9018C10.9423 93.6426 11.0583 94.4086 11.0719 95.1798C11.0719 95.2035 11.0362 95.2035 11.0362 95.1798C10.821 93.6313 10.4437 92.1096 9.91044 90.6396C9.90887 90.6344 9.90835 90.6289 9.9089 90.6235C9.90945 90.6182 9.91106 90.6129 9.91364 90.6081C9.91621 90.6034 9.91971 90.5992 9.92392 90.5957C9.92813 90.5923 9.93298 90.5897 9.93818 90.5882C9.94339 90.5866 9.94885 90.5861 9.95426 90.5866C9.95967 90.5872 9.96491 90.5888 9.9697 90.5914C9.97448 90.5939 9.97871 90.5974 9.98215 90.6016C9.98558 90.6058 9.98815 90.6107 9.98972 90.6159Z" fill="#263238"/>
<path d="M5.06632 88.7173C5.3701 88.4227 5.71611 88.1748 6.09299 87.9817C6.47684 87.8088 6.87465 87.6686 7.28217 87.5625C7.32974 87.5625 7.34163 87.6258 7.28217 87.6337C6.88001 87.7397 6.49354 87.898 6.13263 88.1043C5.76658 88.296 5.41427 88.5127 5.07822 88.7529C5.07574 88.7566 5.07228 88.7595 5.06822 88.7613C5.06417 88.7632 5.05968 88.7638 5.05527 88.7632C5.05086 88.7626 5.04671 88.7608 5.04328 88.758C5.03986 88.7552 5.03729 88.7514 5.03589 88.7472C5.03448 88.743 5.03429 88.7385 5.03533 88.7342C5.03636 88.7299 5.0386 88.7259 5.04177 88.7228C5.04494 88.7197 5.04892 88.7175 5.05326 88.7166C5.0576 88.7156 5.06213 88.7159 5.06632 88.7173Z" fill="#263238"/>
<path d="M18.2703 79.4629C18.2703 79.4629 17.5251 70.3667 10.7626 67.4441C5.11793 64.9881 1.88335 71.3198 5.87505 75.1956C9.11756 78.3278 14.2707 76.916 18.2703 79.4629Z" fill="#3864DD"/>
<path d="M7.13551 69.2044C8.16428 69.6181 9.16759 70.0922 10.1402 70.6242C10.9508 71.0893 11.7306 71.6058 12.475 72.1706C12.364 71.9412 12.2649 71.6999 12.1539 71.4745C11.9755 71.1265 11.7892 70.7824 11.5791 70.4502C11.1617 69.764 10.6611 69.1317 10.0887 68.5677C10.053 68.536 10.0887 68.4846 10.1442 68.5163C10.7212 69.0802 11.2515 69.69 11.7297 70.3395C11.9646 70.6675 12.1791 71.0095 12.3719 71.3638C12.5634 71.6955 12.7075 72.0522 12.8 72.4237L12.8753 72.4751C14.0567 73.4179 15.1391 74.478 16.1059 75.639C16.1059 75.548 16.0663 75.461 16.0425 75.3779C15.9157 74.935 15.7809 74.496 15.6461 74.057C15.3544 73.1266 14.944 72.2374 14.4252 71.4112C14.3975 71.3717 14.4649 71.3361 14.4886 71.3756C15.0189 72.2032 15.4917 73.0661 15.9038 73.9582C16.0909 74.3936 16.2472 74.8416 16.3715 75.2989C16.4687 75.5957 16.5417 75.8999 16.5895 76.2085C16.8868 76.5842 17.1762 76.9599 17.4497 77.3475C20.3513 81.4684 21.8101 86.4436 22.1589 91.4465C22.2593 92.934 22.2844 94.4256 22.2342 95.9155C22.2215 97.4199 22.089 98.9209 21.8378 100.404C21.8378 100.495 21.6713 100.468 21.6753 100.377C21.707 99.0676 21.8418 97.7585 21.8695 96.4494C21.8973 95.1404 21.8695 93.8195 21.7427 92.4946C21.5279 89.8763 21.0335 87.2883 20.2681 84.7747C19.4811 82.2003 18.322 79.7542 16.8274 77.5136C16.542 77.4582 16.2605 77.3831 15.9831 77.3119C15.6422 77.2249 15.3052 77.1379 14.9683 77.0429C14.3181 76.8729 13.6861 76.6397 13.0814 76.3469C13.0378 76.3232 13.0814 76.2599 13.1211 76.2836C13.7162 76.6085 14.3623 76.8305 15.0317 76.9401C15.5589 77.0469 16.1099 77.1141 16.6411 77.2367C16.1495 76.5249 15.6263 75.8328 15.0555 75.1723C13.7668 75.2896 12.4676 75.1934 11.2105 74.8875C10.5368 74.7275 9.8747 74.5227 9.22848 74.2745C8.55064 74.0135 7.90848 73.6813 7.2465 73.4005C7.19497 73.3807 7.2465 73.3056 7.27425 73.3333C8.4853 73.9925 9.80742 74.4241 11.1748 74.6068C12.3824 74.7991 13.6027 74.9009 14.8256 74.9113C14.342 74.3615 13.8465 73.8237 13.3193 73.3293C11.5514 71.6327 9.44253 70.0824 7.1038 69.2598C7.06019 69.2598 7.08398 69.1846 7.13551 69.2044Z" fill="#263238"/>
<path d="M12.6295 69.2315C12.9414 69.6152 13.2249 70.021 13.4778 70.4457C13.7302 70.8889 13.9298 71.3601 14.0724 71.8496C14.0724 71.8496 14.0526 71.8773 14.0486 71.8496C13.8227 71.4067 13.6522 70.944 13.4025 70.501C13.1842 70.0645 12.9184 69.6534 12.6097 69.275C12.5463 69.2592 12.5978 69.192 12.6295 69.2315Z" fill="#263238"/>
<path d="M6.34254 72.2532C6.78271 72.4892 7.24636 72.6787 7.72596 72.8187C8.19038 72.9698 8.66281 73.0953 9.14109 73.1944C9.14109 73.1944 9.14109 73.2379 9.14109 73.234C8.64324 73.1809 8.15273 73.0735 7.67839 72.9136C7.21034 72.739 6.75361 72.5356 6.31082 72.3046C6.30446 72.3046 6.29819 72.303 6.29268 72.2998C6.28717 72.2966 6.28262 72.292 6.2795 72.2865C6.27637 72.2809 6.27479 72.2747 6.27491 72.2683C6.27503 72.262 6.27686 72.2557 6.28019 72.2503C6.28353 72.2449 6.28826 72.2405 6.29389 72.2375C6.29952 72.2346 6.30584 72.2331 6.3122 72.2334C6.31856 72.2337 6.32473 72.2357 6.33007 72.2392C6.3354 72.2427 6.33971 72.2475 6.34254 72.2532Z" fill="#263238"/>
<path d="M23.5265 77.8298C23.5662 78.2253 24.5492 74.5354 30.2653 71.2608C35.458 68.2867 41.6537 60.5589 36.564 55.6747C32.4534 51.7317 21.6278 60.3256 23.5265 77.8298Z" fill="#3864DD"/>
<path d="M19.59 98.9647C19.6723 95.1275 19.9754 91.2981 20.4978 87.4956C20.9483 83.9948 21.7572 80.5492 22.9118 77.213C23.336 76.0265 23.8235 74.8401 24.3507 73.6536C24.3209 73.2016 24.3288 72.7478 24.3745 72.2971C24.4023 71.7157 24.4538 71.1383 24.5093 70.5569C24.5648 69.9756 24.6203 69.3982 24.6916 68.8208C24.763 68.2434 24.8819 67.6699 24.9057 67.0925C24.9057 67.0411 24.9929 67.049 24.9771 67.0925C24.8641 67.6983 24.7965 68.3117 24.7749 68.9275C24.7313 69.4891 24.6996 70.0468 24.6798 70.6084C24.6599 71.17 24.6798 71.7315 24.6798 72.2931C24.6798 72.4948 24.6798 72.7123 24.6798 72.9259C25.2189 71.7948 25.7936 70.6756 26.416 69.592C26.0196 67.219 26.5349 64.7512 27.0185 62.4416C27.0185 62.3941 27.0978 62.4139 27.0898 62.4416C26.8516 63.6495 26.7255 64.8767 26.7133 66.1077C26.6895 67.0806 26.737 68.0496 26.741 69.0225C26.8758 68.7891 27.0145 68.5558 27.1374 68.3264C27.8773 67.1162 28.6701 65.9298 29.5158 64.767C29.4489 64.2059 29.4676 63.6378 29.5713 63.0823C29.6578 62.4591 29.7903 61.8431 29.9677 61.2393C30.15 60.6329 30.3601 60.0383 30.5979 59.4557C30.8477 58.8585 31.1767 58.289 31.4145 57.6878C31.4187 57.6789 31.4263 57.672 31.4356 57.6687C31.4449 57.6654 31.4551 57.6658 31.4641 57.67C31.473 57.6742 31.4799 57.6818 31.4832 57.6911C31.4866 57.7003 31.4861 57.7106 31.4819 57.7195C31.1788 58.2873 30.9395 58.8868 30.7684 59.5071C30.5791 60.0897 30.423 60.6826 30.3006 61.2828C30.1778 61.8839 30.0787 62.4693 29.9954 63.0902C29.9399 63.4857 29.9042 63.9088 29.8329 64.3162C31.0726 62.709 32.4222 61.1894 33.8722 59.7681C33.9078 59.7365 33.9554 59.7879 33.9237 59.8235C31.7461 62.2556 29.8006 64.8851 28.1125 67.6778C28.0491 67.7806 27.9897 67.8874 27.9302 67.9942C28.2434 67.7965 28.6041 67.6422 28.9014 67.4761C29.4563 67.1676 30.0126 66.8631 30.5702 66.5625L32.1875 65.7004C32.465 65.5461 32.7385 65.384 33.0199 65.2416C33.3577 65.0903 33.6825 64.9118 33.9911 64.7077C34.0347 64.6721 34.0783 64.7394 34.0347 64.7631C33.4837 65.0676 32.9961 65.5145 32.4491 65.8546C31.9021 66.1947 31.3709 66.523 30.816 66.8315C29.8012 67.397 28.6952 67.8044 27.6963 68.3897C27.0026 69.5999 26.3644 70.8457 25.7738 72.1112C26.3816 71.7236 27 71.3532 27.6289 70.9999C28.0333 70.7758 28.4415 70.5543 28.8538 70.3355C29.2619 70.1488 29.6476 69.9166 30.0033 69.6434C30.039 69.6117 30.0906 69.6434 30.0549 69.6948C29.3947 70.2967 28.6624 70.8147 27.8747 71.2372C27.1374 71.6643 26.3961 72.0796 25.6351 72.4513C25.0193 73.7881 24.467 75.1485 23.9781 76.5327C21.572 83.3311 20.6881 90.5488 20.2639 97.7189C20.141 99.8545 20.0736 101.99 20.0459 104.13C20.0181 106.269 20.1331 108.401 20.1291 110.537C20.1291 110.6 20.0261 110.616 20.0181 110.537C19.7605 108.638 19.7129 106.712 19.6217 104.806C19.5306 102.9 19.5464 100.899 19.59 98.9647Z" fill="#263238"/>
<path d="M29.9758 68.1874C31.0212 67.7235 32.0366 67.1952 33.0162 66.6055C34.0098 66.0478 34.9731 65.4379 35.9019 64.7783C35.9019 64.7783 35.9336 64.7783 35.9019 64.806C35.024 65.5153 34.0967 66.1616 33.1271 66.7399C32.1122 67.3029 31.0638 67.8035 29.9877 68.2388C29.9679 68.2705 29.9322 68.2032 29.9758 68.1874Z" fill="#263238"/>
<path d="M28.319 60.4996C28.4062 60.1713 28.5092 59.8431 28.6242 59.5188C28.6242 59.5188 28.6004 59.499 28.6242 59.4832C28.6956 59.2973 28.7709 59.1154 28.8462 58.9334C28.8462 58.9097 28.8462 58.886 28.8739 58.8662C28.9017 58.8464 28.9017 58.799 28.9175 58.7634C28.9334 58.7278 28.9175 58.7634 28.9175 58.7634C28.9175 58.7634 28.8819 58.8899 28.862 58.9532C28.8547 58.9893 28.8454 59.0249 28.8343 59.06C28.4547 60.3276 28.1711 61.6218 27.986 62.9318C27.986 62.9713 27.9147 62.9753 27.9186 62.9318C27.9745 62.1102 28.1086 61.2958 28.319 60.4996Z" fill="#263238"/>
<path d="M13.5493 100.345L13.9576 105.17L15.2062 119.882H28.5846L29.8332 105.17L30.2415 100.345H13.5493Z" fill="#455A64"/>
<path d="M13.5493 100.345L13.9576 105.17H29.8332L30.2415 100.345H13.5493Z" fill="#263238"/>
<path d="M12.2374 103.034H31.5537V98.4065H12.2374V103.034Z" fill="#455A64"/>
<path d="M69.2145 98.3355C68.8934 98.3553 67.395 98.4423 65.2109 98.5807C64.3903 97.2163 63.3993 94.788 63.657 91.284C63.7006 90.7066 62.4678 94.0722 63.1773 98.7073C58.9478 98.9643 53.2001 99.3124 48.1738 99.5694C48.0033 97.6157 47.7576 95.8123 47.7576 95.8123C47.6447 97.1019 47.4179 98.379 47.0797 99.6288C46.394 99.6723 45.7201 99.696 45.074 99.7276C45.1057 96.6824 44.3961 91.4066 44.3961 91.4066C44.1405 94.3247 43.4067 97.1811 42.2239 99.8621C39.0527 99.9926 36.928 100.02 37.0707 99.8621C41.6927 94.1552 38.0379 91.106 39.2311 86.1901C40.6621 80.2974 45.6646 79.1861 45.3514 74.812C45.1057 71.2526 44.4199 64.8062 48.8794 63.2559C50.0556 62.0193 51.5708 61.1557 53.236 60.7731C54.9011 60.3905 56.6423 60.5057 58.2422 61.1045C65.4725 63.5644 63.0624 74.6578 63.6332 76.8725C64.426 80.0364 66.0116 81.1081 67.28 84.7071C68.5485 88.306 66.9907 90.8569 66.8836 93.3603C66.7766 95.8637 70.0152 98.2999 69.2145 98.3355Z" fill="#263238"/>
<path d="M36.8647 99.0794C37.4878 98.0968 37.9695 97.0318 38.2957 95.9155C38.6208 94.8161 38.4226 93.7127 38.157 92.5697C37.8573 91.4175 37.6178 90.2506 37.4395 89.0736C37.2633 87.8444 37.3361 86.5923 37.6536 85.3917C37.9996 84.1905 38.6181 83.0849 39.4611 82.1605C40.2764 81.2807 41.1634 80.4698 42.113 79.7362C43.033 79.0332 43.8566 78.2128 44.5627 77.2961C45.2376 76.3447 45.6392 75.2274 45.7242 74.0649C45.8164 75.2731 45.54 76.4809 44.9314 77.5294C44.2901 78.552 43.4976 79.472 42.5808 80.2583C41.7094 81.026 40.8873 81.8476 40.1192 82.7182C39.3964 83.57 38.8651 84.5667 38.5613 85.6408C38.2845 86.7282 38.2133 87.8574 38.3512 88.9708C38.4583 90.1098 38.7159 91.2488 38.9101 92.4234C39.0189 93.0215 39.0812 93.6271 39.0965 94.2347C39.0935 94.8589 38.9794 95.4775 38.7595 96.0619C38.3093 97.1703 37.668 98.1916 36.8647 99.0794Z" fill="#263238"/>
<path d="M62.4087 65.0396C62.9538 66.3955 63.3319 67.8125 63.5345 69.2594C63.7723 70.699 63.9308 72.1464 64.0854 73.586L64.3193 75.7374C64.3841 76.4316 64.5169 77.1177 64.7157 77.7861C65.1121 79.107 65.9049 80.242 66.8008 81.3968C67.2542 81.9882 67.6674 82.6091 68.0375 83.2556C68.4052 83.9199 68.6977 84.6229 68.9096 85.3517C69.0957 86.078 69.2281 86.8169 69.306 87.5625C69.3859 88.314 69.3726 89.0724 69.2663 89.8207C69.1633 90.5682 68.9809 91.2761 68.8303 91.9721C68.6775 92.6637 68.5912 93.3682 68.5726 94.0761C68.5781 94.7845 68.7525 95.4814 69.0812 96.1092C69.41 96.7371 69.8838 97.2779 70.4634 97.6869C69.8053 97.3268 69.2469 96.8096 68.8381 96.1816C68.4293 95.5536 68.1828 94.8343 68.1208 94.088C68.0809 93.3454 68.1168 92.6007 68.2278 91.8654C68.3269 91.1337 68.4815 90.4337 68.537 89.7376C68.6266 88.3419 68.4614 86.9416 68.0494 85.6048C67.8426 84.9454 67.5676 84.3092 67.2289 83.7065C66.872 83.098 66.4747 82.514 66.0397 81.9584C65.5883 81.3714 65.1676 80.7615 64.7791 80.1313C64.3865 79.4771 64.0763 78.7771 63.8555 78.0471C63.6625 77.3195 63.5391 76.5753 63.4869 75.8245C63.4195 75.0928 63.3799 74.3691 63.3402 73.6453C63.257 72.1978 63.1896 70.7543 63.0667 69.3187C62.995 67.8736 62.7745 66.4397 62.4087 65.0396Z" fill="#263238"/>
<path d="M173.978 143.389C172.741 143.86 136.863 145.458 135.46 144.659C135.306 144.568 135.349 142.986 134.822 138.901C134.794 138.707 133.974 137.948 132.697 136.88C127.901 132.866 116.624 124.406 116.624 124.406L134.529 108.887L151.883 125.893L156.394 130.319C156.394 130.319 171.061 137.271 172.503 138.315C173.946 139.359 175.207 142.915 173.978 143.389Z" fill="#DD6A57"/>
<path d="M173.978 143.39C172.742 143.86 136.864 145.458 135.457 144.659C135.306 144.568 135.346 142.986 134.818 138.901C139.952 139.692 167.323 141.096 168.258 137.88C168.631 136.615 164.564 134.321 163.831 133.902C167.699 135.776 171.758 137.797 172.508 138.319C173.947 139.367 175.207 142.915 173.978 143.39Z" fill="#263238"/>
<path d="M145.553 117.96L142.778 121.104L129.003 136.797C129.003 136.797 110.044 123.045 104.474 118.505C104.296 118.355 82.3949 133.815 66.3806 136.797C54.0923 139.086 45.768 134.463 40.9438 123.042L61.2353 114.084C78.2407 105.719 97.4025 92.4072 108.989 93.8072C121.575 95.3298 145.553 117.96 145.553 117.96Z" fill="#37474F"/>
<path d="M141.22 116.812C138.39 119.865 139.163 118.952 136.368 122.037C134.997 123.547 128.104 131.133 127.065 132.735C127.041 132.77 127.089 132.814 127.124 132.79C128.611 131.564 135.342 123.848 136.682 122.313C139.421 119.181 138.6 120.051 141.307 116.891C141.316 116.88 141.319 116.865 141.318 116.851C141.316 116.837 141.309 116.823 141.299 116.814C141.288 116.804 141.274 116.799 141.26 116.798C141.245 116.798 141.231 116.803 141.22 116.812Z" fill="#263238"/>
<path d="M140.598 123.599L129.015 136.801C129.015 136.801 110.044 123.046 104.474 118.506C104.296 118.355 82.3949 133.815 66.3845 136.801C54.0963 139.087 45.7521 134.463 40.9438 123.042L61.2353 114.08C63.4869 112.973 65.7741 111.782 68.0811 110.548C85.8991 113.787 124.948 120.795 140.598 123.599Z" fill="#263238"/>
<path d="M171.025 150.037C169.792 150.512 133.91 152.106 132.507 151.307C132.353 151.216 132.396 149.638 131.869 145.549C131.841 145.355 131.025 144.596 129.744 143.528C124.948 139.514 113.67 131.058 113.67 131.058L131.576 115.531L148.93 132.537L153.441 136.959C153.441 136.959 168.107 143.911 169.554 144.955C171.001 145.999 172.262 149.563 171.025 150.037Z" fill="#DD6A57"/>
<path d="M171.029 150.037C169.792 150.508 133.911 152.109 132.507 151.307C132.353 151.216 132.396 149.638 131.865 145.552C136.999 146.323 164.37 147.747 165.309 144.528C165.682 143.266 161.611 140.969 160.877 140.549C164.746 142.424 168.805 144.445 169.555 144.971C170.993 146.019 172.262 149.562 171.029 150.037Z" fill="#263238"/>
<path d="M159.934 140.182C158.475 139.391 157.025 138.6 155.542 137.888C154.838 137.58 154.183 137.173 153.596 136.678C152.989 136.128 152.407 135.539 151.824 134.973C149.418 132.683 147.02 130.382 144.594 128.108C143.282 126.878 141.985 125.636 140.685 124.394C140.653 124.362 140.598 124.394 140.626 124.442C140.705 124.564 142.893 126.898 143.944 127.953C145.133 129.14 146.322 130.307 147.511 131.473L151.079 134.954C151.677 135.539 152.268 136.116 152.882 136.694C153.415 137.226 154.032 137.666 154.71 137.995C156.41 138.786 158.138 139.533 159.863 140.273C159.946 140.297 159.994 140.214 159.934 140.182Z" fill="#263238"/>
<path d="M37.6579 119.486C37.6579 119.486 35.0258 133.862 42.5573 140.004C47.9642 144.437 55.0993 144.872 61.2553 144.006C78.3003 141.59 92.737 121.068 98.4055 119.957C101.311 119.395 124.171 141.954 124.171 141.954L141.934 124.802C137.415 120.886 110.476 93.7124 96.8794 93.7124C87.572 93.7124 63.9785 113.004 63.4038 112.779C62.4762 112.407 58.3458 110.43 58.3458 110.43L37.6579 119.486Z" fill="#37474F"/>
<path d="M138.342 122.974C136.119 124.841 134.041 126.878 131.941 128.863C129.84 130.848 127.771 132.838 125.721 134.859C124.556 136.005 123.398 137.156 122.28 138.339C122.249 138.367 122.28 138.41 122.324 138.382C124.52 136.484 126.625 134.491 128.73 132.497C130.835 130.504 132.9 128.543 134.957 126.51C136.123 125.371 137.3 124.228 138.402 123.034C138.438 122.994 138.382 122.943 138.342 122.974Z" fill="#263238"/>
<path d="M51.7613 117.271C51.7296 117.192 51.6107 117.248 51.6305 117.323C52.1403 119.479 51.8737 121.746 50.8774 123.726C49.7238 125.921 47.6309 127.495 45.7718 129.057C45.5934 129.211 45.8193 129.492 46.0175 129.377C47.2225 128.674 48.347 127.841 49.3711 126.894C50.3191 126.059 51.0866 125.04 51.6265 123.9C52.1094 122.865 52.3707 121.741 52.394 120.6C52.4172 119.459 52.2017 118.325 51.7613 117.271Z" fill="#263238"/>
<path d="M63.7365 114.215C63.2133 113.819 62.6583 113.475 62.1232 113.103C60.8547 112.229 59.5783 111.355 58.2742 110.533C58.1513 110.457 58.0046 110.651 58.1235 110.742C59.0432 111.438 59.9906 112.095 60.93 112.759C61.4136 113.103 61.8933 113.443 62.3808 113.78C62.8677 114.068 63.3245 114.405 63.7444 114.784C64.1408 115.199 63.9149 115.713 63.4194 115.903C62.9738 116.039 62.4928 116 62.0756 115.793C61.1203 115.397 60.2561 114.709 59.396 114.151C58.8674 113.806 58.3389 113.466 57.8104 113.131C57.2435 112.775 56.6569 112.455 56.094 112.099C56.0583 112.075 56.0147 112.134 56.0504 112.162C56.5697 112.557 57.0691 113.02 57.5924 113.435C58.1156 113.851 58.6428 114.258 59.178 114.661C59.7131 115.065 60.1967 115.409 60.716 115.765C61.1581 116.084 61.6495 116.328 62.1707 116.489C63.0151 116.714 64.2994 116.461 64.4302 115.417C64.4325 115.173 64.3693 114.933 64.2474 114.721C64.1254 114.51 63.949 114.335 63.7365 114.215Z" fill="#263238"/>
<path d="M140.76 123.441C139.638 122.29 138.457 121.195 137.288 120.095C136.118 118.996 134.957 117.916 133.776 116.844C131.397 114.689 128.999 112.557 126.546 110.493C124.092 108.428 121.563 106.439 118.974 104.541C116.386 102.642 113.786 100.879 111.046 99.2611C109.679 98.4503 108.272 97.6791 106.857 96.9514C105.469 96.2195 104.044 95.5595 102.587 94.974C102.191 94.8277 101.795 94.6813 101.398 94.5192C101.339 94.4955 101.287 94.5825 101.347 94.6062C102.076 94.9345 102.778 95.322 103.491 95.678C104.205 96.0339 104.89 96.3938 105.584 96.7576C106.979 97.4972 108.359 98.2684 109.723 99.0752C112.455 100.697 115.117 102.432 117.71 104.28C120.306 106.131 122.823 108.084 125.277 110.113C127.731 112.142 130.188 114.242 132.583 116.378C134.977 118.513 137.32 120.657 139.718 122.781C140.019 123.046 140.32 123.311 140.629 123.572C140.648 123.58 140.668 123.582 140.688 123.578C140.708 123.575 140.726 123.565 140.74 123.551C140.754 123.537 140.764 123.519 140.767 123.499C140.771 123.48 140.768 123.459 140.76 123.441Z" fill="#263238"/>
<path d="M123.255 136.053C117.781 130.856 102.956 117.619 99.5984 115.404C99.26 115.184 98.8801 115.036 98.4819 114.968C98.0838 114.9 97.6759 114.914 97.2834 115.009C96.4193 115.223 95.7256 115.863 95.0438 116.401L92.6059 118.327L87.5995 122.282C84.4719 124.762 81.3642 127.265 78.2049 129.701C75.4153 131.92 72.4617 133.926 69.3692 135.701C63.4233 138.999 55.8918 141.107 49.3473 138.26C46.3662 136.934 43.9708 134.571 42.6086 131.612C41.1934 128.665 40.5949 125.391 40.2302 122.167C40.143 121.376 40.0716 120.605 40.0082 119.822C40.01 119.817 40.0106 119.812 40.01 119.807C40.0093 119.802 40.0074 119.797 40.0045 119.793C40.0016 119.789 39.9977 119.785 39.9932 119.783C39.9886 119.781 39.9836 119.779 39.9785 119.779C39.9734 119.779 39.9683 119.781 39.9638 119.783C39.9593 119.785 39.9554 119.789 39.9525 119.793C39.9495 119.797 39.9477 119.802 39.947 119.807C39.9464 119.812 39.947 119.817 39.9488 119.822C40.254 125.901 41.2172 132.952 46.3743 136.951C51.8565 141.198 59.5664 140.459 65.6233 137.979C72.4135 135.21 78.1058 130.338 83.7901 125.83L93.7277 117.951C94.5205 117.315 95.3133 116.65 96.1418 116.041C96.9702 115.432 97.9414 114.977 98.8888 115.527C102.028 117.35 122.383 135.531 123.105 136.164C123.216 136.258 123.342 136.132 123.255 136.053Z" fill="#263238"/>
<path d="M56.1138 88.5987C59.7646 90.8094 78.2049 100.958 84.2262 97.9203C91.5238 94.2343 99.2298 87.1195 101.83 82.8364C103.285 80.4358 91.2463 73.5504 89.6647 75.5397C87.1754 78.7036 80.7101 84.5331 79.5368 85.4269C78.3635 86.3207 65.6313 83.5918 58.508 83.1093C52.0904 82.6624 53.5412 87.0563 56.1138 88.5987Z" fill="#DD6A57"/>
<path d="M106.02 77.1689C104.926 79.9135 100.471 84.6514 98.9684 85.3831C97.466 86.1147 89.1298 78.8457 89.2369 77.1293C89.3439 75.4129 93.7478 66.4512 96.372 64.9642C98.9961 63.4771 107.158 74.3095 106.02 77.1689Z" fill="#DD6A57"/>
<path d="M89.7162 75.4568C89.7162 75.4568 89.7598 71.6127 88.6618 68.4092C87.7421 65.712 86.0654 61.8165 87.5003 61.2667C90.4416 60.1396 94.6156 69.8606 94.6156 69.8606C94.6156 69.8606 95.7652 74.4443 92.9507 75.8167C92.4307 76.06 91.8534 76.1551 91.2826 76.0916C90.7118 76.0281 90.1697 75.8084 89.7162 75.4568Z" fill="#DD6A57"/>
<path d="M92.7964 68.0492C93.0541 69.5956 94.7308 68.4091 94.7308 68.4091C94.7308 68.4091 92.729 70.695 93.609 72.186C94.4652 73.6177 96.4393 72.1148 96.582 72.008C96.4789 72.1306 94.6951 74.2821 95.7337 75.6861C96.7722 77.09 98.5402 75.2906 98.6512 75.1798C98.5877 75.3262 97.791 77.272 98.8256 78.1618C100.605 79.6844 102.79 74.7646 104.577 74.1555C104.577 74.1555 105.965 77.0742 106.02 77.1533C106.02 77.1533 108.184 72.5143 107.209 70.1374C107.075 69.7903 106.825 69.4996 106.502 69.3133C106.179 69.1271 105.802 69.0564 105.433 69.1131C105.433 69.1131 106.298 67.6933 105.513 66.5582C105.116 65.9808 103.816 66.1074 103.816 66.1074C103.816 66.1074 104.462 64.9447 103.701 63.9797C103.095 63.1887 101.898 63.4576 101.898 63.4576C101.898 63.4576 101.993 62.0537 101.105 61.4802C99.3726 60.274 92.2454 64.743 92.7964 68.0492Z" fill="#DD6A57"/>
<path d="M101.715 63.4658C101.72 63.4658 101.725 63.4637 101.729 63.46C101.733 63.4563 101.735 63.4513 101.735 63.446C101.735 63.4408 101.733 63.4358 101.729 63.4321C101.725 63.4284 101.72 63.4263 101.715 63.4263C98.8953 64.3503 96.4245 66.1091 94.6314 68.4687C94.5759 68.5478 94.675 68.6704 94.7543 68.5953C96.8138 66.5588 99.1584 64.831 101.715 63.4658Z" fill="#263238"/>
<path d="M103.855 66.0715C103.883 66.0715 103.855 66.0082 103.828 66.02C101.053 66.9613 98.0681 69.0851 96.4587 71.9919C96.4032 72.0907 96.4587 72.2371 96.5261 72.1263C97.747 70.2755 101.441 67.3133 103.855 66.0715Z" fill="#263238"/>
<path d="M98.6075 75.4211C100.261 72.6922 102.623 70.7701 105.346 69.1447C105.382 69.121 105.346 69.0735 105.315 69.0854C103.773 69.5204 102.143 70.7385 100.974 71.7905C99.8617 72.744 99.0186 73.971 98.5283 75.3499C98.4926 75.4171 98.5758 75.4764 98.6075 75.4211Z" fill="#263238"/>
<path d="M94.6753 68.4092C94.6119 68.5001 94.818 68.4962 94.7546 68.5871C94.489 68.9826 93.1056 71.4861 93.8151 72.2217C94.382 72.8109 95.5712 72.455 95.9715 72.1426L96.9863 71.3516L96.3124 72.4471C96.0059 72.9344 95.7822 73.4689 95.6504 74.029C95.5747 74.2827 95.5536 74.5495 95.5884 74.8119C95.6233 75.0743 95.7133 75.3264 95.8526 75.5517C95.9831 75.756 96.1794 75.9099 96.4091 75.9883C96.6389 76.0666 96.8886 76.0647 97.1171 75.9827C97.6317 75.7831 98.0862 75.4549 98.4371 75.0296L99.4479 73.8906L98.8692 75.2906C98.7079 75.6797 98.5974 76.0877 98.5402 76.5048C98.466 76.9048 98.5129 77.3179 98.6749 77.6912C98.7538 77.8534 98.8765 77.9904 99.0292 78.0868C99.1818 78.1832 99.3584 78.2352 99.5391 78.237C99.9412 78.1783 100.319 78.0084 100.629 77.7466C101.308 77.1842 101.943 76.5707 102.528 75.9115C102.837 75.5872 103.142 75.2629 103.467 74.9505C103.774 74.6215 104.147 74.3613 104.561 74.1872C104.173 74.4025 103.831 74.6913 103.555 75.0375C103.261 75.3697 102.98 75.7138 102.698 76.0579C102.148 76.7721 101.532 77.4341 100.859 78.0353C100.498 78.3652 100.049 78.5837 99.5668 78.6641C99.2988 78.6784 99.0325 78.6145 98.8002 78.4804C98.568 78.3463 98.3798 78.1477 98.2587 77.9087C98.0481 77.46 97.9763 76.9588 98.0526 76.4692C98.1092 76.0025 98.2265 75.5452 98.4014 75.1087L98.8335 75.3697C98.4264 75.8799 97.8918 76.2741 97.2836 76.5127C96.9432 76.6373 96.5696 76.6373 96.2292 76.5127C95.898 76.383 95.6135 76.157 95.4126 75.8641C95.2365 75.5791 95.1229 75.2601 95.0792 74.9282C95.0354 74.5962 95.0626 74.2588 95.1589 73.9381C95.3148 73.3289 95.5692 72.7492 95.9121 72.2217L96.249 72.5262C95.7258 72.9217 94.4414 73.4516 93.4425 72.6488C92.3128 71.3793 94.2829 68.864 94.6753 68.4092Z" fill="#263238"/>
<path d="M94.7386 68.4093C94.4426 68.5399 94.1285 68.6253 93.807 68.6624C93.6789 68.6816 93.548 68.666 93.4281 68.6172C93.3081 68.5685 93.2035 68.4885 93.1252 68.3855C92.9875 68.134 92.923 67.8491 92.9389 67.5629C92.9389 67.2465 92.9667 66.9183 93.0023 66.5742C92.805 66.8623 92.67 67.1883 92.606 67.5313C92.5598 67.718 92.5512 67.9119 92.5804 68.1019C92.6097 68.292 92.6763 68.4744 92.7764 68.6386C92.9051 68.8079 93.0819 68.9347 93.2838 69.0025C93.477 69.0559 93.6812 69.0559 93.8744 69.0025C94.2178 68.9003 94.5202 68.6927 94.7386 68.4093Z" fill="#263238"/>
<path d="M78.1495 85.1975L73.3927 97.3784C73.3927 97.3784 62.2342 93.1784 56.867 89.8009C51.4998 86.4235 51.1074 82.9155 59.0472 82.9155C64.0735 82.9155 78.1495 85.1975 78.1495 85.1975Z" fill="#3864DD"/>
<path d="M53.6801 85.3085L53.3907 85.6645L53.4145 86.1232L53.0617 85.9888C52.9313 85.6314 52.9202 85.2416 53.03 84.8774L53.2361 85.1938L53.6801 85.3085Z" fill="#3864DD"/>
<path d="M61.3621 85.3084L61.0727 85.6644L61.0965 86.1231L60.6644 85.961L60.2363 86.1231L60.2601 85.6644L59.9707 85.3084L60.4147 85.1937L60.6644 84.8062L60.9181 85.1937L61.3621 85.3084Z" fill="#3864DD"/>
<path d="M65.1994 90.8489L64.91 91.2049L64.9338 91.6636L64.5057 91.5015L64.0776 91.6636L64.1014 91.2049L63.812 90.8489L64.256 90.7342L64.5057 90.3467L64.7554 90.7342L65.1994 90.8489Z" fill="#3864DD"/>
<path d="M69.0402 85.3084L68.7508 85.6644L68.7746 86.1231L68.3465 85.961L67.9184 86.1231L67.9422 85.6644L67.6528 85.3084L68.0968 85.1937L68.3465 84.8062L68.5963 85.1937L69.0402 85.3084Z" fill="#3864DD"/>
<path d="M72.8815 90.8489L72.5922 91.2049L72.6159 91.6636L72.1878 91.5015L71.7558 91.6636L71.7835 91.2049L71.4941 90.8489L71.9381 90.7342L72.1878 90.3467L72.4376 90.7342L72.8815 90.8489Z" fill="#3864DD"/>
<path d="M76.4291 85.6641L76.4568 86.1228L76.0247 85.9607L75.5966 86.1228L75.6204 85.6641L75.3311 85.3081L75.775 85.1934L75.9851 84.8691H76.0763L76.2784 85.1816L76.7224 85.2963L76.4291 85.6641Z" fill="#3864DD"/>
<g opacity="0.2">
<path d="M53.3908 85.6645L53.4145 86.1233L53.0617 85.9888C52.9333 85.6297 52.9222 85.2393 53.03 84.8735L53.2362 85.1899L53.6801 85.3046L53.3908 85.6645Z" fill="black"/>
<path d="M61.0727 85.6644L61.0965 86.1231L60.6644 85.961L60.2363 86.1231L60.2601 85.6644L59.9707 85.3084L60.4147 85.1937L60.6644 84.8062L60.9181 85.1937L61.3621 85.3084L61.0727 85.6644Z" fill="black"/>
<path d="M68.7508 85.6644L68.7746 86.1231L68.3465 85.961L67.9184 86.1231L67.9422 85.6644L67.6528 85.3084L68.0968 85.1937L68.3465 84.8062L68.5963 85.1937L69.0402 85.3084L68.7508 85.6644Z" fill="black"/>
<path d="M76.4291 85.6646L76.4568 86.1233L76.0247 85.9612L75.5966 86.1233L75.6204 85.6646L75.3311 85.3086L75.775 85.1939L75.9851 84.8696H76.0644L76.2665 85.1821L76.7105 85.2968L76.4291 85.6646Z" fill="black"/>
<path d="M64.91 91.2054L64.9338 91.6641L64.5057 91.502L64.0776 91.6641L64.1014 91.2054L63.812 90.8494L64.256 90.7347L64.5057 90.3472L64.7554 90.7347L65.1994 90.8494L64.91 91.2054Z" fill="black"/>
<path d="M72.5922 91.2054L72.6159 91.6641L72.1878 91.502L71.7558 91.6641L71.7835 91.2054L71.4941 90.8494L71.9381 90.7347L72.1878 90.3472L72.4376 90.7347L72.8815 90.8494L72.5922 91.2054Z" fill="black"/>
</g>
<path d="M71.4145 95.6856C72.2073 94.0443 72.8732 92.32 73.5233 90.6115C74.1734 88.903 74.768 87.2064 75.2794 85.4702C75.2794 85.4385 75.2358 85.4148 75.2239 85.4504C74.5024 87.1312 73.8404 88.8397 73.1983 90.5522C72.5561 92.2646 71.8941 93.9375 71.3511 95.6658C71.3511 95.7014 71.3986 95.7212 71.4145 95.6856Z" fill="#263238"/>
<path opacity="0.1" d="M74.7327 93.9217L73.377 97.3783C73.377 97.3783 62.2344 93.1782 56.8672 89.8008C53.4185 87.6216 52.0232 85.3911 53.5969 84.082L74.7327 93.9217Z" fill="black"/>
<path d="M65.5162 107.167L66.6499 111.308C66.6499 111.308 36.5238 134.266 35.1562 133.53C35.1562 133.53 39.6197 93.4239 47.3375 85.4628C51.1984 81.4802 55.6063 81.9034 58.3493 84.8063C59.0629 85.5458 66.5944 94.9663 67.3872 99.2732C68.069 103.07 65.5162 107.167 65.5162 107.167Z" fill="#3864DD"/>
<path d="M64.9573 93.8623C64.4974 93.0159 64.0099 92.1973 63.4866 91.3865C63.3652 91.0828 63.2249 90.7869 63.0664 90.5006C62.8524 90.0775 62.6423 89.6582 62.456 89.2232C62.4555 89.2182 62.4539 89.2135 62.4512 89.2092C62.4486 89.205 62.4449 89.2015 62.4406 89.199C62.4363 89.1964 62.4315 89.1949 62.4265 89.1946C62.4215 89.1943 62.4165 89.1951 62.4119 89.1971C62.4073 89.199 62.4033 89.2021 62.4001 89.2059C62.3969 89.2097 62.3946 89.2142 62.3935 89.2191C62.3924 89.224 62.3925 89.229 62.3937 89.2339C62.3949 89.2387 62.3972 89.2432 62.4005 89.2469C62.5987 89.678 62.7969 90.113 62.9475 90.552C62.9585 90.5751 62.9678 90.5989 62.9753 90.6232C62.781 90.3503 62.5789 90.0775 62.3846 89.8085C62.0835 89.376 61.7607 88.9589 61.4174 88.5588C61.3976 88.539 61.3699 88.5588 61.3818 88.5865C61.6355 89.0413 61.9526 89.4645 62.234 89.8995C62.5155 90.3345 62.8167 90.8091 63.114 91.256C63.7046 92.1419 64.3032 93.0159 64.9057 93.8939C64.9069 93.8987 64.9093 93.9032 64.9125 93.9069C64.9158 93.9107 64.9199 93.9136 64.9245 93.9155C64.9291 93.9173 64.9341 93.9181 64.9391 93.9177C64.9441 93.9173 64.9489 93.9157 64.9531 93.9131C64.9573 93.9105 64.9609 93.9069 64.9635 93.9027C64.9661 93.8985 64.9677 93.8937 64.9681 93.8887C64.9685 93.8838 64.9677 93.8788 64.9658 93.8742C64.964 93.8696 64.961 93.8655 64.9573 93.8623Z" fill="#263238"/>
<g opacity="0.2">
<path d="M52.9862 84.8062L53.2359 85.1898L53.6799 85.3084L53.3905 85.6683L53.4143 86.1231L52.9862 85.961L52.5581 86.1231L52.5818 85.6683L52.2925 85.3084L52.7364 85.1898L52.9862 84.8062Z" fill="black"/>
<path d="M45.304 95.7256L45.5577 96.1132L46.0017 96.2318L45.7084 96.5877L45.7361 97.0425L45.304 96.8804L44.8759 97.0425L44.8997 96.5877L44.6104 96.2318L45.0543 96.1132L45.304 95.7256Z" fill="black"/>
<path d="M52.9862 95.7256L53.2359 96.1132L53.6799 96.2318L53.3905 96.5877L53.4143 97.0425L52.9862 96.8804L52.5581 97.0425L52.5818 96.5877L52.2925 96.2318L52.7364 96.1132L52.9862 95.7256Z" fill="black"/>
<path d="M60.6644 95.7256L60.9181 96.1132L61.3621 96.2318L61.0687 96.5877L61.0965 97.0425L60.6644 96.8804L60.2363 97.0425L60.2601 96.5877L59.9707 96.2318L60.4147 96.1132L60.6644 95.7256Z" fill="black"/>
<path d="M49.1449 90.3472L49.3946 90.7347L49.8386 90.8494L49.5492 91.2093L49.573 91.6641L49.1449 91.502L48.7168 91.6641L48.7405 91.2093L48.4512 90.8494L48.8951 90.7347L49.1449 90.3472Z" fill="black"/>
<path d="M56.827 90.3472L57.0768 90.7347L57.5207 90.8494L57.2314 91.2093L57.2552 91.6641L56.827 91.502L56.395 91.6641L56.4227 91.2093L56.1294 90.8494L56.5773 90.7347L56.827 90.3472Z" fill="black"/>
<path d="M45.304 106.649L45.5577 107.033L46.0017 107.151L45.7084 107.507L45.7361 107.966L45.304 107.8L44.8759 107.966L44.8997 107.507L44.6104 107.151L45.0543 107.033L45.304 106.649Z" fill="black"/>
<path d="M52.9862 106.649L53.2359 107.033L53.6799 107.151L53.3905 107.507L53.4143 107.966L52.9862 107.8L52.5581 107.966L52.5818 107.507L52.2925 107.151L52.7364 107.033L52.9862 106.649Z" fill="black"/>
<path d="M60.6644 106.649L60.9181 107.033L61.3621 107.151L61.0687 107.507L61.0965 107.966L60.6644 107.8L60.2363 107.966L60.2601 107.507L59.9707 107.151L60.4147 107.033L60.6644 106.649Z" fill="black"/>
<path d="M41.4671 101.266L41.7169 101.654L42.1608 101.772L41.8715 102.128L41.8952 102.583L41.4671 102.421L41.039 102.583L41.0628 102.128L40.7734 101.772L41.2174 101.654L41.4671 101.266Z" fill="black"/>
<path d="M49.1449 101.266L49.3946 101.654L49.8386 101.772L49.5492 102.128L49.573 102.583L49.1449 102.421L48.7168 102.583L48.7405 102.128L48.4512 101.772L48.8951 101.654L49.1449 101.266Z" fill="black"/>
<path d="M56.827 101.266L57.0768 101.654L57.5207 101.772L57.2314 102.128L57.2552 102.583L56.827 102.421L56.395 102.583L56.4227 102.128L56.1294 101.772L56.5773 101.654L56.827 101.266Z" fill="black"/>
<path d="M64.5052 101.266L64.7549 101.654L65.1989 101.772L64.9095 102.128L64.9333 102.583L64.5052 102.421L64.0771 102.583L64.1009 102.128L63.8115 101.772L64.2555 101.654L64.5052 101.266Z" fill="black"/>
<path d="M38.0302 118.427L38.054 118.885L37.6259 118.719L37.2295 118.874C37.2771 118.569 37.3286 118.261 37.3801 117.952L37.6259 117.557L37.8756 117.952L38.3196 118.071L38.0302 118.427Z" fill="black"/>
<path d="M45.304 117.568L45.5577 117.952L46.0017 118.071L45.7084 118.427L45.7361 118.885L45.304 118.719L44.8759 118.885L44.8997 118.427L44.6104 118.071L45.0543 117.952L45.304 117.568Z" fill="black"/>
<path d="M52.9862 117.568L53.2359 117.952L53.6799 118.071L53.3905 118.427L53.4143 118.885L52.9862 118.719L52.5581 118.885L52.5818 118.427L52.2925 118.071L52.7364 117.952L52.9862 117.568Z" fill="black"/>
<path d="M41.4671 112.189L41.7169 112.573L42.1608 112.692L41.8715 113.048L41.8952 113.506L41.4671 113.34L41.039 113.506L41.0628 113.048L40.7734 112.692L41.2174 112.573L41.4671 112.189Z" fill="black"/>
<path d="M49.1449 112.189L49.3946 112.573L49.8386 112.692L49.5492 113.048L49.573 113.506L49.1449 113.34L48.7168 113.506L48.7405 113.048L48.4512 112.692L48.8951 112.573L49.1449 112.189Z" fill="black"/>
<path d="M56.827 112.189L57.0768 112.573L57.5207 112.692L57.2314 113.048L57.2552 113.506L56.827 113.34L56.395 113.506L56.4227 113.048L56.1294 112.692L56.5773 112.573L56.827 112.189Z" fill="black"/>
<path d="M64.0892 113.246V113.048L63.7998 112.692L64.2438 112.573L64.4935 112.178L64.7432 112.573L64.9137 112.617L64.0892 113.246Z" fill="black"/>
<path d="M37.6258 128.487L37.8756 128.871L38.3195 128.99L38.0301 129.346L38.0539 129.804L37.6258 129.638L37.1977 129.804L37.2215 129.346L36.9321 128.99L37.3761 128.871L37.6258 128.487Z" fill="black"/>
<path d="M41.4671 123.109L41.7169 123.493L42.1608 123.612L41.8715 123.968L41.8952 124.426L41.4671 124.26L41.039 124.426L41.0628 123.968L40.7734 123.612L41.2174 123.493L41.4671 123.109Z" fill="black"/>
<path d="M49.5492 123.967V124.054L49.2242 124.292L49.141 124.26L48.7128 124.426L48.7366 123.967L48.4473 123.611L48.8912 123.493L49.141 123.097L49.3907 123.493L49.8346 123.611L49.5492 123.967Z" fill="black"/>
</g>
<path d="M46.7746 86.2297C36.1473 97.2677 20.6522 125.217 18.7376 129.223C17.4374 131.944 31.6918 139.11 32.2983 137.133C33.0911 134.602 45.4903 103.323 48.7883 91.5213C50.6157 85.0156 48.9746 83.9517 46.7746 86.2297Z" fill="#DD6A57"/>
<path d="M32.9762 135.27C32.4807 136.622 30.7881 142.388 29.6029 143.096C28.4177 143.804 22.1982 143.658 19.0746 143.658C15.951 143.658 15.3287 142.788 15.3802 141.712C15.4318 140.636 22 140.447 22 140.447C22 140.447 13.2278 142.958 11.0199 143.365C8.81195 143.773 3.7262 145.058 2.99286 143.231C2.65989 142.408 4.05124 141.574 4.05124 141.574C4.05124 141.574 1.91863 142.195 1.57773 141.139C1.18134 139.952 2.8898 139.268 2.8898 139.268C2.8898 139.268 1.55395 139.537 1.5262 138.556C1.45485 136.361 9.80294 135.286 9.80294 135.286C9.80294 135.286 3.41304 138.386 3.20692 136.599C2.92151 134.119 16.0184 131.402 17.382 130.322C18.2728 129.569 19.0137 128.655 19.5662 127.629L32.9762 135.27Z" fill="#DD6A57"/>
<path d="M15.4277 142.258C15.4059 142.105 15.4216 141.949 15.4733 141.803C15.5251 141.657 15.6114 141.525 15.725 141.42C15.9487 141.213 16.2061 141.046 16.4861 140.925C17.066 140.679 17.667 140.486 18.2818 140.348C19.5146 140.032 20.7791 139.814 22.0396 139.486C20.7381 139.468 19.4396 139.614 18.1748 139.921C17.5294 140.069 16.9077 140.306 16.3276 140.625C16.0296 140.792 15.7682 141.016 15.5586 141.285C15.4548 141.423 15.3883 141.584 15.3653 141.755C15.3424 141.925 15.3639 142.098 15.4277 142.258Z" fill="#263238"/>
<path d="M4.05127 141.558C4.95505 141.337 5.84298 141.084 6.73487 140.827C7.62676 140.57 8.50279 140.301 9.39072 140.036L12.0307 139.209C12.9147 138.932 13.7947 138.66 14.6826 138.395C13.7603 138.492 12.8454 138.649 11.9435 138.865C11.0358 139.071 10.1478 139.332 9.25991 139.601C8.37198 139.87 7.49595 140.166 6.62784 140.495C5.75973 140.823 4.89559 141.167 4.05127 141.558Z" fill="#263238"/>
<path d="M12.5658 136.208C11.7141 136.262 10.8676 136.378 10.0328 136.556C9.1964 136.724 8.36945 136.937 7.55534 137.192C6.73833 137.44 5.93629 137.735 5.15318 138.074C4.36847 138.415 3.60939 138.811 2.88184 139.261C3.67463 138.984 4.46742 138.675 5.26021 138.406C6.053 138.137 6.84579 137.865 7.66633 137.615C8.48687 137.366 9.27966 137.125 10.0883 136.888C10.897 136.65 11.7413 136.429 12.5658 136.208Z" fill="#263238"/>
<path d="M11.2738 134.119C9.89972 134.222 8.54547 134.507 7.24639 134.965C5.9359 135.397 4.68833 135.999 3.53613 136.757C4.83631 136.294 6.09685 135.808 7.38513 135.381C8.67342 134.954 9.96567 134.538 11.2738 134.119Z" fill="#263238"/>
<path d="M32.1079 103.927L43.9205 108.048C43.9205 108.048 48.5464 96.4131 49.5652 90.1802C50.5839 83.9474 49.4026 82.6027 44.0156 88.4124C38.6286 94.2221 32.1079 103.927 32.1079 103.927Z" fill="#3864DD"/>
<g opacity="0.2">
<path d="M38.0307 96.587L38.0545 97.0418L37.6263 96.8796L37.1982 97.0418V96.7768C37.3885 96.5197 37.5946 96.2587 37.7809 95.9858L37.8602 96.1124L38.3042 96.2311L38.0307 96.587Z" fill="black"/>
<path d="M45.3045 95.7256L45.5582 96.1132L46.0022 96.2318L45.7089 96.5877L45.7366 97.0425L45.3045 96.8804L44.8764 97.0425L44.9002 96.5877L44.6108 96.2318L45.0548 96.1132L45.3045 95.7256Z" fill="black"/>
<path d="M41.8716 91.2049L41.8954 91.6636L41.4673 91.5015L41.2651 91.5766L41.9231 90.7856L42.161 90.8489L41.8716 91.2049Z" fill="black"/>
<path d="M49.4744 90.7539C49.4268 91.0149 49.3713 91.2878 49.3118 91.5449L49.1454 91.4816L48.7172 91.6437L48.741 91.185L48.4517 90.829L48.8956 90.7143L49.1454 90.3188L49.3951 90.7143L49.4744 90.7539Z" fill="black"/>
<path d="M34.1894 102.128L34.2131 102.583L33.785 102.421L33.3569 102.583L33.3807 102.128V102.108C33.5393 101.887 33.7058 101.646 33.8841 101.393L34.0506 101.654L34.4946 101.772L34.1894 102.128Z" fill="black"/>
<path d="M41.4671 101.266L41.7169 101.653L42.1608 101.772L41.8715 102.128L41.8952 102.583L41.4671 102.42L41.039 102.583L41.0628 102.128L40.7734 101.772L41.2174 101.653L41.4671 101.266Z" fill="black"/>
</g>
<path d="M48.6654 96.6468C48.1693 97.4607 47.7167 98.3003 47.3097 99.1621C47.4326 98.7666 47.5555 98.3474 47.6744 97.944C47.9677 96.9434 48.269 95.9349 48.5029 94.9185C48.501 94.9143 48.498 94.9107 48.4941 94.9082C48.4902 94.9056 48.4857 94.9043 48.4811 94.9043C48.4764 94.9043 48.4719 94.9056 48.468 94.9082C48.4642 94.9107 48.4611 94.9143 48.4593 94.9185C47.8171 96.6231 47.2701 98.3632 46.6517 100.084C46.0333 101.804 45.4348 103.512 44.8362 105.225C44.5072 106.162 44.202 107.103 43.9126 108.053L43.318 107.843C43.2784 107.819 43.2665 107.887 43.318 107.894L44.0315 108.203C44.0553 108.203 46.2078 102.749 47.0679 99.961C47.6665 98.8932 48.2135 97.7937 48.7209 96.6824C48.7232 96.6788 48.7248 96.6747 48.7256 96.6705C48.7264 96.6662 48.7263 96.6618 48.7254 96.6576C48.7245 96.6534 48.7227 96.6494 48.7202 96.6458C48.7178 96.6423 48.7146 96.6393 48.711 96.6369C48.7073 96.6346 48.7033 96.633 48.699 96.6322C48.6947 96.6315 48.6904 96.6315 48.6861 96.6324C48.6819 96.6334 48.6779 96.6351 48.6743 96.6376C48.6708 96.64 48.6677 96.6432 48.6654 96.6468Z" fill="#263238"/>
<path d="M44.3962 105.972C42.7393 105.181 41.0031 104.568 39.2827 103.944C37.5623 103.319 35.8499 102.757 34.1018 102.263C34.0661 102.263 34.0503 102.31 34.1018 102.322C35.7984 103.018 37.5187 103.651 39.255 104.268C40.9912 104.885 42.664 105.521 44.4081 106.036C44.4136 106.032 44.4178 106.026 44.4203 106.02C44.4228 106.014 44.4235 106.007 44.4223 106C44.421 105.994 44.4179 105.987 44.4133 105.983C44.4087 105.978 44.4028 105.974 44.3962 105.972Z" fill="#263238"/>
<path d="M52.6491 82.7061C48.927 83.0779 49.9219 86.8192 51.563 88.5316C52.6571 89.6785 54.8729 90.8333 56.1454 90.3785C57.4178 89.9237 56.4149 87.0841 56.4149 87.0841C56.4149 87.0841 58.5118 89.1169 59.2888 88.239C60.0657 87.361 56.5021 82.3106 52.6491 82.7061Z" fill="#263238"/>
<path d="M50.7147 84.6476C50.9248 85.1776 53.763 87.3132 56.2642 86.8347C57.057 86.6765 56.7002 83.2555 56.7002 83.2555L56.728 82.9154L57.0887 78.1696L51.1428 75.4842L50.2905 75.1401C50.2905 75.1401 50.2905 76.4492 50.2905 78.0746V78.308C50.2905 78.3989 50.2905 78.486 50.2905 78.573C50.2905 78.8142 50.2905 79.0634 50.2905 79.3125C50.2905 79.4984 50.2905 79.6843 50.2905 79.882C50.2905 80.0798 50.2905 80.2775 50.2905 80.4713C50.3387 81.8713 50.4804 83.2665 50.7147 84.6476Z" fill="#DD6A57"/>
<path d="M50.2828 78.0667C50.9371 79.2931 51.8518 80.3624 52.9629 81.1998C54.0741 82.0372 55.355 82.6227 56.7163 82.9154L57.077 78.1696L51.1311 75.4842L50.2788 75.1401C50.2788 75.1401 50.2828 76.4413 50.2828 78.0667Z" fill="#263238"/>
<path d="M62.9595 70.3389C64.4737 78.5729 59.7011 80.404 57.9213 80.7283C56.304 81.021 50.7663 81.8199 48.4078 73.7836C46.0492 65.7473 49.4067 62.449 53.0654 61.5829C56.7241 60.7168 61.4413 62.1049 62.9595 70.3389Z" fill="#DD6A57"/>
<path d="M60.2879 68.3854C60.0897 68.3854 59.8915 68.3538 59.7091 68.3379C59.5037 68.3477 59.3007 68.2908 59.1304 68.1758C59.0848 68.1287 59.0559 68.0681 59.0481 68.0032C59.0402 67.9382 59.0538 67.8725 59.0868 67.8159C59.1689 67.7129 59.2776 67.6341 59.4012 67.5881C59.5248 67.5421 59.6587 67.5306 59.7884 67.5549C60.0584 67.5584 60.3173 67.6628 60.5138 67.8475C60.5557 67.8927 60.5837 67.9489 60.5944 68.0094C60.6051 68.07 60.5982 68.1323 60.5743 68.189C60.5505 68.2457 60.5108 68.2944 60.46 68.3292C60.4092 68.3641 60.3495 68.3836 60.2879 68.3854Z" fill="#263238"/>
<path d="M54.6154 69.3739C54.8024 69.3207 54.9863 69.2573 55.1663 69.184C55.3677 69.1457 55.5505 69.0413 55.6856 68.8874C55.7199 68.8313 55.7343 68.7652 55.7264 68.6999C55.7185 68.6346 55.6888 68.5739 55.642 68.5275C55.5366 68.4485 55.4119 68.399 55.2808 68.3844C55.1497 68.3698 55.0171 68.3906 54.8968 68.4445C54.6359 68.5166 54.4113 68.6829 54.2665 68.9112C54.2365 68.9647 54.2227 69.0258 54.2268 69.087C54.2309 69.1482 54.2528 69.2069 54.2898 69.256C54.3267 69.305 54.3772 69.3423 54.435 69.3632C54.4928 69.3841 54.5555 69.3878 54.6154 69.3739Z" fill="#263238"/>
<path d="M56.1693 71.3633C56.1693 71.3633 56.1297 71.3949 56.1337 71.4186C56.2367 71.9802 56.2566 72.6407 55.7729 72.9017C55.7729 72.9017 55.7729 72.9373 55.7729 72.9334C56.3953 72.7514 56.3557 71.8774 56.1693 71.3633Z" fill="#263238"/>
<path d="M55.5789 70.8412C54.6592 70.9085 54.8574 72.7356 55.7097 72.6763C56.5619 72.617 56.3479 70.7938 55.5789 70.8412Z" fill="#263238"/>
<path d="M55.2257 70.9839C55.0791 71.1065 54.9403 71.3042 54.75 71.3438C54.5598 71.3833 54.3536 71.2172 54.1753 71.0511C54.1753 71.0313 54.1436 71.0511 54.1436 71.0748C54.1792 71.4268 54.3536 71.7709 54.7342 71.7828C55.1147 71.7946 55.2971 71.4545 55.3446 71.0946C55.3565 71.0274 55.2891 70.9364 55.2257 70.9839Z" fill="#263238"/>
<path d="M59.4593 70.7105C59.4593 70.6868 59.5068 70.7303 59.5108 70.754C59.5504 71.3235 59.6892 71.9681 60.2243 72.1026V72.1382C59.5742 72.1105 59.3958 71.2365 59.4593 70.7105Z" fill="#263238"/>
<path d="M59.8953 70.0502C60.803 69.8881 61.0607 71.7113 60.2203 71.8616C59.38 72.0118 59.1342 70.2005 59.8953 70.0502Z" fill="#263238"/>
<path d="M60.2918 70.1334C60.4504 70.2085 60.6208 70.3628 60.7913 70.3509C60.9617 70.339 61.1163 70.1176 61.2154 69.9119C61.2154 69.8882 61.2432 69.9119 61.2471 69.9119C61.3066 70.256 61.2471 70.6357 60.9141 70.7503C60.5812 70.865 60.3513 70.5882 60.2205 70.252C60.1927 70.2046 60.2284 70.1018 60.2918 70.1334Z" fill="#263238"/>
<path d="M58.9599 73.3608C58.9599 73.3608 59.1779 74.1913 59.2255 74.5908C59.2255 74.6264 59.1343 74.658 58.9995 74.6818C58.6644 74.7865 58.3068 74.7969 57.9662 74.7117C57.6256 74.6266 57.3151 74.4492 57.0691 74.1993C57.0334 74.1637 57.0691 74.1162 57.1206 74.136C57.6727 74.4217 58.3026 74.5216 58.9163 74.4207C58.9163 74.31 58.4922 73.0128 58.5516 73.0009C58.8664 72.9879 59.1814 73.0199 59.4871 73.0958C59.0907 71.3518 58.3931 69.6868 58.0165 67.9545C58.0165 67.8913 58.0918 67.8636 58.1156 67.915C58.9559 69.6116 59.4712 71.6088 59.935 73.3964C59.9866 73.61 59.1264 73.4083 58.9599 73.3608Z" fill="#263238"/>
<path d="M58.9599 74.4004C58.7948 74.7641 58.538 75.0789 58.2146 75.314C58.034 75.4342 57.8213 75.4975 57.6042 75.4959C57.1285 75.4959 57.0215 75.0728 57.0215 74.705C57.0239 74.5076 57.0492 74.3112 57.0968 74.1196C57.6718 74.4093 58.3247 74.5077 58.9599 74.4004Z" fill="#263238"/>
<path d="M58.2146 75.3263C58.034 75.4464 57.8213 75.5098 57.6042 75.5082C57.1285 75.5082 57.0215 75.085 57.0215 74.7172C57.26 74.6702 57.5075 74.7048 57.7239 74.8153C57.9404 74.9258 58.1132 75.1058 58.2146 75.3263Z" fill="#FF9ABB"/>
<path d="M48.9984 73.3486C51.0042 73.1232 51.1231 66.9061 51.1271 66.1428C51.1469 66.6253 51.2698 69.1723 51.4719 69.2593C51.6876 69.2383 51.898 69.1808 52.0943 69.0892C52.0686 68.7852 52.0686 68.4796 52.0943 68.1756C52.0943 68.0333 52.1696 68.4762 52.2885 69.022L52.6532 68.8875C52.5801 68.2399 52.5947 67.5854 52.6968 66.9417C52.7364 66.6965 52.8831 67.7722 53.1883 68.6977C54.8667 68.0675 56.6094 67.6232 58.3851 67.3728C58.8845 67.3174 59.3206 67.2897 59.7051 67.2818C59.6496 66.5304 59.5029 65.7355 59.5703 65.9055C59.7563 66.3464 59.8971 66.8048 59.9905 67.2739H60.5653C60.5375 66.2101 59.9033 64.5569 60.0935 64.8061C60.6596 65.5643 61.0753 66.4234 61.3184 67.3372C62.0517 67.4203 62.2658 67.5468 62.2698 67.357C62.2698 67.0169 61.6395 64.0824 59.1581 62.0852C56.4626 59.91 51.4006 59.7122 48.8518 63.5524C48.8518 63.5524 46.6359 65.2451 46.4734 67.7169C46.3109 70.1887 47.837 73.4751 48.9984 73.3486Z" fill="#263238"/>
<path d="M49.839 74.1793C49.839 74.1793 47.7659 71.751 46.6679 72.5103C45.5699 73.2697 47.2744 76.9121 48.7133 77.2957C48.8943 77.3574 49.0859 77.382 49.2766 77.368C49.4674 77.3539 49.6533 77.3015 49.8233 77.214C49.9932 77.1264 50.1437 77.0055 50.2656 76.8585C50.3875 76.7115 50.4784 76.5414 50.5327 76.3584L49.839 74.1793Z" fill="#DD6A57"/>
<path d="M47.1709 73.5425V73.5781C48.1817 73.8826 48.7803 74.7329 49.2282 75.6346C49.1614 75.5436 49.0759 75.4679 48.9774 75.4126C48.8788 75.3573 48.7696 75.3236 48.657 75.3139C48.5444 75.3041 48.431 75.3185 48.3244 75.3561C48.2178 75.3937 48.1205 75.4536 48.039 75.5318C48.0152 75.5318 48.039 75.5871 48.0707 75.5792C48.2366 75.5092 48.4202 75.4921 48.5962 75.5303C48.7723 75.5686 48.9321 75.6603 49.0538 75.7928C49.2587 76.0138 49.437 76.2581 49.5849 76.5205C49.6404 76.6035 49.7911 76.5205 49.7514 76.4454V76.4216C49.6444 75.1917 48.5107 73.5385 47.1709 73.5425Z" fill="#263238"/>
<path d="M90.5327 48.2391C90.2873 50.6027 89.388 52.8517 87.9352 54.7347C86.4825 56.6178 84.5335 58.0607 82.3062 58.9022C80.0788 59.7438 77.6608 59.9508 75.3223 59.5002C72.9838 59.0496 70.8169 57.9591 69.0639 56.3505L62.6304 57.2918L65.8451 51.755C65.0414 49.8023 64.739 47.6803 64.9651 45.5814C65.3194 42.1993 67.0059 39.0961 69.6534 36.9545C72.301 34.8129 75.6928 33.8083 79.0828 34.1618C82.4727 34.5153 85.5831 36.1978 87.7296 38.8393C89.8761 41.4808 90.883 44.8649 90.5287 48.247L90.5327 48.2391Z" fill="white"/>
<path d="M90.5329 48.2389C90.2836 50.6025 89.3866 52.852 87.9404 54.7406C87.231 55.6911 86.3809 56.5285 85.4193 57.2243C83.0292 59.0405 80.0718 59.9539 77.0713 59.8029C76.4754 59.7864 75.8817 59.7242 75.2954 59.617C72.9309 59.1804 70.7348 58.0959 68.9531 56.4847L69.1037 56.5322L62.6821 57.517L62.2144 57.5881L62.4522 57.1927L65.6511 51.6559V51.8773C64.8961 50.0391 64.575 48.0522 64.7124 46.0704C64.8499 44.0885 65.4423 42.1648 66.4439 40.4478C67.4448 38.7383 68.8203 37.2768 70.4673 36.1726C72.113 35.0859 73.9837 34.3848 75.9395 34.1218C77.8953 33.8588 79.8853 34.0407 81.7606 34.6539C83.6197 35.2834 85.314 36.3198 86.7195 37.6873C88.1107 39.0459 89.1762 40.7006 89.8365 42.5277C90.4969 44.3548 90.7349 46.3071 90.5329 48.2389ZM90.5329 48.2389C90.738 46.3082 90.4963 44.3564 89.8262 42.5337C89.156 40.711 88.0755 39.0661 86.6677 37.7258C85.26 36.3855 83.5626 35.3855 81.7064 34.8028C79.8502 34.2202 77.8847 34.0705 75.9614 34.3652C74.055 34.6484 72.2392 35.3642 70.6536 36.4573C69.083 37.5574 67.771 38.9851 66.8086 40.6416C65.8602 42.3039 65.3018 44.1591 65.1754 46.0676C65.0567 47.973 65.3654 49.8807 66.0792 51.6519L66.1268 51.7666L66.0673 51.8694L62.8288 57.4062L62.5989 57.0661L69.0363 56.1683H69.1235L69.187 56.2277C70.9032 57.8321 73.0335 58.9277 75.339 59.3916C75.9139 59.5082 76.4971 59.5796 77.0832 59.6051C77.6691 59.6447 78.2571 59.6447 78.8431 59.6051C80.0171 59.5144 81.1726 59.2601 82.2759 58.8497C83.3856 58.4497 84.4301 57.8886 85.3757 57.1847C85.8499 56.8351 86.3026 56.4573 86.7314 56.0537C87.1503 55.6385 87.541 55.1959 87.9008 54.7288C89.3617 52.8493 90.2727 50.6031 90.5329 48.2389Z" fill="#263238"/>
<path d="M76.4806 44.2054C77.173 44.9311 77.5592 45.8947 77.5592 46.8967C77.5592 47.8986 77.173 48.8622 76.4806 49.588C76.1575 49.9429 75.7643 50.2274 75.3256 50.4234C74.887 50.6194 74.4124 50.7228 73.9318 50.727C73.4422 50.7248 72.9581 50.6226 72.5096 50.4267C72.061 50.2308 71.6574 49.9454 71.3235 49.588C70.6426 48.8564 70.2642 47.895 70.2642 46.8967C70.2642 45.8983 70.6426 44.9369 71.3235 44.2054C71.6566 43.8471 72.0601 43.561 72.5089 43.3651C72.9576 43.1691 73.442 43.0674 73.9318 43.0664C74.4127 43.0687 74.8879 43.1712 75.3268 43.3673C75.7657 43.5634 76.1587 43.8489 76.4806 44.2054ZM76.3419 46.8987C76.3437 46.2088 76.0847 45.5436 75.6165 45.0359C75.4013 44.7978 75.1384 44.6074 74.8448 44.4771C74.5511 44.3468 74.2334 44.2795 73.912 44.2795C73.5906 44.2795 73.2729 44.3468 72.9792 44.4771C72.6856 44.6074 72.4227 44.7978 72.2075 45.0359C71.7363 45.5417 71.4767 46.2081 71.4821 46.8987C71.4753 47.5859 71.7352 48.2492 72.2075 48.7495C72.4213 48.9899 72.6838 49.1822 72.9776 49.314C73.2714 49.4457 73.5899 49.5139 73.912 49.5139C74.2341 49.5139 74.5526 49.4457 74.8464 49.314C75.1402 49.1822 75.4026 48.9899 75.6165 48.7495C76.0856 48.2472 76.345 47.5853 76.3419 46.8987Z" fill="#3864DD"/>
<path d="M79.3424 50.1409V43.9199C79.3424 43.7626 79.405 43.6117 79.5166 43.5004C79.6281 43.3892 79.7793 43.3267 79.937 43.3267C80.0947 43.3267 80.2459 43.3892 80.3574 43.5004C80.4689 43.6117 80.5316 43.7626 80.5316 43.9199V46.9691L83.9842 43.5125C84.0384 43.4573 84.1032 43.4134 84.1747 43.3834C84.2461 43.3535 84.3229 43.338 84.4004 43.338C84.4779 43.338 84.5547 43.3535 84.6261 43.3834C84.6976 43.4134 84.7624 43.4573 84.8166 43.5125C84.9237 43.6244 84.9835 43.7731 84.9835 43.9278C84.9835 44.0825 84.9237 44.2312 84.8166 44.3431L82.4501 46.6725L84.8285 49.7691C84.8785 49.8276 84.9161 49.8956 84.9391 49.969C84.9621 50.0424 84.9699 50.1197 84.9621 50.1962C84.9543 50.2727 84.9311 50.3468 84.8939 50.4141C84.8566 50.4814 84.806 50.5405 84.7453 50.5878C84.6431 50.6793 84.5099 50.7287 84.3727 50.7262C84.2882 50.7246 84.2051 50.7046 84.1291 50.6677C84.0531 50.6309 83.9861 50.5779 83.9327 50.5126L81.6336 47.503L80.5237 48.6301V50.1409C80.5237 50.2982 80.461 50.4491 80.3495 50.5604C80.238 50.6716 80.0868 50.7341 79.9291 50.7341C79.7714 50.7341 79.6201 50.6716 79.5086 50.5604C79.3971 50.4491 79.3345 50.2982 79.3345 50.1409H79.3424Z" fill="#3864DD"/>
</svg>
