<svg width="14" height="14" viewBox="0 0 14 14" fill="none" xmlns="http://www.w3.org/2000/svg">
<path d="M6.52659 9.19334C6.49792 9.22502 6.4712 9.25842 6.44659 9.29334C6.42136 9.33051 6.40118 9.37086 6.38659 9.41334C6.36737 9.45113 6.35389 9.49158 6.34659 9.53334C6.34332 9.57773 6.34332 9.62229 6.34659 9.66668C6.34434 9.75413 6.3626 9.84089 6.39992 9.92001C6.42986 10.0027 6.47763 10.0779 6.53985 10.1401C6.60206 10.2023 6.67719 10.2501 6.75992 10.28C6.83972 10.3153 6.92601 10.3335 7.01326 10.3335C7.1005 10.3335 7.18679 10.3153 7.26659 10.28C7.34932 10.2501 7.42445 10.2023 7.48667 10.1401C7.54888 10.0779 7.59665 10.0027 7.62659 9.92001C7.65619 9.83895 7.66978 9.75291 7.66659 9.66668C7.6671 9.57894 7.65028 9.49196 7.6171 9.41074C7.58393 9.32951 7.53504 9.25564 7.47326 9.19334C7.41128 9.13086 7.33755 9.08126 7.25631 9.04742C7.17507 9.01357 7.08793 8.99615 6.99992 8.99615C6.91191 8.99615 6.82478 9.01357 6.74354 9.04742C6.6623 9.08126 6.58856 9.13086 6.52659 9.19334ZM6.99992 0.333344C5.68138 0.333344 4.39245 0.724337 3.29612 1.45688C2.19979 2.18942 1.34531 3.23061 0.840725 4.44879C0.336141 5.66696 0.204118 7.00741 0.461353 8.30061C0.718588 9.59382 1.35353 10.7817 2.28588 11.7141C3.21823 12.6464 4.40611 13.2813 5.69932 13.5386C6.99253 13.7958 8.33297 13.6638 9.55115 13.1592C10.7693 12.6546 11.8105 11.8001 12.5431 10.7038C13.2756 9.60748 13.6666 8.31855 13.6666 7.00001C13.6666 6.12453 13.4942 5.25762 13.1591 4.44879C12.8241 3.63995 12.333 2.90502 11.714 2.28596C11.0949 1.66691 10.36 1.17584 9.55115 0.840813C8.74231 0.505782 7.8754 0.333344 6.99992 0.333344ZM6.99992 12.3333C5.94509 12.3333 4.91394 12.0205 4.03688 11.4345C3.15982 10.8485 2.47623 10.0155 2.07256 9.04099C1.6689 8.06645 1.56328 6.99409 1.76907 5.95953C1.97485 4.92496 2.48281 3.97465 3.22869 3.22877C3.97457 2.48289 4.92487 1.97494 5.95944 1.76916C6.99401 1.56337 8.06636 1.66899 9.0409 2.07265C10.0154 2.47632 10.8484 3.15991 11.4344 4.03697C12.0205 4.91403 12.3333 5.94518 12.3333 7.00001C12.3333 8.4145 11.7714 9.77105 10.7712 10.7712C9.77096 11.7714 8.41441 12.3333 6.99992 12.3333ZM6.99992 3.66668C6.64863 3.66645 6.30348 3.75876 5.99919 3.93431C5.69491 4.10985 5.44223 4.36245 5.26659 4.66668C5.21835 4.74256 5.18596 4.82741 5.17137 4.91613C5.15678 5.00485 5.16028 5.0956 5.18167 5.18293C5.20307 5.27027 5.2419 5.35237 5.29585 5.4243C5.34979 5.49623 5.41773 5.55651 5.49557 5.60151C5.57341 5.6465 5.65955 5.67529 5.74881 5.68613C5.83807 5.69697 5.92859 5.68965 6.01495 5.66459C6.1013 5.63954 6.18169 5.59728 6.25129 5.54036C6.32088 5.48343 6.37825 5.41301 6.41992 5.33334C6.47866 5.23161 6.56323 5.1472 6.66509 5.08866C6.76694 5.03013 6.88245 4.99954 6.99992 5.00001C7.17673 5.00001 7.3463 5.07025 7.47133 5.19527C7.59635 5.3203 7.66659 5.48987 7.66659 5.66668C7.66659 5.84349 7.59635 6.01306 7.47133 6.13808C7.3463 6.26311 7.17673 6.33334 6.99992 6.33334C6.82311 6.33334 6.65354 6.40358 6.52852 6.52861C6.40349 6.65363 6.33326 6.8232 6.33326 7.00001V7.66668C6.33326 7.84349 6.40349 8.01306 6.52852 8.13808C6.65354 8.26311 6.82311 8.33334 6.99992 8.33334C7.17673 8.33334 7.3463 8.26311 7.47133 8.13808C7.59635 8.01306 7.66659 7.84349 7.66659 7.66668V7.54668C8.1075 7.38669 8.47816 7.07683 8.71377 6.67126C8.94938 6.26568 9.03495 5.79021 8.95552 5.32794C8.87609 4.86567 8.63672 4.44602 8.27925 4.14235C7.92178 3.83869 7.46895 3.67032 6.99992 3.66668Z" fill="#777777"/>
</svg>
